<svg id="undraw_time_management_30iu_4_" data-name="undraw_time_management_30iu (4)" xmlns="http://www.w3.org/2000/svg" xmlns:xlink="http://www.w3.org/1999/xlink" width="128.868" height="100.616" viewBox="0 0 128.868 100.616">
  <defs>
    <linearGradient id="linear-gradient" x1="0.5" y1="1" x2="0.5" gradientUnits="objectBoundingBox">
      <stop offset="0" stop-color="gray" stop-opacity="0.251"/>
      <stop offset="0.54" stop-color="gray" stop-opacity="0.122"/>
      <stop offset="1" stop-color="gray" stop-opacity="0.102"/>
    </linearGradient>
    <linearGradient id="linear-gradient-2" y2="0" xlink:href="#linear-gradient"/>
  </defs>
  <path id="Path_303" data-name="Path 303" d="M94.687,73.938a4.277,4.277,0,0,0-2.168,1.583,4.651,4.651,0,0,0-.34,2.821c.795,8.328,2.888,17.184-.727,24.727-1.755,3.66-4.69,6.592-7.025,9.916s-4.1,7.473-3.013,11.383c1.324,4.777,6.264,7.426,9.594,11.1,2.18,2.4,3.708,5.325,5.741,7.853s4.82,4.757,8.067,4.905c4.669.215,8.468-3.817,13.046-4.751,4.69-.956,9.413,1.477,13.216,4.39s7.262,6.442,11.693,8.261c4.893,2.01,10.409,1.7,15.561,2.91,4.69,1.1,9.008,3.442,13.664,4.69s10.114,1.173,13.721-2.015c4.7-4.169,4.332-11.595,7.335-17.11,2.789-5.124,8.249-8.183,11.925-12.713,6.613-8.153,6.4-20.614.782-29.481s-15.786-14.236-26.186-15.634c-4.69-.629-9.52-.543-14.029-1.975-12.069-3.83-19.252-17.554-31.573-20.41-7.832-1.812-15.45,1.326-22.122,5.189C106.057,72.934,100.714,71.438,94.687,73.938Z" transform="translate(-81.087 -63.864)" fill="#a7a8c2" opacity="0.1"/>
  <path id="Path_304" data-name="Path 304" d="M163.592,347.69s-4.446,4.2-9.219,4.321a9.261,9.261,0,0,0-5.52,1.963,15.577,15.577,0,0,0-2.064,1.963" transform="translate(-138.23 -310.713)" fill="none" stroke="#535461" stroke-miterlimit="10" stroke-width="2"/>
  <path id="Path_305" data-name="Path 305" d="M118.42,410.59a10.305,10.305,0,0,1,3.088-.109,10.316,10.316,0,0,1-1.91,2.43,1.3,1.3,0,1,1-1.173-2.32Z" transform="translate(-112.87 -365.262)" fill="#a7a8c2"/>
  <path id="Path_306" data-name="Path 306" d="M134.244,383.224a10.316,10.316,0,0,1,2.651,1.587,10.409,10.409,0,0,1-2.923,1,1.3,1.3,0,0,1,.272-2.589Z" transform="translate(-126.118 -341.616)" fill="#a7a8c2"/>
  <path id="Path_307" data-name="Path 307" d="M176.819,358.77a10.34,10.34,0,0,1,1.488,2.709,10.337,10.337,0,0,1-3.029-.611,1.3,1.3,0,0,1,1.541-2.1Z" transform="translate(-162.586 -320.159)" fill="#a7a8c2"/>
  <path id="Path_308" data-name="Path 308" d="M216.738,349.685a10.33,10.33,0,0,1,1.924,2.418,10.313,10.313,0,0,1-3.089-.091,1.3,1.3,0,1,1,1.165-2.327Z" transform="translate(-197.373 -312.301)" fill="#a7a8c2"/>
  <path id="Path_309" data-name="Path 309" d="M157.143,393.183a10.3,10.3,0,0,0-.412-3.063,10.329,10.329,0,0,0-2.074,2.292,1.3,1.3,0,1,0,2.486.771Z" transform="translate(-145.004 -347.615)" fill="#a7a8c2"/>
  <path id="Path_310" data-name="Path 310" d="M202.813,383.318a10.239,10.239,0,0,0-1.309-2.8,10.288,10.288,0,0,0-1.294,2.806,1.3,1.3,0,1,0,2.606-.008Z" transform="translate(-184.691 -339.266)" fill="#a7a8c2"/>
  <path id="Path_311" data-name="Path 311" d="M246.083,364.75a10.291,10.291,0,0,0-.818-2.98,10.3,10.3,0,0,0-1.748,2.548,1.3,1.3,0,0,0,2.567.433Z" transform="translate(-222.347 -322.959)" fill="#a7a8c2"/>
  <path id="Path_312" data-name="Path 312" d="M233.19,172.583s-5.356-2.942-6.948-7.448a9.262,9.262,0,0,0-3.566-4.65,15.58,15.58,0,0,0-2.507-1.355" transform="translate(-202.05 -146.719)" fill="none" stroke="#535461" stroke-miterlimit="10" stroke-width="2"/>
  <path id="Path_313" data-name="Path 313" d="M197.812,135.109a10.3,10.3,0,0,1,1.053,2.905,10.288,10.288,0,0,1-2.9-1.071,1.3,1.3,0,0,1,1.846-1.834Z" transform="translate(-180.708 -125.531)" fill="#a7a8c2"/>
  <path id="Path_314" data-name="Path 314" d="M228.348,140.109a10.3,10.3,0,0,1-.694,3.011,10.3,10.3,0,0,1-1.851-2.475,1.3,1.3,0,1,1,2.547-.537Z" transform="translate(-206.913 -129.225)" fill="#a7a8c2"/>
  <path id="Path_315" data-name="Path 315" d="M265.086,173.548c-.227.681-2.12,2.249-2.12,2.249a10.323,10.323,0,0,1-.349-3.071,1.3,1.3,0,1,1,2.475.822Z" transform="translate(-238.921 -157.766)" fill="#a7a8c2"/>
  <path id="Path_316" data-name="Path 316" d="M285.767,209.123a10.313,10.313,0,0,1-1.709,2.574,10.322,10.322,0,0,1-.864-2.966,1.3,1.3,0,1,1,2.573.391Z" transform="translate(-256.856 -188.84)" fill="#a7a8c2"/>
  <path id="Path_317" data-name="Path 317" d="M217.362,168.693a10.3,10.3,0,0,0,2.788-1.334,10.323,10.323,0,0,0-2.818-1.269,1.3,1.3,0,1,0,.03,2.606Z" transform="translate(-198.462 -152.772)" fill="#a7a8c2"/>
  <path id="Path_318" data-name="Path 318" d="M239.617,209.359c.683-.223,2.26-2.107,2.26-2.107a10.323,10.323,0,0,0-3.068-.367,1.3,1.3,0,1,0,.808,2.475Z" transform="translate(-217.439 -188.208)" fill="#a7a8c2"/>
  <path id="Path_319" data-name="Path 319" d="M270.8,244.633a10.313,10.313,0,0,0,2.585-1.694,10.322,10.322,0,0,0-2.961-.881,1.3,1.3,0,1,0,.378,2.576Z" transform="translate(-244.741 -218.836)" fill="#a7a8c2"/>
  <circle id="Ellipse_42" data-name="Ellipse 42" cx="47.161" cy="47.161" r="47.161" transform="translate(20.836 2.919)" fill="url(#linear-gradient)"/>
  <circle id="Ellipse_43" data-name="Ellipse 43" cx="46.38" cy="46.38" r="46.38" transform="translate(21.618 3.701)" fill="#a7a8c2"/>
  <circle id="Ellipse_44" data-name="Ellipse 44" cx="36.869" cy="36.869" r="36.869" transform="translate(31.128 13.211)" fill="#dde1ec"/>
  <rect id="Rectangle_119" data-name="Rectangle 119" width="2.084" height="32.57" transform="translate(66.955 19.725)" fill="#535461" opacity="0.3"/>
  <g id="Group_99" data-name="Group 99" transform="translate(48.216 39.55)" opacity="0.1">
    <rect id="Rectangle_120" data-name="Rectangle 120" width="29.443" height="2.606" transform="translate(21.996 9.749)"/>
    <rect id="Rectangle_121" data-name="Rectangle 121" width="2.606" height="20.913" transform="translate(0 2.308) rotate(-62.36)"/>
    <circle id="Ellipse_45" data-name="Ellipse 45" cx="3.908" cy="3.908" r="3.908" transform="translate(15.873 7.143)"/>
  </g>
  <rect id="Rectangle_122" data-name="Rectangle 122" width="29.443" height="2.606" transform="translate(70.212 48.778)" fill="#535461"/>
  <rect id="Rectangle_123" data-name="Rectangle 123" width="20.913" height="2.606" transform="translate(49.434 39.032) rotate(27.64)" fill="#535461"/>
  <circle id="Ellipse_46" data-name="Ellipse 46" cx="3.908" cy="3.908" r="3.908" transform="translate(64.089 46.172)" fill="#535461"/>
  <g id="Group_100" data-name="Group 100" transform="translate(31.126 13.211)" opacity="0.1">
    <path id="Path_320" data-name="Path 320" d="M322.866,206.569A36.872,36.872,0,0,1,389.2,184.4a36.873,36.873,0,1,0-61.791,39.907A36.7,36.7,0,0,1,322.866,206.569Z" transform="translate(-320 -165.27)"/>
  </g>
  <path id="Path_321" data-name="Path 321" d="M662.232,187.185c-.438-.421-4.122,2.345-4.122,2.345s-1.312.24-1,1.14-1.374,5.942-1.374,5.942l-.687-.96a4.122,4.122,0,0,0-.546-2.423c-.025-.04-.05-.079-.074-.116l.12-.042c-.046-.615-1.029-1.552-1.552-2.01v-.2c.033-.735.327-1.51,0-2.176-.37-.76-1.453-1.141-1.544-1.975-.055-.5.281-.947.43-1.427.354-1.146-.382-2.316-1.085-3.3a4.62,4.62,0,0,0-.861-.993,4.179,4.179,0,0,0-1.035-.552,26.46,26.46,0,0,0-3.147-.912,5.014,5.014,0,0,0-3-.06,1.474,1.474,0,0,0-.651.374,4.037,4.037,0,0,0-.44,1,3.56,3.56,0,0,1-1.318,1.187,1.894,1.894,0,0,0-1,1.393c0,.833.951,1.356,1.269,2.131a3.905,3.905,0,0,1-.166,2.286,1.536,1.536,0,0,0-.02.754,1.622,1.622,0,0,0,.292.508c.2.261.408.5.618.75l-.1.038c-1.748-.18-2.873,2.04-2.873,2.04.081.017.158.036.233.059l-.074.1a9.474,9.474,0,0,0-1.283,2.245l-1.433,1.92s-.313-4.8.438-5.882-.687-1.741-.687-1.741-3.127-3.481-3.561-3.181,1.062,4.082,2.374,4.682a5.766,5.766,0,0,1-.13,1.98c-.158.494-1,5.7-1,5.7s-.749,4.381,2.686,2.215a13.146,13.146,0,0,0,4.409-5.341q.077-.16.145-.306a3.7,3.7,0,0,1,.069.489l.13,5.02a7.617,7.617,0,0,1-.789,3.585l-1.531,3.1.171.052-.1.149c-1.008,1.484-2.723,4.82.806,6.521l4.69.6-.25,1.2a32.257,32.257,0,0,0-2.5,6.182,18.521,18.521,0,0,1-1.625,4.441l.145.077c-.03.034-.061.069-.091.106a2.265,2.265,0,0,0-.542,1.136l-.636.9s-.25,3.721.25,4.622a3.246,3.246,0,0,0,1.954.988,1.287,1.287,0,0,0,1.463-1.888l-.008-.013h-.012a12.786,12.786,0,0,1-.4-3.2c.036-.2.07-.405.087-.611a2.161,2.161,0,0,1,.242-.773c.021-.04.043-.079.065-.119l.068.029c.21.09.417.175.614.249-.3.277-.521.852-.26,2.034a20.37,20.37,0,0,0,.25,3.421c.225.465,2.748,1.08,3.185.6s-.281-2.131-.281-2.131l-.022.016c-.145-.958-.323-2.672.116-3.347.177-.272.349-.554.5-.817l.1-.163h0a3.117,3.117,0,0,0,2.15.5s2.061-4.8,1.936-5.4,3.185-7.383,3.185-7.383,2.81-3.127-.624-5.282c-1.091-.687-1.885-1.148-2.462-1.459l-.483-2.527a9.242,9.242,0,0,1,.13-3.994l.521-1.988h0l.043-.169s1.312-2.7,1.249-3.962a.91.91,0,0,1,.033-.291q.021.09.047.188a24.223,24.223,0,0,0,1.357,3.825c1,2.249,2.475,2.07,3.286,1.751a1.122,1.122,0,0,0,.692-.81c.292-1.4,1.093-5.319,1.144-6.4a18.2,18.2,0,0,1,.313-2.521C660.921,189.706,662.669,187.606,662.232,187.185Z" transform="translate(-560.168 -164.226)" fill="url(#linear-gradient-2)"/>
  <path id="Path_322" data-name="Path 322" d="M720.575,530.935s-.275.551-.651,1.213c-.147.26-.311.541-.479.81-.6.952,0,3.987,0,3.987l-1.3.179-1.3-.651-.238-2.2v-1.61L718.085,531l.651-.719Z" transform="translate(-633.805 -469.515)" fill="#f8bdc5"/>
  <g id="Group_101" data-name="Group 101" transform="translate(84.277 60.765)" opacity="0.1">
    <path id="Path_323" data-name="Path 323" d="M730.472,530.935s-.275.551-.651,1.213a16.124,16.124,0,0,1-1.665-1.024l-.115-.081L727.98,531l.651-.719Z" transform="translate(-727.98 -530.28)"/>
  </g>
  <path id="Path_324" data-name="Path 324" d="M725.274,393.454s-3.154,6.724-3.034,7.319-1.845,5.356-1.845,5.356c-.448.211-1.272-.092-2.048-.5a16.045,16.045,0,0,1-1.694-1.042l-.115-.081-.069-.049,5.177-14.341-4.581-3.36-.339-.249L714.68,385l6.253,1.131s.218-.027,1.368.616c.552.309,1.32.771,2.38,1.467C727.95,390.36,725.274,393.454,725.274,393.454Z" transform="translate(-632.135 -343.162)" fill="#5e52ad"/>
  <g id="Group_102" data-name="Group 102" transform="translate(82.545 41.838)" opacity="0.03">
    <path id="Path_325" data-name="Path 325" d="M725.274,393.454s-3.154,6.724-3.034,7.319-1.845,5.356-1.845,5.356c-.448.211-1.272-.092-2.048-.5a16.045,16.045,0,0,1-1.694-1.042l-.115-.081-.069-.049,5.177-14.341-4.581-3.36-.339-.249L714.68,385l6.253,1.131s.218-.027,1.368.616c.552.309,1.32.771,2.38,1.467C727.95,390.36,725.274,393.454,725.274,393.454Z" transform="translate(-714.68 -385)"/>
  </g>
  <path id="Path_326" data-name="Path 326" d="M714.946,544.4s-1.548-.238-1.011,2.262a20.87,20.87,0,0,0,.238,3.387c.215.456,2.619,1.071,3.034.6s-.268-2.112-.268-2.112-1.755,1.279-2.232-.09S714.946,544.4,714.946,544.4Z" transform="translate(-631.389 -481.79)" fill="#5d3e53"/>
  <path id="Path_327" data-name="Path 327" d="M690.39,532.858a1.874,1.874,0,0,0-.405.563,2.207,2.207,0,0,0-.231.766c-.016.2-.048.405-.082.606a14.684,14.684,0,0,0,.421,3.361l-2.262.357-.832-.892-.179-1.963a7.113,7.113,0,0,0,.357-2.085,2.184,2.184,0,0,1,.521-1.3,3.578,3.578,0,0,1,.6-.6S690.866,532.441,690.39,532.858Z" transform="translate(-607.905 -470.724)" fill="#f8bdc5"/>
  <g id="Group_103" data-name="Group 103" transform="translate(79.798 60.943)" opacity="0.1">
    <path id="Path_328" data-name="Path 328" d="M696.286,532.841a1.875,1.875,0,0,0-.405.563c-.926-.418-1.9-.946-2.254-1.141l-.027-.014a3.577,3.577,0,0,1,.6-.6S696.763,532.424,696.286,532.841Z" transform="translate(-693.6 -531.65)"/>
  </g>
  <path id="Path_329" data-name="Path 329" d="M687.794,391.669s-1.487,2.8-2.44,5.117c-.625,1.524-1.918,5.154-2.736,7.465l-.12.341c-.359,1.023-.6,1.715-.6,1.715a1.551,1.551,0,0,1-.468-.069c-.141-.038-.3-.089-.466-.151l-.189-.072c-.188-.073-.391-.158-.585-.246-.946-.422-1.954-.972-2.32-1.172l-.138-.077a18.821,18.821,0,0,0,1.552-4.407,32.565,32.565,0,0,1,2.38-6.123l.238-1.191-4.463-.6c-3.363-1.681-1.729-4.994-.769-6.465a8.7,8.7,0,0,1,.53-.739l3.571.782s.563.18,1.813.734l.575.261c.7.322,1.563.736,2.606,1.268C689.28,389.82,687.794,391.669,687.794,391.669Z" transform="translate(-597.988 -343.162)" fill="#5e52ad"/>
  <path id="Path_330" data-name="Path 330" d="M688.076,549.273a1.264,1.264,0,0,1-1.394,1.871,3.058,3.058,0,0,1-1.858-.98c-.476-.892-.238-4.582-.238-4.582l.625-.922s-.327,4.076.447,4.43a6.169,6.169,0,0,0,2.41.165Z" transform="translate(-605.91 -482.022)" fill="#5d3e53"/>
  <path id="Path_331" data-name="Path 331" d="M694.93,181.505a1.391,1.391,0,0,0-.625.371,4.3,4.3,0,0,0-.42.991,3.413,3.413,0,0,1-1.256,1.173,1.866,1.866,0,0,0-.95,1.381c0,.826.912,1.344,1.209,2.112a4.021,4.021,0,0,1-.158,2.267,1.583,1.583,0,0,0-.018.748,1.623,1.623,0,0,0,.279.5,12.889,12.889,0,0,1,1.673,2.365,7.321,7.321,0,0,1,.449,2.156,10.832,10.832,0,0,1,.021,3.172.32.32,0,0,0,0,.192.3.3,0,0,0,.152.13,3.127,3.127,0,0,0,4.233-1.563c.261-.59.361-1.3.877-1.686a.439.439,0,0,1,.21-.1.614.614,0,0,1,.339.113,3.336,3.336,0,0,0,2.228.224,2.071,2.071,0,0,0,1.21-.6c.588-.7.26-1.742.3-2.652a4.586,4.586,0,0,0,0-2.156c-.352-.753-1.385-1.131-1.471-1.954a3.8,3.8,0,0,1,.41-1.414c.337-1.137-.364-2.3-1.033-3.275a4.537,4.537,0,0,0-.819-.984,3.934,3.934,0,0,0-.985-.547,24.068,24.068,0,0,0-3-.9A4.535,4.535,0,0,0,694.93,181.505Z" transform="translate(-612.132 -166.002)" fill="#85555c"/>
  <path id="Path_332" data-name="Path 332" d="M728.507,243.72h-3.452v-5.594a10.424,10.424,0,0,0,.18-1.628c0-.184,0-.371,0-.56a2.88,2.88,0,0,0-.533-1.739c-.952-1.071,3.094-.892,3.094-.892a10.078,10.078,0,0,0,.482,1.441,8.762,8.762,0,0,0,1.16,2.042,4.723,4.723,0,0,0,1.572,1.338C733.386,239.317,728.507,243.72,728.507,243.72Z" transform="translate(-640.725 -211.221)" fill="#f8bdc5"/>
  <g id="Group_104" data-name="Group 104" transform="translate(83.827 22.073)" opacity="0.1">
    <path id="Path_333" data-name="Path 333" d="M728.247,234.746a3.159,3.159,0,0,1-3.043,1.191,2.88,2.88,0,0,0-.533-1.739c-.952-1.071,3.094-.892,3.094-.892A10.085,10.085,0,0,0,728.247,234.746Z" transform="translate(-724.526 -233.294)"/>
  </g>
  <ellipse id="Ellipse_47" data-name="Ellipse 47" cx="3.154" cy="3.154" rx="3.154" ry="3.154" transform="translate(81.889 18.278)" fill="#f8bdc5"/>
  <path id="Path_334" data-name="Path 334" d="M789.438,245.013a18.745,18.745,0,0,0-.3,2.5c-.048,1.072-.812,4.96-1.09,6.347a1.1,1.1,0,0,1-.659.8c-.774.317-2.181.494-3.127-1.735a24.659,24.659,0,0,1-1.294-3.791,10.241,10.241,0,0,1-.261-1.326l2.085-1.131a2.57,2.57,0,0,1,.492.632,4.226,4.226,0,0,1,.521,2.4l.651.952s1.606-5,1.3-5.891.952-1.131.952-1.131,3.511-2.736,3.928-2.32S791.4,243.822,789.438,245.013Z" transform="translate(-691.302 -218.166)" fill="#f8bdc5"/>
  <path id="Path_335" data-name="Path 335" d="M645.959,236.043a14.08,14.08,0,0,1-.56,1.368,12.924,12.924,0,0,1-4.2,5.3c-3.273,2.142-2.559-2.2-2.559-2.2s.8-5.164.952-5.653a6.177,6.177,0,0,0,.118-1.963c-1.249-.6-2.677-4.344-2.262-4.642s3.387,3.154,3.387,3.154,1.369.651.651,1.726-.417,5.831-.417,5.831l1.377-1.9a9.5,9.5,0,0,1,1.223-2.225c.261-.356.443-.571.443-.571Z" transform="translate(-564.903 -206.816)" fill="#f8bdc5"/>
  <g id="Group_105" data-name="Group 105" transform="translate(91.405 28.511)" opacity="0.1">
    <path id="Path_336" data-name="Path 336" d="M785.271,283.343c-.438.162-2.133.846-2.32,1.824a10.251,10.251,0,0,1-.261-1.326l2.084-1.131a2.568,2.568,0,0,1,.5.633Z" transform="translate(-782.69 -282.71)"/>
  </g>
  <g id="Group_106" data-name="Group 106" transform="translate(78.769 27.443)" opacity="0.1">
    <path id="Path_337" data-name="Path 337" d="M687.988,276.294a14.041,14.041,0,0,1-.56,1.368,3.119,3.119,0,0,0-1.727-2.581c.261-.356.443-.571.443-.571Z" transform="translate(-685.7 -274.51)"/>
  </g>
  <g id="Group_107" data-name="Group 107" transform="translate(84.33 25.276)" opacity="0.1">
    <path id="Path_338" data-name="Path 338" d="M731.832,265.1H728.38v-5.594a10.432,10.432,0,0,0,.18-1.629,2.147,2.147,0,0,1,.534,1.747l1.845,4.169.894-3.686-.3-.476,1.225-1.457a4.724,4.724,0,0,0,1.573,1.338C736.711,260.7,731.832,265.1,731.832,265.1Z" transform="translate(-728.38 -257.88)"/>
  </g>
  <g id="Group_108" data-name="Group 108" transform="translate(78.681 41.838)" opacity="0.1">
    <path id="Path_339" data-name="Path 339" d="M696.56,387.084s-2.7-.215-5.051-.317l-.236-.01c-.333-.013-.651-.023-.963-.031a21.564,21.564,0,0,1-5.291-.99,8.69,8.69,0,0,1,.531-.736l3.571.782s.563.18,1.813.734L688.884,385l6.254,1.131s.218-.027,1.368.616Z" transform="translate(-685.02 -385)"/>
  </g>
  <path id="Path_340" data-name="Path 340" d="M693.7,260.306l-.3-.476,1.321-1.58s2.724,1.335,3.438,1.042c0,0,1.726,1.433,1.785,2.262,0,0-2.5.832-2.44,2.084a12.875,12.875,0,0,1-1.186,3.927L695.8,269.7a9.522,9.522,0,0,0-.13,3.961l.476,2.649s-3.749-.3-6.253-.357a21.69,21.69,0,0,1-5.356-1.011l1.46-3.073a7.815,7.815,0,0,0,.753-3.554l-.13-4.975s-.119-2.5-2.084-2.916c0,0,1.071-2.2,2.736-2.023,0,0,2.426-1.012,3.146-.328a2.143,2.143,0,0,1,.543,1.756L692.8,264Z" transform="translate(-605.913 -232.568)" fill="#ed677b"/>
  <g id="Group_109" data-name="Group 109" transform="translate(81.885 16.889)" opacity="0.1">
    <path id="Path_341" data-name="Path 341" d="M710.5,197.393c.478,0,.853-.507,1.332-.481a1.357,1.357,0,0,1,.664.313,8.109,8.109,0,0,0,2.542,1.173,2.217,2.217,0,0,0,1.081.078.922.922,0,0,0,.727-.728,1.24,1.24,0,0,0-.063-.473,5.846,5.846,0,0,0-2.546-3.36,2,2,0,0,0-1.648-.345,3.268,3.268,0,0,0-1.173,1.016,4.457,4.457,0,0,1-.912.74c-.261.158-.651.261-.8.55C709.417,196.415,709.861,197.388,710.5,197.393Z" transform="translate(-709.613 -193.5)"/>
  </g>
  <path id="Path_342" data-name="Path 342" d="M710.5,196.483c.478,0,.853-.507,1.332-.481a1.357,1.357,0,0,1,.664.313,8.109,8.109,0,0,0,2.542,1.173,2.217,2.217,0,0,0,1.081.078.922.922,0,0,0,.727-.728,1.24,1.24,0,0,0-.063-.473,5.845,5.845,0,0,0-2.546-3.36,2,2,0,0,0-1.648-.345,3.268,3.268,0,0,0-1.173,1.016,4.456,4.456,0,0,1-.912.74c-.261.158-.651.261-.8.55C709.417,195.51,709.861,196.477,710.5,196.483Z" transform="translate(-627.728 -175.82)" fill="#85555c"/>
  <path id="Path_343" data-name="Path 343" d="M705.32,326.79s2.916,1.071,4.82.238l.952.06a4.213,4.213,0,0,0,3.257.614" transform="translate(-623.995 -292.536)" opacity="0.05"/>
  <path id="Path_344" data-name="Path 344" d="M809.256,313.09s-.476,1.131-.238,1.488" transform="translate(-714.125 -280.621)" opacity="0.05"/>
  <path id="Path_345" data-name="Path 345" d="M665.58,310.35s.238,1.131,0,1.488" transform="translate(-589.432 -278.238)" opacity="0.05"/>
</svg>
