<svg xmlns="http://www.w3.org/2000/svg" width="234.799" height="208.961" viewBox="0 0 234.799 208.961">
  <g id="Group_416" data-name="Group 416" transform="translate(-917.119 -637.797)">
    <g id="Group_415" data-name="Group 415">
      <path id="Path_1814" data-name="Path 1814" d="M148.757,65.98c-9.544-3.63-19.63-6.662-29.926-6.281-15.138.559-29.67,9.077-36.787,21.584-6.038,10.6-6.783,23.017-9.384,34.777-3.2,14.487-9.343,28.258-15.9,41.723-3.521,7.234-7.238,14.623-7.816,22.552-.8,11.008,4.823,21.978,13.644,29.3s20.535,11.186,32.293,12.028c6.257.448,12.8.032,18.352-2.692,5.88-2.883,10.166-8.091,16.07-10.933,5.471-2.633,11.87-3,18.012-2.66a85.469,85.469,0,0,1,23.515,4.678c8.585,3.015,16.568,7.383,25.122,10.441s18.136,4.765,26.89,2.213c8.23-2.4,14.727-8.219,20.585-14.114a250.174,250.174,0,0,0,26.253-31.054c5.287-7.409,10.207-15.225,12.544-23.86,4.47-16.509-1.681-35.135-15.323-46.409-11.3-9.341-26.472-13.4-41.32-15.855-13.54-2.244-29.2-2.382-41.66-8.23C172.036,77.605,161.221,70.723,148.757,65.98Z" transform="translate(868.252 591.525)" fill="#f5f5f5"/>
      <g id="Group_275" data-name="Group 275" transform="translate(983.362 637.797)">
        <g id="Group_281" data-name="Group 281" transform="translate(0 0)">
          <path id="Path_1793" data-name="Path 1793" d="M674.092,647.677a4.434,4.434,0,0,0,3.34.673l5.316-.389c4.223-.311,8.59-.661,12.315-2.671a2.928,2.928,0,0,0,1.023-.778,3.3,3.3,0,0,0,.447-1.676,77.615,77.615,0,0,1,3.414-16.95c2.333-7.33,5.833-14.555,5.786-22.227V603.1c-.066-2.4-.49-4.779-.75-7.171a104.764,104.764,0,0,1-.358-12.055,26.154,26.154,0,0,1,.327-4.709c.245-1.264,1.167-2.531.6-3.644-1.093-2.158-5.055-2.951-7.186-3.029a28.951,28.951,0,0,0-8.465,1.4,5.447,5.447,0,0,0-2.364,1.069,4.5,4.5,0,0,0-1.132,3.227c-.148,5.191,2.843,10.021,3.08,15.2a5.013,5.013,0,0,0,.544,2.722A11.271,11.271,0,0,0,691.2,597.3c1.167,1.279,1.2,3.208,1.12,4.942-.035.7-.074,1.4-.121,2.1a104.548,104.548,0,0,1-5.611,27.395,14.942,14.942,0,0,1-1.167,2.722,13.19,13.19,0,0,1-2.885,3.2,36.881,36.881,0,0,1-5.129,3.671,10.434,10.434,0,0,0-3.329,2.535A2.96,2.96,0,0,0,674.092,647.677Z" transform="translate(-641.524 -447.539)" fill="#fda8a8"/>
          <path id="Path_1794" data-name="Path 1794" d="M674.092,647.677a4.434,4.434,0,0,0,3.34.673l5.316-.389c4.223-.311,8.59-.661,12.315-2.671a2.928,2.928,0,0,0,1.023-.778,3.3,3.3,0,0,0,.447-1.676,77.615,77.615,0,0,1,3.414-16.95c2.333-7.33,5.833-14.555,5.786-22.227V603.1c-.066-2.4-.49-4.779-.75-7.171a104.764,104.764,0,0,1-.358-12.055,26.154,26.154,0,0,1,.327-4.709c.245-1.264,1.167-2.531.6-3.644-1.093-2.158-5.055-2.951-7.186-3.029a28.951,28.951,0,0,0-8.465,1.4,5.447,5.447,0,0,0-2.364,1.069,4.5,4.5,0,0,0-1.132,3.227c-.148,5.191,2.843,10.021,3.08,15.2a5.013,5.013,0,0,0,.544,2.722A11.271,11.271,0,0,0,691.2,597.3c1.167,1.279,1.2,3.208,1.12,4.942-.035.7-.074,1.4-.121,2.1a104.548,104.548,0,0,1-5.611,27.395,14.942,14.942,0,0,1-1.167,2.722,13.19,13.19,0,0,1-2.885,3.2,36.881,36.881,0,0,1-5.129,3.671,10.434,10.434,0,0,0-3.329,2.535A2.96,2.96,0,0,0,674.092,647.677Z" transform="translate(-641.524 -447.539)" opacity="0.1"/>
          <path id="Path_1795" data-name="Path 1795" d="M674.092,696.669a4.434,4.434,0,0,0,3.34.673l5.316-.389c4.223-.311,8.59-.661,12.315-2.671a2.928,2.928,0,0,0,1.023-.778,3.294,3.294,0,0,0,.447-1.676,77.622,77.622,0,0,1,3.414-16.95c2.333-7.33,5.833-14.555,5.786-22.227a111.61,111.61,0,0,1-13.536.669,104.546,104.546,0,0,1-5.611,27.4,14.934,14.934,0,0,1-1.167,2.722,13.189,13.189,0,0,1-2.885,3.2,36.878,36.878,0,0,1-5.129,3.671,10.435,10.435,0,0,0-3.329,2.535A2.981,2.981,0,0,0,674.092,696.669Z" transform="translate(-641.524 -496.53)" fill="#eeeff3"/>
          <path id="Path_1796" data-name="Path 1796" d="M674.092,696.669a4.434,4.434,0,0,0,3.34.673l5.316-.389c4.223-.311,8.59-.661,12.315-2.671a2.928,2.928,0,0,0,1.023-.778,3.294,3.294,0,0,0,.447-1.676,77.622,77.622,0,0,1,3.414-16.95c2.333-7.33,5.833-14.555,5.786-22.227a111.61,111.61,0,0,1-13.536.669,104.546,104.546,0,0,1-5.611,27.4,14.934,14.934,0,0,1-1.167,2.722,13.189,13.189,0,0,1-2.885,3.2,36.878,36.878,0,0,1-5.129,3.671,10.435,10.435,0,0,0-3.329,2.535A2.981,2.981,0,0,0,674.092,696.669Z" transform="translate(-641.524 -496.53)" opacity="0.1"/>
          <path id="Path_1797" data-name="Path 1797" d="M674.153,752.579a20.028,20.028,0,0,0,3.663-1.75l5.86-3.305a4.965,4.965,0,0,1,1.738-.7l.7,5.23c.175,1.283.268,2.792-.7,3.651a3.407,3.407,0,0,1-1.167.607,22.44,22.44,0,0,1-6.673.82c-6.914.222-13.9,1.031-20.711-.183a3.473,3.473,0,0,1-2.236-1.05,2.374,2.374,0,0,1,.144-2.695,6.252,6.252,0,0,1,2.251-1.754c1.734-.933,3.535-1.727,5.335-2.524a.521.521,0,0,1,.369-.062c.175.058.23.272.276.451a4.691,4.691,0,0,0,2.512,2.885C665.532,752.2,671.563,753.4,674.153,752.579Z" transform="translate(-629.841 -554.081)" fill="#bbbdc8"/>
          <path id="Path_1798" data-name="Path 1798" d="M674.153,752.579a20.028,20.028,0,0,0,3.663-1.75l5.86-3.305a4.965,4.965,0,0,1,1.738-.7l.7,5.23c.175,1.283.268,2.792-.7,3.651a3.407,3.407,0,0,1-1.167.607,22.44,22.44,0,0,1-6.673.82c-6.914.222-13.9,1.031-20.711-.183a3.473,3.473,0,0,1-2.236-1.05,2.374,2.374,0,0,1,.144-2.695,6.252,6.252,0,0,1,2.251-1.754c1.734-.933,3.535-1.727,5.335-2.524a.521.521,0,0,1,.369-.062c.175.058.23.272.276.451a4.691,4.691,0,0,0,2.512,2.885C665.532,752.2,671.563,753.4,674.153,752.579Z" transform="translate(-629.841 -554.081)" opacity="0.1"/>
          <path id="Path_1799" data-name="Path 1799" d="M684.092,661.677a4.434,4.434,0,0,0,3.34.673l5.316-.389c4.223-.311,8.59-.661,12.315-2.672a2.928,2.928,0,0,0,1.023-.778,3.293,3.293,0,0,0,.447-1.676,77.614,77.614,0,0,1,3.414-16.95c2.333-7.33,5.833-14.555,5.786-22.227V617.1c-.066-2.4-.49-4.779-.75-7.17a104.765,104.765,0,0,1-.358-12.055,26.15,26.15,0,0,1,.327-4.709c.245-1.264,1.167-2.531.6-3.644-1.093-2.158-5.055-2.951-7.186-3.029a28.947,28.947,0,0,0-8.465,1.4,5.447,5.447,0,0,0-2.364,1.069,4.5,4.5,0,0,0-1.132,3.227c-.148,5.191,2.843,10.021,3.08,15.2a5.013,5.013,0,0,0,.544,2.722A11.27,11.27,0,0,0,701.2,611.3c1.167,1.279,1.2,3.208,1.12,4.942-.035.7-.074,1.4-.121,2.1a104.551,104.551,0,0,1-5.611,27.4,14.949,14.949,0,0,1-1.167,2.722,13.189,13.189,0,0,1-2.885,3.2,36.885,36.885,0,0,1-5.129,3.671,10.433,10.433,0,0,0-3.329,2.535A2.96,2.96,0,0,0,684.092,661.677Z" transform="translate(-647.635 -456.095)" fill="#fda8a8"/>
          <path id="Path_1800" data-name="Path 1800" d="M684.092,710.669a4.434,4.434,0,0,0,3.34.673l5.316-.389c4.223-.311,8.59-.661,12.315-2.671a2.927,2.927,0,0,0,1.023-.778,3.293,3.293,0,0,0,.447-1.676,77.616,77.616,0,0,1,3.414-16.95c2.333-7.33,5.833-14.555,5.786-22.227a111.6,111.6,0,0,1-13.536.669,104.554,104.554,0,0,1-5.611,27.4,14.948,14.948,0,0,1-1.167,2.722,13.19,13.19,0,0,1-2.885,3.2,36.872,36.872,0,0,1-5.129,3.671,10.435,10.435,0,0,0-3.329,2.535A2.981,2.981,0,0,0,684.092,710.669Z" transform="translate(-647.635 -505.086)" fill="#eeeff3"/>
          <path id="Path_1801" data-name="Path 1801" d="M684.153,766.579a20.031,20.031,0,0,0,3.663-1.75l5.86-3.305a4.966,4.966,0,0,1,1.738-.7l.7,5.23c.175,1.283.268,2.792-.7,3.651a3.406,3.406,0,0,1-1.167.607,22.44,22.44,0,0,1-6.673.82c-6.914.222-13.9,1.031-20.711-.183a3.473,3.473,0,0,1-2.236-1.05,2.374,2.374,0,0,1,.144-2.695,6.25,6.25,0,0,1,2.251-1.754c1.734-.933,3.535-1.727,5.335-2.524a.521.521,0,0,1,.369-.062c.175.058.229.272.276.451a4.691,4.691,0,0,0,2.512,2.885C675.532,766.2,681.563,767.4,684.153,766.579Z" transform="translate(-635.953 -562.637)" fill="#bbbdc8"/>
          <path id="Path_1802" data-name="Path 1802" d="M665.81,338.909c1.894-2.333,1.944-5.592,1.9-8.586,0-1.167-.035-2.372-.078-3.558v-.027a40.108,40.108,0,0,0-.688-6.494h0a23.6,23.6,0,0,0-.817-3.033c.257-.058.513-.113.778-.159a31.863,31.863,0,0,1,12.346,0,25.168,25.168,0,0,1,3.5.455,1.166,1.166,0,0,1,.7.494c.2.416-.21,1.622-.506,2.691h0a5.259,5.259,0,0,0-.272,1.493,10.252,10.252,0,0,0,.218,1.419c.183.859.424,1.711.537,2.582.2,1.485.023,3,.12,4.5a5.716,5.716,0,0,0,1.668,4.048,78.6,78.6,0,0,0-19.408,4.18Z" transform="translate(-636.893 -291.062)" fill="#fda8a8"/>
          <path id="Path_1803" data-name="Path 1803" d="M686.168,323.445c-.517.043-1.031.093-1.556.152a78.349,78.349,0,0,0-15.259,3.189v-.027l-.688-6.494h0v-1.186c0-.665-.019-1.338-.035-2.007a31.862,31.862,0,0,1,12.346,0,25.177,25.177,0,0,1,3.5.455c0,.634,0,1.268.023,1.9a8.494,8.494,0,0,0,.175,1.283h0a4.884,4.884,0,0,0,1.493,2.734Z" transform="translate(-638.616 -291.075)" opacity="0.1"/>
          <circle id="Ellipse_376" data-name="Ellipse 376" cx="14.388" cy="14.388" r="14.388" transform="translate(23.353 5.379)" fill="#fda8a8"/>
          <path id="Path_1804" data-name="Path 1804" d="M646.172,392.386a28.174,28.174,0,0,1,5.88-25.89,16.773,16.773,0,0,1,4.5-4.176c2.119-1.128,4.627-1.167,7.027-1.19a15.606,15.606,0,0,1,6.253.844c2.633,1.124,4.449,3.566,5.981,5.988,1.633,2.582,3.111,5.378,3.36,8.427.132,1.808-.187,3.644.082,5.444.342,2.283,1.614,4.328,2.135,6.576.284,1.213.342,2.469.525,3.706a34.712,34.712,0,0,0,1.2,4.993,179.166,179.166,0,0,0,15.772,36.833,66.76,66.76,0,0,1,5.331,10.55,8.8,8.8,0,0,1,.537,5.234,5.427,5.427,0,0,1-7.159,3.329,1.365,1.365,0,0,1-.747,1.657,4.456,4.456,0,0,1-2.061.389l-24.016.638a8.666,8.666,0,0,0-1.87.253c-2.823.723-1.762,1.944-2.065,2.963-.369,1.244-2.154,1.143-3.4.778.19,1.816.233,4.036-2.112,4.565a3.962,3.962,0,0,1-1.835-.062,38.272,38.272,0,0,0-13.042-1.05c-1.6.148-3.434.327-4.62-.778a5.263,5.263,0,0,1-1.279-3.333c-2.392-19.054,2.528-38.135,6.222-56.96a22.61,22.61,0,0,0-.428-9.134Z" transform="translate(-621.069 -318.37)" fill="#f75842"/>
          <path id="Path_1805" data-name="Path 1805" d="M734.219,370.206a23.158,23.158,0,0,1,1.458,4.935c.152,1.369-.031,2.753.051,4.126a21.14,21.14,0,0,0,.937,4.483,70.916,70.916,0,0,0,2.765,8.333c.521,1.225,1.124,2.574.7,3.838s-1.723,2.045-2.1,3.3a3.912,3.912,0,0,0,1.38,3.69c.992.968,2.232,1.657,3.15,2.687a18.845,18.845,0,0,1,2.259,3.889,35.978,35.978,0,0,0,3.426,5l4.7,6.1a3.672,3.672,0,0,0,1.128,1.089c1.555.809,3.185-.82,4.767-1.555,2.1-1,4.557-.412,6.879-.245s5.117-.436,5.946-2.605a5.726,5.726,0,0,0,.167-2.722,27.122,27.122,0,0,0-2.652-8.917,32.188,32.188,0,0,1-2.415-5.156c-.435-1.482-.521-3.041-.867-4.546s-.957-2.944-1.447-4.414c-3.476-10.445-.863-21.873-1.987-32.823-.416-4.04-1.649-8.469-5.125-10.573-2.065-1.248-4.546-1.443-7-1.555l-1.108-.051-1.785-.089a29.2,29.2,0,0,0-7.688.323c-3.539.778-7.8,3.527-7.937,7.478A46.059,46.059,0,0,0,734.219,370.206Z" transform="translate(-677.23 -309.321)" fill="#c1c1c1"/>
          <path id="Path_1806" data-name="Path 1806" d="M772.09,346.54a44.829,44.829,0,0,1,.712,8.018c.07,7.676.9,15.321,1.73,22.943l.548,5.055a5.351,5.351,0,0,0,.778,2.664,1.835,1.835,0,0,0,2.458.564,18.721,18.721,0,0,0,.272-5.5q-.292-5.868-.579-11.74c-.187-3.811-.389-7.626-.852-11.413a75.513,75.513,0,0,0-1.6-8.714A10.289,10.289,0,0,0,775,346.68l-1.108-.051Z" transform="translate(-701.845 -309.453)" opacity="0.1"/>
          <path id="Path_1807" data-name="Path 1807" d="M681.609,354.552a14.728,14.728,0,0,0-7.143.311,18.215,18.215,0,0,0-8.042,7.925c-1.326,3.049-.809,6.564,0,9.791,2.2,8.889,6.583,17.464,13.61,23.331a50.686,50.686,0,0,0,6.809,4.666,46.358,46.358,0,0,0,9.764,4.553,5.98,5.98,0,0,0,2.967.334,2.34,2.34,0,0,0,1.944-2.014c-5.638-3.169-10.694-7.264-15.714-11.339a32.47,32.47,0,0,1-3.854-3.5c-1.781-2-3.037-4.421-4.764-6.471-1.555-1.839-3.5-3.391-4.666-5.495a14.662,14.662,0,0,1-1.451-4.581c-.576-3.255-.684-6.712.607-9.756s4.25-5.545,7.556-5.491a13.4,13.4,0,0,1,4.872,1.357l9.838,4.153c-.121-.054.564-1.762.533-2-.093-.743-.226-.754-.778-1.318a12.628,12.628,0,0,0-3.6-2.15A30.775,30.775,0,0,0,681.609,354.552Z" transform="translate(-636.772 -314.176)" fill="#c1c1c1"/>
          <path id="Path_1808" data-name="Path 1808" d="M651.479,268.211a16.654,16.654,0,0,0,7.54-3.889l-2.057,10.795a53.071,53.071,0,0,0,5.949-3.2,34.4,34.4,0,0,1-1.944,14.586,19.531,19.531,0,0,1-9.679,10.752c4,.669,7.587-2.2,11.145-4.141,2.481-1.349,6.72.039,9.434-.778a29.873,29.873,0,0,0,6.743-2.477c3.858-2.251,4.732-8.827,5.514-13.221a28.615,28.615,0,0,0-1.229-13.221,23.263,23.263,0,0,0-1.746-4.379,15.111,15.111,0,0,0-21.578-5.374,46.873,46.873,0,0,0-9.648,9.126c-.389.455-1.995,2.073-1.462,2.753.649.824,4.46-1.524,5.106-1.843C653.381,264.4,652.222,268.029,651.479,268.211Z" transform="translate(-626.225 -251.166)" fill="#ffd566"/>
          <g id="Group_273" data-name="Group 273" transform="translate(18.858 55.211)" opacity="0.1">
            <path id="Path_1809" data-name="Path 1809" d="M662.518,480.752a3.963,3.963,0,0,1-1.835-.062,38.27,38.27,0,0,0-13.042-1.05c-1.6.148-3.434.327-4.62-.778a5.263,5.263,0,0,1-1.279-3.333c-2.392-19.054,2.528-38.135,6.222-56.96a22.609,22.609,0,0,0-.428-9.134l-.175-.6a27.551,27.551,0,0,1,.245-15.683,27.76,27.76,0,0,0-1.419,18.805l.175.6a22.621,22.621,0,0,1,.428,9.134c-3.682,18.825-8.6,37.918-6.222,56.96a5.285,5.285,0,0,0,1.279,3.333c1.167,1.093,3.018.914,4.62.778a38.272,38.272,0,0,1,13.042,1.05,3.963,3.963,0,0,0,1.835.062c1.913-.432,2.236-1.991,2.189-3.535A3.046,3.046,0,0,1,662.518,480.752Z" transform="translate(-639.941 -393.15)"/>
            <path id="Path_1810" data-name="Path 1810" d="M737.064,587.075a1.365,1.365,0,0,1-.747,1.656,4.456,4.456,0,0,1-2.061.389l-24.016.638a8.667,8.667,0,0,0-1.87.253c-2.823.723-1.762,1.944-2.065,2.963-.369,1.244-2.154,1.143-3.4.778a5.9,5.9,0,0,1-.327,3.3c1.093.163,2.267.019,2.559-.964s-.758-2.24,2.065-2.963a8.664,8.664,0,0,1,1.87-.253l24-.638a4.456,4.456,0,0,0,2.061-.389,1.365,1.365,0,0,0,.747-1.657,5.425,5.425,0,0,0,7.159-3.329,5.589,5.589,0,0,0,.2-1.338A5.389,5.389,0,0,1,737.064,587.075Z" transform="translate(-678.223 -510.715)"/>
          </g>
          <path id="Path_1811" data-name="Path 1811" d="M636.928,380.56a134.524,134.524,0,0,1,5.471,13.482c1.275,3.7,2.4,7.583,1.975,11.471s-2.722,7.816-6.455,9.041a17.06,17.06,0,0,1-4.954.564,104.934,104.934,0,0,0-11.942.964,52.589,52.589,0,0,1-5.565.618c-2.636.086-5.273-.327-7.9-.113-4.254.346-8.294,2.333-12.564,2.333a3.189,3.189,0,0,1-1.517-.28,3.48,3.48,0,0,1-1.388-2.17c-.595-1.9-1.062-4.075-.054-5.79,1.24-2.112,4.06-2.535,6.506-2.722q8.259-.583,16.538-.817c4.709-.132,9.811-.311,13.462-3.29a1.921,1.921,0,0,0,.587-.677,2.158,2.158,0,0,0-.047-1.388,60.476,60.476,0,0,1-1.843-17.324,2.566,2.566,0,0,1,.389-1.485,2.438,2.438,0,0,1,1.233-.716,18.047,18.047,0,0,1,10.064-.28" transform="translate(-591.446 -330.244)" fill="#fda8a8"/>
          <path id="Path_1812" data-name="Path 1812" d="M680.986,373.751a2.92,2.92,0,0,0-1.408,1.038c.155-1.622-.055-3.259-.023-4.892a7.436,7.436,0,0,1,1.365-4.6c1.31-1.618,3.539-2.2,5.623-2.251a11.825,11.825,0,0,1,8.372,2.858,8.555,8.555,0,0,1,2.625,5.055c.07.533.3,2.531-.253,2.874-.486.3-2.333-.743-2.928-.91A19.645,19.645,0,0,0,680.986,373.751Z" transform="translate(-645.291 -319.535)" fill="#f75842"/>
        </g>
      </g>
    </g>
  </g>
</svg>
