<svg xmlns="http://www.w3.org/2000/svg" width="36" height="28.889" viewBox="0 0 36 28.889">
  <g id="Icon_awesome-address-card" data-name="Icon awesome-address-card" transform="translate(2 -0.25)" fill="none" stroke-linecap="round" stroke-linejoin="round">
    <path d="M29.333,2.25H2.667A2.667,2.667,0,0,0,0,4.917V24.472a2.667,2.667,0,0,0,2.667,2.667H29.333A2.667,2.667,0,0,0,32,24.472V4.917A2.667,2.667,0,0,0,29.333,2.25ZM9.778,7.583a3.556,3.556,0,1,1-3.556,3.556A3.559,3.559,0,0,1,9.778,7.583ZM16,20.739a1.165,1.165,0,0,1-1.244,1.067H4.8a1.165,1.165,0,0,1-1.244-1.067V19.672a3.5,3.5,0,0,1,3.733-3.2h.278a5.722,5.722,0,0,0,4.422,0h.278A3.5,3.5,0,0,1,16,19.672Zm12.444-2.933A.446.446,0,0,1,28,18.25H20a.446.446,0,0,1-.444-.444v-.889A.446.446,0,0,1,20,16.472h8a.446.446,0,0,1,.444.444Zm0-3.556a.446.446,0,0,1-.444.444H20a.446.446,0,0,1-.444-.444v-.889A.446.446,0,0,1,20,12.917h8a.446.446,0,0,1,.444.444Zm0-3.556a.446.446,0,0,1-.444.444H20a.446.446,0,0,1-.444-.444V9.806A.446.446,0,0,1,20,9.361h8a.446.446,0,0,1,.444.444Z" stroke="none"/>
    <path d="M 2.666669845581055 2.250003814697266 C 1.194440841674805 2.250003814697266 0 3.44444465637207 0 4.916664123535156 L 0 24.47222328186035 C 0 25.94444274902344 1.194440841674805 27.13888359069824 2.666669845581055 27.13888359069824 L 29.33333015441895 27.13888359069824 C 30.80554962158203 27.13888359069824 32 25.94444274902344 32 24.47222328186035 L 32 4.916664123535156 C 32 3.44444465637207 30.80554962158203 2.250003814697266 29.33333015441895 2.250003814697266 L 2.666669845581055 2.250003814697266 M 9.777780532836914 14.69444370269775 C 7.816669464111328 14.69444370269775 6.222219467163086 13.10000419616699 6.222219467163086 11.13889312744141 C 6.222219467163086 9.177774429321289 7.816669464111328 7.583333969116211 9.777780532836914 7.583333969116211 C 11.73888969421387 7.583333969116211 13.33333015441895 9.177774429321289 13.33333015441895 11.13889312744141 C 13.33333015441895 13.10000419616699 11.73888969421387 14.69444370269775 9.777780532836914 14.69444370269775 M 28 11.13889312744141 L 20 11.13889312744141 C 19.75555038452148 11.13889312744141 19.55556106567383 10.93888282775879 19.55556106567383 10.69444465637207 L 19.55556106567383 9.805553436279297 C 19.55556106567383 9.561113357543945 19.75555038452148 9.361114501953125 20 9.361114501953125 L 28 9.361114501953125 C 28.24444961547852 9.361114501953125 28.44443893432617 9.561113357543945 28.44443893432617 9.805553436279297 L 28.44443893432617 10.69444465637207 C 28.44443893432617 10.93888282775879 28.24444961547852 11.13889312744141 28 11.13889312744141 M 28 14.69444370269775 L 20 14.69444370269775 C 19.75555038452148 14.69444370269775 19.55556106567383 14.49444389343262 19.55556106567383 14.25000381469727 L 19.55556106567383 13.36111450195313 C 19.55556106567383 13.11666297912598 19.75555038452148 12.91666412353516 20 12.91666412353516 L 28 12.91666412353516 C 28.24444961547852 12.91666412353516 28.44443893432617 13.11666297912598 28.44443893432617 13.36111450195313 L 28.44443893432617 14.25000381469727 C 28.44443893432617 14.49444389343262 28.24444961547852 14.69444370269775 28 14.69444370269775 M 9.777780532836914 16.91666412353516 C 10.56110954284668 16.91666412353516 11.31110954284668 16.75555419921875 11.98888969421387 16.47222328186035 L 12.26667022705078 16.47222328186035 C 14.32777976989746 16.47222328186035 16 17.90555381774902 16 19.6722240447998 L 16 20.73888397216797 C 16 21.32777404785156 15.4444408416748 21.8055534362793 14.75555038452148 21.8055534362793 L 4.799999237060547 21.8055534362793 C 4.111110687255859 21.8055534362793 3.555549621582031 21.32777404785156 3.555549621582031 20.73888397216797 L 3.555549621582031 19.6722240447998 C 3.555549621582031 17.90555381774902 5.227779388427734 16.47222328186035 7.288890838623047 16.47222328186035 L 7.566669464111328 16.47222328186035 C 8.25 16.75555419921875 8.994449615478516 16.91666412353516 9.777780532836914 16.91666412353516 M 28 18.25000381469727 L 20 18.25000381469727 C 19.75555038452148 18.25000381469727 19.55556106567383 18.05000305175781 19.55556106567383 17.8055534362793 L 19.55556106567383 16.91666412353516 C 19.55556106567383 16.6722240447998 19.75555038452148 16.47222328186035 20 16.47222328186035 L 28 16.47222328186035 C 28.24444961547852 16.47222328186035 28.44443893432617 16.6722240447998 28.44443893432617 16.91666412353516 L 28.44443893432617 17.8055534362793 C 28.44443893432617 18.05000305175781 28.24444961547852 18.25000381469727 28 18.25000381469727 M 2.666669845581055 0.2500038146972656 L 29.33333015441895 0.2500038146972656 C 31.90653991699219 0.2500038146972656 34 2.343454360961914 34 4.916664123535156 L 34 24.47222328186035 C 34 27.04543304443359 31.90653991699219 29.13888359069824 29.33333015441895 29.13888359069824 L 2.666669845581055 29.13888359069824 C 0.0934600830078125 29.13888359069824 -2 27.04543304443359 -2 24.47222328186035 L -2 4.916664123535156 C -2 2.343454360961914 0.0934600830078125 0.2500038146972656 2.666669845581055 0.2500038146972656 Z M 9.777780532836914 12.69444465637207 C 10.6355094909668 12.69444465637207 11.33333015441895 11.99662399291992 11.33333015441895 11.13889312744141 C 11.33333015441895 10.28115463256836 10.6355094909668 9.583333969116211 9.777780532836914 9.583333969116211 C 8.920040130615234 9.583333969116211 8.222219467163086 10.28115463256836 8.222219467163086 11.13889312744141 C 8.222219467163086 11.99662399291992 8.920040130615234 12.69444465637207 9.777780532836914 12.69444465637207 Z M 9.777780532836914 18.91666412353516 C 8.899656295776367 18.91666412353516 8.035146713256836 18.767822265625 7.202178955078125 18.4737548828125 C 6.227378845214844 18.50829887390137 5.555549621582031 19.12085723876953 5.555549621582031 19.6722240447998 L 5.555549621582031 19.8055534362793 L 14 19.8055534362793 L 14 19.6722240447998 C 14 19.12120246887207 13.32909202575684 18.50907135009766 12.35528564453125 18.47382164001465 C 11.52597045898438 18.76786613464355 10.6609058380127 18.91666412353516 9.777780532836914 18.91666412353516 Z" stroke="none" fill="#65617d"/>
  </g>
</svg>
