<svg xmlns="http://www.w3.org/2000/svg" xmlns:xlink="http://www.w3.org/1999/xlink" width="307.564" height="235.179" viewBox="0 0 307.564 235.179">
  <defs>
    <linearGradient id="linear-gradient" x1="0.492" y1="0.75" x2="0.492" y2="0.182" gradientUnits="objectBoundingBox">
      <stop offset="0" stop-color="gray" stop-opacity="0.251"/>
      <stop offset="0.54" stop-color="gray" stop-opacity="0.122"/>
      <stop offset="1" stop-color="gray" stop-opacity="0.102"/>
    </linearGradient>
    <clipPath id="clip-path">
      <rect id="_Rectangle_" data-name="&lt;Rectangle&gt;" width="190.883" height="102.117" transform="translate(14.018 0) rotate(7.89)" fill="tomato"/>
    </clipPath>
    <linearGradient id="linear-gradient-2" x1="0.289" y1="0.96" x2="0.289" y2="-0.045" xlink:href="#linear-gradient"/>
    <linearGradient id="linear-gradient-3" x1="0.5" y1="1" x2="0.5" y2="0" xlink:href="#linear-gradient"/>
  </defs>
  <g id="undraw_address_udes-2" transform="translate(0 -0.113)">
    <rect id="Rectangle_593" data-name="Rectangle 593" width="115.08" height="202.5" transform="translate(91.185 117.145) rotate(-82.11)" fill="url(#linear-gradient)"/>
    <rect id="Rectangle_594" data-name="Rectangle 594" width="199.442" height="111.938" transform="translate(107.939 4.872) rotate(7.89)" fill="#fff"/>
    <g id="Group_366" data-name="Group 366" transform="translate(97.553 10.131)" opacity="0.3">
      <rect id="_Rectangle_2" data-name="&lt;Rectangle&gt;" width="190.883" height="102.117" transform="translate(14.018 0) rotate(7.89)" fill="tomato"/>
      <g id="Group_365" data-name="Group 365" transform="translate(0 0)" clip-path="url(#clip-path)">
        <path id="Path_1896" data-name="Path 1896" d="M225.736,11.976,302.479,139.19l46.685,6.47,81.509-47.387L366.33,13.222,252.291,132.232l-65.2-24.5L303.585,5.32l94.986,147.188" transform="translate(-223.781 -13.644)" fill="tomato" stroke="#fff" stroke-miterlimit="10" stroke-width="5"/>
      </g>
    </g>
    <path id="Path_1897" data-name="Path 1897" d="M631.556,109.829C630.2,119.588,610.128,140,610.128,140S594.95,114.7,596.3,104.943a17.8,17.8,0,1,1,35.258,4.88Z" transform="translate(-444.554 -89.47)" fill="url(#linear-gradient-2)"/>
    <path id="Path_1898" data-name="Path 1898" d="M632.535,113.4c-1.269,9.154-20.1,28.3-20.1,28.3s-14.239-23.728-12.97-32.882a16.692,16.692,0,1,1,33.067,4.584Z" transform="translate(-446.691 -92.732)" fill="tomato"/>
    <ellipse id="Ellipse_407" data-name="Ellipse 407" cx="8.367" cy="8.347" rx="8.367" ry="8.347" transform="translate(160.073 24.193) rotate(-82.11)" fill="#fff"/>
    <path id="Path_1899" data-name="Path 1899" d="M0,213.51V379.27H239.038V213.51Z" transform="translate(0 -143.978)" fill="url(#linear-gradient-3)"/>
    <rect id="Rectangle_595" data-name="Rectangle 595" width="232.958" height="152.5" transform="translate(3.546 79.845)" fill="#fff"/>
    <rect id="Rectangle_596" data-name="Rectangle 596" width="232.958" height="11.22" transform="translate(3.546 72.59)" fill="#f5f5f5"/>
    <circle id="Ellipse_408" data-name="Ellipse 408" cx="2.72" cy="2.72" r="2.72" transform="translate(9.691 75.313)" fill="#ff5252"/>
    <circle id="Ellipse_409" data-name="Ellipse 409" cx="2.72" cy="2.72" r="2.72" transform="translate(17.173 75.313)" fill="#ff0"/>
    <circle id="Ellipse_410" data-name="Ellipse 410" cx="2.72" cy="2.72" r="2.72" transform="translate(24.652 75.313)" fill="#69f0ae"/>
    <rect id="Rectangle_597" data-name="Rectangle 597" width="42.843" height="4.59" transform="translate(98.181 120.619)" fill="tomato" opacity="0.5"/>
    <rect id="Rectangle_598" data-name="Rectangle 598" width="46.922" height="4.59" transform="translate(67.241 140.342)" fill="#e0e0e0"/>
    <rect id="Rectangle_599" data-name="Rectangle 599" width="46.922" height="4.59" transform="translate(171.966 144.932) rotate(180)" fill="#e0e0e0"/>
    <rect id="Rectangle_600" data-name="Rectangle 600" width="104.726" height="4.59" transform="translate(67.068 150.202)" fill="#e0e0e0"/>
    <rect id="Rectangle_601" data-name="Rectangle 601" width="104.726" height="4.59" transform="translate(67.068 160.062)" fill="#e0e0e0"/>
    <rect id="Rectangle_602" data-name="Rectangle 602" width="43.523" height="8.5" transform="translate(97.673 181.145)" fill="url(#linear-gradient-3)"/>
    <rect id="Rectangle_603" data-name="Rectangle 603" width="42.843" height="6.955" transform="translate(98.011 181.916)" fill="tomato"/>
  </g>
</svg>
