<svg xmlns="http://www.w3.org/2000/svg" width="74.597" height="74.597" viewBox="0 0 74.597 74.597">
  <path id="Icon_awesome-user-circle" data-name="Icon awesome-user-circle" d="M37.3.563a37.3,37.3,0,1,0,37.3,37.3A37.292,37.292,0,0,0,37.3.563ZM37.3,15A13.235,13.235,0,1,1,24.063,28.235,13.235,13.235,0,0,1,37.3,15Zm0,51.736A28.82,28.82,0,0,1,15.265,56.48a16.768,16.768,0,0,1,14.814-8.994,3.68,3.68,0,0,1,1.068.165A19.913,19.913,0,0,0,37.3,48.689a19.837,19.837,0,0,0,6.151-1.038,3.68,3.68,0,0,1,1.068-.165A16.768,16.768,0,0,1,59.331,56.48,28.82,28.82,0,0,1,37.3,66.737Z" transform="translate(0 -0.563)" fill="#cbcbcb"/>
</svg>
