<svg xmlns="http://www.w3.org/2000/svg" width="30.5" height="28.771" viewBox="0 0 30.5 28.771">
  <path id="Icon_ionic-md-arrow-round-back" data-name="Icon ionic-md-arrow-round-back" d="M33.481,17.942H14.934l7.194-6.882a2.867,2.867,0,0,0,0-3.918,2.563,2.563,0,0,0-3.744,0L6.405,18.757a2.64,2.64,0,0,0-.78,1.941v.035a2.64,2.64,0,0,0,.78,1.941L18.374,34.288a2.563,2.563,0,0,0,3.744,0,2.867,2.867,0,0,0,0-3.918l-7.194-6.882H33.473a2.713,2.713,0,0,0,2.652-2.774A2.685,2.685,0,0,0,33.481,17.942Z" transform="translate(-5.625 -6.33)" fill="#ff5b4a"/>
</svg>
