<svg xmlns="http://www.w3.org/2000/svg" xmlns:xlink="http://www.w3.org/1999/xlink" width="373.193" height="287.92" viewBox="0 0 373.193 287.92"><defs><style>.a,.c,.h{fill:tomato;}.a,.j,.p{opacity:0.1;}.b,.o{fill:none;stroke-miterlimit:10;}.b{stroke:#535461;stroke-width:2px;}.d,.t{opacity:0.25;}.e{fill:url(#a);}.f{fill:#f6f7f9;}.g,.h{opacity:0.2;}.i{fill:#3acc6c;}.k{fill:#ffd037;}.l{fill:#65617d;}.m{fill:#9d9cb5;}.n{opacity:0.5;}.o{stroke:tomato;}.q{fill:url(#b);}.r{fill:#ecb4b6;}.s{fill:#c17174;}.t{fill:#fff;}.u{fill:#ff748e;}.v{fill:#5e5a6b;}.w{fill:#464353;}.x{fill:#9f9eff;}</style><linearGradient id="a" x1="0.5" y1="1" x2="0.5" gradientUnits="objectBoundingBox"><stop offset="0" stop-color="gray" stop-opacity="0.251"/><stop offset="0.54" stop-color="gray" stop-opacity="0.122"/><stop offset="1" stop-color="gray" stop-opacity="0.102"/></linearGradient><linearGradient id="b" y1="1" y2="-0.001" xlink:href="#a"/></defs><g transform="translate(0 0)"><path class="a" d="M345.5,136.575c-15.536,9.826-35.688,9.187-53.345,4.079s-33.88-14.217-51.078-20.688A180.385,180.385,0,0,0,196.194,109.4c-21.927-2.267-46.411.492-61.69,16.378-17.014,17.693-15.709,49.608,2.694,65.842,9.359,8.261,21.618,12.314,32.308,18.763s20.578,17.161,19.67,29.61c-.842,11.524-10.638,20.369-20.777,25.917-7.838,4.288-17.491,8.97-18.436,17.851-.911,8.6,7.2,15.331,14.952,19.16a92.883,92.883,0,0,0,81.61-.316c8.985-4.527,17.245-10.546,26.667-14.074,24.741-9.264,52,.062,78.2,3.473a172.463,172.463,0,0,0,66.511-4.376c12.971-3.461,25.994-8.753,35.108-18.612,6.57-7.11,10.657-16.106,14.511-24.988q6.148-14.214,11.818-28.626c2.271-5.769,4.505-11.649,5.089-17.822,1.062-11.182-3.41-22.235-9.506-31.676a94.519,94.519,0,0,0-140-21.251" transform="translate(-111.39 -90.157)"/><ellipse class="a" cx="49.88" cy="9.753" rx="49.88" ry="9.753" transform="translate(0 268.415)"/><ellipse class="a" cx="104.559" cy="9.753" rx="104.559" ry="9.753" transform="translate(93.502 248.047)"/><path class="b" d="M824.35,462.888s14.658-25.965,36.746-33.439a45.187,45.187,0,0,0,22.882-17.117,76.149,76.149,0,0,0,6.754-12.152" transform="translate(-555.317 -274.525)"/><path class="c" d="M1018.232,368.354c-2.517,2.44-14.232,4.964-14.232,4.964s2.877-11.63,5.391-14.074a6.347,6.347,0,0,1,8.841,9.109Z" transform="translate(-668.952 -247.498)"/><path class="c" d="M999.493,422.761c-3.439.68-14.643-3.568-14.643-3.568s8.735-8.2,12.17-8.885a6.349,6.349,0,1,1,2.473,12.455Z" transform="translate(-656.839 -280.853)"/><path class="c" d="M940.34,485.256c-3.307-1.147-10.84-10.469-10.84-10.469s11.682-2.675,14.993-1.529a6.35,6.35,0,1,1-4.152,12Z" transform="translate(-621.828 -320.569)"/><path class="c" d="M877.353,520.451c-3.458-.57-12.453-8.492-12.453-8.492s11.061-4.608,14.519-4.042a6.346,6.346,0,1,1-2.065,12.523Z" transform="translate(-580.967 -342.642)"/><path class="c" d="M958.26,399.339c0,3.506,6.342,13.673,6.342,13.673s6.35-10.164,6.354-13.67a6.35,6.35,0,0,0-12.7,0Z" transform="translate(-640.02 -270.076)"/><path class="c" d="M887.813,438.428c1.047,3.344,10.138,11.149,10.138,11.149s3.021-11.6,1.973-14.941a6.353,6.353,0,0,0-12.126,3.792Z" transform="translate(-595.267 -293.499)"/><path class="c" d="M825.961,491.038c.467,3.476,8.114,12.7,8.114,12.7s4.935-10.917,4.468-14.394a6.348,6.348,0,1,0-12.582,1.69Z" transform="translate(-556.3 -327.445)"/><path class="d" d="M1018.232,368.354c-2.517,2.44-14.232,4.964-14.232,4.964s2.877-11.63,5.391-14.074a6.347,6.347,0,0,1,8.841,9.109Z" transform="translate(-668.952 -247.498)"/><path class="d" d="M999.493,422.761c-3.439.68-14.643-3.568-14.643-3.568s8.735-8.2,12.17-8.885a6.349,6.349,0,1,1,2.473,12.455Z" transform="translate(-656.839 -280.853)"/><path class="d" d="M940.34,485.256c-3.307-1.147-10.84-10.469-10.84-10.469s11.682-2.675,14.993-1.529a6.35,6.35,0,1,1-4.152,12Z" transform="translate(-621.828 -320.569)"/><path class="d" d="M877.353,520.451c-3.458-.57-12.453-8.492-12.453-8.492s11.061-4.608,14.519-4.042a6.346,6.346,0,1,1-2.065,12.523Z" transform="translate(-580.967 -342.642)"/><path class="d" d="M958.26,399.339c0,3.506,6.342,13.673,6.342,13.673s6.35-10.164,6.354-13.67a6.35,6.35,0,0,0-12.7,0Z" transform="translate(-640.02 -270.076)"/><path class="d" d="M887.813,438.428c1.047,3.344,10.138,11.149,10.138,11.149s3.021-11.6,1.973-14.941a6.353,6.353,0,0,0-12.126,3.792Z" transform="translate(-595.267 -293.499)"/><path class="d" d="M825.961,491.038c.467,3.476,8.114,12.7,8.114,12.7s4.935-10.917,4.468-14.394a6.348,6.348,0,1,0-12.582,1.69Z" transform="translate(-556.3 -327.445)"/><path class="b" d="M826.65,424.449s2.877-29.677,20.023-45.459a45.2,45.2,0,0,0,13.986-24.922,76.064,76.064,0,0,0,1.249-13.839" transform="translate(-556.772 -236.605)"/><path class="c" d="M930.838,298.383c-1.312,3.252-11,10.289-11,10.289s-2.087-11.8-.775-15.066a6.346,6.346,0,0,1,11.759,4.744Z" transform="translate(-614.954 -204.764)"/><path class="c" d="M933.041,352.8c-2.866,2.017-14.831,2.675-14.831,2.675s4.663-11.024,7.529-13.056a6.346,6.346,0,1,1,7.3,10.381Z" transform="translate(-614.687 -237.259)"/><path class="c" d="M899.3,434.129c-3.491.294-14.151-5.178-14.151-5.178s9.595-7.177,13.089-7.471a6.346,6.346,0,1,1,1.062,12.648Z" transform="translate(-593.775 -287.984)"/><path class="c" d="M857.543,491.5c-3.392.878-14.824-2.712-14.824-2.712s8.246-8.7,11.638-9.576a6.347,6.347,0,1,1,3.186,12.288Z" transform="translate(-566.937 -324.383)"/><path class="c" d="M882.94,352.741c1.422,3.2,11.34,9.922,11.34,9.922s1.687-11.862.268-15.066a6.349,6.349,0,1,0-11.608,5.144Z" transform="translate(-592.032 -238.875)"/><path class="c" d="M834.5,417.292c2.315,2.631,13.791,6.082,13.791,6.082s-1.94-11.825-4.252-14.46a6.354,6.354,0,0,0-9.554,8.378Z" transform="translate(-560.732 -278.68)"/><path class="c" d="M799.273,490.464c1.837,2.987,12.564,8.327,12.564,8.327s.088-11.983-1.745-14.971a6.348,6.348,0,0,0-10.818,6.644Z" transform="translate(-538.861 -325.516)"/><path class="e" d="M281.84,0V259.232H468.292V0Z" transform="translate(-178.273)"/><rect class="f" width="183.182" height="9.881" transform="translate(105.202 2.275)"/><g class="g" transform="translate(105.202 2.275)"><rect class="c" width="183.182" height="9.881"/></g><rect class="f" width="183.182" height="244.802" transform="translate(105.202 12.156)"/><circle class="f" cx="1.676" cy="1.676" r="1.676" transform="translate(108.344 5.538)"/><circle class="f" cx="1.676" cy="1.676" r="1.676" transform="translate(112.885 5.538)"/><circle class="f" cx="1.676" cy="1.676" r="1.676" transform="translate(117.427 5.538)"/><g class="g" transform="translate(137.895 27.248)"><rect class="c" width="117.791" height="4.612"/></g><rect class="c" width="15.65" height="4.612" transform="translate(240.036 27.248)"/><g class="g" transform="translate(121.014 121.491)"><rect class="h" width="74.125" height="53.095"/></g><g class="g" transform="translate(121.014 52.617)"><rect class="h" width="74.125" height="53.095"/></g><g class="g" transform="translate(121.014 189.469)"><rect class="h" width="74.125" height="53.095"/></g><g class="g" transform="translate(198.446 121.491)"><rect class="h" width="74.125" height="53.095"/></g><g class="g" transform="translate(198.446 52.617)"><rect class="h" width="74.125" height="53.095"/></g><g class="g" transform="translate(198.446 189.469)"><rect class="h" width="74.125" height="53.095"/></g><path class="i" d="M1011.382,692.73s2.624,3.428-1.209,8.6-6.982,9.554-5.714,12.773c0,0,5.78-9.613,10.488-9.745S1016.56,698.51,1011.382,692.73Z" transform="translate(-669.062 -459.573)"/><path class="j" d="M1011.633,692.73a4.223,4.223,0,0,1,.537,1.073c4.593,5.394,7.037,10.429,2.624,10.557-4.108.118-9.043,7.467-10.223,9.323a4.067,4.067,0,0,0,.14.423s5.78-9.613,10.487-9.745S1016.81,698.51,1011.633,692.73Z" transform="translate(-669.313 -459.573)"/><path class="k" d="M1036.016,703.289c0,1.205-.136,2.183-.3,2.183s-.3-.977-.3-2.183.169-.639.338-.639S1036.016,702.08,1036.016,703.289Z" transform="translate(-688.82 -465.763)"/><path class="k" d="M1038.052,707.116c-1.058.577-1.984.926-2.061.779s.713-.735,1.771-1.312.643-.154.735,0S1039.111,706.55,1038.052,707.116Z" transform="translate(-689.184 -468.15)"/><path class="i" d="M975.976,692.73s-2.624,3.428,1.209,8.6,6.982,9.554,5.714,12.773c0,0-5.78-9.613-10.487-9.745S970.791,698.51,975.976,692.73Z" transform="translate(-647.502 -459.573)"/><path class="j" d="M975.976,692.73a4.227,4.227,0,0,0-.536,1.073c-4.593,5.394-7.037,10.429-2.624,10.557,4.112.118,9.043,7.467,10.223,9.323a3.352,3.352,0,0,1-.14.423s-5.78-9.613-10.487-9.745S970.791,698.51,975.976,692.73Z" transform="translate(-647.502 -459.573)"/><path class="k" d="M972.84,703.289c0,1.205.136,2.183.3,2.183s.3-.977.3-2.183-.169-.639-.334-.639S972.84,702.08,972.84,703.289Z" transform="translate(-649.242 -465.763)"/><path class="k" d="M967.164,707.116c1.062.577,1.984.926,2.065.779s-.717-.735-1.775-1.312-.643-.154-.735,0S966.106,706.55,967.164,707.116Z" transform="translate(-645.238 -468.15)"/><ellipse class="a" cx="27.413" cy="4.207" rx="27.413" ry="4.207" transform="translate(307.984 272.347)"/><path class="l" d="M994.762,735.591l-.132,1.069-.184,1.514-.077.628-.184,1.514-.081.632-.184,1.51-2.1,17.2c-.187,1.536-2.694,2.73-5.721,2.73H975.2c-3.028,0-5.512-1.194-5.718-2.73l-2.1-17.2-.184-1.51-.077-.632-.187-1.514-.077-.628-.184-1.514-.132-1.069c-.1-.849,1.268-1.584,2.965-1.584H991.8C993.509,734,994.869,734.735,994.762,735.591Z" transform="translate(-645.254 -485.678)"/><path class="m" d="M902.647,683.01l-.184,1.51H874.874l-.184-1.51Z" transform="translate(-553.271 -432.027)"/><path class="m" d="M902.835,688.84l-.184,1.514H875.587l-.187-1.514Z" transform="translate(-553.721 -435.715)"/><path class="m" d="M903.026,694.67l-.184,1.514H876.3l-.184-1.514Z" transform="translate(-554.176 -439.403)"/><path class="c" d="M683.767,226.295s-.672-1.679,3.862-1.26,17.554,1.867,23.183.6,8.984-1.672,8.65,0-9.742,5.45-9.742,5.45l-12.181,1.26-8.984-1.429-4.825-2.855Z" transform="translate(-466.37 -163.418)"/><path class="j" d="M719.495,225.628c-.338,1.672-9.742,5.45-9.742,5.45l-12.181,1.26-8.985-1.426-4.821-2.855.033-1.764a.735.735,0,0,1,.257-.812c.415-.367,1.385-.654,3.6-.448,4.538.419,17.554,1.863,23.183.6,4.586-1.033,7.665-1.492,8.452-.735a.735.735,0,0,1,.2.735Z" transform="translate(-466.392 -163.413)"/><path class="c" d="M715.207,257.825a52.58,52.58,0,0,0-21.614,9.572,4.009,4.009,0,0,0-1.723-2.047,6.054,6.054,0,0,0-1.749-.735,1.762,1.762,0,0,0-1.6.691,9.052,9.052,0,0,0-1.422,2.106c-8.566-5.879-21.559-9.631-21.559-9.631V256.6a6.516,6.516,0,0,1,.084-.827c.044-.316.1-.6.169-.937,1.1-5.608,5.461-18.421,5.461-18.421h4.928l9.554,1.984,10.748-.658,10.826-2.253,1.4-.294c2.341,1.837,5,14.7,6.041,20.174.132.695.235,1.268.312,1.69C715.159,257.542,715.207,257.825,715.207,257.825Z" transform="translate(-454.865 -170.17)"/><path class="c" d="M667.331,257.477c.283-5.383,4.56-17.05,5.284-18.987h-1.349s-4.615,13.6-5.552,18.9a.14.14,0,0,0,0,.04c-.026.143-.051.283-.07.415-.044.316-.073.6-.084.827v1.176s12.993,3.755,21.559,9.631a9.048,9.048,0,0,1,1.422-2.106C685.267,264.4,672.851,259.549,667.331,257.477Z" transform="translate(-454.877 -172.251)"/><path class="c" d="M760.4,257.024c-.033-.187-.074-.4-.118-.643-.055-.309-.121-.658-.195-1.047h0c-1.044-5.483-3.7-18.348-6.041-20.174l-1.4.294c.853,2.289,6.346,17.238,5.879,20.155-9.187,1.837-18.5,7.809-21.313,9.716a4.009,4.009,0,0,1,1.723,2.047,52.581,52.581,0,0,1,21.614-9.572S760.493,257.517,760.4,257.024Z" transform="translate(-500.198 -170.144)"/><path class="j" d="M668.251,256.563c.279-5.383,4.56-17.05,5.284-18.983h-1.352s-4.615,13.6-5.552,18.9v.04q-.04.22-.066.419c-.044.316-.074.6-.085.827v1.176s12.99,3.752,21.559,9.631a8.893,8.893,0,0,1,1.419-2.106C686.183,263.5,673.771,258.636,668.251,256.563Z" transform="translate(-455.459 -171.675)"/><path class="c" d="M667.331,257.477c.283-5.383,4.56-17.05,5.284-18.987h-1.349s-4.615,13.6-5.552,18.9a.14.14,0,0,0,0,.04c-.026.143-.051.283-.07.415-.044.316-.073.6-.084.827v1.176s12.993,3.755,21.559,9.631a9.048,9.048,0,0,1,1.422-2.106C685.267,264.4,672.851,259.549,667.331,257.477Z" transform="translate(-454.877 -172.251)"/><path class="j" d="M759.5,256.1l-.118-.643c-.059-.309-.121-.654-.195-1.047h0c-1.04-5.479-3.7-18.344-6.041-20.174l-1.4.3c.853,2.289,6.346,17.238,5.88,20.155-9.187,1.837-18.5,7.809-21.313,9.712a4.017,4.017,0,0,1,1.724,2.05,52.525,52.525,0,0,1,21.611-9.576S759.589,256.6,759.5,256.1Z" transform="translate(-499.629 -169.562)"/><path class="c" d="M760.4,257.024c-.033-.187-.074-.4-.118-.643-.055-.309-.121-.658-.195-1.047h0c-1.044-5.483-3.7-18.348-6.041-20.174l-1.4.294c.853,2.289,6.346,17.238,5.879,20.155-9.187,1.837-18.5,7.809-21.313,9.716a4.009,4.009,0,0,1,1.723,2.047,52.581,52.581,0,0,1,21.614-9.572S760.493,257.517,760.4,257.024Z" transform="translate(-500.198 -170.144)"/><path class="j" d="M678.1,252.281s8.525,5.365,10.517-2.491l1.9.507s.625,8.705-12.979,3.737Z" transform="translate(-462.449 -179.398)"/><path class="c" d="M678.1,250.451s8.525,5.365,10.517-2.491l1.9.507s.625,8.705-12.979,3.737Z" transform="translate(-462.449 -178.241)"/><path class="j" d="M752.07,249.892s1.1,6.42,12.784,3.307l-.412-1.213s-7.978,3.307-10.87-2.436Z" transform="translate(-509.598 -179.246)"/><path class="c" d="M752.07,248.062s1.1,6.42,12.784,3.307l-.412-1.213s-7.978,3.307-10.87-2.436Z" transform="translate(-509.598 -178.089)"/><path class="j" d="M730.91,248.011v13.4h2.072s2.866-1.033,2.8-7.055-.5-7.643-.5-7.643Z" transform="translate(-496.213 -177.45)"/><path class="c" d="M730,247.1v13.4h2.072s2.866-1.033,2.8-7.055-.507-7.643-.507-7.643Z" transform="translate(-495.638 -176.874)"/><path class="j" d="M718.564,231.415c-.845,1.573-8.518,4.156-9.874,4.6l-.206.066s-.485.125-1.3.294c-2.469.514-7.974,1.47-12.126.632-.6-.118-1.227-.246-1.863-.367l-1.47-.32c-4.777-1.062-9.719-2.451-10.6-3.675,0,0,.239-3.994,1.044-3.888s9.789,3.888,9.789,3.888l.129.018c.232.029.757.1,1.5.18,2.918.32,9.065.827,12.372-.059.158-.044.305-.088.448-.14.25-.085.511-.173.779-.272,4.255-1.507,10.627-4.2,10.627-4.2S719.5,229.684,718.564,231.415Z" transform="translate(-464.726 -165.723)"/><path class="j" d="M719.495,226.3c-.338,1.672-9.742,5.449-9.742,5.449l-12.181,1.26-8.985-1.426-4.821-2.855.033-1.764a.735.735,0,0,1,.257-.812c1.6.485,9.554,3.833,9.554,3.833l.129.018c.231.029.757.1,1.5.18,2.918.32,9.065.827,12.373-.059.158-.044.3-.088.448-.14.25-.081.511-.173.779-.272,3.847-1.363,9.429-3.7,10.462-4.134A.735.735,0,0,1,719.495,226.3Z" transform="translate(-466.392 -164.085)"/><path class="c" d="M718.564,229.568c-.845,1.573-8.518,4.152-9.874,4.6l-.206.07s-.485.121-1.3.29c-2.469.514-7.974,1.47-12.126.632-.6-.118-1.227-.246-1.863-.367l-1.47-.32c-4.777-1.062-9.719-2.451-10.6-3.675,0,0,.239-3.994,1.044-3.884s9.789,3.884,9.789,3.884l.129.018c.232.029.757.1,1.5.18,2.918.32,9.065.827,12.372-.059.158-.044.305-.088.448-.14.25-.081.511-.173.779-.272,4.255-1.507,10.627-4.2,10.627-4.2S719.5,227.845,718.564,229.568Z" transform="translate(-464.726 -164.553)"/><circle class="j" cx="1.345" cy="1.345" r="1.345" transform="translate(234.807 67.915)"/><circle class="c" cx="1.345" cy="1.345" r="1.345" transform="translate(234.807 67.577)"/><path class="j" d="M712.737,238.69l-.367,3.792-1.47-.32.367-3.653C711.473,238.547,712,238.617,712.737,238.69Z" transform="translate(-483.556 -172.263)"/><path class="c" d="M711.837,238.69l-.367,3.792-1.47-.32.367-3.653C710.569,238.547,711.1,238.617,711.837,238.69Z" transform="translate(-482.987 -172.263)"/><path class="j" d="M750.5,241.389l-.206.07s-.481.121-1.3.29l-1.253-3.6c.158-.044.309-.088.452-.14.25-.081.511-.173.779-.272Z" transform="translate(-506.859 -171.776)"/><path class="c" d="M751.416,241.389l-.206.07s-.485.121-1.3.29l-1.253-3.6c.158-.044.3-.088.448-.14.25-.081.511-.173.779-.272Z" transform="translate(-507.441 -171.776)"/><g class="n" transform="translate(134.873 59.173)"><path class="c" d="M497.456,219.9a9.7,9.7,0,0,1,4.884,1.356,27.38,27.38,0,0,0,6.916,0c2.44-.544,3.675-2.44,4.138-1.9s.474,5.63.474,5.63l-2.1,5.63-4.748,3.524-7.526-2.168L497,225.6Z" transform="translate(-483.13 -219.259)"/><path class="j" d="M513.867,225.011l-2.1,5.63-4.748,3.524L499.491,232,497,225.621l.474-5.7h.11a9.966,9.966,0,0,1,4.777,1.36,27.379,27.379,0,0,0,6.916,0c2.319-.514,3.539-2.256,4.042-1.962h0a.227.227,0,0,1,.077.059C513.867,219.918,513.867,225.011,513.867,225.011Z" transform="translate(-483.13 -219.279)"/><path class="j" d="M513.867,225.075l-2.1,5.63-4.748,3.524-7.526-2.168L497,225.685l.474-5.7h.11c.419,1.8,2.2,7.471,7.893,7.871,5.85.408,7.511-6.552,7.856-8.47a.228.228,0,0,1,.077.059C513.867,219.982,513.867,225.075,513.867,225.075Z" transform="translate(-483.13 -219.342)"/><path class="c" d="M473.581,220.064s1.22,7.934,8,8.408,7.934-8.951,7.934-8.951,9.833,3.223,12.126,8.97,4,10.359,4,10.359-.735,1.286-1.562,1.422-6.442,4-6.442,4-.066,10.987.544,11.663.408,3.594-1.426,3.458-14.511-2.984-25.355-.61c0,0-4.542,1.628-4.41-1.018s.338-13.019.338-13.019-6.85-2.984-7.254-2.984-1.426-.537-.342-2.3,2.444-7.8,2.444-7.8S464.9,223,473.581,220.064Z" transform="translate(-459.255 -219.424)"/><path class="j" d="M555.63,259.77s2.036,1.492,1.562,2.646S555.63,259.77,555.63,259.77Z" transform="translate(-520.215 -244.884)"/><path class="j" d="M563.505,263.67a3.676,3.676,0,0,0,0,2.025" transform="translate(-525.107 -247.351)"/><path class="j" d="M566.51,273.8s.272,1.837-.54,2.032" transform="translate(-526.756 -253.758)"/><path class="j" d="M487.372,258.48s-3.8,3.307-2.51,4.612" transform="translate(-475.284 -244.068)"/><path class="j" d="M485.689,280.26s-.062,3.458.985,3.73" transform="translate(-475.975 -257.844)"/><path class="j" d="M515.4,308.891s2.572-1.76,3.256-1.694" transform="translate(-494.769 -274.882)"/><path class="j" d="M522.4,313.626s2.785-1.97,3.531-1.837" transform="translate(-499.196 -277.784)"/></g><g class="n" transform="translate(211.543 126.563)"><path class="c" d="M687,402.65s22.188,1.051,33.219.4l-.242,2.91-19.52,2.572-5.776-1.779Z" transform="translate(-679.981 -402.65)"/><path class="j" d="M720.234,403.054l-.243,2.91-19.516,2.572-5.78-1.779L687,402.65s.456.026,1.268.059h0c4.814.209,22.147.886,31.665.367Z" transform="translate(-679.981 -402.65)"/><path class="c" d="M715.832,444.438c-4.285,2.572-19.156.081-19.156.081l-4.123-14.7-4.608,14.952c-6.545,2.344-20.045-1.051-20.045-1.051l5.255-32.337.908-4.457.856-4.277,8.327,2.506s2.5,1.7,12.931,1.213,11.961-3.307,11.961-3.307c.459.132.9,1.753,1.338,3.767.639,2.94,1.29,6.71,2.058,7.956C712.841,416.878,715.832,444.438,715.832,444.438Z" transform="translate(-667.9 -402.65)"/><path class="j" d="M720.1,407.7a38.181,38.181,0,0,1-17.3,4.964c-1.981.243-18.127-4.862-18.127-4.862l.856-4.274,8.327,2.506s2.5,1.7,12.931,1.213,11.961-3.307,11.961-3.307C719.219,404.07,719.656,405.687,720.1,407.7Z" transform="translate(-678.508 -403.207)"/><path class="j" d="M720.234,403.054l-.243,2.91-19.516,2.572-5.78-1.779L687,402.65s.456.026,1.268.059h0l7.055,2.124s2.5,1.7,12.931,1.213c8.191-.367,10.9-2.2,11.678-2.973Z" transform="translate(-679.981 -402.65)"/><path class="c" d="M720.1,406.821a38.181,38.181,0,0,1-17.3,4.965c-1.981.242-18.127-4.862-18.127-4.862l.856-4.274,8.327,2.506s2.5,1.7,12.931,1.213,11.961-3.307,11.961-3.307C719.219,403.186,719.656,404.807,720.1,406.821Z" transform="translate(-678.508 -402.65)"/><circle class="j" cx="0.849" cy="0.849" r="0.849" transform="translate(25.017 6.666)"/><circle class="o" cx="0.849" cy="0.849" r="0.849" transform="translate(25.017 6.342)"/><path class="j" d="M679.23,463.58s1.5,4.446,2.547,4.365S679.23,463.58,679.23,463.58Z" transform="translate(-675.067 -441.19)"/><path class="j" d="M676.59,475.46s.93,2.668,1.9,3.112" transform="translate(-673.397 -448.705)"/><path class="j" d="M676.59,483.05a11.734,11.734,0,0,0,2.341,2.3" transform="translate(-673.397 -453.506)"/><path class="j" d="M784,437.3s1.374,2.061,0,2.506" transform="translate(-741.337 -424.567)"/><path class="j" d="M784.132,445.615c-1.595-1.892-.61,2.572-.61,2.572S784.54,446.1,784.132,445.615Z" transform="translate(-740.845 -429.531)"/><path class="j" d="M784.44,452.69s-2.425,3.6-1.94,4" transform="translate(-740.348 -434.302)"/><path class="j" d="M689.827,429.059a17.7,17.7,0,0,1-6.247-1.426l.132-.3c.059.029,5.993,2.605,9.2.672a4.569,4.569,0,0,0,2.025-3.858l.323.026a4.878,4.878,0,0,1-2.183,4.108A6.247,6.247,0,0,1,689.827,429.059Z" transform="translate(-677.818 -416.249)"/><path class="c" d="M689.827,428.179a17.7,17.7,0,0,1-6.247-1.426l.132-.294c.059.026,5.993,2.6,9.2.669a4.569,4.569,0,0,0,2.025-3.858l.323.026a4.878,4.878,0,0,1-2.183,4.108A6.247,6.247,0,0,1,689.827,428.179Z" transform="translate(-677.818 -415.693)"/><path class="j" d="M758.353,430.181a5.031,5.031,0,0,1-2.2-.474,5.656,5.656,0,0,1-2.818-4.127l.323-.04a5.392,5.392,0,0,0,2.638,3.877c2.006.966,4.854.367,8.452-1.837l.165.276A13.358,13.358,0,0,1,758.353,430.181Z" transform="translate(-721.937 -417.129)"/><path class="c" d="M758.353,429.3a5.029,5.029,0,0,1-2.2-.474,5.656,5.656,0,0,1-2.818-4.127l.323-.04a5.392,5.392,0,0,0,2.638,3.877c2.006.966,4.854.367,8.452-1.837l.165.276A13.358,13.358,0,0,1,758.353,429.3Z" transform="translate(-721.937 -416.572)"/></g><path class="c" d="M503.34,404s4.171,5.824,7,5.258,3.112-1.187,5.63-5.258l2.065,4.751-2.433,5.879-2.881,3.73-6.107-.959-1.977-6.673Z" transform="translate(-352.267 -276.941)"/><path class="j" d="M518.039,408.729l-2.433,5.879-2.881,3.73-6.107-.959-1.977-6.673-1.3-6.725s.367.507.941,1.205c1.4,1.672,4.064,4.45,6.063,4.042,2.793-.559,3.105-1.172,5.53-5.093l.1-.165Z" transform="translate(-352.267 -276.922)"/><path class="j" d="M518.039,408.748l-2.433,5.879-2.881,3.73-6.107-.959-1.977-6.673L503.34,404s.367.507.941,1.205c.911,2.94,2.87,7.654,6.063,7.614,3.6-.04,5.06-6.012,5.53-8.654l.1-.165Z" transform="translate(-352.267 -276.941)"/><path class="c" d="M492.337,402.244s-1.415-.169-.68,1.584,2.091,7.518,1.415,8.705-.338,4.41-3.278,5.034l.845,3.333s.169,7.349-.169,8.426a44.668,44.668,0,0,0-.283,7.629c.114.621.059,4.693-.393,4.865a1.553,1.553,0,0,0,.735,2.484c1.47.338,7.742.511,8.874.849s9.157,0,9.157,0,3.392-.452,4.241-.735,1.018-.959.735-2.26-1.584-10.741-1.3-11.928.342-12.777.342-12.777a3.255,3.255,0,0,1-2.2-2.885c0-2.15-.849-7.915.9-11.531,0,0-1.415-.97-1.639-.8a9.1,9.1,0,0,1-2.359-.448s-1.1,9.837-5.714,9.892-6.666-9.892-6.666-9.892S494.939,400.888,492.337,402.244Z" transform="translate(-343.469 -275.358)"/><path class="j" d="M515.49,489.38s.952,2.319,2.539,2.657S515.49,489.38,515.49,489.38Z" transform="translate(-359.953 -330.947)"/><path class="j" d="M511.49,494.3s3.072,2.488,2.94,3" transform="translate(-357.423 -334.059)"/><path class="j" d="M494.72,454.3s2.433,1.639,2.433,2.826" transform="translate(-346.815 -308.758)"/><path class="j" d="M497.238,463.341a13.248,13.248,0,0,0-1.128-2.881" transform="translate(-347.694 -312.654)"/><path class="j" d="M496.11,470.76a21.164,21.164,0,0,1,1.128,2.6" transform="translate(-347.694 -319.169)"/><path class="j" d="M544.8,459.53s-3.164.963-2.885,2.15" transform="translate(-376.66 -312.066)"/><path class="j" d="M541.91,481.3s4.145-4.806,2.9-4.692S541.91,481.3,541.91,481.3Z" transform="translate(-376.664 -322.866)"/><g class="p" transform="translate(145.955 126.139)"><path d="M546.059,428.942c0-.992-.18-2.756-.2-4.722-.022,2.256.2,4.343.2,5.457a3.237,3.237,0,0,0,2.2,2.881v-.735A3.248,3.248,0,0,1,546.059,428.942Z" transform="translate(-525.115 -415.87)"/><path d="M552.7,494.048a5.7,5.7,0,0,1,.1.584,3.676,3.676,0,0,0-.1-1.319c-.243-1.1-1.227-8.18-1.33-10.943A104.8,104.8,0,0,0,552.7,494.048Z" transform="translate(-528.597 -452.652)"/><path d="M491.348,476.122a33.008,33.008,0,0,1,.334-5.512,31.956,31.956,0,0,0,.213-4.99,25.382,25.382,0,0,1-.213,4.255A39.462,39.462,0,0,0,491.348,476.122Z" transform="translate(-490.637 -442.057)"/><path d="M495.845,402.979c2.6-1.356,2.543-.452,2.543-.452s2.036,9.951,6.666,9.892,5.732-9.892,5.732-9.892a9.214,9.214,0,0,0,2.374.448c.224-.173.977.367,1.393.632.077-.195.158-.386.25-.57,0,0-1.415-.97-1.643-.8a9.183,9.183,0,0,1-2.374-.448s-1.1,9.837-5.714,9.892-6.666-9.892-6.666-9.892.055-.9-2.543.452c0,0-1.15-.132-.83,1.135C495.217,402.905,495.845,402.979,495.845,402.979Z" transform="translate(-492.933 -401.497)"/><path d="M489.78,506.272c.367-.136.467-2.653.445-4.042-.018,1.4-.147,3.193-.445,3.307s-.441.735-.327,1.334C489.512,506.555,489.629,506.324,489.78,506.272Z" transform="translate(-489.414 -465.214)"/><path d="M493.691,430.93a3.16,3.16,0,0,0,.173-1.51,1.937,1.937,0,0,1-.173.775c-.68,1.187-.342,4.41-3.282,5.034l.176.691C493.335,435.208,493.026,432.1,493.691,430.93Z" transform="translate(-490.044 -419.159)"/></g><path class="c" d="M517.119,587.832c-1.389,2.528-15.489,0-15.489,0l.037-.254.279-1.959H516.8l.283,1.955Z" transform="translate(-351.186 -391.822)"/><path class="j" d="M517.119,591.018c-1.389,2.528-15.489,0-15.489,0l.037-.254c.676,0,10.877-.242,15.434,0Z" transform="translate(-351.186 -395.008)"/><path class="c" d="M481,591.451h0s-2.528.632-6.449,11.252-5.31,24.341-5.31,24.341-2.2,3.733,7.206,3.983c0,0-.757,2.466,4.553,2.087s4.546-.375,4.546-.375,3.414-2.15,4.931-1.771a7.989,7.989,0,0,1,4.108,1.9c1.643,1.389,6.894.823,6.956-.25a9.921,9.921,0,0,0,0-1.584s8.029.507,6.512-5.31-2.782-15.364-2.782-15.364-4.108-18.649-8.79-18.9S481,591.451,481,591.451Z" transform="translate(-330.558 -395.441)"/><rect class="j" width="32.381" height="0.254" transform="matrix(0.092, -0.996, 0.996, 0.092, 145.777, 235.595)"/><rect class="j" width="33.95" height="0.254" transform="translate(154.854 237.276) rotate(-89.78)"/><path class="o" d="M535.18,611.6" transform="translate(-372.407 -408.256)"/><rect class="j" width="0.254" height="34.101" transform="translate(162.667 203.328) rotate(-2.13)"/><path class="j" d="M550.679,642.726c-.441-19.421-3.748-32.715-3.789-32.833l.246-.062a163.985,163.985,0,0,1,3.8,32.906Z" transform="translate(-379.814 -407.136)"/><path class="j" d="M502.493,596.8s-.441.254,0,1.47" transform="translate(-351.608 -398.894)"/><path class="j" d="M505.361,596.8s-1.2.757,0,2.025" transform="translate(-353.208 -398.894)"/><path class="j" d="M536.9,596.8s1.643,1.58,1.264,2.025" transform="translate(-373.495 -398.894)"/><path class="j" d="M540.5,595.77s.257,1.9,1.205,2.4" transform="translate(-375.773 -398.243)"/><g class="n" transform="translate(221.003 193.538)"><path class="c" d="M722.5,585.88s6.2-2.469,8.885.544-1.837,6.681-1.837,6.681l-1.9,3.785-4.461-.489-1.051-5.233Z" transform="translate(-711.669 -584.923)"/><path class="j" d="M729.548,593.077l-1.9,3.785-4.461-.474-1.051-5.229.367-5.288.1-.037c.786-.29,6.1-2.142,8.635.408a1.975,1.975,0,0,1,.151.154C734.068,589.4,729.548,593.077,729.548,593.077Z" transform="translate(-711.669 -584.913)"/><path class="j" d="M729.548,594.663l-1.9,3.785-4.461-.474-1.051-5.229.367-5.288.1-.037c.768,4.207,2.818,5.982,3.164,6.247l.052.037,1.26-.1c2.451-1.352,3.745-4.568,4.16-5.784a1.976,1.976,0,0,1,.151.154C734.068,590.981,729.548,594.663,729.548,594.663Z" transform="translate(-711.669 -586.499)"/><path class="c" d="M722.356,609.2s-1.367,17.411-1,19.512-.79,2.26-.79,2.26-4.946,1.1-5.879.367a5.625,5.625,0,0,0-2.524-.878s-3.675.842-5.314.213a12.11,12.11,0,0,0-4.366-.367s-2.1,1.264-2.682,1-1.315-.158-3-.628-2.631-.9-1.738-3.789.11-12.045.055-13.152a56.053,56.053,0,0,0-1.315-6.982c-.739-3.2,1.26-2.524,1.26-2.524,4.685-2.418,2.738-7.155,2-9.256s.419-2.2,1-2.2,2.789-1.893,2.789-1.893l.9-.8,2.734-2.455c.68,4.6,2.884,6.526,3.252,6.813l.052.04,1.26-.107c3.05-1.679,4.31-6.247,4.31-6.247a7.969,7.969,0,0,0,2.1,2,36.019,36.019,0,0,0,3.737,2.315c2.2,1.316.581,2.631.581,2.631-2.682,9.15,1.1,9.554,1.1,9.554C723.672,605.03,722.356,609.2,722.356,609.2Z" transform="translate(-693.644 -586.625)"/><path class="j" d="M714.17,601.69s-.79.423-.79.893" transform="translate(-706.128 -595.525)"/><path class="j" d="M715.29,604.12s-1.051,1.1-.867,1.422" transform="translate(-706.774 -597.062)"/><path class="j" d="M715.876,608s-.79.841-.474,1.316" transform="translate(-707.359 -599.516)"/><path class="j" d="M720.83,596.089l-3.307,3.193a14.519,14.519,0,0,0-2.683-7.588l2.734-2.455C718.243,593.874,720.466,595.8,720.83,596.089Z" transform="translate(-707.051 -587.65)"/><path class="c" d="M721.7,594.37l-3.307,3.2a14.538,14.538,0,0,0-2.679-7.592l2.734-2.455C719.124,592.154,721.329,594.083,721.7,594.37Z" transform="translate(-707.602 -586.562)"/><path class="j" d="M742.842,592.688c-1.323,2.065-3.781,7.518-3.781,7.518l-2.631-3.259c3.05-1.683,4.31-6.247,4.31-6.247A8.255,8.255,0,0,0,742.842,592.688Z" transform="translate(-720.708 -588.574)"/><path class="c" d="M741.975,590.981c-1.319,2.069-3.781,7.522-3.781,7.522l-2.624-3.256c3.05-1.679,4.31-6.247,4.31-6.247A8.328,8.328,0,0,0,741.975,590.981Z" transform="translate(-720.164 -587.498)"/><path class="j" d="M746.216,686.14s-.562,4.777-.886,5.049" transform="translate(-726.337 -648.943)"/><path class="j" d="M760.33,688.43s.632,3.417.367,4.208" transform="translate(-735.825 -650.391)"/><path class="j" d="M723.249,689s-.577,3.208,0,3.575" transform="translate(-712.208 -650.752)"/><path class="j" d="M713.739,687.71a39.964,39.964,0,0,0-.367,4.472" transform="translate(-706.112 -649.936)"/><path class="j" d="M760.118,637.47s-1.47,1.157-1.367,1.47" transform="translate(-734.823 -618.157)"/><path class="j" d="M762.239,639.48s-2.815,2.366-1.407,2.1S762.239,639.48,762.239,639.48Z" transform="translate(-735.893 -619.429)"/></g><path class="q" d="M209.1,394.823l.018-.026-.033-.026h0l-.2-.132.04.029a.658.658,0,0,0-.867.191l-.081.114h0l-4.465,6.423-.779,1.143c-2.355-.709-6.181,2.275-8.117,3.987-.121.107-.235.206-.338.3-.154-.345-.246-.566-.246-.566-.1,1.051-3.807,2.627-4.674,3.2a3.124,3.124,0,0,1-1.294.434c.125-3.994-2.965-8.2-2.965-8.2l-7.551-9.609a8.481,8.481,0,0,1,.772-5.1c.063-.125.125-.25.195-.367h.037a8.357,8.357,0,0,0-.474,2.51c.018.65.621,3.8,1.47,3.675a.463.463,0,0,0,.434-.206,5.127,5.127,0,0,0,.7-3.362,6.89,6.89,0,0,1-.121,1.084c.055-1.029-.062-2.117-.062-2.892,0-.309,0-.614.022-.922h.092v0h.1a10.146,10.146,0,0,0,4.612-2.139,2.473,2.473,0,0,0,1.734-.812,1.687,1.687,0,0,1-.327,1.573,2.744,2.744,0,0,0,2.256-1.756,6.129,6.129,0,0,0,.287-2.94,20.423,20.423,0,0,1-.217-2.987,10.993,10.993,0,0,0,.088-1.628,3.14,3.14,0,0,0-.088-.492h.029a.735.735,0,0,0,.525-.206,2.45,2.45,0,0,0,.661-1.44,12.266,12.266,0,0,0,.39-3.421c-.022.349-.066.7-.118,1.051a4.622,4.622,0,0,0-.966-3.568,7.044,7.044,0,0,0-2.253-1.429,1.65,1.65,0,0,1-.735-.525,2.128,2.128,0,0,1-.228-.911c-.283-1.933-2.1-3.278-3.914-4.042-2.33-1.014-5.145-1.448-7.368-.242a23.375,23.375,0,0,0-2.94,2.245c-1.242.944-2.675,1.606-4,2.429a8.016,8.016,0,0,0-3.223,3.285c-.974,2.2-.243,4.7-.121,7.1a11.549,11.549,0,0,1-4.428,9.922,3.973,3.973,0,0,0-.974.842,1.051,1.051,0,0,0-.081,1.2c.158.206.408.323.581.518a1.646,1.646,0,0,1,.143,1.51A9.47,9.47,0,0,1,157.461,394c.055.389.537.544.93.6a21.4,21.4,0,0,0,3.142.228h.452c-.048.121-.1.25-.151.386-.57,1.5-1.308,3.807-1.062,5.218.367,2.227,1.543,12.409.963,14.2s.933,14.735.933,14.735.2,1,.551,2.491c-.908,2.139-1.944,4.512-2.462,5.464-1.044,1.907-.529,11.645,3.068,15.974,0,0,1.47,2.1,1.1,2.863a3.584,3.584,0,0,0,.066,2.1l.57,12.6a32.656,32.656,0,0,1-.265,3.851c-1.536,1.9-3.9,4.671-5.016,5.122-1.723.7-14.577,16.293-14.577,16.293s.1.187.3.492l-.367.419-2.466,2.859-.195.224c-.463-.088-3.546-.647-5.99-.823h-.243v-.044a9.141,9.141,0,0,0-2.572.07.827.827,0,0,0-.426.221c-.834,1.022-1.282,17.058-1.282,17.058s.889,8.029,3.675,8.477a1.472,1.472,0,0,0,.441.081h.121a3.838,3.838,0,0,0,3.307-2.062,3.193,3.193,0,0,0,.276-.735,5.921,5.921,0,0,1,.544-3.4c.867-1.973,2.488-5.446,2.488-5.446s2.94-3.09,2.414-4.59c.081-.121.176-.254.279-.4,1.1-1.573,3.337-4.678,5.145-6.75a5.329,5.329,0,0,1,.367-.4,9.026,9.026,0,0,0,2.05.592,7.463,7.463,0,0,0,3.789-3.5c.437-1.029,2.153-2.852,3.98-4.6l-.059.467-.062,15.338a10.963,10.963,0,0,0,1.889,1.04v.367a49.243,49.243,0,0,1-.4,6.537l-.055.342c-.228-.162-.426-.217-.551-.092-.566.573-.919,4.233-.952,5.92v.169c-.092,1.683-1.051,4.13,1.837,4.255,2.161.092,11.476.231,16.459.3a11.079,11.079,0,0,0,7.349-2.605c1.584-1.356,2.543-2.969.386-4.156-.132-.073-.272-.143-.426-.213l-4.777-.735-8.161-4.167s-.048-2.521-1.029-2.1a2.758,2.758,0,0,0-.827.327c-.048-.092-.1-.191-.147-.294a9.389,9.389,0,0,1-1.007-4.248,3,3,0,0,1,.018-.4,8.106,8.106,0,0,0,.676-.695s-.062-5.729.581-6.809,2.635-12.031,2.635-12.031a5.187,5.187,0,0,1,1.349-3.245c1.286-1.209.834-4.711.834-4.711s1.8-.955,2.377-4.072,2.444-9.922,2.444-9.922,3.855-10.058,3.6-16.418a48.046,48.046,0,0,1,.367-9.675l.8-14.787v-.228c.32.242.536.441.536.441V427.6c.118.1.184.162.184.162s.412-6.71.272-9.37c2.249-.764,5.674-2.021,5.879-2.66.287-.952,4.145-3.961,4.145-3.961a.64.64,0,0,1-.235-.088c.121-.055.246-.121.367-.191,2.528-1.352,7.224-5.306,6.434-7.717l5.145-7.382a1.253,1.253,0,0,0-.129-1.569Z" transform="translate(-117.679 -249.024)"/><path class="r" d="M301.251,488.045a3.353,3.353,0,0,1-1.231.467c-1.606.048-2.94-4.3-2.94-4.3s.456-.463,1.183-1.1c2.153-1.914,6.669-5.449,8.786-3.473C309.438,481.846,304.032,486.549,301.251,488.045Z" transform="translate(-221.801 -324.416)"/><path class="r" d="M223.967,769.983l-5.927,6.4s-5.483.063-4.41-2.962a11.056,11.056,0,0,0,.456-2.014,49.475,49.475,0,0,0,.386-6.475c0-1.418-.022-2.414-.022-2.414s8.632-3.781,7.75.158a7.4,7.4,0,0,0-.176,1.5,9.385,9.385,0,0,0,.985,4.208A9.526,9.526,0,0,0,223.967,769.983Z" transform="translate(-168.928 -502.681)"/><path class="j" d="M223.967,782.892l-5.927,6.4s-5.483.063-4.41-2.962a11.057,11.057,0,0,0,.456-2.014,12.638,12.638,0,0,1,1.907,2.392s3.781,1.1,4.821-2.2a5.613,5.613,0,0,1,2.2-3.212A9.521,9.521,0,0,0,223.967,782.892Z" transform="translate(-168.928 -515.59)"/><path class="s" d="M235.728,792.371a10.781,10.781,0,0,1-7.217,2.572c-4.887-.07-14.019-.213-16.139-.3-2.837-.125-1.9-2.547-1.8-4.215v-.165c.033-1.672.367-5.3.933-5.861s2.5,2.521,2.5,2.521,3.781,1.1,4.821-2.2,3.153-3.627,3.153-3.627c.959-.415,1.007,2.08,1.007,2.08l8,4.127,4.7.735c.151.07.287.14.415.209C238.223,789.431,237.282,791.026,235.728,792.371Z" transform="translate(-166.938 -515.434)"/><circle class="t" cx="0.345" cy="0.345" r="0.345" transform="translate(53.657 269.885)"/><circle class="t" cx="0.345" cy="0.345" r="0.345" transform="translate(56.906 271.495)"/><circle class="t" cx="0.345" cy="0.345" r="0.345" transform="translate(58.574 272.241)"/><circle class="t" cx="0.345" cy="0.345" r="0.345" transform="translate(62.039 273.571)"/><circle class="t" cx="0.345" cy="0.345" r="0.345" transform="translate(60.275 273.005)"/><path class="s" d="M235.728,804.779a10.782,10.782,0,0,1-7.217,2.572c-4.887-.07-14.019-.213-16.139-.3-2.837-.125-1.9-2.547-1.8-4.215l17.811,1.1s7.294-1.1,7.717-3.278C238.223,801.839,237.282,803.434,235.728,804.779Z" transform="translate(-166.938 -527.842)"/><path class="t" d="M235.728,804.779a10.782,10.782,0,0,1-7.217,2.572c-4.887-.07-14.019-.213-16.139-.3-2.837-.125-1.9-2.547-1.8-4.215l17.811,1.1s7.294-1.1,7.717-3.278C238.223,801.839,237.282,803.434,235.728,804.779Z" transform="translate(-166.938 -527.842)"/><path class="r" d="M167.879,734.709a12.3,12.3,0,0,0-1.786,1.793c-1.768,2.051-3.954,5.145-5.038,6.681-.419.6-.672.981-.672.981l-2.366-.349s-2.55-3.906-2.517-4,2.021-4.288,2.021-4.288l.768-.9,2.422-2.83,1.1-1.279S170.014,733.166,167.879,734.709Z" transform="translate(-132.246 -483.476)"/><path class="j" d="M161.055,750.262c-.419.6-.672.981-.672.981l-2.366-.349s-2.55-3.906-2.517-4,2.021-4.3,2.021-4.3l.768-.9.25.048h.6c-2.113,2.2.154,7.055.154,7.055A2.577,2.577,0,0,1,161.055,750.262Z" transform="translate(-132.246 -490.548)"/><path class="s" d="M145.529,754.06s-1.576,3.4-2.429,5.358a5.916,5.916,0,0,0-.536,3.37,3.3,3.3,0,0,1-.268.735,3.711,3.711,0,0,1-3.226,2.043h-.154c-2.874-.074-3.785-8.415-3.785-8.415s.441-15.878,1.26-16.9a.787.787,0,0,1,.415-.22,8.819,8.819,0,0,1,2.532-.07c2.6.187,5.938.827,5.938.827h.6c-2.113,2.2.154,7.059.154,7.059a2.6,2.6,0,0,1,1.8,1.51C148.612,750.771,145.529,754.06,145.529,754.06Z" transform="translate(-119.362 -489.408)"/><circle class="t" cx="0.345" cy="0.345" r="0.345" transform="translate(22.353 259.581)"/><circle class="t" cx="0.345" cy="0.345" r="0.345" transform="translate(22.18 262.334)"/><path class="s" d="M141.666,763.333a3.711,3.711,0,0,1-3.226,2.043h-.151c-2.874-.073-3.789-8.415-3.789-8.415s.441-15.878,1.26-16.9a.786.786,0,0,1,.415-.22,8.823,8.823,0,0,1,2.532-.07c-.048,2.855-.184,11.876,0,12.773S140.519,760.94,141.666,763.333Z" transform="translate(-118.964 -489.288)"/><path class="t" d="M141.666,763.333a3.711,3.711,0,0,1-3.226,2.043h-.151c-2.874-.073-3.789-8.415-3.789-8.415s.441-15.878,1.26-16.9a.786.786,0,0,1,.415-.22,8.823,8.823,0,0,1,2.532-.07c-.048,2.855-.184,11.876,0,12.773S140.519,760.94,141.666,763.333Z" transform="translate(-118.964 -489.288)"/><path class="s" d="M138.279,765.619c-2.874-.073-3.789-8.415-3.789-8.415s.441-15.878,1.26-16.9a.786.786,0,0,1,.415-.22c.6.9,1.132,2.881.654,7.246-.9,8.272.184,8.793.184,8.793S138.352,763.149,138.279,765.619Z" transform="translate(-118.957 -489.524)"/><path class="j" d="M138.279,765.619c-2.874-.073-3.789-8.415-3.789-8.415s.441-15.878,1.26-16.9a.786.786,0,0,1,.415-.22c.6.9,1.132,2.881.654,7.246-.9,8.272.184,8.793.184,8.793S138.352,763.149,138.279,765.619Z" transform="translate(-118.957 -489.524)"/><path class="j" d="M301.251,495.025a3.351,3.351,0,0,1-1.231.467c-1.606.048-2.94-4.3-2.94-4.3s.456-.463,1.183-1.1C298.789,491.266,300.236,494.437,301.251,495.025Z" transform="translate(-221.801 -331.396)"/><path class="u" d="M277.7,493a4.041,4.041,0,0,0,2.172-.47c.849-.566,4.49-2.128,4.586-3.168,0,0,2.172,5.291,3.4,5.483,0,0-3.781,2.976-4.064,3.921s-7.658,3.263-7.658,3.263Z" transform="translate(-208.556 -330.935)"/><path class="j" d="M277.7,493a4.041,4.041,0,0,0,2.172-.47c.849-.566,4.49-2.128,4.586-3.168,0,0,2.172,5.291,3.4,5.483,0,0-3.781,2.976-4.064,3.921s-7.658,3.263-7.658,3.263Z" transform="translate(-208.556 -330.935)"/><path class="j" d="M176.843,734.709a12.3,12.3,0,0,0-1.786,1.793,12.745,12.745,0,0,1-5.387-4.7l1.1-1.279S178.978,733.166,176.843,734.709Z" transform="translate(-141.21 -483.476)"/><path class="v" d="M190.424,669s-4.623,6.177-6.313,6.872S169.82,692,169.82,692s2.708,4.979,7.687,5.795a7.356,7.356,0,0,0,3.719-3.465c1.011-2.4,8.948-9.165,8.948-9.165Z" transform="translate(-141.305 -444.563)"/><path class="j" d="M190.424,669s-4.623,6.177-6.313,6.872S169.82,692,169.82,692s2.708,4.979,7.687,5.795a7.356,7.356,0,0,0,3.719-3.465c1.011-2.4,8.948-9.165,8.948-9.165Z" transform="translate(-141.305 -444.563)"/><path class="j" d="M187.78,725.205a20.155,20.155,0,0,0,4.207,0C194.475,724.966,192.6,726.48,187.78,725.205Z" transform="translate(-152.665 -480.098)"/><path class="j" d="M184.69,729.62s3.307,1.889,4.586.944S188.045,731.476,184.69,729.62Z" transform="translate(-150.71 -482.907)"/><path class="j" d="M223.87,762.663a7.4,7.4,0,0,0-.176,1.5c-2.554,2.319-5.63,1.6-7.551.757,0-1.418-.022-2.414-.022-2.414S224.752,758.709,223.87,762.663Z" transform="translate(-170.591 -502.67)"/><path class="v" d="M234.509,541.234l-.092,1.742-.786,14.643a46.034,46.034,0,0,0-.367,9.576c.265,6.3-3.542,16.279-3.542,16.279s-1.837,6.743-2.4,9.83-2.33,4.042-2.33,4.042.441,3.465-.819,4.663a5.172,5.172,0,0,0-1.323,3.212s-1.955,10.84-2.572,11.913-.57,6.743-.57,6.743c-4.094,4.851-10.08.441-10.08.441l.062-15.187s1.7-13.989,2.962-15.944,1.26-7.309,1.26-7.309l-.562-12.494a3.367,3.367,0,0,1-.062-2.08c.386-.757-1.077-2.833-1.077-2.833-3.531-4.288-4.042-13.931-3.01-15.8s4.086-9.451,4.086-9.451l4.215-2.458,7.618.224Z" transform="translate(-165.918 -363.447)"/><path class="j" d="M230.1,744.15s1,3.45,1.8,3.829S230.1,744.15,230.1,744.15Z" transform="translate(-179.434 -492.098)"/><path class="j" d="M233.83,712.9s2.572,2.036,3.675,2.032S233.83,712.9,233.83,712.9Z" transform="translate(-181.793 -472.331)"/><path class="r" d="M241.319,438.6v4.16l-2.745-1.183-2.738-1.18-5.96-5.861a45.122,45.122,0,0,1-7.235-5.85c-1.44-1.591-2.164-3.094-.9-3.888a7.9,7.9,0,0,0,1.65-1.444,27.127,27.127,0,0,0,3.285-4.851c.04-.07.081-.14.118-.209,1.227-2.253,2.039-4.174,2.039-4.174a24.84,24.84,0,0,1,5.674,2.675c.18.125.349.254.511.386,1.238,1.014,1.856,2.2.713,3.366a8.814,8.814,0,0,0-.812.97h0a7.966,7.966,0,0,0-.507.794c-.066.125-.132.246-.191.367a8.474,8.474,0,0,0-.757,5.045Z" transform="translate(-173.734 -283.343)"/><path class="w" d="M274.5,395.871c.143.25.342.463.474.716a3.443,3.443,0,0,1,.209,1.764,10.031,10.031,0,0,0,.184,2.815,13.119,13.119,0,0,1,.588,2.484A6.517,6.517,0,0,1,274.764,407a2.414,2.414,0,0,0,1.727-.8,1.675,1.675,0,0,1-.316,1.554,2.671,2.671,0,0,0,2.2-1.738,6.06,6.06,0,0,0,.283-2.94,20.058,20.058,0,0,1-.213-2.958,10.813,10.813,0,0,0,.085-1.613,5.853,5.853,0,0,0-1.382-2.866l-1.279-1.756a.9.9,0,0,0-.367-.334C274.3,393.034,274.158,395.261,274.5,395.871Z" transform="translate(-207.415 -270.282)"/><path class="j" d="M245.414,420.534a8.816,8.816,0,0,0-.812.97h0a7.961,7.961,0,0,0-.507.794c-.066.125-.132.246-.191.367a9.922,9.922,0,0,1-7.427-4.013c-.04-.055-.081-.11-.118-.169.04-.07.081-.14.118-.209,1.227-2.253,2.039-4.174,2.039-4.174a24.84,24.84,0,0,1,5.674,2.675c.18.125.349.254.511.386C245.925,418.182,246.542,419.358,245.414,420.534Z" transform="translate(-183.394 -283.33)"/><path class="r" d="M251.217,392.373a9.922,9.922,0,0,1-8.127,9.76,10.037,10.037,0,0,1-1.8.161h-.367a9.922,9.922,0,1,1,10.289-9.922Z" transform="translate(-180.237 -263.316)"/><path class="j" d="M255.642,460.361s5,2.818,3.719.441l-6.523-9.642h0l7.4,9.514s4.726,6.493,2.142,10.965c0,0-.367,3.719.062,4.6s-.125,10.289-.125,10.289-1.768-1.639-2.712-1.327-7.61.871-7.61.871Z" transform="translate(-193.286 -306.772)"/><path class="j" d="M262.181,541.569l-.092,1.742c-.6-.434-1.433-.919-1.988-.735-.944.316-7.621.886-7.621.886l.3-2.172Z" transform="translate(-193.59 -363.782)"/><path class="w" d="M256.133,460.361s5,2.818,3.719.441l-6.523-9.642h0l7.4,9.514s4.726,6.493,2.142,10.965c0,0-.367,3.719.062,4.6s-.125,10.289-.125,10.289-1.764-1.639-2.708-1.327-7.625.886-7.625.886Z" transform="translate(-193.59 -306.772)"/><path class="j" d="M232.579,457.97a34.425,34.425,0,0,1-1.536,6.636s-.882,8.948-2.025,11.608-.632,6.3-1.26,13.045a8.534,8.534,0,0,1-2.065,5.222,7.74,7.74,0,0,1-6.166,2.124l-.463-.037c-3.153-.312-6.177-15.5-6.177-15.5s-1.448-12.92-.882-14.7-.559-11.836-.937-14.041c-.243-1.4.481-3.675,1.04-5.167.327-.86.6-1.47.6-1.47a15.225,15.225,0,0,1,2.837-5.167,2.6,2.6,0,0,1,1.87-.786,4.677,4.677,0,0,1,2.333.735.659.659,0,0,1,.081.055s11.472,11.722,12.542,14.43A6.929,6.929,0,0,1,232.579,457.97Z" transform="translate(-167.364 -299.548)"/><path class="u" d="M231.552,457.472a34.61,34.61,0,0,1-1.54,6.633s-.882,8.951-2.017,11.6-.628,6.3-1.26,13.045a8.554,8.554,0,0,1-2.065,5.222,7.753,7.753,0,0,1-6.166,2.124l-.463-.037c-3.153-.316-6.177-15.5-6.177-15.5s-1.448-12.916-.882-14.68-.566-11.847-.944-14.056c-.243-1.4.481-3.675,1.04-5.167.327-.86.6-1.451.6-1.451a15.225,15.225,0,0,1,2.837-5.167,2.572,2.572,0,0,1,1.87-.783,4.6,4.6,0,0,1,2.333.735l.081.051s11.472,11.722,12.542,14.43A6.785,6.785,0,0,1,231.552,457.472Z" transform="translate(-166.713 -299.238)"/><path class="j" d="M227.471,614.38s-2.6,2.315-3.5,2.2S227.471,614.38,227.471,614.38Z" transform="translate(-175.482 -410.014)"/><path class="j" d="M229.229,620.367a37.3,37.3,0,0,1-3.561,1.47C224.849,622.036,228.171,620.04,229.229,620.367Z" transform="translate(-176.549 -413.778)"/><path class="j" d="M264.44,525.658s4.064.048,4.678,1.323S265.748,525.136,264.44,525.658Z" transform="translate(-201.155 -353.856)"/><path class="j" d="M262.89,531.8s3.12.661,4.064,1.418S262.89,531.8,262.89,531.8Z" transform="translate(-200.175 -357.779)"/><path class="j" d="M244.955,510.84s-.367,12.806-1.771,14.463S244.955,510.84,244.955,510.84Z" transform="translate(-187.483 -344.521)"/><path class="j" d="M237.98,607.867s-2.609,11.3,2.624,11.994S244.22,607,244.22,607Z" transform="translate(-184.007 -405.346)"/><path class="r" d="M237.471,607.37s-2.594,11.3,2.627,12,3.612-12.861,3.612-12.861Z" transform="translate(-183.688 -405.036)"/><path class="j" d="M239.516,391.286a3.824,3.824,0,0,1-.367-.687c-.695-1.448-2.48-.735-3.789-.048l-.7.9a5.6,5.6,0,0,0-.8,1.231,9.316,9.316,0,0,0-.334,1.1c-.18.639-.445,1.249-.684,1.874a21.787,21.787,0,0,0-1.393,6.482,10.033,10.033,0,0,1-1.8.162h-.044v-.044c.066-.25.121-.5.173-.757h0a13.111,13.111,0,0,0,.1-4.336v-.1c-.048-.32-.11-.643-.136-.963-.121.22-.239.445-.367.672-.79,1.47-1.621,2.94-3.112,3.583a6.385,6.385,0,0,1-1.892.426,10.8,10.8,0,0,0-2.366.393,1.47,1.47,0,0,0-.687.415,2.028,2.028,0,0,0-.345,1.036,8.353,8.353,0,0,1-.367,1.437,12.6,12.6,0,0,1-3.087,4.6l-.342.331a6.4,6.4,0,0,1-2.043,1.415,6.246,6.246,0,0,1-2.164.323c.327-.86.6-1.451.6-1.451a15.225,15.225,0,0,1,2.837-5.167,2.572,2.572,0,0,1,1.87-.783,27.755,27.755,0,0,0,3.4-5.06,9.922,9.922,0,1,1,17.848-6.982Z" transform="translate(-168.599 -263.323)"/><path class="w" d="M232.766,371.923a6.77,6.77,0,0,0-2.2-1.415,1.679,1.679,0,0,1-.717-.522,2.183,2.183,0,0,1-.221-.9c-.276-1.918-2.061-3.245-3.836-4.024-2.286-1-5.031-1.433-7.224-.243a23.446,23.446,0,0,0-2.87,2.227c-1.22.933-2.624,1.587-3.925,2.4a7.71,7.71,0,0,0-3.16,3.256c-.955,2.168-.239,4.656-.118,7.022a11.547,11.547,0,0,1-4.343,9.841,3.793,3.793,0,0,0-.955.834,1.047,1.047,0,0,0-.077,1.187c.151.206.4.323.566.514a1.633,1.633,0,0,1,.14,1.5,9.378,9.378,0,0,1-2.521,4.31c.051.389.522.54.908.6a20.61,20.61,0,0,0,3.083.224A5.181,5.181,0,0,0,209.6,397a11.7,11.7,0,0,0,3.807-6.368,2.1,2.1,0,0,1,.345-1.036,1.554,1.554,0,0,1,.687-.415c1.371-.47,2.94-.239,4.259-.819,1.72-.735,2.572-2.572,3.473-4.255.029.32.088.643.14.966a13.067,13.067,0,0,1-.257,5.189,10.769,10.769,0,0,0-.577,2.9c.018.735.764,4.575,1.745,3.425s.621-3.693.621-5.119a21.882,21.882,0,0,1,1.444-7.809c.235-.621.5-1.235.683-1.874a10.04,10.04,0,0,1,.331-1.1,5.759,5.759,0,0,1,.8-1.231l.7-.9c1.308-.695,3.094-1.4,3.789.048.265.555.408,1.169,1.1.628a2.469,2.469,0,0,0,.647-1.426C233.78,375.8,234.14,373.445,232.766,371.923Z" transform="translate(-161.217 -251.703)"/><path class="j" d="M228.391,469.628c-.268-6.787-9.767-8.191-11.983-1.771a.927.927,0,0,0-.044.132c-1.452,4.347-.819,15.356-.819,15.356s.187,7.393.882,9.852,2.646,9.514,2.646,10.657,1.812,5.483,2.572,5.8,1.146,2.771,1.334,3.212.735,6.177.735,6.177,7.121-.441,7.246-1.576-1.576-6.681-1.576-6.681a12.855,12.855,0,0,1-1.415-4.094c-.162-1.826-1.146-2.657-.952-3.917s-.57-1.889-.57-2.708a20.159,20.159,0,0,0-.566-3.024s-1.2-.948-1.007-2.08-1.7-3.4-1.2-4.222a8.527,8.527,0,0,0,.628-2.837s.632-9.073,1.073-11.531,3.024-6.427,3.024-6.427S228.4,469.83,228.391,469.628Z" transform="translate(-170.14 -314.716)"/><path class="j" d="M226.8,509.115a7.753,7.753,0,0,1-6.166,2.124c-.228-.86-.559-1.918-1.04-2.117-.764-.316-2.572-4.663-2.572-5.795s-1.951-8.194-2.646-10.656-.882-9.848-.882-9.848-.632-11.024.819-15.36a.382.382,0,0,1,.044-.129c2.2-6.423,11.715-5.016,11.983,1.771v.312s-2.572,3.969-3.024,6.427-1.066,11.531-1.066,11.531a8.561,8.561,0,0,1-.632,2.837c-.5.819,1.385,3.09,1.2,4.222a2.589,2.589,0,0,0,1.007,2.08,20.134,20.134,0,0,1,.566,3.028c0,.823.757,1.448.57,2.708s.819,2.08.981,3.906A10.187,10.187,0,0,0,226.8,509.115Z" transform="translate(-168.843 -314.384)"/><path class="u" d="M227.361,469.118c-.268-6.787-9.767-8.191-11.983-1.771l-.044.129c-1.451,4.351-.819,15.36-.819,15.36s.187,7.39.882,9.848,2.646,9.517,2.646,10.656,1.812,5.483,2.572,5.8,1.146,2.774,1.334,3.215.735,6.173.735,6.173,7.122-.441,7.246-1.573-1.573-6.68-1.573-6.68a12.859,12.859,0,0,1-1.418-4.1c-.162-1.826-1.169-2.646-.977-3.906s-.57-1.892-.57-2.712a20.159,20.159,0,0,0-.566-3.024,2.571,2.571,0,0,1-1.007-2.08c.191-1.135-1.7-3.4-1.2-4.222a8.511,8.511,0,0,0,.628-2.833s.632-9.076,1.073-11.535,3.024-6.427,3.024-6.427A1.6,1.6,0,0,0,227.361,469.118Z" transform="translate(-169.489 -314.393)"/><path class="j" d="M217.88,521.545c.187-.191,3.781-4.16,4.913-2.741S217.88,521.545,217.88,521.545Z" transform="translate(-171.704 -349.366)"/><path class="j" d="M218.78,530.477c.14-.143,3.59-.283,4.443-2.2S218.78,530.477,218.78,530.477Z" transform="translate(-172.274 -355.225)"/><g class="p" transform="translate(40.19 122.711)"><path d="M206.838,437.71a.974.974,0,0,1,.187.342,1.47,1.47,0,0,0-.187-1.286c-.169-.195-.415-.309-.57-.514l-.029-.051a.974.974,0,0,0,.029,1C206.441,437.4,206.669,437.519,206.838,437.71Z" transform="translate(-204.453 -420.02)"/><path d="M220.519,398.448v-1.073c-.066-1.286-.305-2.605-.367-3.9a47.082,47.082,0,0,0,.367,4.84C220.519,398.356,220.515,398.4,220.519,398.448Z" transform="translate(-213.324 -392.999)"/><path d="M258.245,444.62c-.875,1.025-1.562-1.925-1.712-3.09a4.85,4.85,0,0,0-.033.61c.022.735.764,4.575,1.745,3.425a5.039,5.039,0,0,0,.691-3.329A3.962,3.962,0,0,1,258.245,444.62Z" transform="translate(-236.322 -423.392)"/><path d="M222.6,417.874a12.641,12.641,0,0,1,.136,1.492,12.912,12.912,0,0,0-.136-2.44c-.048-.32-.11-.643-.14-.966-.908,1.7-1.749,3.513-3.469,4.259-1.334.577-2.888.349-4.259.819a1.47,1.47,0,0,0-.687.415,2.05,2.05,0,0,0-.345,1.036,11.755,11.755,0,0,1-3.811,6.368,5.182,5.182,0,0,1-4.31,1.738,21.063,21.063,0,0,1-3.079-.224,2.333,2.333,0,0,1-.463-.121c-.143.162-.294.316-.448.467.051.389.525.54.911.6a20.573,20.573,0,0,0,3.079.224,5.181,5.181,0,0,0,4.31-1.738,11.733,11.733,0,0,0,3.811-6.368,2.061,2.061,0,0,1,.345-1.036,1.513,1.513,0,0,1,.687-.415c1.371-.47,2.94-.239,4.259-.819,1.72-.735,2.572-2.572,3.469-4.255C222.491,417.228,222.554,417.551,222.6,417.874Z" transform="translate(-201.59 -407.218)"/><path d="M272.439,394.614a2.483,2.483,0,0,1-.65,1.426c-.691.537-.83-.073-1.1-.628-.695-1.448-2.48-.735-3.789-.048l-.7.9a5.6,5.6,0,0,0-.8,1.231,8.667,8.667,0,0,0-.331,1.1c-.184.639-.448,1.249-.687,1.87a21.993,21.993,0,0,0-1.44,7.809v.389a21.938,21.938,0,0,1,1.437-7.25c.239-.621.5-1.235.687-1.874a8.66,8.66,0,0,1,.331-1.1,5.6,5.6,0,0,1,.8-1.231l.7-.9c1.308-.694,3.094-1.4,3.789.048.268.555.408,1.169,1.1.628a2.473,2.473,0,0,0,.65-1.426,12.462,12.462,0,0,0,.367-3.388A16.2,16.2,0,0,1,272.439,394.614Z" transform="translate(-240.396 -392.17)"/></g><path class="w" d="M311.917,472.08l.195.132a.779.779,0,0,1-.2-1.1l8.76-12.692a.775.775,0,0,1,1.084-.2l-.195-.136a1.253,1.253,0,0,1,.32,1.742l-8.22,11.932A1.257,1.257,0,0,1,311.917,472.08Z" transform="translate(-231.089 -311.149)"/><path class="x" d="M.639,0h.18V17H.639A.639.639,0,0,1,0,16.36V.643A.639.639,0,0,1,.639,0Z" transform="translate(90.037 146.62) rotate(34.56)"/><rect class="w" width="0.158" height="1.385" rx="0.079" transform="translate(89.402 148.841) rotate(34.56)"/></g></svg>