<svg xmlns="http://www.w3.org/2000/svg" width="233" height="162" viewBox="0 0 233 162">
  <g id="Group_8470" data-name="Group 8470" transform="translate(-835.072 -421.044)">
    <path id="Path_4140" data-name="Path 4140" d="M147.992,65.892c-9.471-3.579-19.48-6.569-29.7-6.193-15.022.551-29.443,8.95-36.505,21.284-5.992,10.45-6.731,22.7-9.312,34.294C69.3,129.561,63.206,143.141,56.7,156.418c-3.495,7.133-7.182,14.42-7.756,22.238-.8,10.855,4.786,21.672,13.54,28.893S82.86,218.58,94.528,219.41c6.209.442,12.7.032,18.212-2.655,5.835-2.843,10.088-7.979,15.947-10.781,5.429-2.6,11.779-2.96,17.874-2.623a85.285,85.285,0,0,1,23.335,4.613c8.519,2.973,16.441,7.28,24.93,10.3s18,4.7,26.684,2.183c8.167-2.364,14.614-8.1,20.428-13.918A247.1,247.1,0,0,0,267.989,175.9c5.246-7.306,10.129-15.013,12.448-23.528,4.436-16.28-1.668-34.646-15.205-45.764-11.216-9.211-26.269-13.209-41-15.635-13.436-2.213-28.973-2.349-41.341-8.115C171.093,77.356,160.36,70.569,147.992,65.892Z" transform="translate(786.205 361.377)" fill="#ffefec"/>
    <g id="Group_8469" data-name="Group 8469" transform="translate(600.966 174.319)">
      <g id="Group_8462" data-name="Group 8462" transform="translate(288.5 261.286)">
        <rect id="Rectangle_16806" data-name="Rectangle 16806" width="48.664" height="66.915" transform="translate(26.836 24.627)" fill="#411a0d"/>
        <rect id="Rectangle_16807" data-name="Rectangle 16807" width="12.271" height="13.06" transform="translate(44.477 57.849)" fill="#f7b97e"/>
        <path id="Path_4119" data-name="Path 4119" d="M362.92,337.245" transform="translate(-290.219 -262.421)" fill="#f7b97e"/>
        <path id="Path_4120" data-name="Path 4120" d="M357.684,391.577l2.637-27.957V336.94l-3.245-2.629-12.72-2.515H333.174l-12.72,2.515-3.245,1.818V363.62l2.639,27.957Z" transform="translate(-287.609 -262.11)" fill="#dd1a1e"/>
        <path id="Path_4121" data-name="Path 4121" d="M392.511,391.888,362.92,337.245v22.094l17.2,32.549Z" transform="translate(-290.219 -262.421)" fill="#dd1a1e"/>
        <g id="Group_8459" data-name="Group 8459" transform="translate(23.424)">
          <path id="Path_4122" data-name="Path 4122" d="M358.653,267.621s4.887-.179,5.526,7.371,4.143,33-16.111,43.881C348.069,318.872,342.065,277.045,358.653,267.621Z" transform="translate(-312.734 -258.446)" fill="#411a0d"/>
          <path id="Path_4123" data-name="Path 4123" d="M356.577,267.065s-2.888-9.175-18.425-9.175-37.54,11.369-22.417,46.386c5.048,11.687,16.383,15.773,16.383,15.773Z" transform="translate(-310.658 -257.89)" fill="#411a0d"/>
        </g>
        <g id="Group_8461" data-name="Group 8461" transform="translate(24.657 4.123)">
          <g id="Group_8460" data-name="Group 8460" transform="translate(0 28.308)">
            <path id="Path_4124" data-name="Path 4124" d="M361.854,301.152h.889c.906,0,1.542-1.569,1.81-2.352a19.978,19.978,0,0,0,.941-3.891c.11-.964-.186-2.624-1.428-2.624a2.843,2.843,0,0,0-2.213,1.446Z" transform="translate(-314.815 -292.285)" fill="#ffc994"/>
            <path id="Path_4125" data-name="Path 4125" d="M315.626,301.152h-.89c-.9,0-1.541-1.569-1.807-2.352a19.621,19.621,0,0,1-.941-3.891c-.112-.964.185-2.624,1.422-2.624a2.838,2.838,0,0,1,2.216,1.446Z" transform="translate(-311.967 -292.285)" fill="#ffc994"/>
          </g>
          <path id="Path_4126" data-name="Path 4126" d="M359.723,279.193a19.535,19.535,0,0,0-8.391-13.278,24.606,24.606,0,0,0-13.68-3.648v0l-.079,0-.07,0v0h-.093v0l-.071,0-.079,0v0a24.612,24.612,0,0,0-13.681,3.648,19.535,19.535,0,0,0-8.387,13.278S312,292.461,317.53,304.554a28.51,28.51,0,0,0,8.923,12.13c4.307,3.642,7.372,4.865,10.957,4.865.014,0,.029,0,.045,0s.032,0,.048,0c3.584,0,6.65-1.223,10.959-4.865a28.534,28.534,0,0,0,8.921-12.13C362.914,292.461,359.723,279.193,359.723,279.193Z" transform="translate(-312.099 -262.263)" fill="#ffc994"/>
        </g>
        <path id="Path_4127" data-name="Path 4127" d="M359.169,289.954a9.847,9.847,0,0,0,1.451,3.7s0-1.721,0-3.541c.4-2.783,2.127-18.36-7.683-25.384-9.98-7.153-16.9-6.376-24-3.014-6.847,1.67-15.308,7.3-15.069,24.937h-.006v6.936a12.361,12.361,0,0,0,1.733-5.539h21.834v-10.54c3.958,5.3,9.345,10.473,16.275,12.884,0,0-8.092-5.747-8.9-13.4C344.808,277,345.977,284.054,359.169,289.954Z" transform="translate(-287.418 -257.967)" fill="#5f2515"/>
        <path id="Path_4128" data-name="Path 4128" d="M358.941,292.876a32.836,32.836,0,0,0-5.268-1.423c-.291-.064-.625-.124-.987-.166A21.464,21.464,0,0,0,348,291.05c-5.82.4-7.713,2.351-8.3,3.339H335.92c-.591-.988-2.48-2.94-8.3-3.339a21.449,21.449,0,0,0-4.691.237c-.372.047-.692.1-.978.162a33.076,33.076,0,0,0-5.278,1.427l-.462.177.961,1.865.146.151.186-.079c.056-.024.757-.327,1.086-.453a16.323,16.323,0,0,0-.244,3.507c0,5.5,2.466,5.946,7.333,5.946,3.889,0,8.913.664,10.233-4.059a8.221,8.221,0,0,0,.308-3.592h3.173a8.255,8.255,0,0,0,.311,3.592c1.315,4.723,6.339,4.059,10.236,4.059,4.865,0,7.329-.449,7.329-5.946a16.105,16.105,0,0,0-.245-3.51c.321.121.85.334.995.4l.191.075,1.165-1.961Zm-23.67,6.576c-1.194,4.621-6.011,3.922-9.765,3.922-4.489,0-6.491-.106-6.491-5.578,0-2.4,0-4.007.791-4.947a21.589,21.589,0,0,1,7.732-1.054c4,.294,5.985,1.389,6.792,2a4.545,4.545,0,0,1,.719.862C335.739,295.811,335.809,297.375,335.272,299.452Zm14.828,3.927c-3.74,0-8.537.686-9.727-3.963-.536-2.086-.464-3.661.226-4.82a4.332,4.332,0,0,1,.685-.849c.827-.633,2.812-1.738,6.8-2.033.377-.025.758-.041,1.14-.041a22.511,22.511,0,0,1,6.56,1.107c.781.947.781,2.555.781,4.968C356.564,303.257,354.575,303.379,350.1,303.379Z" transform="translate(-287.552 -259.781)" fill="#201f1e"/>
        <path id="Path_4129" data-name="Path 4129" d="M298.2,391.888l17.2-32.549V337.245l-29.584,54.643Z" transform="translate(-285.816 -262.421)" fill="#dd1a1e"/>
        <path id="Path_4130" data-name="Path 4130" d="M317.224,305.129a33.354,33.354,0,0,1-1.84-5.116h-.82c-.907,0-1.541-1.569-1.808-2.352a19.623,19.623,0,0,1-.941-3.891c-.11-.964.187-2.624,1.426-2.624.039,0,.079.012.123.015V287.4h0c-.092-6.526,1.016-11.4,2.786-15.045a.109.109,0,0,0,.006-.025s-5.818,2.4-5.818,11.364v26.084c0,13.742,7.009,28.93,2.792,36.589,0,0,19.347,3.663,20.466-24.71a20.094,20.094,0,0,1-7.452-4.4A28.56,28.56,0,0,1,317.224,305.129Z" transform="translate(-287.217 -258.715)" fill="#411a0d"/>
      </g>
      <g id="Group_8468" data-name="Group 8468" transform="translate(307.321 263.424)">
        <path id="Path_4131" data-name="Path 4131" d="M366.218,304.192a19.127,19.127,0,0,1-2.857,5.712,18.669,18.669,0,0,1-4.553,4.467,18.465,18.465,0,0,1-5.837,2.651,23.169,23.169,0,0,1-6.326.714v-1.173a18.992,18.992,0,0,0,11.166-3.5,16.85,16.85,0,0,0,3.964-4.2,17.2,17.2,0,0,0,2.349-5.146Z" transform="translate(-307.785 -263.773)" fill="#8c8b8b"/>
        <g id="Group_8463" data-name="Group 8463" transform="translate(4.929 0.692)">
          <path id="Path_4132" data-name="Path 4132" d="M365.894,287.589h-2.146c0-11.769-11.025-21.342-24.575-21.342S314.6,275.819,314.6,287.589h-2.147c0-12.916,11.988-23.425,26.72-23.425S365.894,274.673,365.894,287.589Z" transform="translate(-312.453 -264.164)" fill="#8c8b8b"/>
        </g>
        <path id="Path_4133" data-name="Path 4133" d="M351.117,268.051a2.14,2.14,0,0,1-2.125.6,46.483,46.483,0,0,0-17.827,0,2.137,2.137,0,0,1-2.121-.6q-.652-1.082-1.3-2.164c-.32-.515.28-1.144,1.354-1.357a57.269,57.269,0,0,1,21.971,0c1.076.212,1.675.841,1.355,1.357Q351.768,266.97,351.117,268.051Z" transform="translate(-307.64 -263.466)" fill="#d2d1d1"/>
        <g id="Group_8466" data-name="Group 8466" transform="translate(0 23.103)">
          <g id="Group_8464" data-name="Group 8464" transform="translate(55.251)">
            <path id="Path_4134" data-name="Path 4134" d="M366.709,287.769v16.542c2.481-.62,4.382-4.08,4.382-8.271S369.19,288.387,366.709,287.769Z" transform="translate(-363.189 -286.755)" fill="#dd1a1e"/>
            <path id="Path_4135" data-name="Path 4135" d="M367.432,303.249a2.1,2.1,0,0,1-2.135,2.069h0a2.1,2.1,0,0,1-2.135-2.069V288.816a2.1,2.1,0,0,1,2.135-2.069h0a2.1,2.1,0,0,1,2.135,2.069Z" transform="translate(-363.162 -286.747)" fill="#222221"/>
          </g>
          <g id="Group_8465" data-name="Group 8465">
            <path id="Path_4136" data-name="Path 4136" d="M311.87,287.769v16.542c-2.483-.62-4.384-4.08-4.384-8.271S309.387,288.387,311.87,287.769Z" transform="translate(-307.486 -286.755)" fill="#dd1a1e"/>
            <path id="Path_4137" data-name="Path 4137" d="M311.148,303.249a2.1,2.1,0,0,0,2.137,2.069h0a2.1,2.1,0,0,0,2.136-2.069V288.816a2.1,2.1,0,0,0-2.136-2.069h0a2.1,2.1,0,0,0-2.137,2.069Z" transform="translate(-307.514 -286.747)" fill="#222221"/>
          </g>
        </g>
        <g id="Group_8467" data-name="Group 8467" transform="translate(34.507 50.661)">
          <path id="Path_4138" data-name="Path 4138" d="M349.5,317.232c0,1.5-1.623,2.714-3.623,2.714s-3.62-1.215-3.62-2.714,1.62-2.715,3.62-2.715S349.5,315.733,349.5,317.232Z" transform="translate(-342.258 -314.517)" fill="#222221"/>
          <path id="Path_4139" data-name="Path 4139" d="M346.685,316.233c0,.631-.681,1.143-1.523,1.143s-1.525-.512-1.525-1.143.684-1.142,1.525-1.142S346.685,315.6,346.685,316.233Z" transform="translate(-342.268 -314.521)" fill="#4c4c4b"/>
        </g>
      </g>
    </g>
  </g>
</svg>
