<svg xmlns="http://www.w3.org/2000/svg" width="196" height="146" viewBox="0 0 196 146">
  <g id="Group_606" data-name="Group 606" transform="translate(-434.003 -162.425)">
    <path id="Path_768" data-name="Path 768" d="M218.923,271.744a51.2,51.2,0,0,1-2.8,7.343,33.164,33.164,0,0,1-1.694,3.181.155.155,0,0,1-.019.028H25l.026-.028c.17-.181,1.171-1.287,2.727-3.181,1.116-1.356,2.517-3.12,4.09-5.242,12.866-17.276,37.581-58.168,17-95.628-19.135-34.824,1.467-41.143,15.058-41.881a29.633,29.633,0,0,1,15.315,3.418,107.3,107.3,0,0,0,32.7,10.54c.491.074.985.149,1.486.216a105.089,105.089,0,0,0,23.823.591h0c.234-.019.469-.042.706-.065a107,107,0,0,0,23.3-4.921c.5-.165.985-.321,1.473-.477,25.5-8.055,49.012,19.4,43.134,50.422-2.173,11.475-1.621,23.707,5.624,33.6C223.329,245.815,221.892,261.723,218.923,271.744Z" transform="translate(409.003 26.129)" fill="tomato" opacity="0.1"/>
    <g id="Group_605" data-name="Group 605" transform="translate(0 40)">
      <path id="Path_769" data-name="Path 769" d="M219.083,704.422a31.4,31.4,0,0,1-2.8,5.288A22.784,22.784,0,0,1,214.592,712H25.15c.17-.131,1.171-.927,2.727-2.29,1.117-.977,2.518-2.247,4.091-3.775l19.967-4.055a3.956,3.956,0,0,1,.784-.079l21.286-.03h.022l10.543-.013H84.6l8.9-.01h11.791l24.448-.034h10.52l4.2-.047h1.388l12.212-.017h5.775l14.106-.018h4.2l13.361-.018,11.278-.013a4.07,4.07,0,0,1,.932.109Z" transform="translate(408.878 -444.458)" fill="#454b69"/>
      <path id="Path_770" data-name="Path 770" d="M27.878,750H216.334a22.769,22.769,0,0,1-1.695,2.29H25.15C25.317,752.151,26.318,751.355,27.878,750Z" transform="translate(408.878 -484.749)" fill="none"/>
      <path id="Path_771" data-name="Path 771" d="M27.878,750H216.334a22.769,22.769,0,0,1-1.695,2.29H25.15C25.317,752.151,26.318,751.355,27.878,750Z" transform="translate(408.878 -484.749)" opacity="0.4"/>
      <path id="Path_772" data-name="Path 772" d="M520.167,199.8l-.372.072-16.815,3.23c-4.884.938-9.839,1.882-14.8,1.521a55.057,55.057,0,0,1-10.4-2.262c-1.952-.529-4.021-.741-4.683-2.925-.913-3.016.573-7.481.923-10.537a29.4,29.4,0,0,0-.064-9.038,16.058,16.058,0,0,0-.523-1.967c-.6-1.774-1.538-3.619-1.03-5.42a7.412,7.412,0,0,1,2.765-3.395c2.238-1.843,4.524-3.909,5.412-6.672.436-1.34.518-2.783.987-4.113a9.606,9.606,0,0,1,5.611-5.424,21.083,21.083,0,0,1,7.9-1.215,53.539,53.539,0,0,1,7.079.47,20.278,20.278,0,0,1,7.4,2.157,9.2,9.2,0,0,1,4.671,5.888c.742,3.587-1.319,7.407-.213,10.891.556,1.761,1.843,3.183,2.736,4.8a11.422,11.422,0,0,1,.838,8.88c-1.069,3.312-3.686,6.663-2.346,9.875.853,2.042,3.031,3.133,4.549,4.752Q519.991,199.586,520.167,199.8Z" transform="translate(38.404 13.339)" fill="#454b69"/>
      <path id="Path_773" data-name="Path 773" d="M522.51,300.391v.494l-16.815,3.23c-4.884.938-9.839,1.882-14.8,1.521a55.058,55.058,0,0,1-10.4-2.262c-1.952-.529-4.021-.741-4.683-2.925-.913-3.016.573-7.481.923-10.537.335-3,5.494-13.949,4.9-16.913l30.829,1.34c.208,1.637,8.356,9.854,7.848,11.424-1.069,3.312-3.686,6.663-2.346,9.875C518.814,297.682,520.993,298.773,522.51,300.391Z" transform="translate(35.69 -87.67)" opacity="0.1"/>
      <path id="Path_774" data-name="Path 774" d="M518.223,338.052a4.56,4.56,0,0,1-.25,3.083c-.705,1.213-2.243,1.6-3.619,1.875l-4.775.955a1.853,1.853,0,0,0-.913.362,1.6,1.6,0,0,0-.426,1.044,11.993,11.993,0,0,0,.977,5.08c1.128,3.336,2.074,6.742,3.5,9.961a21.363,21.363,0,0,0,6.176,8.443,11.942,11.942,0,0,0,9.909,2.456c2.979-.732,5.422-2.835,7.528-5.065A18.221,18.221,0,0,0,540.535,360a22.24,22.24,0,0,0,.953-5.124l.848-7.969c.132-1.247.219-2.649-.59-3.606a4.294,4.294,0,0,0-1.33-.96,54.6,54.6,0,0,1-5.469-2.951,8.771,8.771,0,0,1-3.736-4.792,20.059,20.059,0,0,0-.783-3.634,4.907,4.907,0,0,0-3.183-2.481,10.857,10.857,0,0,0-4.135-.168c-1.381.156-6.7.555-7.273,2.111-.307.838.965,2.636,1.267,3.46A24.16,24.16,0,0,1,518.223,338.052Z" transform="translate(8.455 -133.622)" fill="#efb7b9"/>
      <path id="Path_775" data-name="Path 775" d="M518.223,338.052a4.56,4.56,0,0,1-.25,3.083c-.705,1.213-2.243,1.6-3.619,1.875l-4.775.955a1.853,1.853,0,0,0-.913.362,1.6,1.6,0,0,0-.426,1.044,11.993,11.993,0,0,0,.977,5.08c1.128,3.336,2.074,6.742,3.5,9.961a21.363,21.363,0,0,0,6.176,8.443,11.942,11.942,0,0,0,9.909,2.456c2.979-.732,5.422-2.835,7.528-5.065A18.221,18.221,0,0,0,540.535,360a22.24,22.24,0,0,0,.953-5.124l.848-7.969c.132-1.247.219-2.649-.59-3.606a4.294,4.294,0,0,0-1.33-.96,54.6,54.6,0,0,1-5.469-2.951,8.771,8.771,0,0,1-3.736-4.792,20.059,20.059,0,0,0-.783-3.634,4.907,4.907,0,0,0-3.183-2.481,10.857,10.857,0,0,0-4.135-.168c-1.381.156-6.7.555-7.273,2.111-.307.838.965,2.636,1.267,3.46A24.16,24.16,0,0,1,518.223,338.052Z" transform="translate(8.455 -133.622)" opacity="0.1"/>
      <path id="Path_776" data-name="Path 776" d="M518.888,414.021l2.8-5.928c1.312-2.778,2.652-5.7,2.513-8.764-.027-.61-.034-1.372.5-1.649a1.438,1.438,0,0,1,.736-.094,29.756,29.756,0,0,1,8.631,1.746,3.423,3.423,0,0,1,1.466.848,3.5,3.5,0,0,1,.659,1.558,45.517,45.517,0,0,1,.96,5.675,89.639,89.639,0,0,1,0,14.242l-.744,14.481a1.382,1.382,0,0,1-.122.6,1.288,1.288,0,0,1-.973.511,21.136,21.136,0,0,1-4.368.141c-10.254-.389-20.562-.985-30.749.258q.069-2.26-.072-4.524c-.4-6.516-2.093-12.873-3.751-19.186-.967-3.686-1.9-7.707-.347-11.181a4.791,4.791,0,0,1,.97-1.478,5.512,5.512,0,0,1,2.46-1.235,15.654,15.654,0,0,1,4.74-.536l10.564,23c.483,1.052.88,2.16,1.361,3.2.432-1.794-.087-3.9.432-5.842A36.773,36.773,0,0,1,518.888,414.021Z" transform="translate(19.324 -191.371)" fill="#fff"/>
      <path id="Path_777" data-name="Path 777" d="M457.733,427.883a6.591,6.591,0,0,0,5.026-2.218,15.531,15.531,0,0,0,2.884-4.859,47.922,47.922,0,0,0,2.478-7.726,18.647,18.647,0,0,0,.513-6.844c-.479-3.142-2.257-6-2.56-9.16a1.671,1.671,0,0,1,.426-1.533,1.767,1.767,0,0,1,.979-.255c3.16-.188,6.632-.152,9.079,1.853.746.61,1.35,1.372,2.079,2,1.736,1.508,4.189,2.275,5.3,4.278a14.848,14.848,0,0,1,.846,2.237,20.577,20.577,0,0,0,2.848,4.874c-1.067,4.5-2.294,9.011-3.361,13.515a59.087,59.087,0,0,1-2.237,7.825c-.643,1.659-1.453,3.351-1.255,5.127a11.706,11.706,0,0,0,.514,2.041,23.454,23.454,0,0,1,.987,7.293l-47.809.117A17.707,17.707,0,0,0,437.2,435.14a12.356,12.356,0,0,0-1.508-5.5c-1.518-2.6-4.189-4.289-6.821-5.739-1.843-1.005-3.822,4.651-5.814,4a130.409,130.409,0,0,0,.335-13.349,6.117,6.117,0,0,1,.121-2.238c.158-.491.447-.93.643-1.407.786-1.912.037-4.356,1.307-5.983.878-1.131,2.418-1.453,3.669-2.15a22.046,22.046,0,0,0,3.4-2.8,15.112,15.112,0,0,1,7.734-3.453,9.741,9.741,0,0,1,1.476,4.356c.085.973.023,1.96.159,2.929a14.419,14.419,0,0,0,1.267,3.756,136.439,136.439,0,0,0,7.327,14.882,15.764,15.764,0,0,0,2.838,3.725A6.486,6.486,0,0,0,457.733,427.883Z" transform="translate(79.365 -189.408)" fill="tomato"/>
      <path id="Path_778" data-name="Path 778" d="M457.733,427.883a6.591,6.591,0,0,0,5.026-2.218,15.531,15.531,0,0,0,2.884-4.859,47.922,47.922,0,0,0,2.478-7.726,18.647,18.647,0,0,0,.513-6.844c-.479-3.142-2.257-6-2.56-9.16a1.671,1.671,0,0,1,.426-1.533,1.767,1.767,0,0,1,.979-.255c3.16-.188,6.632-.152,9.079,1.853.746.61,1.35,1.372,2.079,2,1.736,1.508,4.189,2.275,5.3,4.278a14.848,14.848,0,0,1,.846,2.237,20.577,20.577,0,0,0,2.848,4.874c-1.067,4.5-2.294,9.011-3.361,13.515a59.087,59.087,0,0,1-2.237,7.825c-.643,1.659-1.453,3.351-1.255,5.127a11.706,11.706,0,0,0,.514,2.041,23.454,23.454,0,0,1,.987,7.293l-47.809.117A17.707,17.707,0,0,0,437.2,435.14a12.356,12.356,0,0,0-1.508-5.5c-1.518-2.6-4.189-4.289-6.821-5.739-1.843-1.005-3.822,4.651-5.814,4a130.409,130.409,0,0,0,.335-13.349,6.117,6.117,0,0,1,.121-2.238c.158-.491.447-.93.643-1.407.786-1.912.037-4.356,1.307-5.983.878-1.131,2.418-1.453,3.669-2.15a22.046,22.046,0,0,0,3.4-2.8,15.112,15.112,0,0,1,7.734-3.453,9.741,9.741,0,0,1,1.476,4.356c.085.973.023,1.96.159,2.929a14.419,14.419,0,0,0,1.267,3.756,136.439,136.439,0,0,0,7.327,14.882,15.764,15.764,0,0,0,2.838,3.725A6.486,6.486,0,0,0,457.733,427.883Z" transform="translate(79.365 -189.408)" opacity="0.1"/>
      <ellipse id="Ellipse_82" data-name="Ellipse 82" cx="14.362" cy="14.362" rx="14.362" ry="14.362" transform="translate(520.189 175.325)" fill="#efb7b9"/>
      <path id="Path_779" data-name="Path 779" d="M513.393,213.278c.394-3.716-1.151-7.352-2.9-10.654a21.466,21.466,0,0,1-2.156-4.886,6.153,6.153,0,0,1,.776-5.124,10.5,10.5,0,0,1,3.708-2.58c3.788-2.011,7.252-4.966,8.917-8.919-.942.513-.7,2.042.134,2.718a8.6,8.6,0,0,0,2.986,1.128c3.726,1.173,5.961,4.889,7.754,8.361a4,4,0,0,1,.588,1.8,3.657,3.657,0,0,1-.6,1.748,18.938,18.938,0,0,0-2.369,4.849,11.7,11.7,0,0,0,.657,6.1,13.059,13.059,0,0,0,3.168,5.717,5.619,5.619,0,0,0,6.082,1.28c-1.975-3.4-4.021-7.191-3.251-11.042.372-1.843,1.372-3.519,1.8-5.352.811-3.5-.54-7.094-1.865-10.432l-3.961-9.961c-.6-1.523-1.293-3.148-2.681-4.011A7.26,7.26,0,0,0,527,173.18a22.842,22.842,0,0,0-10.5,1.106c-6,2.4-9.765,8.309-12.751,14.042a11.723,11.723,0,0,0-1.741,5.479,15.2,15.2,0,0,0,.558,3.132,59.852,59.852,0,0,1,1.086,12.911c.039,3.321-.134,6.451-1.587,9.475,1.99.4,4.877,1.463,6.848.682C511.488,218.991,513.069,215.863,513.393,213.278Z" transform="translate(13.629 -4.451)" fill="#454b69"/>
      <g id="Group_127" data-name="Group 127" transform="translate(515.634 176.399)" opacity="0.1">
        <path id="Path_780" data-name="Path 780" d="M503.61,308.715q.01-.709,0-1.431a59.854,59.854,0,0,0-1.086-12.911,21.8,21.8,0,0,1-.513-2.493,6.514,6.514,0,0,0-.045.87,15.2,15.2,0,0,0,.558,3.131A59.359,59.359,0,0,1,503.61,308.715Z" transform="translate(-501.966 -279.786)"/>
        <path id="Path_781" data-name="Path 781" d="M711.119,309.736a10.141,10.141,0,0,0,.218-2.986,9.322,9.322,0,0,1-.218,1.478c-.426,1.843-1.426,3.5-1.8,5.352a8.879,8.879,0,0,0-.134,2.476,8.784,8.784,0,0,1,.134-.968C709.693,313.239,710.693,311.572,711.119,309.736Z" transform="translate(-674.44 -292.165)"/>
        <path id="Path_782" data-name="Path 782" d="M563.365,233.2a2.414,2.414,0,0,0,.131-.739,4.038,4.038,0,0,0-.588-1.8c-1.793-3.472-4.021-7.185-7.754-8.361a8.613,8.613,0,0,1-2.986-1.128,2.124,2.124,0,0,1-.734-1.474,19.859,19.859,0,0,1-8.317,7.675,10.518,10.518,0,0,0-3.708,2.58,5.715,5.715,0,0,0-.96,4.056,5.128,5.128,0,0,1,.96-2.548,10.5,10.5,0,0,1,3.708-2.58,19.859,19.859,0,0,0,8.317-7.675,2.124,2.124,0,0,0,.734,1.474,8.753,8.753,0,0,0,2.986,1.128c3.726,1.173,5.962,4.889,7.754,8.361A6.611,6.611,0,0,1,563.365,233.2Z" transform="translate(-532.302 -219.7)"/>
        <path id="Path_783" data-name="Path 783" d="M673.351,359.294a13.109,13.109,0,0,1-3.168-5.717,16.543,16.543,0,0,1-.8-3.638,13.247,13.247,0,0,0,.8,5.145,13.056,13.056,0,0,0,3.168,5.717,5.619,5.619,0,0,0,6.082,1.28q-.357-.611-.709-1.238A5.868,5.868,0,0,1,673.351,359.294Z" transform="translate(-641.302 -328.118)"/>
        <path id="Path_784" data-name="Path 784" d="M513.648,402.059c-.323,2.585-1.905,5.713-4.48,6.736-1.788.709-4.333-.106-6.275-.556a14.51,14.51,0,0,1-.573,1.382c1.99.4,4.877,1.463,6.848.682,2.575-1.022,4.157-4.15,4.48-6.736a11.639,11.639,0,0,0,.037-1.947C513.675,401.766,513.66,401.913,513.648,402.059Z" transform="translate(-502.261 -371.139)"/>
      </g>
      <path id="Path_785" data-name="Path 785" d="M632.137,647.965c-2.589-.411-5.216-1.2-7.783-.67a10.821,10.821,0,0,0-4.085,1.944,4.7,4.7,0,0,1,2.507,3.441,14.072,14.072,0,0,1,.586,3.076,4.682,4.682,0,0,1-.791,2.977c3.264.322,6.427-.482,9.611-1.268a2.63,2.63,0,0,0,1.017-.411,2.183,2.183,0,0,0,.653-1.741,11.919,11.919,0,0,0-.648-3.363C632.816,650.632,632.528,649.275,632.137,647.965Z" transform="translate(-84.682 -399.103)" fill="#fff"/>
      <path id="Path_786" data-name="Path 786" d="M697.5,482.979a4.723,4.723,0,0,1,3.016,2.27c2.059,2.966,2.947,6.561,3.936,10.035a133.566,133.566,0,0,0,4.334,12.754,19.2,19.2,0,0,0,1.3,2.8,7.824,7.824,0,0,1,1.1,2.143c.442,1.9-1.124,3.686-2.758,4.745a10.911,10.911,0,0,1-2.823,1.361,16.818,16.818,0,0,1-3,.513l-9.3,1.005a60.775,60.775,0,0,1-12.883.482c-.27-.938.26-1.6.221-2.579a5.76,5.76,0,0,0-.61-1.992,12.736,12.736,0,0,1-.994-3.6,4.892,4.892,0,0,0-.239-1.352,1.268,1.268,0,0,0-1.005-.838c2.513-.25,4.422-.724,6.935-.975a6.192,6.192,0,0,0,2.7-.7,5.625,5.625,0,0,0,1.979-2.8,14.812,14.812,0,0,0,1.216-8.421c-.469-2.314-1.778-4.469-1.771-6.829a10.218,10.218,0,0,1,1.046-4.055,6.7,6.7,0,0,1,2.7-3.441A9.141,9.141,0,0,1,697.5,482.979Z" transform="translate(-132.133 -262.379)" fill="tomato"/>
      <path id="Path_787" data-name="Path 787" d="M697.5,482.979a4.723,4.723,0,0,1,3.016,2.27c2.059,2.966,2.947,6.561,3.936,10.035a133.566,133.566,0,0,0,4.334,12.754,19.2,19.2,0,0,0,1.3,2.8,7.824,7.824,0,0,1,1.1,2.143c.442,1.9-1.124,3.686-2.758,4.745a10.911,10.911,0,0,1-2.823,1.361,16.818,16.818,0,0,1-3,.513l-9.3,1.005a60.775,60.775,0,0,1-12.883.482c-.27-.938.26-1.6.221-2.579a5.76,5.76,0,0,0-.61-1.992,12.736,12.736,0,0,1-.994-3.6,4.892,4.892,0,0,0-.239-1.352,1.268,1.268,0,0,0-1.005-.838c2.513-.25,4.422-.724,6.935-.975a6.192,6.192,0,0,0,2.7-.7,5.625,5.625,0,0,0,1.979-2.8,14.812,14.812,0,0,0,1.216-8.421c-.469-2.314-1.778-4.469-1.771-6.829a10.218,10.218,0,0,1,1.046-4.055,6.7,6.7,0,0,1,2.7-3.441A9.141,9.141,0,0,1,697.5,482.979Z" transform="translate(-132.133 -262.379)" opacity="0.08"/>
      <path id="Path_788" data-name="Path 788" d="M441.529,341.532a12.179,12.179,0,0,0,1.243-4.5,15.606,15.606,0,0,0-1.2-4.911,28.4,28.4,0,0,1-1.292-6.064.838.838,0,0,1,.084-.581,1,1,0,0,1,.643-.288,5.219,5.219,0,0,0,2.76-2.145,23.515,23.515,0,0,0,2.825-4.718c.555-1.235,1.305-2.741,2.659-2.753a76.8,76.8,0,0,1-2.024,7.582c1.416-.362,2.761-.888,4.177-1.25a2.5,2.5,0,0,1,.858-.114,1.3,1.3,0,0,1,.875,1.932c.692.811,1.843,1.029,2.748,1.585s1.555,1.934.751,2.632a2.244,2.244,0,0,0-.471.406c-.389.6.563,1.288.484,2-.064.581-.809.853-1.374.7a6.182,6.182,0,0,1-1.508-.886,1.577,1.577,0,0,0-1.647-.181,13.155,13.155,0,0,1-.953,4.619c-.25.524-.57,1.015-.771,1.56a7.69,7.69,0,0,0-.355,1.831l-.608,5.561A9.854,9.854,0,0,1,441.529,341.532Z" transform="translate(64.628 -123.108)" fill="#efb7b9"/>
      <path id="Path_789" data-name="Path 789" d="M440.5,465.948l-.534-3.617a4.417,4.417,0,0,1,.64-3.291,22.026,22.026,0,0,0,9.416,1.873,1.47,1.47,0,0,0,1.19-.377,2.73,2.73,0,0,1,.335,2.476c-.236.811-.69,1.542-.992,2.332a3.326,3.326,0,0,1-.568,1.146,2.452,2.452,0,0,1-1.853.568,11.849,11.849,0,0,1-2.091-.2C444.256,466.528,442.286,465.628,440.5,465.948Z" transform="translate(64.911 -242.539)" fill="#fff"/>
      <path id="Path_790" data-name="Path 790" d="M428.441,490.741q-3.443-.392-6.841-1.106a13.836,13.836,0,0,0-3.364-.447,4.042,4.042,0,0,1-2.178-.188,10.486,10.486,0,0,1-.085,6.524c-.447,1.257-1.129,2.428-1.458,3.721-.684,2.706.255,5.657-.6,8.314a2.1,2.1,0,0,1-.516.925c-.261.24-.618.364-.859.623a2.127,2.127,0,0,0-.379,1.478l-.015,4.616c-.01,2.939.028,6.055,1.58,8.545a8.113,8.113,0,0,0,8.736,3.458,6.5,6.5,0,0,0,2.372-1.161,11.079,11.079,0,0,0,2.545-3.448,14.8,14.8,0,0,0,1.945-4.747,13.488,13.488,0,0,0-.054-3.636c-.757-6.7-2.4-13.347-2.047-20.074a6.084,6.084,0,0,1,1.218-3.4Z" transform="translate(87.952 -267.48)" fill="tomato"/>
      <path id="Path_791" data-name="Path 791" d="M465.987,661.684a20.3,20.3,0,0,1-3.5,0c-.838-.1-1.655-.307-2.486-.447a15.935,15.935,0,0,0-12.833,3.565c-.643.55-1.293,1.392-.938,2.161.382.828,1.55.8,2.45.65a7.371,7.371,0,0,0-2.513,1.965,1.484,1.484,0,0,0-.441,1.067c.1.829,1.228.98,2.061.908a.694.694,0,0,0,.256,1.005,1.72,1.72,0,0,0,1.164.085,8.631,8.631,0,0,0,2.473-.856.943.943,0,0,0,.5,1.1,2.072,2.072,0,0,0,1.292.119c2.047-.335,3.756-1.759,5.754-2.319,3.194-.893,6.535.531,9.854.632a6.876,6.876,0,0,0,3.051-.5c1.161-.528,2.1-1.518,3.324-1.87,1.362-.389,2.925.059,4.172-.613.906-.487.089-4.246-.142-4.969-.424-1.324-.849-2.2-2.262-2.336C473.654,660.675,469.588,661.476,465.987,661.684Z" transform="translate(60.25 -410.609)" fill="#efb7b9"/>
      <path id="Path_792" data-name="Path 792" d="M619.88,656.165s5.41,4.579,2.289,9.576l6.032-2.083v-4.372c0-.208-2.291-3.329-2.291-3.329l-2.706-.417Z" transform="translate(-84.411 -406.116)" fill="#fff"/>
      <path id="Path_793" data-name="Path 793" d="M235.979,521.32h2.029a4.189,4.189,0,0,1,4.189,4.189v6.218H231.79v-6.218A4.189,4.189,0,0,1,235.979,521.32Z" transform="translate(241.756 -271.554)" fill="#3f3d56"/>
      <path id="Path_794" data-name="Path 794" d="M235.979,521.32h2.029a4.189,4.189,0,0,1,4.189,4.189v6.218H231.79v-6.218A4.189,4.189,0,0,1,235.979,521.32Z" transform="translate(241.756 -271.554)" opacity="0.1"/>
      <ellipse id="Ellipse_83" data-name="Ellipse 83" cx="0.833" cy="0.833" rx="0.833" ry="0.833" transform="translate(477.536 250.389)" fill="#3f3d56"/>
      <ellipse id="Ellipse_84" data-name="Ellipse 84" cx="0.833" cy="0.833" rx="0.833" ry="0.833" transform="translate(477.536 249.349)" fill="#3f3d56"/>
      <ellipse id="Ellipse_85" data-name="Ellipse 85" cx="0.833" cy="0.833" rx="0.833" ry="0.833" transform="translate(477.536 248.308)" fill="#3f3d56"/>
      <ellipse id="Ellipse_86" data-name="Ellipse 86" cx="0.833" cy="0.833" rx="0.833" ry="0.833" transform="translate(477.536 247.268)" fill="#3f3d56"/>
      <ellipse id="Ellipse_87" data-name="Ellipse 87" cx="0.833" cy="0.833" rx="0.833" ry="0.833" transform="translate(477.536 246.227)" fill="#3f3d56"/>
      <ellipse id="Ellipse_88" data-name="Ellipse 88" cx="0.833" cy="0.833" rx="0.833" ry="0.833" transform="translate(477.536 245.187)" fill="#3f3d56"/>
      <ellipse id="Ellipse_89" data-name="Ellipse 89" cx="0.833" cy="0.833" rx="0.833" ry="0.833" transform="translate(477.536 244.145)" fill="#3f3d56"/>
      <ellipse id="Ellipse_90" data-name="Ellipse 90" cx="0.833" cy="0.833" rx="0.833" ry="0.833" transform="translate(478.808 244.562)" fill="#3f3d56"/>
      <ellipse id="Ellipse_91" data-name="Ellipse 91" cx="0.833" cy="0.833" rx="0.833" ry="0.833" transform="translate(479.655 244.145)" fill="#3f3d56"/>
      <ellipse id="Ellipse_92" data-name="Ellipse 92" cx="0.833" cy="0.833" rx="0.833" ry="0.833" transform="translate(480.503 243.729)" fill="#3f3d56"/>
      <ellipse id="Ellipse_93" data-name="Ellipse 93" cx="0.833" cy="0.833" rx="0.833" ry="0.833" transform="translate(477.536 243.104)" fill="#3f3d56"/>
      <ellipse id="Ellipse_94" data-name="Ellipse 94" cx="0.833" cy="0.833" rx="0.833" ry="0.833" transform="translate(477.536 242.064)" fill="#3f3d56"/>
      <ellipse id="Ellipse_95" data-name="Ellipse 95" cx="0.833" cy="0.833" rx="0.833" ry="0.833" transform="translate(477.536 241.023)" fill="#3f3d56"/>
      <ellipse id="Ellipse_96" data-name="Ellipse 96" cx="0.833" cy="0.833" rx="0.833" ry="0.833" transform="translate(477.536 239.983)" fill="#3f3d56"/>
      <path id="Path_795" data-name="Path 795" d="M271.244,573.54q-.312.045-.623.065a4.794,4.794,0,0,0,.536-.549,3.517,3.517,0,0,0-.5-.977,1.711,1.711,0,0,1-.67.211c-.206.03-.414.052-.622.067a10.376,10.376,0,0,0,.8-.838,3.535,3.535,0,1,0,1.161,2.615,3.467,3.467,0,0,0-.054-.608Z" transform="translate(210.557 -335.411)" fill="tomato"/>
      <path id="Path_796" data-name="Path 796" d="M306.1,610.793a1.615,1.615,0,0,1-.7.233c-.206.03-.414.054-.622.067a6.086,6.086,0,0,0,.617-.64,2.084,2.084,0,1,0,.705.335Z" transform="translate(178.585 -368.527)" fill="tomato"/>
      <ellipse id="Ellipse_97" data-name="Ellipse 97" cx="0.833" cy="0.833" rx="0.833" ry="0.833" transform="translate(476.267 244.562)" fill="#3f3d56"/>
      <ellipse id="Ellipse_98" data-name="Ellipse 98" cx="0.833" cy="0.833" rx="0.833" ry="0.833" transform="translate(475.419 244.145)" fill="#3f3d56"/>
      <ellipse id="Ellipse_99" data-name="Ellipse 99" cx="0.833" cy="0.833" rx="0.833" ry="0.833" transform="translate(474.572 243.729)" fill="#3f3d56"/>
      <path id="Path_797" data-name="Path 797" d="M243.921,610.793a1.614,1.614,0,0,0,.7.233c.206.03.414.054.622.067a5.949,5.949,0,0,1-.617-.64,2.084,2.084,0,1,1-.705.335Z" transform="translate(228.115 -368.527)" fill="tomato"/>
      <path id="Path_798" data-name="Path 798" d="M235.954,525h2.029a4.189,4.189,0,0,1,4.189,4.189V534.7a.71.71,0,0,1-.71.71H232.47a.71.71,0,0,1-.71-.71v-5.507A4.189,4.189,0,0,1,235.954,525Z" transform="translate(241.781 -274.617)" fill="#3f3d56"/>
      <g id="Group_128" data-name="Group 128" transform="translate(474.855 235.24)" opacity="0.1">
        <path id="Path_799" data-name="Path 799" d="M305.008,589.49a3.144,3.144,0,0,1-.268.255,2.7,2.7,0,0,0,.285-.025C305.021,589.642,305.016,589.565,305.008,589.49Z" transform="translate(-298.004 -586.373)"/>
        <path id="Path_800" data-name="Path 800" d="M297.28,580.1c.209-.013.415-.035.623-.065a2.007,2.007,0,0,0,.541-.147,3.679,3.679,0,0,0-.292-.481,1.26,1.26,0,0,1-.335.142A4.826,4.826,0,0,1,297.28,580.1Z" transform="translate(-291.794 -577.982)"/>
        <path id="Path_801" data-name="Path 801" d="M264.907,574.795a3.532,3.532,0,0,1,5.445-2.976l.054-.057a3.535,3.535,0,1,0-4.661,5.316A3.518,3.518,0,0,1,264.907,574.795Z" transform="translate(-264.54 -570.885)"/>
      </g>
      <g id="Group_129" data-name="Group 129" transform="translate(481.36 241.856)" opacity="0.1">
        <path id="Path_802" data-name="Path 802" d="M314.68,613.51c.208-.013.416-.035.622-.065a1.619,1.619,0,0,0,.7-.235,2.083,2.083,0,0,1,.838,1.474,1.919,1.919,0,0,0,.012-.219,2.074,2.074,0,0,0-.838-1.676,1.614,1.614,0,0,1-.7.233l-.168.022a4.249,4.249,0,0,1-.466.466Z" transform="translate(-312.683 -612.384)"/>
        <path id="Path_803" data-name="Path 803" d="M304.841,610.785a1.7,1.7,0,0,1,.208.015c.109-.116.216-.24.325-.36a2.078,2.078,0,0,0-2.614,2.011,1.429,1.429,0,0,0,.01.208A2.081,2.081,0,0,1,304.841,610.785Z" transform="translate(-302.76 -610.37)"/>
      </g>
      <g id="Group_130" data-name="Group 130" transform="translate(471.187 241.856)" opacity="0.1">
        <path id="Path_804" data-name="Path 804" d="M245.261,613.51c-.208-.013-.416-.035-.622-.065a1.617,1.617,0,0,1-.7-.235,2.083,2.083,0,0,0-.838,1.474,1.912,1.912,0,0,1-.012-.219,2.074,2.074,0,0,1,.838-1.676,1.614,1.614,0,0,0,.7.233l.168.022A3.953,3.953,0,0,0,245.261,613.51Z" transform="translate(-243.09 -612.384)"/>
        <path id="Path_805" data-name="Path 805" d="M252.9,610.785a1.767,1.767,0,0,0-.209.015c-.107-.116-.214-.24-.323-.36a2.078,2.078,0,0,1,2.614,2.011,1.425,1.425,0,0,1-.01.208A2.081,2.081,0,0,0,252.9,610.785Z" transform="translate(-250.815 -610.37)"/>
      </g>
      <path id="Path_806" data-name="Path 806" d="M137.065,689.987H120.7a.7.7,0,0,1-.7-.7v-7.747a.7.7,0,0,1,.994-.628c4.7,2.232,9.77,3,15.75.035a.7.7,0,0,1,1.005.622v7.707A.7.7,0,0,1,137.065,689.987Z" transform="translate(329.92 -427.184)" fill="tomato"/>
      <path id="Path_807" data-name="Path 807" d="M137.065,689.987H120.7a.7.7,0,0,1-.7-.7v-7.747a.7.7,0,0,1,.994-.628c4.7,2.232,9.77,3,15.75.035a.7.7,0,0,1,1.005.622v7.707A.7.7,0,0,1,137.065,689.987Z" transform="translate(329.92 -427.184)" opacity="0.1"/>
      <ellipse id="Ellipse_100" data-name="Ellipse 100" cx="0.968" cy="1.268" rx="0.968" ry="1.268" transform="translate(457.718 254.377)" fill="#3f3d56"/>
      <ellipse id="Ellipse_101" data-name="Ellipse 101" cx="0.968" cy="1.268" rx="0.968" ry="1.268" transform="translate(457.718 252.827)" fill="#3f3d56"/>
      <ellipse id="Ellipse_102" data-name="Ellipse 102" cx="0.968" cy="1.268" rx="0.968" ry="1.268" transform="translate(457.718 251.276)" fill="#3f3d56"/>
      <ellipse id="Ellipse_103" data-name="Ellipse 103" cx="0.968" cy="1.268" rx="0.968" ry="1.268" transform="translate(457.718 249.726)" fill="#3f3d56"/>
      <ellipse id="Ellipse_104" data-name="Ellipse 104" cx="0.968" cy="1.268" rx="0.968" ry="1.268" transform="translate(457.718 248.174)" fill="#3f3d56"/>
      <ellipse id="Ellipse_105" data-name="Ellipse 105" cx="0.968" cy="1.268" rx="0.968" ry="1.268" transform="translate(457.718 246.623)" fill="#3f3d56"/>
      <ellipse id="Ellipse_106" data-name="Ellipse 106" cx="0.968" cy="1.268" rx="0.968" ry="1.268" transform="translate(457.718 245.073)" fill="#3f3d56"/>
      <path id="Path_808" data-name="Path 808" d="M152.8,536.382a4.934,4.934,0,0,0,.36-.531l-2.547-.419,2.755.02a4.643,4.643,0,0,0,.089-3.686l-3.694,1.917,3.408-2.513a4.643,4.643,0,1,0-7.669,5.194,4.543,4.543,0,0,0-.529.846l3.3,1.736-3.519-1.19a4.648,4.648,0,0,0,.749,4.356,4.643,4.643,0,1,0,7.3,0,4.643,4.643,0,0,0,0-5.74Z" transform="translate(309.515 -300.654)" fill="tomato"/>
      <path id="Path_809" data-name="Path 809" d="M144.49,590.59a18.45,18.45,0,0,1,1.492,9.151,4.643,4.643,0,0,0,6.8-6.281C153.4,592.671,144.49,590.069,144.49,590.59Z" transform="translate(309.533 -351.991)" opacity="0.1"/>
      <path id="Path_810" data-name="Path 810" d="M137.065,690.4H120.7a.7.7,0,0,1-.7-.7v-8.158a.7.7,0,0,1,.994-.628c4.7,2.232,8.433,4.834,15.75.035a.682.682,0,0,1,1.005.622V689.7A.7.7,0,0,1,137.065,690.4Z" transform="translate(329.92 -427.184)" fill="tomato"/>
      <path id="Path_811" data-name="Path 811" d="M737.176,545.813l-24.151,3.2-1.208.159-11.807-6.307v-1.476l36.9-4.025Z" transform="translate(-146.218 -284.906)" fill="#9c9ca1"/>
      <path id="Path_812" data-name="Path 812" d="M740.85,558.865l26.163-3.085-.268,4.83-20.379,1.495Z" transform="translate(-180.244 -300.24)" fill="#939498"/>
      <path id="Path_813" data-name="Path 813" d="M738.017,703.677v1.585l-1.208.168L725,699.116V697.64l11.271,6.032A7.463,7.463,0,0,0,738.017,703.677Z" transform="translate(-171.546 -441.162)" opacity="0.4"/>
      <path id="Path_814" data-name="Path 814" d="M803.24,568.694l-5.422,25.141a1.605,1.605,0,0,0,1.779,1.932l34.3-4.541a1.605,1.605,0,0,0,1.314-1.086l7.4-22.318a1.608,1.608,0,0,0-1.6-2.111l-36.278,1.722A1.608,1.608,0,0,0,803.24,568.694Z" transform="translate(-230.981 -331.337)" fill="#3f3d56"/>
      <ellipse id="Ellipse_107" data-name="Ellipse 107" cx="1.458" cy="0.937" rx="1.458" ry="0.937" transform="translate(588.418 247.887) rotate(-84)" fill="#fff"/>
    </g>
  </g>
</svg>
