<svg id="undraw_on_the_way_ldaq_1_" data-name="undraw_on_the_way_ldaq (1)" xmlns="http://www.w3.org/2000/svg" width="144.061" height="110.322" viewBox="0 0 144.061 110.322">
  <path id="Path_353" data-name="Path 353" d="M285.392,75.362a35.085,35.085,0,0,0-5.713-9.105L200.4,65.476l65.274-9.168a37.081,37.081,0,0,0-13.244-2.627,37.12,37.12,0,0,0-44.342-1.5,36.96,36.96,0,0,0-16.97-4.092c-17.616,0-32.293,12.2-35.586,28.379Z" transform="translate(-144.119 -45.556)" fill="#a7a8c2" opacity="0.1"/>
  <path id="Path_354" data-name="Path 354" d="M215.921,282.5a34.275,34.275,0,0,0-2.47-12.807l-137.4,14.423a34.505,34.505,0,0,0-3.215,8.13l42.552,6.342L71.86,303.21c1.309,18.315,17.01,32.778,36.19,32.778a36.72,36.72,0,0,0,24.929-9.641,36.866,36.866,0,0,0,57.934-10.33,35.769,35.769,0,0,0,23.85-24.65l-53.81-8.345h54.963C215.919,282.846,215.921,282.671,215.921,282.5Z" transform="translate(-71.86 -239.121)" fill="#a7a8c2" opacity="0.1"/>
  <ellipse id="Ellipse_48" data-name="Ellipse 48" cx="3.521" cy="0.484" rx="3.521" ry="0.484" transform="translate(0.312 100.277)" fill="#a7a8c2" opacity="0.1"/>
  <ellipse id="Ellipse_49" data-name="Ellipse 49" cx="3.521" cy="0.484" rx="3.521" ry="0.484" transform="translate(13.802 101.645)" fill="#a7a8c2" opacity="0.1"/>
  <ellipse id="Ellipse_50" data-name="Ellipse 50" cx="3.521" cy="0.484" rx="3.521" ry="0.484" transform="translate(29.693 99.793)" fill="#a7a8c2" opacity="0.1"/>
  <ellipse id="Ellipse_51" data-name="Ellipse 51" cx="2.504" cy="0.344" rx="2.504" ry="0.344" transform="translate(9.42 105.68)" fill="#a7a8c2" opacity="0.1"/>
  <ellipse id="Ellipse_52" data-name="Ellipse 52" cx="2.504" cy="0.344" rx="2.504" ry="0.344" transform="translate(23.423 105.337)" fill="#a7a8c2" opacity="0.1"/>
  <path id="Path_355" data-name="Path 355" d="M186.88,624.248s-4.94-16.192.772-22.677c4.274-4.853,9.124-4.272,11.3-3.672a4.015,4.015,0,0,1,2.591,2.154c.76,1.637.622,4.3-4.739,7.4-8.977,5.2-9.535,12.327-9.535,12.327Z" transform="translate(-169.48 -522.228)" fill="#a7a8c2"/>
  <path id="Path_356" data-name="Path 356" d="M207.714,617.23s-14.561,4.552-11.3,24.052" transform="translate(-179.018 -539.262)" fill="none" stroke="#565987" stroke-miterlimit="10" stroke-width="1"/>
  <path id="Path_357" data-name="Path 357" d="M219.91,629.2s2,1.35,1.364,3.381" transform="translate(-199.718 -549.599)" fill="none" stroke="#565987" stroke-miterlimit="10" stroke-width="1"/>
  <path id="Path_358" data-name="Path 358" d="M254.347,633.15a2.53,2.53,0,0,0-2.717-.559" transform="translate(-227.112 -552.349)" fill="none" stroke="#565987" stroke-miterlimit="10" stroke-width="1"/>
  <path id="Path_359" data-name="Path 359" d="M212.2,681.384s-2.152-1.091-2.709.273" transform="translate(-190.719 -594.309)" fill="none" stroke="#565987" stroke-miterlimit="10" stroke-width="1"/>
  <path id="Path_360" data-name="Path 360" d="M190.3,700.63s1.616-.128,1.646.645" transform="translate(-174.146 -611.28)" fill="none" stroke="#565987" stroke-miterlimit="10" stroke-width="1"/>
  <path id="Path_361" data-name="Path 361" d="M198,721.615s5.785-11.769,7.374-11.511c.754.123,1.1.865,1.26,1.611a4.746,4.746,0,0,1-.315,2.872A12.7,12.7,0,0,1,198,721.615Z" transform="translate(-180.796 -619.465)" fill="#a7a8c2"/>
  <path id="Path_362" data-name="Path 362" d="M205.845,726.51s-6.072,8.805-7.245,9.191" transform="translate(-181.314 -633.638)" fill="none" stroke="#565987" stroke-miterlimit="10" stroke-width="1"/>
  <line id="Line_2" data-name="Line 2" x1="1.417" transform="translate(23.672 94.246)" fill="none" stroke="#565987" stroke-miterlimit="10" stroke-width="1"/>
  <line id="Line_3" data-name="Line 3" x1="2.22" y2="0.095" transform="translate(21.171 97.467)" fill="none" stroke="#565987" stroke-miterlimit="10" stroke-width="1"/>
  <line id="Line_4" data-name="Line 4" x2="0.241" y2="1.157" transform="translate(22.04 94.891)" fill="none" stroke="#565987" stroke-miterlimit="10" stroke-width="1"/>
  <line id="Line_5" data-name="Line 5" x2="0.044" y2="1.052" transform="translate(19.678 98.412)" fill="none" stroke="#565987" stroke-miterlimit="10" stroke-width="1"/>
  <path id="Path_363" data-name="Path 363" d="M143.962,721.615s-5.786-11.769-7.374-11.511c-.754.123-1.1.865-1.26,1.611a4.736,4.736,0,0,0,.316,2.864A12.679,12.679,0,0,0,143.962,721.615Z" transform="translate(-126.591 -619.465)" fill="#a7a8c2"/>
  <path id="Path_364" data-name="Path 364" d="M145.48,726.51s6.072,8.805,7.245,9.191" transform="translate(-135.439 -633.638)" fill="none" stroke="#565987" stroke-miterlimit="10" stroke-width="1"/>
  <line id="Line_6" data-name="Line 6" x2="1.417" transform="translate(9.483 94.246)" fill="none" stroke="#565987" stroke-miterlimit="10" stroke-width="1"/>
  <line id="Line_7" data-name="Line 7" x2="2.222" y2="0.095" transform="translate(11.18 97.467)" fill="none" stroke="#565987" stroke-miterlimit="10" stroke-width="1"/>
  <line id="Line_8" data-name="Line 8" x1="0.241" y2="1.157" transform="translate(12.291 94.891)" fill="none" stroke="#565987" stroke-miterlimit="10" stroke-width="1"/>
  <line id="Line_9" data-name="Line 9" x1="0.044" y2="1.052" transform="translate(14.851 98.412)" fill="none" stroke="#565987" stroke-miterlimit="10" stroke-width="1"/>
  <path id="Path_365" data-name="Path 365" d="M251.785,804.606a1,1,0,0,0,.33-.5.442.442,0,0,0-.23-.506c-.211-.082-.438.065-.608.213a.817.817,0,0,1-.592.286.9.9,0,0,0,.273-.843.352.352,0,0,0-.076-.172c-.117-.125-.33-.071-.471.027a1.751,1.751,0,0,0-.574,1.467,2.794,2.794,0,0,1-.008-.6.617.617,0,0,0-.228-.535.666.666,0,0,0-.345-.082.744.744,0,0,0-.562.16.558.558,0,0,0,.022.69,2.2,2.2,0,0,0,.581.465,1.3,1.3,0,0,1,.409.4.415.415,0,0,1,.03.071h1.259A3.484,3.484,0,0,0,251.785,804.606Z" transform="translate(-224.481 -699.708)" fill="#a7a8c2"/>
  <path id="Path_366" data-name="Path 366" d="M90.149,769.853a1,1,0,0,0,.33-.5.445.445,0,0,0-.23-.507c-.211-.08-.436.067-.608.214a.816.816,0,0,1-.592.285.9.9,0,0,0,.273-.843.355.355,0,0,0-.078-.17c-.117-.126-.33-.072-.471.027a1.752,1.752,0,0,0-.574,1.468,2.806,2.806,0,0,1-.008-.606.614.614,0,0,0-.226-.533.671.671,0,0,0-.346-.082.713.713,0,0,0-.562.16.548.548,0,0,0,.022.682,2.162,2.162,0,0,0,.582.466,1.279,1.279,0,0,1,.409.4.483.483,0,0,1,.031.071H89.36a3.514,3.514,0,0,0,.79-.531Z" transform="translate(-84.889 -669.695)" fill="#a7a8c2"/>
  <path id="Path_367" data-name="Path 367" d="M144.025,804.606a1,1,0,0,0,.33-.5.442.442,0,0,0-.23-.506c-.211-.082-.438.066-.608.213a.817.817,0,0,1-.592.286.9.9,0,0,0,.273-.843.352.352,0,0,0-.076-.172c-.117-.125-.33-.071-.471.027a1.751,1.751,0,0,0-.574,1.467,2.792,2.792,0,0,1-.008-.6.616.616,0,0,0-.226-.535.674.674,0,0,0-.346-.082.745.745,0,0,0-.562.16.559.559,0,0,0,.022.69,2.2,2.2,0,0,0,.581.465,1.3,1.3,0,0,1,.409.4.415.415,0,0,1,.03.071h1.259A3.484,3.484,0,0,0,144.025,804.606Z" transform="translate(-131.418 -699.709)" fill="#a7a8c2"/>
  <path id="Path_368" data-name="Path 368" d="M308.85,744.43s.472.618-.218,1.549-1.258,1.719-1.028,2.3c0,0,1.041-1.731,1.888-1.755S309.781,745.471,308.85,744.43Z" transform="translate(-275.406 -649.114)" fill="#a7a8c2"/>
  <path id="Path_369" data-name="Path 369" d="M309.021,744.43a.784.784,0,0,1,.1.194c.827.971,1.266,1.877.472,1.9-.741.022-1.627,1.345-1.84,1.679.007.026.015.05.025.076,0,0,1.041-1.731,1.888-1.755S309.953,745.471,309.021,744.43Z" transform="translate(-275.578 -649.114)" opacity="0.1"/>
  <path id="Path_370" data-name="Path 370" d="M322.809,749.322c0,.217-.025.393-.055.393s-.055-.176-.055-.393.031-.115.061-.115S322.809,749.105,322.809,749.322Z" transform="translate(-288.489 -653.219)" fill="#ffd037"/>
  <path id="Path_371" data-name="Path 371" d="M323.355,751.144c-.191.1-.357.167-.371.136s.128-.136.319-.236.115-.029.13,0S323.546,751.041,323.355,751.144Z" transform="translate(-288.734 -654.782)" fill="#ffd037"/>
  <path id="Path_372" data-name="Path 372" d="M292.094,744.43s-.472.618.218,1.549,1.259,1.719,1.028,2.3c0,0-1.041-1.731-1.888-1.755S291.168,745.471,292.094,744.43Z" transform="translate(-261.144 -649.114)" fill="#a7a8c2"/>
  <path id="Path_373" data-name="Path 373" d="M292.094,744.43a.759.759,0,0,0-.1.194c-.826.971-1.267,1.877-.473,1.9.741.022,1.629,1.345,1.841,1.679-.008.026-.016.05-.026.076,0,0-1.041-1.731-1.888-1.755S291.168,745.471,292.094,744.43Z" transform="translate(-261.144 -649.114)" opacity="0.1"/>
  <path id="Path_374" data-name="Path 374" d="M292.36,749.322c0,.217.025.393.055.393s.055-.176.055-.393-.03-.115-.06-.115S292.36,749.105,292.36,749.322Z" transform="translate(-262.287 -653.219)" fill="#ffd037"/>
  <path id="Path_375" data-name="Path 375" d="M289.388,751.144c.191.1.357.167.372.136s-.13-.136-.319-.236-.116-.029-.136,0S289.2,751.041,289.388,751.144Z" transform="translate(-259.616 -654.782)" fill="#ffd037"/>
  <path id="Path_376" data-name="Path 376" d="M293.46,767.535a4.818,4.818,0,0,0,1.717-.323c.4-.284,2.029-.622,2.129-.168s1.982,2.259.492,2.271a12.618,12.618,0,0,1-3.857-.473C293.545,768.6,293.46,767.535,293.46,767.535Z" transform="translate(-263.237 -668.452)" fill="#a8a8a8"/>
  <path id="Path_377" data-name="Path 377" d="M297.826,773.663a12.624,12.624,0,0,1-3.858-.473c-.3-.184-.423-.844-.462-1.15h-.045s.085,1.065.481,1.307a12.618,12.618,0,0,0,3.857.473c.431,0,.578-.157.57-.383C298.307,773.576,298.145,773.66,297.826,773.663Z" transform="translate(-263.237 -672.958)" opacity="0.2"/>
  <ellipse id="Ellipse_53" data-name="Ellipse 53" cx="44.928" cy="2.038" rx="44.928" ry="2.038" transform="translate(38.593 106.246)" fill="#a7a8c2" opacity="0.1"/>
  <path id="Path_378" data-name="Path 378" d="M619.559,389.386s2.864,5.419,3.086,6.192a1.045,1.045,0,0,0,.966.772s2.853.682,3.535.773,6.593.591,6.593.591,1.5.046,1.682-.5c.166-.5,3.065-3.122,4.742-.833a1.668,1.668,0,0,1,.243,1.489c-.308.982-.941,2.541-1.62,1.571-.955-1.364-2.065-.981-2.065-.254s-1.527.457-2.027.559c-.273.056-1.211.306-2.022.524a14.733,14.733,0,0,1-2.881.479,17.4,17.4,0,0,1-4.827-.126,13.1,13.1,0,0,0-3.546-.5,1.166,1.166,0,0,1-.691-.248,10.787,10.787,0,0,1-2.625-2.986c-1.182-2.046-3.614-6.282-3.451-7.509S619.559,389.386,619.559,389.386Z" transform="translate(-540.615 -342.021)" fill="#efb7b9"/>
  <path id="Path_379" data-name="Path 379" d="M619.559,389.386s2.864,5.419,3.086,6.192a1.045,1.045,0,0,0,.966.772s2.853.682,3.535.773,6.593.591,6.593.591,1.5.046,1.682-.5c.166-.5,3.065-3.122,4.742-.833a1.668,1.668,0,0,1,.243,1.489c-.308.982-.941,2.541-1.62,1.571-.955-1.364-2.065-.981-2.065-.254s-1.527.457-2.027.559c-.273.056-1.211.306-2.022.524a14.733,14.733,0,0,1-2.881.479,17.4,17.4,0,0,1-4.827-.126,13.1,13.1,0,0,0-3.546-.5,1.166,1.166,0,0,1-.691-.248,10.787,10.787,0,0,1-2.625-2.986c-1.182-2.046-3.614-6.282-3.451-7.509S619.559,389.386,619.559,389.386Z" transform="translate(-540.615 -342.021)" opacity="0.05"/>
  <path id="Path_380" data-name="Path 380" d="M828.4,537.549c-1.3,1.41-2.252,1.965-2.207.477.136-4.5-7.774-24.849-7.774-24.849l2.339-.177A60.59,60.59,0,0,1,828.4,537.549Z" transform="translate(-716.6 -449.247)" fill="none"/>
  <path id="Path_381" data-name="Path 381" d="M830.914,693.691a11.252,11.252,0,0,1-22.461.955c-.016-.183-.029-.366-.034-.546v-.01q-.008-.2-.008-.409a11.252,11.252,0,0,1,22.5,0Z" transform="translate(-707.955 -595.569)" fill="#65617d"/>
  <circle id="Ellipse_54" data-name="Ellipse 54" cx="6.137" cy="6.137" r="6.137" transform="translate(105.569 91.978)" fill="#dce0ed"/>
  <circle id="Ellipse_55" data-name="Ellipse 55" cx="3.682" cy="3.682" r="3.682" transform="translate(108.024 94.433)" fill="#65617d"/>
  <path id="Path_382" data-name="Path 382" d="M502.684,555.954l-27.094.546v-3.993c.243-3.215,3.546-4.343,6.547-4.7a18.79,18.79,0,0,1,7,.525,48.016,48.016,0,0,0,11.215,1.845,1.72,1.72,0,0,1,1.664,1.4c.086.457.17.955.25,1.446.06.385.117.764.169,1.117C502.585,555.16,502.684,555.954,502.684,555.954Z" transform="translate(-420.527 -479.207)" fill="#65617d"/>
  <path id="Path_383" data-name="Path 383" d="M462.431,548.072H406.146a2.216,2.216,0,0,1-2.053-1.327,1.54,1.54,0,0,1,.8-2.039,6.376,6.376,0,0,0,2.771-3.391,33.753,33.753,0,0,0,1.417-8.882c.237-4.483,1.86-6.7,3.614-7.774h0a7.156,7.156,0,0,1,4.749-.866l22.821.183a4.385,4.385,0,0,1,1.114.727c2.034,1.893-.932,4.364-.932,4.364a10.7,10.7,0,0,0-1.547,13.547h11.677a10.746,10.746,0,0,0,6.117-1.872,6.163,6.163,0,0,0,2.425-2.784c.18-.488.363-.975.581-1.447,3.063-6.643-.631-17.451-2.226-21.492-.4-1.005-.661-1.592-.661-1.592l3.662-.273,2.319-.176h.023a60.637,60.637,0,0,1,7.638,24.549c.06.631.109,1.244.149,1.832a8.183,8.183,0,0,1-8.176,8.711Z" transform="translate(-358.658 -449.23)" fill="#a7a8c2"/>
  <path id="Path_384" data-name="Path 384" d="M502.436,587.927H475.59V586.81h26.677C502.327,587.188,502.384,587.567,502.436,587.927Z" transform="translate(-420.527 -512.991)" opacity="0.1"/>
  <path id="Path_385" data-name="Path 385" d="M496.785,592.635H468.315a.547.547,0,0,1-.216-.044,7.156,7.156,0,0,1,4.749-.866l22.821.183A4.383,4.383,0,0,1,496.785,592.635Z" transform="translate(-414.059 -517.154)" opacity="0.1"/>
  <rect id="Rectangle_124" data-name="Rectangle 124" width="39.784" height="1.117" rx="0.558" transform="translate(43.738 74.085)" fill="#dce0ed"/>
  <path id="Path_386" data-name="Path 386" d="M828.4,537.549c-1.3,1.41-2.252,1.965-2.207.477.136-4.5-7.774-24.849-7.774-24.849l2.339-.177A60.59,60.59,0,0,1,828.4,537.549Z" transform="translate(-716.6 -449.247)" opacity="0.1"/>
  <path id="Path_387" data-name="Path 387" d="M830.906,692.537c-1.343.322-3,.649-5.046.955q-1.142.168-2.455.322c-2.091.248-4.509.465-7.3.631q-1.187.071-2.464.13-2.394.109-5.124.166l-.034-.545v-.01c2.544-1.027,6.547-3.767,7.19-10.9a11.257,11.257,0,0,1,15.237,9.266Z" transform="translate(-708.016 -595.655)" opacity="0.1"/>
  <path id="Path_388" data-name="Path 388" d="M792.92,636.791s12.916-1.4,8.467-21.081c0,0,6.381,5.851,10.352,9.1s11.047,7.734,11.047,7.734S818.56,636.5,792.92,636.791Z" transform="translate(-694.578 -537.949)" fill="#a7a8c2"/>
  <path id="Path_389" data-name="Path 389" d="M792.92,636.791s12.916-1.4,8.467-21.081c0,0,6.381,5.851,10.352,9.1s11.047,7.734,11.047,7.734S818.56,636.5,792.92,636.791Z" transform="translate(-694.578 -537.949)" fill="#fff" opacity="0.1"/>
  <circle id="Ellipse_56" data-name="Ellipse 56" cx="11.252" cy="11.252" r="11.252" transform="translate(52.585 86.863)" fill="#65617d"/>
  <circle id="Ellipse_57" data-name="Ellipse 57" cx="6.137" cy="6.137" r="6.137" transform="translate(57.699 91.978)" fill="#dce0ed"/>
  <circle id="Ellipse_58" data-name="Ellipse 58" cx="3.682" cy="3.682" r="3.682" transform="translate(60.154 94.433)" fill="#65617d"/>
  <path id="Path_390" data-name="Path 390" d="M469.2,656.866a12.891,12.891,0,1,0-25.777,0q0,.461.031.912h25.714Q469.2,657.327,469.2,656.866Z" transform="translate(-392.744 -562.13)" opacity="0.1"/>
  <path id="Path_391" data-name="Path 391" d="M471.742,658.289a12.414,12.414,0,1,0-24.822,0c0,.3.011.588.03.878h24.762C471.731,658.877,471.742,658.585,471.742,658.289Z" transform="translate(-395.767 -563.78)" fill="#a7a8c2"/>
  <path id="Path_392" data-name="Path 392" d="M471.742,658.289c0,.2,0,.409-.015.606,0,.091-.01.181-.015.273H446.95c0-.091-.011-.181-.015-.273-.01-.2-.015-.409-.015-.606a12.414,12.414,0,1,1,24.822,0Z" transform="translate(-395.767 -563.78)" fill="#fff" opacity="0.1"/>
  <path id="Path_393" data-name="Path 393" d="M471.822,743c0,.091-.01.182-.015.273H447.045c0-.091-.011-.181-.015-.273Z" transform="translate(-395.862 -647.879)" opacity="0.1"/>
  <rect id="Rectangle_125" data-name="Rectangle 125" width="33.344" height="2.909" rx="1.455" transform="translate(45.723 95.66)" opacity="0.1"/>
  <rect id="Rectangle_126" data-name="Rectangle 126" width="33.344" height="2.909" rx="1.455" transform="translate(45.723 95.387)" fill="#dce0ed"/>
  <ellipse id="Ellipse_59" data-name="Ellipse 59" cx="1.634" cy="4.113" rx="1.634" ry="4.113" transform="translate(104.703 69.591) rotate(-24.33)" opacity="0.1"/>
  <ellipse id="Ellipse_60" data-name="Ellipse 60" cx="1.634" cy="4.113" rx="1.634" ry="4.113" transform="translate(104.839 69.454) rotate(-24.33)" fill="#dce0ed"/>
  <path id="Path_394" data-name="Path 394" d="M797.568,513v2.137h-4.16a7.152,7.152,0,0,1-1.156-.093c-.4-1.005-.662-1.592-.662-1.592l3.662-.273Z" transform="translate(-693.429 -449.247)" opacity="0.1"/>
  <path id="Path_395" data-name="Path 395" d="M767.195,445.727h-4.16a6.371,6.371,0,0,1-6.615-6.106v-.566a6.375,6.375,0,0,1,6.615-6.1l4.16.378Z" transform="translate(-663.056 -380.115)" fill="#a7a8c2"/>
  <path id="Path_396" data-name="Path 396" d="M756.886,458.586s2.489,1.33,1.057,3.58c0,0-1.757,2.88-4.519,2.608l-1.005-6.188A20.912,20.912,0,0,1,756.886,458.586Z" transform="translate(-659.601 -402.137)" fill="#a7a8c2"/>
  <path id="Path_397" data-name="Path 397" d="M755.948,458.455a2.646,2.646,0,0,1,2.024,1.067,2.18,2.18,0,0,1-.008,2.634s-1.757,2.88-4.518,2.608l-1.005-6.188A29.349,29.349,0,0,1,755.948,458.455Z" transform="translate(-659.619 -402.126)" opacity="0.1"/>
  <path id="Path_398" data-name="Path 398" d="M762.56,390.17h.8a2.539,2.539,0,0,1,2.54,2.539v7.321a2.539,2.539,0,0,1-2.539,2.539h-.8Z" transform="translate(-658.558 -336.957)" opacity="0.1"/>
  <path id="Path_399" data-name="Path 399" d="M763.56,390.17h.8a2.54,2.54,0,0,1,2.539,2.539v7.321a2.54,2.54,0,0,1-2.54,2.539h-.8Z" transform="translate(-659.421 -336.957)" fill="#dce0ed"/>
  <path id="Path_400" data-name="Path 400" d="M618.88,513.082s.642.234,1.5.562a33.967,33.967,0,0,1,3.955,1.712,30.117,30.117,0,0,0,5.026,1.6,16.367,16.367,0,0,0,4.236.522c1.451-.014,3.209-.027,3.695-.027a1.549,1.549,0,0,1,.254.019c.51.085.49.427.477.509v.018c-3,1.818-6.638,9.956-6.864,11.32a29.109,29.109,0,0,1-2.409,5.214c-.248.454-.409.742-.409.742l.91,1.045,2.636,1.182,2.5,1.091a17.608,17.608,0,0,0,2.683,0c.045-.136.045-1.545.045-1.545a7.445,7.445,0,0,1-.911-.693,15.078,15.078,0,0,1-1.68-1.717c-1.454-1.728,1.455-5.046,1.455-5.046l5.592-7.273s.454-.818,2.636-4.092,0-5.046,0-5.046l-3.841-1.594c-6.661-2.493-14.7-4.491-14.7-4.491l-.115-.015-1.7-.213Z" transform="translate(-544.274 -443.945)" fill="#efb7b9"/>
  <path id="Path_401" data-name="Path 401" d="M690.686,713.792s.477.563.12.614a5.943,5.943,0,0,1-1.3-.153l-5.951-3.137s-.648-.461-.8.443-.256.818-.256.818-.784,1.687,0,2.036S688,716.144,688,716.144s6.837,1.552,7.485-.239-1.159-1.483-1.159-1.483-2.25-.545-3.018-1.637C691.3,712.787,690.192,713.094,690.686,713.792Z" transform="translate(-598.919 -620.242)" fill="#444053"/>
  <path id="Path_402" data-name="Path 402" d="M644.2,513.173l-3.841-1.594c-6.661-2.493-14.7-4.491-14.7-4.491l-.115-.015-1.7-.213-4.967,6.222s.642.235,1.5.562a33.959,33.959,0,0,1,3.955,1.712,30.116,30.116,0,0,0,5.026,1.6,16.362,16.362,0,0,0,4.236.522c1.451-.014,3.209-.027,3.695-.027a1.509,1.509,0,0,1,.254.019c.51.085.49.427.477.509v.018c-3,1.818-6.638,9.956-6.864,11.32a29.113,29.113,0,0,1-2.409,5.214l-.1.183c-.2-.033-.445.038-.532.554-.154.9-.256.818-.256.818s-.784,1.687,0,2.036,5.491,1.731,5.491,1.731,6.837,1.552,7.485-.239-1.159-1.482-1.159-1.482-2.25-.546-3.018-1.637a1.514,1.514,0,0,0-.2.074c-.08-.065-.166-.136-.258-.216a15.048,15.048,0,0,1-1.68-1.717c-1.454-1.728,1.455-5.046,1.455-5.046l5.592-7.273s.454-.818,2.636-4.092S644.2,513.173,644.2,513.173Z" transform="translate(-544.274 -443.945)" opacity="0.05"/>
  <path id="Path_403" data-name="Path 403" d="M585.3,283.195l.207.262.116.146.723.91s1.725.554,3.238.912c1.575.372,2.919.535,1.851-.356a2.339,2.339,0,0,1-.465-2.469,10.211,10.211,0,0,1,.867-2.2q.08-.156.16-.3a18.2,18.2,0,0,1,1.124-1.815,32.279,32.279,0,0,0-3.013-1.851c-1.249-.646-2.275-.929-1.624.35a2.994,2.994,0,0,1-.109,2.617c-.03.07-.063.136-.1.209a9.377,9.377,0,0,1-1.287,1.894A14.954,14.954,0,0,1,585.3,283.195Z" transform="translate(-515.274 -244.474)" fill="#efb7b9"/>
  <path id="Path_404" data-name="Path 404" d="M568.429,436.24l.925.844.893,3.437h-1.491l-1.646-2.141Z" transform="translate(-489.764 -376.744)" fill="#444053"/>
  <path id="Path_405" data-name="Path 405" d="M567.11,438.38l1,1.294.651.847h1.491l-.153-.588-.651-2.5-.09-.345-.925-.844-1.263,2.049Z" transform="translate(-489.764 -376.744)" opacity="0.1"/>
  <path id="Path_406" data-name="Path 406" d="M567.11,438.38l1,1.294.651.847h1.491l-.153-.588-.651-2.5-.09-.345-.925-.844-1.263,2.049Z" transform="translate(-489.764 -376.744)" opacity="0.1"/>
  <path id="Path_407" data-name="Path 407" d="M602.64,517.155s.642.235,1.5.562a33.972,33.972,0,0,1,3.955,1.712,30.115,30.115,0,0,0,5.026,1.6,16.363,16.363,0,0,0,4.236.524c1.451-.014,3.209-.027,3.695-.027a1.529,1.529,0,0,1,.254.019c.51.084.49.427.477.509v.018c-3,1.818-6.638,9.956-6.864,11.32a29.1,29.1,0,0,1-2.409,5.214c-.248.454-.409.742-.409.742l.91,1.045,2.635,1.181,2.5,1.091a17.61,17.61,0,0,0,2.683,0c.045-.136.045-1.545.045-1.545a7.442,7.442,0,0,1-.911-.693,15.067,15.067,0,0,1-1.68-1.717c-1.454-1.728,1.455-5.046,1.455-5.046l5.592-7.273s.454-.818,2.636-4.091,0-5.046,0-5.046l-3.5-2c-5.455-3.318-13.139-5.228-13.139-5.228l-.115-.015-1.7-.213Z" transform="translate(-530.249 -446.475)" fill="#efb7b9"/>
  <path id="Path_408" data-name="Path 408" d="M672,721.745l.91,1.045,2.636,1.182,2.5,1.091a17.616,17.616,0,0,0,2.683,0c.045-.136.045-1.545.045-1.545a7.451,7.451,0,0,1-.911-.693c-.282.151-.6.435-.293.874,0,0,.477.562.12.614a5.852,5.852,0,0,1-1.3-.153l-5.95-3.137-.034-.023Z" transform="translate(-590.149 -628.879)" opacity="0.1"/>
  <path id="Path_409" data-name="Path 409" d="M674.446,725.1s.477.562.119.614a5.823,5.823,0,0,1-1.3-.154l-5.949-3.137s-.648-.46-.8.443-.255.818-.255.818-.784,1.688,0,2.038,5.49,1.725,5.49,1.725,6.836,1.551,7.483-.239-1.159-1.484-1.159-1.484-2.25-.545-3.017-1.637C675.064,724.09,673.951,724.4,674.446,725.1Z" transform="translate(-584.894 -630.004)" fill="#444053"/>
  <path id="Path_410" data-name="Path 410" d="M605.3,279.046a6.324,6.324,0,0,0,3.018,1.409,5.036,5.036,0,0,0,.791-.063,18.452,18.452,0,0,1,1.283-2.118s-6-4.183-4.637-1.5C606.206,277.666,605.762,278.1,605.3,279.046Z" transform="translate(-532.546 -244.463)" opacity="0.1"/>
  <path id="Path_411" data-name="Path 411" d="M591.43,240.345a4.9,4.9,0,0,0,2.238,4.119,4.528,4.528,0,0,0,.48.273,4.91,4.91,0,1,0-2.718-4.394Z" transform="translate(-520.568 -209.536)" fill="#efb7b9"/>
  <path id="Path_412" data-name="Path 412" d="M602.64,517.155s.642.235,1.5.562a7.228,7.228,0,0,1,1.322-1.016c.5-.183,2.137-1.138,2.092-1.41a2.392,2.392,0,0,1,1.318-1.5c.636-.183.273-1.136.273-1.136s1.227-.454,1.533-1.091,1.241-1.455.922-1.409a.99.99,0,0,1-.387-.151l-1.7-.213Z" transform="translate(-530.249 -446.475)" opacity="0.1"/>
  <path id="Path_413" data-name="Path 413" d="M564.239,502.206s2.092,1.728,2.189,2.5,1.494.728,1.494.728a20.7,20.7,0,0,1,2.591-2.182c.5-.181,2.137-1.137,2.092-1.41a2.392,2.392,0,0,1,1.318-1.5c.635-.183.273-1.136.273-1.136s1.227-.454,1.533-1.091,1.241-1.455.922-1.409a2.309,2.309,0,0,1-.743-.353c-.449-.273-1.017-.642-1.481-.955-.491-.333-.866-.6-.866-.6s-.214-.038-.581-.091c-1.979-.286-8.425-1.017-9.921,1.364a3.612,3.612,0,0,0-.443,1.019C561.945,499.628,564.239,502.206,564.239,502.206Z" transform="translate(-495.577 -433.163)" fill="#444053"/>
  <path id="Path_414" data-name="Path 414" d="M572.066,511.37a10.786,10.786,0,0,1-2.932,1.206C568.337,512.576,572.066,511.37,572.066,511.37Z" transform="translate(-501.216 -447.84)" opacity="0.1"/>
  <path id="Path_415" data-name="Path 415" d="M581.62,517.953s-3.181,1.069-3.181,1.909S578.143,517.612,581.62,517.953Z" transform="translate(-509.344 -453.502)" opacity="0.1"/>
  <path id="Path_416" data-name="Path 416" d="M657.345,482.81l-.045.061A.137.137,0,0,0,657.345,482.81Z" transform="translate(-577.454 -423.175)" opacity="0.1"/>
  <path id="Path_417" data-name="Path 417" d="M585.3,318.76l.207.262.116.146.723.91s1.725.554,3.238.912c1.575.372,2.919.535,1.851-.356a2.339,2.339,0,0,1-.465-2.469l-.048-.061s.048.919-.5.937c-.734.023-.743-.224-1.42-.509a4.564,4.564,0,0,1-2.016-1.462,14.936,14.936,0,0,1-1.69,1.69Z" transform="translate(-515.274 -280.039)" opacity="0.1"/>
  <path id="Path_418" data-name="Path 418" d="M563.39,486.218a1.575,1.575,0,0,0,1.17.027c1.409-.456,3.637-1.552,4.682-1.072a14.036,14.036,0,0,0,5.455.05c.31-.08.487-.18.46-.3a.818.818,0,0,1,.048-.4,7.371,7.371,0,0,1,.831-1.548l-.09-.345-.925-.844-1.263,2.046c-1.979-.286-8.425-1.017-9.921,1.364A3.61,3.61,0,0,0,563.39,486.218Z" transform="translate(-496.352 -422.294)" opacity="0.1"/>
  <path id="Path_419" data-name="Path 419" d="M555.506,343.39a1.547,1.547,0,0,0,1.954.818c1.409-.454,3.637-1.552,4.682-1.072s6.047.344,5.911-.247,1.228-2.455,1.228-2.455-.745-.136-1.206-2.568c-.068-.355-.129-.758-.181-1.217a15.48,15.48,0,0,1-.079-2.829,6.677,6.677,0,0,1,1.106-3.707,3.06,3.06,0,0,0,.181-3.455c-.571-1.049-2.878-3.955-2.909-5.251a5.278,5.278,0,0,0-1.152-2.542s.048.919-.5.937c-.734.023-.743-.224-1.42-.509-.994-.42-2.016-1.161-2.083-1.656a5,5,0,0,0-5.078,4.019c-.91,4.228-.591,6.546-.454,7.047s1.317,6.956.363,9.683A9.4,9.4,0,0,0,555.506,343.39Z" transform="translate(-489.389 -280.53)" fill="#a36468"/>
  <path id="Path_420" data-name="Path 420" d="M589.805,411.989a10.7,10.7,0,0,0,2.954,3.228,20.5,20.5,0,0,1,2.387.16c-.068-.355-.136-.758-.181-1.217a15.485,15.485,0,0,1-.079-2.829,1.029,1.029,0,0,1-.534-.66c-.228-.773-2.256-4.456-2.256-4.456s-4.745-1.227-4.91,0S588.623,409.943,589.805,411.989Z" transform="translate(-516.892 -356.556)" opacity="0.1"/>
  <path id="Path_421" data-name="Path 421" d="M586.86,389.386s2.864,5.419,3.086,6.192a1.045,1.045,0,0,0,.966.772s2.853.682,3.535.773,6.6.591,6.6.591,1.5.046,1.682-.5c.166-.5,3.065-3.122,4.742-.833a1.668,1.668,0,0,1,.243,1.489c-.308.982-.941,2.541-1.62,1.571-.955-1.364-2.065-.981-2.065-.254s-1.527.457-2.027.559c-.273.056-1.211.306-2.023.524a14.726,14.726,0,0,1-2.887.479,17.394,17.394,0,0,1-4.827-.125,13.089,13.089,0,0,0-3.546-.5,1.166,1.166,0,0,1-.691-.248,10.784,10.784,0,0,1-2.624-2.986c-1.182-2.046-3.614-6.282-3.451-7.509S586.86,389.386,586.86,389.386Z" transform="translate(-512.374 -342.021)" fill="#efb7b9"/>
  <path id="Path_422" data-name="Path 422" d="M583.384,333.563a36.7,36.7,0,0,1,2.245,4.364c.711,1.818,1.574,5,1.574,5l-4.274-.5-.363-.591s-3.052,1.909-2.688,2.728a7.146,7.146,0,0,1-.727-3.546c.091-2.319-.329-6.456,0-7.456S582.379,332.79,583.384,333.563Z" transform="translate(-509.853 -293.706)" opacity="0.1"/>
  <path id="Path_423" data-name="Path 423" d="M579.163,339.026a7.149,7.149,0,0,0,.727,3.546c-.364-.818,2.688-2.728,2.688-2.728l.359.591,4.273.5s-.863-3.183-1.574-5a27.819,27.819,0,0,0-1.462-3c-.438-.8-.783-1.364-.783-1.364a4.815,4.815,0,0,0-2.831-.657,3.661,3.661,0,0,0-.462.056,1.286,1.286,0,0,0-.885.481.632.632,0,0,0-.055.12C578.83,332.569,579.25,336.707,579.163,339.026Z" transform="translate(-509.859 -291.986)" fill="#a36468"/>
  <path id="Path_424" data-name="Path 424" d="M566,437s1.807,2.489,2.353,2.557C568.349,439.563,566.03,439.046,566,437Z" transform="translate(-498.606 -383.613)" opacity="0.1"/>
  <path id="Path_425" data-name="Path 425" d="M566,463s3.41,3.444,4.5,3.478S566,463,566,463Z" transform="translate(-498.606 -406.067)" opacity="0.1"/>
  <path id="Path_426" data-name="Path 426" d="M566,473.54s2.182,2.557,2.319,2.557S565.959,475.211,566,473.54Z" transform="translate(-498.604 -415.169)" opacity="0.1"/>
  <path id="Path_427" data-name="Path 427" d="M580.33,248.923a3.026,3.026,0,0,0,1-.336c.117-.061.233-.13.346-.2a8.19,8.19,0,0,0,1.244-1.023,5.294,5.294,0,0,0,1.513-2.111,3.8,3.8,0,0,0,.128-.589c.156-1.049.025-2.207.775-2.92a1.785,1.785,0,0,1,.479-.323c1.064-.506,2.606-.179,3.4-1.091.5-.578.492-1.382.88-2.01a4.224,4.224,0,0,1,.756-.76,4.91,4.91,0,1,0-6.769,6.819c-.03.07-.063.136-.1.209a13.006,13.006,0,0,1-2.977,3.584l.207.262A1.335,1.335,0,0,0,580.33,248.923Z" transform="translate(-510.982 -209.459)" opacity="0.1"/>
  <path id="Path_428" data-name="Path 428" d="M430.617,213.928c-.923,1.058-2.864.442-3.88,1.412-.892.85-.537,2.332-.9,3.509a5.3,5.3,0,0,1-1.513,2.111c-.914.889-2.083,1.792-3.332,1.537-.741-.151-1.466-.705-2.182-.45a2.551,2.551,0,0,0-.877.708,6.043,6.043,0,0,1-3.351,1.733,1.434,1.434,0,0,1-.76-.035c-.382-.155-.588-.573-.936-.8-.682-.436-1.558.011-2.265.4A15.852,15.852,0,0,1,397.6,225l1.1-.546c-.235-.479-.869-.584-1.273-.934-.832-.721-.342-2.164.537-2.826s2.019-.892,2.93-1.51a.76.76,0,0,0,.391-.514.818.818,0,0,0-.149-.456,4.756,4.756,0,0,1-.914-2.751c.166-1.5,1.8-2.422,3.309-2.527s2.994.348,4.5.374a2.95,2.95,0,0,0,1.585-.326A4.8,4.8,0,0,0,411,211.188a7.32,7.32,0,0,1,2.932-2.7c1.364-.689,2.908-.93,4.326-1.5a33.033,33.033,0,0,1,4.281-1.87,8.413,8.413,0,0,1,6.456,1.4c.915.593,3.838,2.5,3.819,3.715-.015.723-.955,1.114-1.311,1.682C431.109,212.546,431.122,213.349,430.617,213.928Z" transform="translate(-352.656 -183.193)" fill="#965d7b"/>
  <g id="Group_110" data-name="Group 110" transform="translate(44.346 26.496)" opacity="0.1">
    <path id="Path_429" data-name="Path 429" d="M421.394,287.023a.83.83,0,0,1,.149.456.461.461,0,0,1-.048.165,5.751,5.751,0,0,1-.885-2.244A8.679,8.679,0,0,0,421.394,287.023Z" transform="translate(-417.391 -279.185)"/>
    <path id="Path_430" data-name="Path 430" d="M397.3,333.808c.4.351,1.037.456,1.272.934l-.39.194a4.393,4.393,0,0,1-.746-.446,1.284,1.284,0,0,1-.426-1.06A1.172,1.172,0,0,0,397.3,333.808Z" transform="translate(-397.01 -320.664)"/>
    <path id="Path_431" data-name="Path 431" d="M414.286,253.518c.708-.39,1.585-.837,2.265-.4.346.222.554.64.936.8a1.429,1.429,0,0,0,.758.035,6.047,6.047,0,0,0,3.352-1.733,2.511,2.511,0,0,1,.877-.708c.712-.255,1.437.3,2.182.45,1.249.255,2.417-.648,3.332-1.537a5.292,5.292,0,0,0,1.511-2.111c.365-1.177.011-2.66.9-3.509,1.019-.97,2.955-.353,3.88-1.412.5-.578.492-1.382.88-2.01.327-.531,1.176-.907,1.3-1.547a1.187,1.187,0,0,1,.151.546c-.015.723-.955,1.114-1.311,1.682-.387.629-.376,1.432-.88,2.01-.925,1.058-2.864.442-3.88,1.412-.892.85-.537,2.332-.9,3.509a5.3,5.3,0,0,1-1.511,2.111c-.915.889-2.083,1.792-3.332,1.537-.742-.151-1.467-.705-2.182-.45a2.526,2.526,0,0,0-.877.708,6.047,6.047,0,0,1-3.352,1.733,1.428,1.428,0,0,1-.758-.035c-.382-.155-.589-.573-.936-.8-.682-.436-1.558.011-2.265.4a15.852,15.852,0,0,1-13.022.937l.762-.378A15.882,15.882,0,0,0,414.286,253.518Z" transform="translate(-400.801 -239.83)"/>
  </g>
  <path id="Path_432" data-name="Path 432" d="M739.977,594.641l1.147-.555v-.217a6.385,6.385,0,0,0-1.624.258C740.01,594.217,739.99,594.559,739.977,594.641Z" transform="translate(-648.443 -519.069)" opacity="0.1"/>
  <ellipse id="Ellipse_61" data-name="Ellipse 61" cx="2.763" cy="3.362" rx="2.763" ry="3.362" transform="translate(89.768 56.306)" fill="#a7a8c2"/>
  <path id="Path_433" data-name="Path 433" d="M362.855,405.42l-4.442,4.381-14.6-.255,4.015-4.126Z" transform="translate(-296.919 -350.127)" fill="#dda2a6"/>
  <path id="Path_434" data-name="Path 434" d="M455.322,420.406V405.42L450.88,409.8v14.664Z" transform="translate(-389.386 -350.127)" fill="#b77b7f"/>
  <path id="Path_435" data-name="Path 435" d="M343.81,435.67v14.919h14.6V435.925Z" transform="translate(-296.919 -376.252)" fill="#dda2a6"/>
  <path id="Path_436" data-name="Path 436" d="M343.81,435.67v14.919h14.6V435.925Z" transform="translate(-296.919 -376.252)" fill="#fff" opacity="0.3"/>
  <path id="Path_437" data-name="Path 437" d="M364.446,455.844l-10.86-1.864-1.416,7.13,11.181,2.054Z" transform="translate(-304.139 -392.064)" fill="#dce0ed"/>
  <path id="Path_438" data-name="Path 438" d="M379.063,472.6l-7.3-1.147-.183.952,7.3,1.238Z" transform="translate(-320.902 -407.152)" fill="#a7a8c2"/>
  <path id="Path_439" data-name="Path 439" d="M384.276,490.973l-4.153-.6-.183,1.057,4.336.608Z" transform="translate(-328.122 -423.491)" fill="#a7a8c2"/>
  <path id="Path_440" data-name="Path 440" d="M461.8,425.73l-.2-5.9-1.142,1.127.2,5.914Z" transform="translate(-397.66 -362.572)" fill="#65617d"/>
  <path id="Path_441" data-name="Path 441" d="M356.59,416.49l14.033.19.472.266-1.142,1.127-.394-.232-13.9-.394Z" transform="translate(-307.153 -359.688)" fill="#65617d"/>
</svg>
