<svg xmlns="http://www.w3.org/2000/svg" xmlns:xlink="http://www.w3.org/1999/xlink" width="243.929" height="162.548" viewBox="0 0 243.929 162.548">
  <defs>
    <linearGradient id="linear-gradient" x1="0.5" y1="1" x2="0.5" gradientUnits="objectBoundingBox">
      <stop offset="0" stop-color="gray" stop-opacity="0.251"/>
      <stop offset="0.54" stop-color="gray" stop-opacity="0.122"/>
      <stop offset="1" stop-color="gray" stop-opacity="0.102"/>
    </linearGradient>
    <linearGradient id="linear-gradient-2" x1="0.5" x2="0.5" xlink:href="#linear-gradient"/>
  </defs>
  <g id="undraw_add_to_cart_vkjp" transform="translate(0.01 0.019)">
    <path id="Path_1920" data-name="Path 1920" d="M363.268,149.4c-.219.16-.42.315-.634.465a21.37,21.37,0,0,1-2.476,1.51c-4.5,2.371-10.042,3.529-15.442,4.316-12.111,1.766-24.476,2.109-36.788,2.445-33.267.913-66.616,1.825-99.8-.28-13.112-.83-26.513-2.22-38.394-6.482q-2.555-.913-5.009-2.015a41.135,41.135,0,0,1-9.135-5.463,19.89,19.89,0,0,1-5.7-7.006c-2.511-5.516-1.182-11.711,1.685-17.118a53.2,53.2,0,0,1,4.019-6.287c2.214-3.044,4.655-6,6.882-9.043,7.924-10.813,13.095-24.493,5.78-35.584-2.1-3.186-5.14-5.983-6.853-9.31-2.185-4.255-2.017-8.98-1.322-13.569q.135-.874.286-1.731c1.187-6.805,3.42-14.137,10.306-18.385,7.153-4.414,17.31-4.191,26.187-2.622,13.8,2.465,26.539,7.6,39.408,12.229s26.333,8.866,40.477,9.32c12.489.4,27.057-2.607,35.346-10.428,8.051-7.6,23.184-8.175,34.091-3.586,7.487,3.149,13.073,8.822,15.428,15.2a19.842,19.842,0,0,1,1.025,3.96,18.259,18.259,0,0,1,.184,3.735c-.033.616-.1,1.226-.184,1.829-1.823,12.592-14.941,22.524-22.915,33.772-3.9,5.494-6.648,12.094-3.969,18.018,4.087,9.028,18.3,12.238,26.88,18.956a20.193,20.193,0,0,1,4.218,4.327C371.007,136.554,369.47,144.628,363.268,149.4Z" transform="translate(-125.258 -22.063)" fill="tomato" opacity="0.1"/>
    <g id="flowers" transform="translate(-0.01 -0.019)">
      <path id="Path_1921" data-name="Path 1921" d="M137.064,192.481s-10.053-17.815-25.2-22.946a30.985,30.985,0,0,1-15.7-11.744,52.01,52.01,0,0,1-4.633-8.33" transform="translate(-80.682 -121.484)" fill="none" stroke="#535461" stroke-miterlimit="10" stroke-width="2"/>
      <path id="Path_1922" data-name="Path 1922" d="M43.212,107.652c1.726,1.667,9.764,3.416,9.764,3.416s-1.967-7.981-3.7-9.657a4.355,4.355,0,1,0-6.067,6.25Z" transform="translate(-41.89 -82.973)" fill="tomato"/>
      <path id="Path_1923" data-name="Path 1923" d="M56.2,169.611c2.358.468,10.053-2.445,10.053-2.445s-6-5.629-8.359-6.1a4.355,4.355,0,1,0-1.694,8.543Z" transform="translate(-50.331 -130.489)" fill="tomato"/>
      <path id="Path_1924" data-name="Path 1924" d="M123.332,241.868c2.273-.787,7.43-7.183,7.43-7.183s-8.016-1.833-10.286-1.047a4.355,4.355,0,1,0,2.841,8.23Z" transform="translate(-100.908 -187.113)" fill="tomato"/>
      <path id="Path_1925" data-name="Path 1925" d="M195.886,282.335c2.373-.393,8.545-5.824,8.545-5.824s-7.59-3.162-9.963-2.771a4.356,4.356,0,1,0,1.418,8.595Z" transform="translate(-158.275 -218.578)" fill="tomato"/>
      <path id="Path_1926" data-name="Path 1926" d="M114.245,144.822c0,2.4-4.349,9.382-4.349,9.382s-4.358-6.973-4.36-9.377a4.355,4.355,0,1,1,8.709,0Z" transform="translate(-91.626 -114.383)" fill="tomato"/>
      <path id="Path_1927" data-name="Path 1927" d="M195.789,190.341c-.719,2.295-6.958,7.649-6.958,7.649s-2.072-7.966-1.361-10.271a4.355,4.355,0,0,1,8.3,2.6Z" transform="translate(-155.54 -149.134)" fill="tomato"/>
      <path id="Path_1928" data-name="Path 1928" d="M266.993,250.9c-.319,2.384-5.564,8.715-5.564,8.715s-3.387-7.491-3.059-9.876A4.355,4.355,0,1,1,267,250.9Z" transform="translate(-211.044 -196.897)" fill="tomato"/>
      <path id="Path_1929" data-name="Path 1929" d="M43.212,107.652c1.726,1.667,9.764,3.416,9.764,3.416s-1.967-7.981-3.7-9.657a4.355,4.355,0,1,0-6.067,6.25Z" transform="translate(-41.89 -82.973)" opacity="0.25"/>
      <path id="Path_1930" data-name="Path 1930" d="M56.2,169.611c2.358.468,10.053-2.445,10.053-2.445s-6-5.629-8.359-6.1a4.355,4.355,0,1,0-1.694,8.543Z" transform="translate(-50.331 -130.489)" opacity="0.25"/>
      <path id="Path_1931" data-name="Path 1931" d="M123.332,241.868c2.273-.787,7.43-7.183,7.43-7.183s-8.016-1.833-10.286-1.047a4.355,4.355,0,1,0,2.841,8.23Z" transform="translate(-100.908 -187.113)" opacity="0.25"/>
      <path id="Path_1932" data-name="Path 1932" d="M195.886,282.335c2.373-.393,8.545-5.824,8.545-5.824s-7.59-3.162-9.963-2.771a4.356,4.356,0,1,0,1.418,8.595Z" transform="translate(-158.275 -218.578)" opacity="0.25"/>
      <path id="Path_1933" data-name="Path 1933" d="M114.245,144.822c0,2.4-4.349,9.382-4.349,9.382s-4.358-6.973-4.36-9.377a4.355,4.355,0,1,1,8.709,0Z" transform="translate(-91.626 -114.383)" opacity="0.25"/>
      <path id="Path_1934" data-name="Path 1934" d="M195.789,190.341c-.719,2.295-6.958,7.649-6.958,7.649s-2.072-7.966-1.361-10.271a4.355,4.355,0,0,1,8.3,2.6Z" transform="translate(-155.54 -149.134)" opacity="0.25"/>
      <path id="Path_1935" data-name="Path 1935" d="M266.993,250.9c-.319,2.384-5.564,8.715-5.564,8.715s-3.387-7.491-3.059-9.876A4.355,4.355,0,1,1,267,250.9Z" transform="translate(-211.044 -196.897)" opacity="0.25"/>
      <path id="Path_1936" data-name="Path 1936" d="M210.731,138.057s-1.967-20.363-13.741-31.194a30.975,30.975,0,0,1-9.594-17.1,52.043,52.043,0,0,1-.857-9.5" transform="translate(-154.929 -67.414)" fill="none" stroke="#535461" stroke-miterlimit="10" stroke-width="2"/>
      <path id="Path_1937" data-name="Path 1937" d="M151.634,27.429c.9,2.231,7.546,7.072,7.546,7.072s1.431-8.1.533-10.328a4.358,4.358,0,0,0-8.086,3.256Z" transform="translate(-127.399 -21.441)" fill="tomato"/>
      <path id="Path_1938" data-name="Path 1938" d="M138.4,89.369c1.967,1.383,10.177,1.836,10.177,1.836s-3.184-7.574-5.151-8.958a4.359,4.359,0,1,0-5.026,7.122Z" transform="translate(-115.867 -68.335)" fill="tomato"/>
      <path id="Path_1939" data-name="Path 1939" d="M170.7,182.65c2.4.2,9.712-3.553,9.712-3.553s-6.584-4.924-8.982-5.125a4.355,4.355,0,1,0-.73,8.678Z" transform="translate(-139.354 -140.62)" fill="tomato"/>
      <path id="Path_1940" data-name="Path 1940" d="M220.487,248.958c2.33.6,10.173-1.862,10.173-1.862s-5.658-5.966-7.985-6.569a4.355,4.355,0,1,0-2.185,8.432Z" transform="translate(-178.908 -192.54)" fill="tomato"/>
      <path id="Path_1941" data-name="Path 1941" d="M201.333,90.545c-.972,2.2-7.778,6.812-7.778,6.812s-1.158-8.138-.186-10.339a4.355,4.355,0,1,1,7.964,3.527Z" transform="translate(-159.962 -70.661)" fill="tomato"/>
      <path id="Path_1942" data-name="Path 1942" d="M251.17,164.269c-1.587,1.807-9.46,4.174-9.46,4.174s1.329-8.112,2.917-9.919a4.354,4.354,0,0,1,6.543,5.745Z" transform="translate(-198.043 -127.409)" fill="tomato"/>
      <path id="Path_1943" data-name="Path 1943" d="M296.177,249.061c-1.259,2.05-8.619,5.712-8.619,5.712s-.061-8.221,1.2-10.271a4.359,4.359,0,0,1,7.43,4.559Z" transform="translate(-233.871 -194.131)" fill="tomato"/>
    </g>
    <ellipse id="Ellipse_422" data-name="Ellipse 422" cx="24.373" cy="3.173" rx="24.373" ry="3.173" transform="translate(64.816 155.007)" fill="tomato" opacity="0.1"/>
    <g id="floor_flowers" data-name="floor flowers" transform="translate(31.932 143.823)">
      <ellipse id="Ellipse_423" data-name="Ellipse 423" cx="7.404" cy="1.267" rx="7.404" ry="1.267" transform="translate(0.621 12.845)" fill="tomato" opacity="0.1"/>
      <path id="Path_1944" data-name="Path 1944" d="M220.314,792.94s1.2,1.571-.555,3.934-3.2,4.371-2.622,5.85c0,0,2.646-4.4,4.808-4.465S222.687,795.589,220.314,792.94Z" transform="translate(-210.68 -792.94)" fill="tomato"/>
      <path id="Path_1945" data-name="Path 1945" d="M220.574,792.94a1.929,1.929,0,0,1,.245.494c2.1,2.469,3.223,4.775,1.2,4.832-1.882.055-4.141,3.42-4.681,4.27a2.029,2.029,0,0,0,.063.195s2.646-4.4,4.808-4.465S222.948,795.589,220.574,792.94Z" transform="translate(-210.941 -792.94)" opacity="0.1"/>
      <path id="Path_1946" data-name="Path 1946" d="M241.358,800.82c0,.553-.061,1-.138,1s-.14-.437-.14-1,.079-.293.155-.293S241.358,800.267,241.358,800.82Z" transform="translate(-229.493 -798.818)" fill="#ffd037"/>
      <path id="Path_1947" data-name="Path 1947" d="M242.467,803.761c-.485.265-.909.424-.946.356s.328-.337.813-.6.293-.072.33,0S242.952,803.5,242.467,803.761Z" transform="translate(-229.835 -801.099)" fill="#ffd037"/>
      <path id="Path_1948" data-name="Path 1948" d="M193.48,792.94s-1.2,1.571.555,3.934,3.2,4.371,2.622,5.85c0,0-2.646-4.4-4.808-4.465S191.111,795.589,193.48,792.94Z" transform="translate(-190.188 -792.94)" fill="tomato"/>
      <path id="Path_1949" data-name="Path 1949" d="M193.463,792.94a1.929,1.929,0,0,0-.245.494c-2.1,2.469-3.223,4.775-1.2,4.832,1.884.055,4.141,3.42,4.681,4.27a1.548,1.548,0,0,1-.063.195s-2.646-4.4-4.808-4.465S191.094,795.589,193.463,792.94Z" transform="translate(-190.171 -792.94)" opacity="0.1"/>
      <path id="Path_1950" data-name="Path 1950" d="M192.91,800.82c0,.553.061,1,.138,1s.14-.437.14-1-.079-.293-.155-.293S192.91,800.267,192.91,800.82Z" transform="translate(-191.849 -798.818)" fill="#ffd037"/>
      <path id="Path_1951" data-name="Path 1951" d="M188.352,803.761c.485.265.907.424.944.356s-.328-.337-.813-.6-.293-.072-.33,0S187.867,803.5,188.352,803.761Z" transform="translate(-188.057 -801.099)" fill="#ffd037"/>
      <path id="Path_1952" data-name="Path 1952" d="M194.66,830.311s3.357-.1,4.371-.824,5.162-1.582,5.413-.426,5.044,5.745,1.254,5.776-8.8-.59-9.814-1.2S194.66,830.311,194.66,830.311Z" transform="translate(-193.217 -820.726)" fill="#a8a8a8"/>
      <path id="Path_1953" data-name="Path 1953" d="M205.764,840.908c-3.789.031-8.8-.59-9.814-1.2-.769-.47-1.075-2.15-1.178-2.924h-.111s.219,2.705,1.222,3.322,6.025,1.235,9.814,1.2c1.093,0,1.473-.4,1.451-.975C207,840.685,206.579,840.9,205.764,840.908Z" transform="translate(-193.217 -827.2)" opacity="0.2"/>
      <path id="Path_1954" data-name="Path 1954" d="M678.139,836.167s-9.24-.557-8.149,5.918a1.575,1.575,0,0,0,.819,1.663s.017-.479.948-.317a4.227,4.227,0,0,0,1,.048,2.076,2.076,0,0,0,1.228-.507h0s2.6-1.071,3.606-5.317c0,0,.747-.927.719-1.165l-1.56.656a2.8,2.8,0,0,1,.114,2.061s-.05-2.019-.35-1.967c-.061,0-.811.389-.811.389s.918,1.967.219,3.383c0,0,.262-2.4-.511-3.241l-1.093.64a4.85,4.85,0,0,1,.345,3.676s.186-2.533-.575-3.521l-.994.776s1.005,2,.391,3.365c0,0-.079-2.948-.608-3.171a5.72,5.72,0,0,0-1,1.093s.688,1.447.262,2.212c0,0-.262-1.967-.479-1.967a6.491,6.491,0,0,0-.957,2.185,4.758,4.758,0,0,1,.747-2.319,2.609,2.609,0,0,0-1.327.688s.136-.92,1.53-1a5.985,5.985,0,0,1,.909-1.047,5.69,5.69,0,0,0-2.246.258,2.5,2.5,0,0,1,2.5-.474l.981-.8a8.062,8.062,0,0,0-2.622.026s.9-.769,2.887-.219l1.071-.638a9.75,9.75,0,0,0-2.507-.219,3.839,3.839,0,0,1,2.819.044l.765-.343s-1.152-.219-1.488-.26-.354-.129-.354-.129a3.989,3.989,0,0,1,2.161.24A9.719,9.719,0,0,0,678.139,836.167Z" transform="translate(-564.601 -826.711)" fill="tomato"/>
      <ellipse id="Ellipse_424" data-name="Ellipse 424" cx="6.539" cy="1.106" rx="6.539" ry="1.106" transform="translate(100.636 16.495)" fill="tomato" opacity="0.1"/>
      <path id="Path_1955" data-name="Path 1955" d="M616.936,837.766s-5.21-.315-4.589,3.337a.891.891,0,0,0,.463.937s0-.271.535-.179a2.549,2.549,0,0,0,.564.028,1.2,1.2,0,0,0,.693-.286h0a4.137,4.137,0,0,0,2.035-3s.42-.522.4-.656l-.874.374a1.584,1.584,0,0,1,.063,1.163s-.028-1.139-.2-1.112c-.035,0-.457.219-.457.219a2.592,2.592,0,0,1,.127,1.908s.146-1.361-.288-1.829l-.618.363a2.735,2.735,0,0,1,.194,2.072,3.88,3.88,0,0,0-.326-1.984l-.559.437a2.67,2.67,0,0,1,.219,1.9s-.046-1.663-.343-1.788a3.413,3.413,0,0,0-.566.61s.389.817.149,1.248c0,0-.149-1.108-.269-1.112a3.671,3.671,0,0,0-.54,1.237,2.655,2.655,0,0,1,.42-1.311,1.469,1.469,0,0,0-.747.387s.077-.52.874-.564a3.307,3.307,0,0,1,.511-.59,3.2,3.2,0,0,0-1.267.144,1.423,1.423,0,0,1,1.412-.266l.553-.452a4.554,4.554,0,0,0-1.477.015,1.784,1.784,0,0,1,1.628-.118l.6-.358a5.4,5.4,0,0,0-1.412-.122,2.172,2.172,0,0,1,1.589.024l.437-.192s-.656-.129-.837-.149-.2-.072-.2-.072a2.256,2.256,0,0,1,1.219.135A5.151,5.151,0,0,0,616.936,837.766Z" transform="translate(-519.585 -827.964)" fill="tomato"/>
      <ellipse id="Ellipse_425" data-name="Ellipse 425" cx="3.687" cy="0.623" rx="3.687" ry="0.623" transform="translate(90.076 13.772)" fill="tomato" opacity="0.1"/>
      <path id="Path_1956" data-name="Path 1956" d="M658.849,802.351s-6.287-.38-5.546,4.028a1.075,1.075,0,0,0,.559,1.132s0-.326.645-.219a3.094,3.094,0,0,0,.682.033,1.44,1.44,0,0,0,.837-.345h0s1.768-.73,2.454-3.621c0,0,.509-.629.49-.791l-1.062.452a1.911,1.911,0,0,1,.079,1.4s-.035-1.375-.24-1.342c-.039,0-.551.264-.551.264a3.133,3.133,0,0,1,.153,2.3s.179-1.643-.348-2.207l-.747.437a3.3,3.3,0,0,1,.236,2.5,4.722,4.722,0,0,0-.393-2.4l-.677.527a3.226,3.226,0,0,1,.269,2.29s-.055-2.006-.415-2.159a4.112,4.112,0,0,0-.682.737s.47.986.177,1.506c0,0-.177-1.335-.323-1.342a4.387,4.387,0,0,0-.656,1.493,3.214,3.214,0,0,1,.507-1.578,1.776,1.776,0,0,0-.9.468s.092-.627,1.049-.682a4.11,4.11,0,0,1,.618-.712,3.891,3.891,0,0,0-1.53.177,1.715,1.715,0,0,1,1.7-.323l.669-.544a5.5,5.5,0,0,0-1.785.018,2.176,2.176,0,0,1,1.967-.142l.728-.437a7.171,7.171,0,0,0-1.7-.146,2.615,2.615,0,0,1,1.919.028l.52-.232s-.785-.155-1.014-.179-.24-.087-.24-.087a2.716,2.716,0,0,1,1.471.164A6.408,6.408,0,0,0,658.849,802.351Z" transform="translate(-551.584 -800.288)" fill="tomato"/>
      <ellipse id="Ellipse_426" data-name="Ellipse 426" cx="4.452" cy="0.752" rx="4.452" ry="0.752" transform="translate(98.485 6.855)" fill="tomato" opacity="0.1"/>
    </g>
    <g id="browser" transform="translate(29.877 20.864)">
      <path id="Path_1957" data-name="Path 1957" d="M386.552,223.891V117H178.65V217.759a41.39,41.39,0,0,0,9.178,5.612q2.461,1.134,5.026,2.074H384.072Z" transform="translate(-178.65 -117)" fill="url(#linear-gradient)"/>
      <path id="Path_1958" data-name="Path 1958" d="M387.775,234.876V131H180.73v97.925a41.81,41.81,0,0,0,9.135,5.463q2.452,1.093,5.009,2.015H385.3Z" transform="translate(-180.275 -127.941)" fill="#fff"/>
      <rect id="Rectangle_617" data-name="Rectangle 617" width="207.043" height="5.494" transform="translate(0.457 0.304)" fill="#5a5773"/>
    </g>
    <g id="buttons" transform="translate(33.048 22.494)">
      <circle id="Ellipse_427" data-name="Ellipse 427" cx="1.42" cy="1.42" r="1.42" fill="#fff"/>
      <circle id="Ellipse_428" data-name="Ellipse 428" cx="1.42" cy="1.42" r="1.42" transform="translate(3.824)" fill="#fff"/>
      <circle id="Ellipse_429" data-name="Ellipse 429" cx="1.42" cy="1.42" r="1.42" transform="translate(7.649)" fill="#fff"/>
    </g>
    <g id="boxes" transform="translate(35.889 29.543)">
      <rect id="Rectangle_618" data-name="Rectangle 618" width="34.201" height="21.491" transform="translate(47.354)" fill="tomato"/>
      <rect id="Rectangle_619" data-name="Rectangle 619" width="34.201" height="21.491" fill="#5a5773" opacity="0.2"/>
      <rect id="Rectangle_620" data-name="Rectangle 620" width="34.201" height="21.491" transform="translate(94.708)" fill="#5a5773" opacity="0.2"/>
      <rect id="Rectangle_621" data-name="Rectangle 621" width="34.201" height="21.491" transform="translate(0 30.724)" fill="#5a5773" opacity="0.2"/>
      <rect id="Rectangle_622" data-name="Rectangle 622" width="34.201" height="21.491" transform="translate(47.354 30.724)" fill="#5a5773" opacity="0.2"/>
      <rect id="Rectangle_623" data-name="Rectangle 623" width="34.201" height="21.491" transform="translate(94.708 30.724)" fill="#5a5773" opacity="0.2"/>
      <rect id="Rectangle_624" data-name="Rectangle 624" width="34.201" height="21.491" transform="translate(0 61.445)" fill="#5a5773" opacity="0.2"/>
      <rect id="Rectangle_625" data-name="Rectangle 625" width="34.201" height="21.491" transform="translate(47.354 61.445)" fill="#5a5773" opacity="0.2"/>
      <rect id="Rectangle_626" data-name="Rectangle 626" width="34.201" height="21.491" transform="translate(94.708 61.445)" fill="#5a5773" opacity="0.2"/>
    </g>
    <g id="woman" transform="translate(75.299 31.06)">
      <path id="Path_1959" data-name="Path 1959" d="M421.891,259.327s-6.034-8.335-5.017-9.691a16.1,16.1,0,0,0,1.767-3.319s2.228-1.152,2.228-1.622,1.764-1.559,2.694-2.033.464-2.711,0-2.981a6.615,6.615,0,0,1-1.2-1.22s.644-1.354,0-1.762.094-.811,0-1.22a12.377,12.377,0,0,1,0-1.9,4.218,4.218,0,0,0-2.374-1.3l-.069-.214-.4-1.264s1.932-2.8-1.2-4.263a5.978,5.978,0,0,0-.693-.276,1.38,1.38,0,0,0-.017-.183,8.913,8.913,0,0,0-.455-2.143c-.163-.393-.376-.657-.644-.6a.478.478,0,0,0-.176.076,1.683,1.683,0,0,0-.333.3h0a.067.067,0,0,1-.015.018,4.366,4.366,0,0,0-.738,1.549,6.97,6.97,0,0,0-.215.973h0a4.833,4.833,0,0,0-.358.6,2.718,2.718,0,0,0-.015,2.988c.687.811,1.612,1.925,2.284,2.737l.021.026.041.05-.071.034v.125l.062.683.52,5.9a4.264,4.264,0,0,0-.477-.076,5.709,5.709,0,0,0-.693-.034c-.453-1.345-1.7-2.6-1.932-4a2.821,2.821,0,0,1-.036-.423c.019-.884.311-1.771.288-2.654a3.689,3.689,0,0,0-.021-.487h0a.99.99,0,0,0-.017-.135,4.25,4.25,0,0,0-2.87-3.022c-.539-.2-1.123-.337-1.646-.56a28.223,28.223,0,0,1-3.085-2.072,4.3,4.3,0,0,0-2.952-.487q-.725.083-1.436.224h0a15.518,15.518,0,0,0-3.286,1.032c-.14.063-.279.128-.412.2a1.567,1.567,0,0,0-.663.586,1.189,1.189,0,0,0-.1.631c0,.154,0,.311.013.466-.06,2.6-3.761,4.6-4.066,7.137,0,.06-.013.12-.017.18v.277h0v.2c.054,1.111.818,2.146.957,3.252a2.729,2.729,0,0,1,.022.3,3.873,3.873,0,0,1-.38,1.489,6.939,6.939,0,0,0-1.333.409c-1.125.547-3.155,1.491-3.9,3.3a3.75,3.75,0,0,0-.281,1.447,23.078,23.078,0,0,1-.627,5.167,7.738,7.738,0,0,1-.395,1.27.229.229,0,0,0-.013.125l-.446,4.38-.079.771-.112,1.1s.032.066.079.178a4.189,4.189,0,0,1,.176.506,2.078,2.078,0,0,1,.058,1.136.764.764,0,0,1-.313.417.205.205,0,0,0-.036.031,2.723,2.723,0,0,0-.339,1.116c-.039.227-.075.487-.112.756-.215,1.728-.348,4.313-.429,6.451-.077,2.109-.105,3.775-.105,3.775a6.6,6.6,0,0,0,1.153.431c-.03.057-.062.115-.092.177a6.848,6.848,0,0,0-.7,2.229c-.18,1.595.41,3.366,3.353,4.278a5.844,5.844,0,0,0,.577.149,2.37,2.37,0,0,0,1.468-.068c0,.1.015.188.021.281.03.4.056.758.069,1.061a51.591,51.591,0,0,0,.715,5.217,5.239,5.239,0,0,1,.028,1.762,7.245,7.245,0,0,0,0,2.033s.644.811,0,1.22-.835,2.433-.644,2.711a.074.074,0,0,1,.011.031c.142.673-.659,10.675-.659,10.675s-.758,1.531-1.361,3.121c-.588,1.548-1.03,3.15-.485,3.45a5.719,5.719,0,0,0,1.7.347,1.629,1.629,0,0,1-.021.2,4.539,4.539,0,0,1-.376,1.681,15.2,15.2,0,0,0-.655,3.569l-.013.128a10.143,10.143,0,0,0-.691,1.515s-2.054,3.893-1.359,4.9a.925.925,0,0,0,.255.238h0a.554.554,0,0,0,.067.045c.99.6,3.469.724,4.368.751l-.034.964v.036h1.17v-.024c0-.122.026-.68.064-1.426,0-.133.013-.273.021-.415,0-.112.015-.225.021-.342a4.719,4.719,0,0,0,.509-2.166,7.349,7.349,0,0,1,.451-2.511,5.993,5.993,0,0,1,.595-1.225,4.268,4.268,0,0,0-.144-2.493,1.764,1.764,0,0,0-.429-.561V315.4a7.167,7.167,0,0,1,.275-2.08.169.169,0,0,1,0-.032c.017-.057.036-.11.056-.162l.013-.036.38.01c1.166.024,2.022.024,2.022.024a25.39,25.39,0,0,0,.837-5.149v-.211a15.446,15.446,0,0,1,.562-3.651l.749-5.491a2.218,2.218,0,0,1,0-1.622c.23-.419.7-1.2,1.035-1.731.155-.248.277-.443.328-.527l.03-.045a1.6,1.6,0,0,1-.331-.125h0c-.3-.152-.573-.451.333-.891a2.07,2.07,0,0,0,.929-2.372.963.963,0,0,1,.073-1.152c.483-.542,0-2.574,0-2.574a7.58,7.58,0,0,0,.953-1.7c.346-.811,1.219-4.777,1.631-6.69.135-.628.215-1.033.215-1.033l.013.1.013.107h0l.116.9.015.12.215,1.708a39.786,39.786,0,0,1,.161,6.25v.032a1.66,1.66,0,0,1-.157.534c-.494.844-.4,4.195-.378,4.936v.149a2.36,2.36,0,0,0-.262,1.145h0a.639.639,0,0,0,.17.341.7.7,0,0,1,.165.527v.016a1.458,1.458,0,0,1-.026.234,3.63,3.63,0,0,1-.326.918s-.5.99-.309,1.507h0a.447.447,0,0,0,.122.183.356.356,0,0,1,.071.195.052.052,0,0,0,0,.018,70.325,70.325,0,0,1-.541,8.549c-.107,1.041-.185,1.742-.185,1.742l-.736,5.759.073.039c.084.045.24.123.451.217v.013l-.032.174a16.229,16.229,0,0,1-.4,1.694c-.013.037-.024.073-.036.107a2.47,2.47,0,0,0-.788.238c-1.563,2.1-.871,3.76,0,4.244a1.529,1.529,0,0,1,.526.991l.215,2.091v.24a.486.486,0,0,0,.041.191l.066.634.09.882h.713v-1.069h.039c1.125.029,2.939.065,3.729.018h.021a1.824,1.824,0,0,0,.215-.018.681.681,0,0,0,.125-.026c.419-.152,1.462-2.388.522-2.9a2.925,2.925,0,0,1-1.148-1.947c-.082-.188-.163-.367-.247-.537v-.11a6.772,6.772,0,0,1,.112-1.859,10.79,10.79,0,0,0,.245-2.221v-.206a4.553,4.553,0,0,0,.479-.118l.034-.011a3.732,3.732,0,0,0,.8-.358l2.627-8.8.277-1.024,1.578-5.822s-.556-2.033,0-2.37c.2-.123.26-.649.247-1.257a19.844,19.844,0,0,0-.247-2.4s.743-.881,1.116-1.423,0-1.964,0-1.964l.732-3.257a25.378,25.378,0,0,1,2.879-7.115c1.5-2.393.545-8.854-.429-12.293-.026-.089-.052-.177-.077-.261v-.013c.459-.172,1.022-.38,1.623-.6l.228-.081c.762-.271,1.569-.55,2.293-.782l.047-.015q.781-.257,1.595-.451a3.447,3.447,0,0,1,.489-.076C425.791,264.476,421.891,259.327,421.891,259.327ZM392.845,270.35h.386c-.045.063-.088.128-.131.193-.026.039-.052.076-.075.115a6.639,6.639,0,0,0-.38.672c.043-.24.1-.5.157-.78C392.817,270.487,392.832,270.414,392.845,270.35Zm-1.043,4.229a.091.091,0,0,0,0-.023l-.032-.076c-.024-.052-.045-.1-.067-.162q.2-.045.406-.1h.028v.054c-.011.076-.024.152-.037.227h0a.12.12,0,0,1,0,.029,1.213,1.213,0,0,1-.028.178c-.019.117-.039.23-.056.339-.041-.1-.082-.2-.125-.3A.682.682,0,0,1,391.8,274.578Z" transform="translate(-386.5 -223.338)" fill="url(#linear-gradient-2)"/>
      <path id="Path_1960" data-name="Path 1960" d="M519.907,238.374l-2.36.835-.857-1.42c-.656-1.093-1.565-2.587-2.236-3.674-1.185-1.91.365-4.821.365-4.821s.28-2.922,1.276-3.822,1.274,3.822,1.274,3.822c4,1.818,1.858,6.095,1.858,6.095l.389,1.7Z" transform="translate(-486.835 -224.916)" fill="#efb7b9"/>
      <path id="Path_1961" data-name="Path 1961" d="M529.5,280.028l-2.36.835-.857-1.42v-.125a4.11,4.11,0,0,1,2.931-.579Z" transform="translate(-496.424 -266.57)" opacity="0.1"/>
      <path id="Path_1962" data-name="Path 1962" d="M523.56,290.572l1.182-1-.592-9.008a3.742,3.742,0,0,1,5.323,1.182,22.985,22.985,0,0,0,0,2.548c.092.546-.636,1.093,0,1.637s0,2.367,0,2.367a8.217,8.217,0,0,0,1.174,1.637c.455.363.911,3.368,0,4s-2.62,2.094-2.62,2.729-2.185,2.185-2.185,2.185l-1.919-2.537Z" transform="translate(-494.299 -267.543)" fill="#ff6484"/>
      <path id="Path_1963" data-name="Path 1963" d="M394.7,537.436c-4.41-1.871-3.431-6.44-2.6-8.741a11.9,11.9,0,0,1,.584-1.364l2.474-1.5s.5,1.287,1.045,3.014C397.458,532.86,398.9,539.217,394.7,537.436Z" transform="translate(-390.32 -478.352)" fill="#efb7b9"/>
      <path id="Path_1964" data-name="Path 1964" d="M413.654,765.5a7.43,7.43,0,0,0-.656,1.84,13.289,13.289,0,0,0-.284,3.132c.018.728.079,1.2.079,1.2l-4.913,3.379s.028-.4.076-.977a27.256,27.256,0,0,1,.64-4.79,7.977,7.977,0,0,0,.369-2.255c.076-.962.107-1.805.107-1.805S414.984,763.015,413.654,765.5Z" transform="translate(-403.208 -682.052)" fill="#efb7b9"/>
      <path id="Path_1965" data-name="Path 1965" d="M470.176,779.234s0,.94-.035,2.032a20.821,20.821,0,0,1-.238,2.983,12.281,12.281,0,0,0-.112,2.5c.033,1.093.112,2.076.112,2.076s-5.015-4.742-4.5-5.118a2.325,2.325,0,0,0,.4-1.042c.153-.656.291-1.53.393-2.273.122-.885.2-1.6.2-1.6Z" transform="translate(-448.477 -693.358)" fill="#efb7b9"/>
      <path id="Path_1966" data-name="Path 1966" d="M417.577,765.5a7.429,7.429,0,0,0-.656,1.84,40.171,40.171,0,0,1-4.021-.308c.074-.94.107-1.805.107-1.805S418.908,763.015,417.577,765.5Z" transform="translate(-407.131 -682.052)" opacity="0.1"/>
      <path id="Path_1967" data-name="Path 1967" d="M473.136,779.249s0,.94-.035,2.032a5.468,5.468,0,0,1-3.951-.874c.122-.885.2-1.6.2-1.6Z" transform="translate(-451.445 -693.373)" opacity="0.1"/>
      <path id="Path_1968" data-name="Path 1968" d="M432.713,498.317a42.445,42.445,0,0,0-2.821,9.554l-.728,4.371a6.157,6.157,0,0,1,0,2.638c-.365.728-1.093,1.912-1.093,1.912s.546,4.458,0,4.913,0,3.184,0,3.184l-1.82,9.178L423.7,545.894c-2.456,2-5.726-.544-5.726-.544l.721-7.734s1.093-13.549.638-14.1.181-2.275.181-2.275.638-1.639.184-2.275.09-2,.09-2-.181-5.551.365-6.825,0-9.154,0-9.154l-.219-2.454-.127-1.359-.011-.133s-.083.544-.219,1.388c-.4,2.568-1.259,7.889-1.6,8.984a11.7,11.7,0,0,1-.933,2.275s.472,2.729,0,3.457a1.692,1.692,0,0,0-.072,1.547s.455,2.275-.911,3.184,0,1.366,0,1.366-1,2.185-1.364,3.092a4.045,4.045,0,0,0,0,2.185l-.728,7.369a26.655,26.655,0,0,0-.546,5.186,45.572,45.572,0,0,1-.82,6.914s-7.006,0-8.086-.82,1.8-8.813,1.8-8.813.82-14.012.636-14.375,0-3.094.638-3.639,0-1.639,0-1.639a13.42,13.42,0,0,1,0-2.729,9.683,9.683,0,0,0-.028-2.367s-.61-4.458-.7-7.006-.546-8.278-.546-8.278.476-3.545.549-5.232a5.942,5.942,0,0,1,.656-2.126,18.975,18.975,0,0,1,1.355-2.378s21.558-6.372,22.463-5.739a8.238,8.238,0,0,1,.935,2.965C433.247,486.429,434.186,495.1,432.713,498.317Z" transform="translate(-400.397 -458.924)" fill="#444053"/>
      <circle id="Ellipse_430" data-name="Ellipse 430" cx="6.278" cy="6.278" r="6.278" transform="translate(12.422 7.179)" fill="#a1616a"/>
      <path id="Path_1969" data-name="Path 1969" d="M443.2,481.811c-.7.371-1.175.627-1.175.627s-9.906,4.823-12.723,4.55c-2.18-.219-7.743-.094-10.167-.033a19.123,19.123,0,0,1,1.317-2.378s20.959-6.37,21.838-5.737A8.439,8.439,0,0,1,443.2,481.811Z" transform="translate(-412.007 -438.256)" opacity="0.1"/>
      <path id="Path_1970" data-name="Path 1970" d="M409.406,325.063s-5.7.918-7.049,1.818-4.012,2.64-4.012,6.37a36.813,36.813,0,0,1-.982,8.643c-.358,1.09,5.622,9.917,5.622,9.917l-2.143,13.376s8.573-.273,11.428,0,12.844-4.55,12.844-4.55,5.89-3.184,7.139-3.278-2.5-7.006-2.5-7.006-5.8-11.189-4.82-13.009a25.451,25.451,0,0,0,1.7-4.458l-1.072-9.279a3.442,3.442,0,0,0-2.945.455c-1.34,1-5.89.455-5.89.455Z" transform="translate(-394.977 -309.625)" fill="#ff6484"/>
      <path id="Path_1971" data-name="Path 1971" d="M394.444,388.8l-2.282.636L391.531,398s.819,2.275,0,3-1,16.287-1,16.287a5.95,5.95,0,0,0,5.732.455s-.455-1.729.911-8.007a50.029,50.029,0,0,0,1.364-9.463s0-7.826.638-9.1,0-4.458,0-4.458-1.274-1.729-1.184-2.365S394.444,388.8,394.444,388.8Z" transform="translate(-389.649 -361.109)" opacity="0.1"/>
      <path id="Path_1972" data-name="Path 1972" d="M398.762,528.874a5.811,5.811,0,0,1-4.1-.149,11.9,11.9,0,0,1,.583-1.364l2.474-1.5S398.231,527.147,398.762,528.874Z" transform="translate(-392.877 -477.201)" opacity="0.1"/>
      <path id="Path_1973" data-name="Path 1973" d="M393.822,388.772l-2.275.636-.636,8.562s.82,2.275,0,3-1,16.287-1,16.287a5.943,5.943,0,0,0,5.732.446s-.455-1.729.909-8.007a50.431,50.431,0,0,0,1.366-9.463s0-7.826.636-9.1,0-4.458,0-4.458-1.274-1.729-1.182-2.365S393.822,388.772,393.822,388.772Z" transform="translate(-389.165 -361.075)" fill="#ff6484"/>
      <path id="Path_1974" data-name="Path 1974" d="M497.8,411.15s-1.182,10.19-4.642,12.1C493.16,423.252,500.894,421.069,497.8,411.15Z" transform="translate(-470.331 -381.689)" opacity="0.1"/>
      <path id="Path_1975" data-name="Path 1975" d="M434.88,415.32s4.275,2.091,3.278,3.547S434.88,415.32,434.88,415.32Z" transform="translate(-424.513 -384.481)" opacity="0.1"/>
      <path id="Path_1976" data-name="Path 1976" d="M434.88,434.47s2.729,2.821,2.185,3.822S434.88,434.47,434.88,434.47Z" transform="translate(-424.506 -400.568)" opacity="0.1"/>
      <path id="Path_1977" data-name="Path 1977" d="M535.63,327.47a9.672,9.672,0,0,1,1.174,3C536.906,331.657,535.63,327.47,535.63,327.47Z" transform="translate(-503.731 -304.714)" opacity="0.1"/>
      <path id="Path_1978" data-name="Path 1978" d="M535.63,315.5s.538-.457,1.91,0S535.63,315.5,535.63,315.5Z" transform="translate(-503.731 -295.204)" opacity="0.1"/>
      <path id="Path_1979" data-name="Path 1979" d="M483.238,552.625a12.653,12.653,0,0,1-6.654-.852l-1.147,2.937-.127-1.359c.188-1.141.553-2.362,1.274-2.67A11.043,11.043,0,0,0,483.238,552.625Z" transform="translate(-456.334 -498.129)" opacity="0.1"/>
      <path id="Path_1980" data-name="Path 1980" d="M426.18,577.07s5.6,1.16,7.166.955Z" transform="translate(-417.697 -519.83)" opacity="0.1"/>
      <path id="Path_1981" data-name="Path 1981" d="M428.84,583.747a11.561,11.561,0,0,1,3.582.376Z" transform="translate(-419.768 -525.332)" opacity="0.1"/>
      <path id="Path_1982" data-name="Path 1982" d="M430.09,588.31a21.425,21.425,0,0,0,3.309.437Z" transform="translate(-420.749 -529.171)" opacity="0.1"/>
      <path id="Path_1983" data-name="Path 1983" d="M429.46,643.257c.1-.068,4.777-1.16,5.358-.376Z" transform="translate(-420.265 -574.7)" opacity="0.1"/>
      <path id="Path_1984" data-name="Path 1984" d="M429.46,651.409s4.06-.479,4.163,0S429.46,651.409,429.46,651.409Z" transform="translate(-420.258 -581.865)" opacity="0.1"/>
      <path id="Path_1985" data-name="Path 1985" d="M429.46,655.555s4.334-.9,4.845-.677S429.46,655.555,429.46,655.555Z" transform="translate(-420.262 -584.971)" opacity="0.1"/>
      <path id="Path_1986" data-name="Path 1986" d="M412.833,791.481l-4.913,3.379s.028-.4.076-.977a13.244,13.244,0,0,1,2.515-4.106,2.013,2.013,0,0,1,2.242.5C412.771,791,412.833,791.481,412.833,791.481Z" transform="translate(-403.239 -701.851)" opacity="0.1"/>
      <path id="Path_1987" data-name="Path 1987" d="M405.834,795a12.192,12.192,0,0,0-1.025,5.026,7.8,7.8,0,0,1-1.04,4.045,3.98,3.98,0,0,1-.345.494s-3.413-.028-4.609-1.018a1.183,1.183,0,0,1-.321-.393c-.684-1.364,1.331-6.584,1.331-6.584a14.5,14.5,0,0,1,3.206-6.176C406.857,789.4,405.834,795,405.834,795Z" transform="translate(-395.762 -702.331)" fill="#444053"/>
      <path id="Path_1988" data-name="Path 1988" d="M405.424,826.647a3.991,3.991,0,0,1-.345.494s-3.413-.028-4.609-1.018c.588-1.945,2.463-7.83,3.341-6.829C404.637,820.233,405.212,824.755,405.424,826.647Z" transform="translate(-397.417 -724.921)" opacity="0.1"/>
      <path id="Path_1989" data-name="Path 1989" d="M420.148,819.651l-.238,8.816h1.145s.186-7.734.7-8.816S420.148,819.651,420.148,819.651Z" transform="translate(-412.745 -724.913)" fill="#444053"/>
      <path id="Path_1990" data-name="Path 1990" d="M469.9,802.549s-5.015-4.742-4.5-5.118a2.324,2.324,0,0,0,.4-1.042c.964-.168,2.622.234,3.995,4.084C469.824,801.566,469.9,802.549,469.9,802.549Z" transform="translate(-448.475 -707.087)" opacity="0.1"/>
      <path id="Path_1991" data-name="Path 1991" d="M466.063,808.335a.506.506,0,0,1-.12.035,35.616,35.616,0,0,1-3.982,0,.861.861,0,0,1-.833-.859c0-.328,0-.728-.026-1.154-.057-1.346-.219-2.948-.7-3.309-.854-.656-1.53-2.88,0-5.7,0,0,2.933-2.24,5.048,4.493,0,0,.205,1.921,1.125,2.6S466.474,808.14,466.063,808.335Z" transform="translate(-443.889 -707.583)" fill="#444053"/>
      <path id="Path_1992" data-name="Path 1992" d="M471.691,828.648a35.631,35.631,0,0,1-3.982,0,.861.861,0,0,1-.833-.859c0-.328,0-.728-.026-1.154.369-1.63.9-3.309,1.584-3.691C468.439,822.942,470.508,822.708,471.691,828.648Z" transform="translate(-449.646 -727.861)" opacity="0.1"/>
      <path id="Path_1993" data-name="Path 1993" d="M423.46,798.345l.551,7.336h.7V797.72Z" transform="translate(-406.542 -703.461)" fill="#444053"/>
      <path id="Path_1994" data-name="Path 1994" d="M428.652,239.081a12.548,12.548,0,0,0-5.6,1.8,2.327,2.327,0,0,0-1.056,1.06,3.512,3.512,0,0,0-.085,1.311c.059,3.763-4.137,6.611-4.006,10.372.052,1.493.8,2.882.94,4.371.229,2.483-1.239,4.766-2.646,6.823a5.651,5.651,0,0,0,3.988-1.322,30.242,30.242,0,0,1,.557,15.243h2.013a1.53,1.53,0,0,1,.588.072,1.478,1.478,0,0,1,.465.347c1.882,1.873,3.143,4.642,2.424,7.2l4.283-1.606a12.725,12.725,0,0,0,2.957-1.41A4.27,4.27,0,0,0,435.3,280.7c.116-.656.079-1.438.618-1.818a3.365,3.365,0,0,1,.844-.312c1.176-.415,1.7-1.775,1.936-3a17.264,17.264,0,0,0,.273-4.561c-.19-2.557-.946-5.153-.323-7.649.352-1.4,1.134-2.705,1.2-4.152.1-2.384-1.761-4.438-2.039-6.81-.194-1.652.4-3.324.208-4.976a5.346,5.346,0,0,0-2.813-4.058c-.527-.271-1.093-.452-1.613-.752-1.187-.688-1.945-1.927-3.022-2.78s-2.872-1.174-3.682-.066Z" transform="translate(-410.003 -235.627)" opacity="0.1"/>
      <path id="Path_1995" data-name="Path 1995" d="M428.652,237.815a12.548,12.548,0,0,0-5.6,1.8,2.327,2.327,0,0,0-1.056,1.06,3.512,3.512,0,0,0-.085,1.311c.059,3.763-4.137,6.611-4.006,10.374.052,1.49.8,2.88.94,4.371.229,2.483-1.239,4.766-2.646,6.825a5.682,5.682,0,0,0,3.988-1.322,30.231,30.231,0,0,1,.557,15.238h2.013a1.531,1.531,0,0,1,.588.074,1.438,1.438,0,0,1,.465.345c1.882,1.875,3.143,4.642,2.424,7.2l4.283-1.606a12.725,12.725,0,0,0,2.957-1.41,4.27,4.27,0,0,0,1.827-2.633c.116-.656.079-1.438.618-1.818a3.365,3.365,0,0,1,.844-.313c1.176-.415,1.7-1.774,1.936-3a17.263,17.263,0,0,0,.28-4.565c-.19-2.557-.946-5.153-.323-7.649.352-1.4,1.134-2.705,1.2-4.152.1-2.384-1.761-4.438-2.039-6.81-.195-1.652.4-3.322.208-4.976a5.35,5.35,0,0,0-2.812-4.058c-.527-.271-1.093-.452-1.613-.75-1.187-.691-1.945-1.93-3.022-2.782s-2.872-1.174-3.682-.066Z" transform="translate(-410.003 -234.635)" fill="#925978"/>
      <g id="Group_379" data-name="Group 379" transform="translate(6.197 6.441)" opacity="0.1">
        <path id="Path_1996" data-name="Path 1996" d="M442.273,252.81a2.425,2.425,0,0,0-.013.254C442.267,252.98,442.271,252.9,442.273,252.81Z" transform="translate(-436.565 -252.81)"/>
        <path id="Path_1997" data-name="Path 1997" d="M514.933,280.415a23.253,23.253,0,0,0,.24-3.475A25.137,25.137,0,0,0,514.933,280.415Z" transform="translate(-493.342 -271.667)"/>
        <path id="Path_1998" data-name="Path 1998" d="M424.941,304.975c-.127-1.355-.758-2.622-.907-3.975a4.98,4.98,0,0,0-.033.747c.052,1.475.785,2.854.933,4.323A5.9,5.9,0,0,0,424.941,304.975Z" transform="translate(-422.295 -290.469)"/>
        <path id="Path_1999" data-name="Path 1999" d="M518.147,330.293a9.369,9.369,0,0,0-.219,2.714,8.236,8.236,0,0,1,.219-1.576c.352-1.4,1.134-2.705,1.2-4.152a4.507,4.507,0,0,0-.035-.769A36.255,36.255,0,0,1,518.147,330.293Z" transform="translate(-495.681 -310.404)"/>
        <path id="Path_2000" data-name="Path 2000" d="M420.188,344.36a5.682,5.682,0,0,1-3.226,1.311c-.249.389-.507.769-.763,1.145a5.682,5.682,0,0,0,3.988-1.322,30.156,30.156,0,0,1,1.272,8.184A30.224,30.224,0,0,0,420.188,344.36Z" transform="translate(-416.2 -324.353)"/>
        <path id="Path_2001" data-name="Path 2001" d="M474.615,389.85c-.24,1.224-.76,2.583-1.936,3a3.278,3.278,0,0,0-.844.315c-.54.38-.5,1.167-.618,1.818a4.215,4.215,0,0,1-1.827,2.622,13.139,13.139,0,0,1-2.957,1.412l-4.087,1.53a5.638,5.638,0,0,1-.2,1.213l4.283-1.606a12.723,12.723,0,0,0,2.957-1.41,4.27,4.27,0,0,0,1.827-2.633c.116-.656.079-1.438.618-1.818a3.364,3.364,0,0,1,.844-.312c1.176-.415,1.7-1.775,1.936-3a17.139,17.139,0,0,0,.308-3.868A17.111,17.111,0,0,1,474.615,389.85Z" transform="translate(-452.108 -357.761)"/>
        <path id="Path_2002" data-name="Path 2002" d="M440.127,414.48a1.445,1.445,0,0,0-.465-.347,1.563,1.563,0,0,0-.588-.074h-1.785c-.07.38-.144.76-.219,1.139h2.013a1.53,1.53,0,0,1,.588.074,1.438,1.438,0,0,1,.465.345,8.658,8.658,0,0,1,2.6,5.118A8.152,8.152,0,0,0,440.127,414.48Z" transform="translate(-432.509 -378.817)"/>
      </g>
      <path id="Path_2003" data-name="Path 2003" d="M405.37,449s1.626-.682,1.989,0S405.37,449,405.37,449Z" transform="translate(-401.246 -412.193)" opacity="0.1"/>
      <path id="Path_2004" data-name="Path 2004" d="M408,454.346s1.626-.682,1.991,0S408,454.346,408,454.346Z" transform="translate(-403.302 -416.676)" opacity="0.1"/>
    </g>
    <g id="leaves" transform="translate(156.782 1.865)">
      <path id="Path_2005" data-name="Path 2005" d="M842.6,51.642s-8.315-.5-7.334,5.326a1.421,1.421,0,0,0,.739,1.5s.015-.437.852-.286a3.827,3.827,0,0,0,.9.044,1.873,1.873,0,0,0,1.1-.457h0s2.336-.964,3.245-4.784c0,0,.673-.835.656-1.049l-1.4.6a2.514,2.514,0,0,1,.1,1.853s-.044-1.818-.315-1.774c-.055,0-.728.35-.728.35a4.152,4.152,0,0,1,.2,3.046s.236-2.172-.459-2.917l-.992.588a4.359,4.359,0,0,1,.31,3.306s.168-2.279-.518-3.167l-.9.7s.907,1.785.361,3.018c0,0-.072-2.655-.548-2.854a5.4,5.4,0,0,0-.9.975s.618,1.311.234,1.989c0,0-.236-1.766-.437-1.774a5.884,5.884,0,0,0-.861,1.967,4.264,4.264,0,0,1,.671-2.087,2.332,2.332,0,0,0-1.193.621s.12-.828,1.386-.9a5.452,5.452,0,0,1,.817-.942,5.124,5.124,0,0,0-2.021.234,2.284,2.284,0,0,1,2.253-.437l.874-.721a7.541,7.541,0,0,0-2.36.024,2.873,2.873,0,0,1,2.6-.188l.962-.575a8.633,8.633,0,0,0-2.253-.194,3.457,3.457,0,0,1,2.535.039l.688-.308s-1.036-.2-1.337-.236-.319-.116-.319-.116a3.575,3.575,0,0,1,1.943.219A8.832,8.832,0,0,0,842.6,51.642Z" transform="translate(-818.613 -46.917)" fill="tomato" opacity="0.1"/>
      <path id="Path_2006" data-name="Path 2006" d="M800.157,30.06s-6.993,4.526-2.751,8.636a1.422,1.422,0,0,0,1.482.769s-.245-.358.518-.736a3.794,3.794,0,0,0,.754-.5,1.881,1.881,0,0,0,.618-1.021h0s1.311-2.163-.219-5.778c0,0,.048-1.071-.1-1.228l-.774,1.311a2.515,2.515,0,0,1,1.18,1.431s-1.112-1.436-1.311-1.241c-.039.039-.38.715-.38.715a4.137,4.137,0,0,1,1.967,2.332s-1.093-1.89-2.1-2.076l-.455,1.049A4.362,4.362,0,0,1,800.8,36.2s-1.217-1.936-2.295-2.244l-.306,1.093s1.792.909,2.078,2.229c0,0-1.63-2.094-2.133-1.967a5.541,5.541,0,0,0-.149,1.311s1.272.682,1.368,1.464c0,0-1.237-1.283-1.4-1.176a5.9,5.9,0,0,0,.474,2.1,4.268,4.268,0,0,1-.695-2.078,2.338,2.338,0,0,0-.594,1.206s-.393-.739.583-1.547a5.979,5.979,0,0,1,.1-1.243,5.059,5.059,0,0,0-1.49,1.386s.079-1.027,1.563-1.678l.284-1.1a7.292,7.292,0,0,0-1.886,1.418s.243-1.036,1.98-1.691l.437-1.034a8.893,8.893,0,0,0-1.932,1.18,3.477,3.477,0,0,1,2.067-1.471l.372-.656s-.955.45-1.217.6-.326.1-.326.1a3.582,3.582,0,0,1,1.694-.977A8.69,8.69,0,0,0,800.157,30.06Z" transform="translate(-788.025 -30.06)" fill="tomato" opacity="0.1"/>
      <path id="Path_2007" data-name="Path 2007" d="M760.852,54.12s-4.181,7.212,1.464,8.945a1.409,1.409,0,0,0,1.67,0s-.378-.205.129-.889a3.823,3.823,0,0,0,.437-.787,1.888,1.888,0,0,0,.09-1.191h0s.186-2.522-2.819-5.05c0,0-.437-.975-.656-1.047l-.094,1.53a2.519,2.519,0,0,1,1.7.741s-1.643-.776-1.726-.516c-.018.052-.015.809-.015.809a4.223,4.223,0,0,1,2.839,1.191s-1.836-1.187-2.812-.9l.07,1.141a4.358,4.358,0,0,1,3.094,1.208s-1.967-1.174-3.059-.959l.219,1.112s2.01,0,2.863,1.045c0,0-2.4-1.128-2.8-.793a5.4,5.4,0,0,0,.465,1.243s1.442.031,1.884.684c0,0-1.685-.583-1.779-.413a5.89,5.89,0,0,0,1.377,1.654,4.268,4.268,0,0,1-1.563-1.53,2.341,2.341,0,0,0,.017,1.344s-.686-.479-.184-1.643A5.493,5.493,0,0,1,761.2,59.9a5.193,5.193,0,0,0-.7,1.91,2.265,2.265,0,0,1,.629-2.2l-.247-1.115a7.3,7.3,0,0,0-1.038,2.12,2.869,2.869,0,0,1,1-2.4l-.083-1.117a8.722,8.722,0,0,0-1.184,1.927,3.448,3.448,0,0,1,1.173-2.249l.033-.754s-.656.833-.811,1.093-.247.223-.247.223a3.6,3.6,0,0,1,1.066-1.641A8.907,8.907,0,0,0,760.852,54.12Z" transform="translate(-759.363 -48.846)" fill="tomato" opacity="0.1"/>
    </g>
    <path id="Path_2008" data-name="Path 2008" d="M897.734,342.619a3.127,3.127,0,1,0,3.127,3.127A3.127,3.127,0,0,0,897.734,342.619ZM888.59,318.08v3.127h3.127l5.629,11.4-2.354,3.831a3.008,3.008,0,0,0-.391,1.486c0,2.094,1.431,3.127,3.372,3.127h18.285v-3.007h-17.9a.369.369,0,0,1-.391-.391,1.967,1.967,0,0,1,.166-.389l1.563-2.467h11.65a3.059,3.059,0,0,0,2.736-1.641l5.632-9.683a1.817,1.817,0,0,0,.157-.782,1.5,1.5,0,0,0-1.565-1.486H895.159l-1.486-3.127Zm24.539,24.539a3.127,3.127,0,1,0,3.13,3.128A3.127,3.127,0,0,0,913.129,342.619Z" transform="translate(-703.568 -263.527)" fill="tomato"/>
    <path id="Path_2009" data-name="Path 2009" d="M914.882,326.832h-2.622V324.21h-1.967v2.622H907.67V328.8h2.622v2.622h1.967V328.8h2.622Z" transform="translate(-709.321 -263.114)" fill="#fff"/>
  </g>
</svg>
