<svg xmlns="http://www.w3.org/2000/svg" width="485.84" height="158.5" viewBox="0 0 485.84 158.5">
  <g id="icon_like_facebook" data-name="icon like facebook" transform="translate(-12.8 -11.8)">
    <g id="XMLID_1_">
      <g id="Group_619" data-name="Group 619">
        <path id="Path_2136" data-name="Path 2136" d="M498.6,153.3a15.174,15.174,0,0,1-4.3,12.1,15.918,15.918,0,0,1-11.9,4.9H29.8a16.737,16.737,0,0,1-17-17V28.8a16.737,16.737,0,0,1,17-17H481.6a16.737,16.737,0,0,1,17,17V153.3Zm-37.4-41.8v-6.2q0-37.2-29.8-39.1-29.25,0-33.5,42.1,0,39.9,36.9,39.9a64.521,64.521,0,0,0,25.1-5.2,55.36,55.36,0,0,0-4.2-15.5c-4.3,2.6-10.9,3.9-19.9,3.9-13.3,0-19.9-4.6-19.9-13.8l1-6.2h44.3Zm-91.5,35.6,18-1a524.371,524.371,0,0,0-26.3-46.5l25.1-30.3a93.5,93.5,0,0,0-16.7-3.2L341.3,99.6h-1v-65l-17,1V146.1h17V124l9.4-11.6Zm-72.6-.9v-79h-18v79Zm-9.6-89.4c7.1,0,10.6-3.5,10.6-10.6,0-6.4-3.5-9.6-10.6-9.6q-9.6,0-9.6,9.6C277.9,53.3,281.1,56.8,287.5,56.8Zm-27.3,89.4,1.2-16.7H222.3V45h-18V146.2ZM145,137.3V44.8a5.973,5.973,0,0,0-1.6-4.2,5.8,5.8,0,0,0-4.3-1.7H45.8a4.707,4.707,0,0,0-3.5,1.7,6.362,6.362,0,0,0-1.5,4.2V138a5.973,5.973,0,0,0,1.6,4.2,5.5,5.5,0,0,0,4.1,1.7l50.2-.4v.4l10.7-.5,31.6-.3a5.8,5.8,0,0,0,4.3-1.7A5.3,5.3,0,0,0,145,137.3Z" fill="#3b5998"/>
        <path id="Path_2137" data-name="Path 2137" d="M461.2,105.3v6.2H416.9l-1,6.2c0,9.2,6.6,13.8,19.9,13.8,9,0,15.7-1.3,19.9-3.9a55.36,55.36,0,0,1,4.2,15.5,66.383,66.383,0,0,1-25.1,5.2q-36.9,0-36.9-39.9c2.8-28.1,13.9-42.1,33.5-42.1Q461.25,68.1,461.2,105.3Zm-17-5.7V95.7c0-11.2-4.6-16.7-13.8-16.7q-13.5,0-13.5,20.7h27.3Z" fill="#fff"/>
        <path id="Path_2138" data-name="Path 2138" d="M444.2,95.7v3.9H416.9q0-20.7,13.5-20.7C439.6,79,444.2,84.5,444.2,95.7Z" fill="#3b5998"/>
        <path id="Path_2139" data-name="Path 2139" d="M387.6,146.2l-18,1-20.2-34.7L340,124.1v22.2H323V35.7l17-1v65h1l28.5-33.5a93.5,93.5,0,0,1,16.7,3.2L361.1,99.7A478.694,478.694,0,0,1,387.6,146.2Z" fill="#fff"/>
        <rect id="Rectangle_718" data-name="Rectangle 718" width="18" height="79" transform="translate(279.1 67.2)" fill="#fff"/>
        <path id="Path_2140" data-name="Path 2140" d="M298.1,46.2c0,7.1-3.5,10.6-10.6,10.6-6.4,0-9.6-3.5-9.6-10.6q0-9.6,9.6-9.6C294.5,36.6,298.1,39.8,298.1,46.2Z" fill="#fff"/>
        <path id="Path_2141" data-name="Path 2141" d="M261.4,129.4l-1.2,16.8H204.3V45h18v84.4Z" fill="#fff"/>
        <path id="Path_2142" data-name="Path 2142" d="M145,44.8v92.5a5.973,5.973,0,0,1-1.6,4.2,5.441,5.441,0,0,1-4.3,1.7l-31.6.3,5.6-.3V102.6h13.3l2-16.2H113V77a11.332,11.332,0,0,1,1.2-5.4c.8-1.5,2.9-2.2,6.2-2.2H129V55.1c-.5,0-1.6-.1-3.2-.2a46.078,46.078,0,0,0-8.6-.7c-13.6.7-20.4,7.7-20.4,21.2V87.2H83.2v16.2H96.7v40.2l-50.2.4a5.664,5.664,0,0,1-4.1-1.7,5.809,5.809,0,0,1-1.6-4.2V44.8a6.362,6.362,0,0,1,1.5-4.2,4.551,4.551,0,0,1,3.5-1.7h93.3a5.8,5.8,0,0,1,4.3,1.7A5.652,5.652,0,0,1,145,44.8Z" fill="#fff"/>
        <path id="Path_2143" data-name="Path 2143" d="M129,55.1V69.4h-8.6c-3.3,0-5.3.7-6.2,2.2A11.332,11.332,0,0,0,113,77v9.3h15.3l-2,16.2H113v40.6l-5.6.3-10.7.1V103.3H83.2V87.1H96.7V75.3c0-13.5,6.8-20.5,20.4-21.2a56.488,56.488,0,0,1,8.6.7Q128.25,55.1,129,55.1Z" fill="#3b5998"/>
      </g>
    </g>
  </g>
</svg>
