<svg xmlns="http://www.w3.org/2000/svg" width="496.94" height="162" viewBox="0 0 496.94 162">
  <g id="Group_631" data-name="Group 631" transform="translate(-1075 -1909)">
    <g id="Group_618" data-name="Group 618">
      <g id="icon_share_facebook" data-name="icon share facebook" transform="translate(1067.7 1899)">
        <g id="XMLID_1_">
          <g id="Group_617" data-name="Group 617">
            <path id="Path_2126" data-name="Path 2126" d="M504.2,154.7a15.212,15.212,0,0,1-4.4,12.3,16.143,16.143,0,0,1-12.2,5H24.6a16.741,16.741,0,0,1-12.3-5,16.671,16.671,0,0,1-5-12.3V27.3a16.741,16.741,0,0,1,5-12.3,16.9,16.9,0,0,1,12.3-5H486.8a17.076,17.076,0,0,1,17.3,17.3V154.7ZM433.8,104c.3-.9.4-3.7.4-8.2a29.282,29.282,0,0,0-1.8-11.1,15.291,15.291,0,0,0-8.1-8.3,24.329,24.329,0,0,0-12.1-2.8c-8.1,0-14.4,2.5-18.9,7.6q-7.5,6.75-7.5,21.9c0,18.8,8.5,28.2,25.4,28.2a44.1,44.1,0,0,0,11.8-1.6,20.548,20.548,0,0,0,9.3-4.9l-4.5-9.1c-.8,1-2.6,1.9-5.3,2.8a16.231,16.231,0,0,1-8.3,1.8c-4.7,0-8.1-1.2-10.1-3.5-2.5-2.2-3.8-5.5-3.8-9.8h33C433.5,105.9,433.6,104.9,433.8,104ZM381.4,89.3l1-12.6a33.741,33.741,0,0,0-6.3-.8c-3.5,0-6,.6-7.3,1.8a13.216,13.216,0,0,0-5.5,6.3l-1.8-7.3H350.4v54.6h14.9V95.8c1.2-4.9,4.4-7.3,9.8-7.3A31.861,31.861,0,0,1,381.4,89.3Zm-52.7,42.3h11.6a23.279,23.279,0,0,1-1.8-8.6V94.8a28.838,28.838,0,0,0-.8-8.1c0-5-3-8.4-9.1-10.1l-3.3-.3a38.331,38.331,0,0,0-6-.5,49.328,49.328,0,0,0-6.9.4c-2.1.2-4.1.4-5.9.4a17.073,17.073,0,0,0-9.8,2.8V90.2a14.878,14.878,0,0,1,5.3-2l2.8-.8a66.031,66.031,0,0,1,9.1-.8c3.7,0,6,.9,7,2.6a11.034,11.034,0,0,1,1.5,5.4l-.2,3.5a71.521,71.521,0,0,0-12.6,1,20.014,20.014,0,0,0-8.3,1.8l-2,1c-5.4,2-8.1,6.5-8.1,13.6,0,3.4.2,5.5.8,6.5a16.631,16.631,0,0,0,9.1,9.3,34.508,34.508,0,0,0,7.6.7c6.7,0,11.7-2.3,14.9-7a3.654,3.654,0,0,1,2.3-1.3Zm-43.8-1-1-33c0-7.7-.5-12.7-1.5-15.1q-3.3-7.8-14.1-7.8a42.2,42.2,0,0,0-5.5.3A15.218,15.218,0,0,0,252,82.3V54H237.4v76.5H252V95.8a5.219,5.219,0,0,1,1-3.5c2.9-3.7,5.9-5.5,9.1-5.5a15.827,15.827,0,0,1,3.8.5c2.9,1.2,4.3,5.2,4.3,12.1v31.2Zm-57.6-21.9a20.523,20.523,0,0,0-2.6-10.1,24.6,24.6,0,0,0-6.5-7.4,32.775,32.775,0,0,0-7.9-4.4L201.7,83a13.718,13.718,0,0,1-6.4-3.7,8.3,8.3,0,0,1-2.6-5.7c0-4.7,3.8-7,11.3-7a38.6,38.6,0,0,1,17.1,3.5l5.3-12.6C222,54.5,214.6,53,204,53a48.1,48.1,0,0,0-11.2,1,30.709,30.709,0,0,0-8.2,3.5q-7.5,6.3-7.5,17.1c0,11.4,5.9,19.3,17.6,23.7a24.161,24.161,0,0,1,4,1.9,29.444,29.444,0,0,0,4.4,2,14.76,14.76,0,0,1,3.8,2,12.414,12.414,0,0,0,2.4,1.6c1.8.8,2.8,2.7,2.8,5.5a11,11,0,0,1-.8,4.3c-1.7,3-6,4.5-13.1,4.5-4.5,0-7.3-.1-8.2-.4a12.659,12.659,0,0,0-2.6-.4c-.8-.3-1.7-.6-2.5-.9a5.284,5.284,0,0,1-2-.9c-1.2-1.3-2.1-2-2.8-2l-4.8,13.1a64.262,64.262,0,0,0,9.2,2.9,59.629,59.629,0,0,0,14.7,1.6c8.4,0,15.4-2.2,20.9-6.5,2.9-2.9,4.7-5.3,5.5-7.3l.2-1.5A22.677,22.677,0,0,0,227.3,108.7Zm-84.9,29.7V43.7a6.518,6.518,0,0,0-1.6-4.3,5.729,5.729,0,0,0-4.4-1.8H41a4.36,4.36,0,0,0-3.5,1.8A6.439,6.439,0,0,0,36,43.7v95.4a6.046,6.046,0,0,0,1.6,4.3,5.447,5.447,0,0,0,4.2,1.8l51.4-.4v.4l10.9-.5,32.4-.3a5.729,5.729,0,0,0,4.4-1.8A6.179,6.179,0,0,0,142.4,138.4Z" fill="#3b5998"/>
            <path id="Path_2127" data-name="Path 2127" d="M434.2,95.8c0,4.5-.1,7.3-.4,8.2a9.246,9.246,0,0,0-.4,2.9h-33c0,4.4,1.3,7.6,3.8,9.8,2,2.4,5.4,3.5,10.1,3.5a16.231,16.231,0,0,0,8.3-1.8,11.56,11.56,0,0,0,5.3-2.8l4.5,9.1a20.548,20.548,0,0,1-9.3,4.9,44.637,44.637,0,0,1-11.8,1.6c-17,0-25.4-9.4-25.4-28.2q0-15.15,7.5-21.9c4.5-5,10.8-7.6,18.9-7.6,4.9,0,8.9.9,12.1,2.8a15.981,15.981,0,0,1,8.1,8.3A32.591,32.591,0,0,1,434.2,95.8Zm-33.7,2.5h20.1c0-4.7-.6-7.7-1.8-9.1l-.8-.8a7.248,7.248,0,0,0-5.8-2.8c-5.2,0-8.6,2.5-10.3,7.5Z" fill="#fff"/>
            <path id="Path_2128" data-name="Path 2128" d="M420.6,98.3H400.5l1.5-5c1.7-5,5.1-7.5,10.3-7.5a7.1,7.1,0,0,1,5.8,2.8l.8.8C420,90.6,420.6,93.6,420.6,98.3Z" fill="#3b5998"/>
            <path id="Path_2129" data-name="Path 2129" d="M382.4,76.7l-1,12.6a30.991,30.991,0,0,0-6.3-.8c-5.4,0-8.7,2.4-9.8,7.3v35.5H350.4V76.7h11.1l1.8,7.3a13.769,13.769,0,0,1,5.5-6.3c1.4-1.2,3.8-1.8,7.3-1.8A35.837,35.837,0,0,1,382.4,76.7Z" fill="#fff"/>
            <path id="Path_2130" data-name="Path 2130" d="M340.3,131.6H328.7l-3-7.6a3.428,3.428,0,0,0-2.3,1.3c-3.2,4.7-8.1,7-14.9,7a34.508,34.508,0,0,1-7.6-.7,17.608,17.608,0,0,1-9.1-9.3c-.5-1-.8-3.2-.8-6.5,0-7,2.7-11.6,8.1-13.6l2-1a20.358,20.358,0,0,1,8.3-1.8,71.521,71.521,0,0,1,12.6-1l.2-3.5a10.484,10.484,0,0,0-1.5-5.4c-1-1.8-3.4-2.6-7-2.6a68.71,68.71,0,0,0-9.1.8l-2.8.8a14.878,14.878,0,0,0-5.3,2V79.4a18.111,18.111,0,0,1,9.8-2.8,41.761,41.761,0,0,0,5.9-.4,49.328,49.328,0,0,1,6.9-.4,36.359,36.359,0,0,1,6,.5l3.3.3c6,1.7,9.1,5,9.1,10.1a32.594,32.594,0,0,1,.8,8.1V123A33.128,33.128,0,0,0,340.3,131.6ZM324,113.2v-6.3h-6.3a8.627,8.627,0,0,0-2.8.4c-.8.2-1.5.5-2,.6-.5.2-1.1.3-1.6.5a3.915,3.915,0,0,0-1.6,1,5.151,5.151,0,0,0-2,3.8,5.762,5.762,0,0,0,1.9,4.4,6.258,6.258,0,0,0,4.7,1.9C318.7,119.5,321.9,117.4,324,113.2Z" fill="#fff"/>
            <path id="Path_2131" data-name="Path 2131" d="M324,106.9v6.3a10.177,10.177,0,0,1-9.8,6.3,6.258,6.258,0,0,1-4.7-1.9,5.914,5.914,0,0,1-1.9-4.4,5.321,5.321,0,0,1,2-3.8,3.915,3.915,0,0,1,1.6-1c.6-.2,1.1-.3,1.6-.5a16.7,16.7,0,0,1,2-.6,8.245,8.245,0,0,1,2.8-.4Z" fill="#3b5998"/>
            <path id="Path_2132" data-name="Path 2132" d="M283.9,97.6l1,33H270.1V99.3c0-6.9-1.4-10.9-4.3-12.1a15.181,15.181,0,0,0-3.8-.5c-3.2,0-6.2,1.9-9.1,5.5a5.219,5.219,0,0,0-1,3.5v34.7H237.3V54H252V82.2a15.218,15.218,0,0,1,10.8-7.3,43.286,43.286,0,0,1,5.5-.3q10.8,0,14.1,7.8C283.4,84.8,283.9,89.9,283.9,97.6Z" fill="#fff"/>
            <path id="Path_2133" data-name="Path 2133" d="M224.6,98.6a19.261,19.261,0,0,1,2.6,10.1,23.75,23.75,0,0,1-1.5,9.3l-.2,1.5c-.8,2-2.7,4.4-5.5,7.3-5.5,4.4-12.5,6.5-20.9,6.5a59.076,59.076,0,0,1-14.7-1.6,68.889,68.889,0,0,1-9.2-2.9l4.8-13.1c.7,0,1.6.7,2.8,2a12.933,12.933,0,0,0,2,.9c.8.3,1.7.6,2.5.9a8.239,8.239,0,0,1,2.6.4c.9.3,3.7.4,8.2.4,7,0,11.4-1.5,13.1-4.5a11,11,0,0,0,.8-4.3c0-2.9-.9-4.7-2.8-5.5a12.414,12.414,0,0,1-2.4-1.6,12.212,12.212,0,0,0-3.8-2,36.18,36.18,0,0,1-4.4-2,24.161,24.161,0,0,0-4-1.9C182.8,94.1,177,86.3,177,74.8q0-10.8,7.5-17.1a27.792,27.792,0,0,1,8.2-3.5,48.1,48.1,0,0,1,11.2-1c10.6,0,18,1.5,22.4,4.5L221,70.1c-4.7-2.4-10.4-3.5-17.1-3.5-7.5,0-11.3,2.4-11.3,7a8.3,8.3,0,0,0,2.6,5.7,13.718,13.718,0,0,0,6.4,3.7l8.6,3.8a32.774,32.774,0,0,1,7.9,4.4A23.319,23.319,0,0,1,224.6,98.6Z" fill="#fff"/>
            <path id="Path_2134" data-name="Path 2134" d="M142.4,43.7v94.7a6.518,6.518,0,0,1-1.6,4.3,5.729,5.729,0,0,1-4.4,1.8l-32.4.3,5.7-.3V103h13.6l2-16.6H109.7V76.8a10.423,10.423,0,0,1,1.3-5.5c.8-1.5,2.9-2.3,6.3-2.3h8.8V54.3q-.75,0-3.3-.3a47.944,47.944,0,0,0-8.8-.8c-13.9.7-20.9,7.9-20.9,21.7V87H79.3v16.6H93.1v41.1l-51.4.4a5.447,5.447,0,0,1-4.2-1.8,6.046,6.046,0,0,1-1.6-4.3V43.7a6.439,6.439,0,0,1,1.5-4.3,4.5,4.5,0,0,1,3.5-1.8h95.4a5.978,5.978,0,0,1,6.1,6.1Z" fill="#fff"/>
            <path id="Path_2135" data-name="Path 2135" d="M126.1,54.3V68.9h-8.8c-3.4,0-5.5.8-6.3,2.3a11.756,11.756,0,0,0-1.3,5.5v9.6h15.6l-2,16.6H109.7v41.5l-5.7.3-10.9.1V103.7H79.3V87H93.1V74.9c0-13.8,7-21,20.9-21.7a47.944,47.944,0,0,1,8.8.8Q125.35,54.3,126.1,54.3Z" fill="#3b5998"/>
          </g>
        </g>
      </g>
    </g>
  </g>
</svg>
