<svg id="Icon_ionic-ios-timer" data-name="Icon ionic-ios-timer" xmlns="http://www.w3.org/2000/svg" width="34" height="34" viewBox="0 0 34 34">
  <path id="Path_2108" data-name="Path 2108" d="M20.942,37.938A17,17,0,0,1,9.141,8.7a1.365,1.365,0,1,1,1.9,1.963A14.271,14.271,0,1,0,22.3,6.734v5.321a1.369,1.369,0,0,1-2.738,0V5.306a1.368,1.368,0,0,1,1.369-1.368,17,17,0,1,1,.009,34Z" transform="translate(-3.937 -3.938)" fill="#18131d"/>
  <path id="Path_2109" data-name="Path 2109" d="M12.676,11.42,21.6,17.834a2.7,2.7,0,0,1-3.14,4.4,2.608,2.608,0,0,1-.628-.628L11.42,12.676a.9.9,0,0,1,1.256-1.256Z" transform="translate(-2.637 -2.64)" fill="#18131d"/>
</svg>
