<svg xmlns="http://www.w3.org/2000/svg" width="37.109" height="37.046" viewBox="0 0 37.109 37.046">
  <g id="Icon_feather-package" data-name="Icon feather-package" transform="translate(1.555 1.546)">
    <path id="Path_2101" data-name="Path 2101" d="M29.286,15.521,11.25,6.315" transform="translate(-3.268 -2.399)" fill="none" stroke="#18131d" stroke-linecap="round" stroke-linejoin="round" stroke-width="3"/>
    <path id="Path_2102" data-name="Path 2102" d="M38.5,26.7V13.158a3.34,3.34,0,0,0-1.889-2.929L23.389,3.457a4.159,4.159,0,0,0-3.778,0L6.389,10.229A3.34,3.34,0,0,0,4.5,13.158V26.7a3.34,3.34,0,0,0,1.889,2.929L19.611,36.4a4.159,4.159,0,0,0,3.778,0l13.222-6.772A3.34,3.34,0,0,0,38.5,26.7Z" transform="translate(-4.5 -3.003)" fill="none" stroke="#18131d" stroke-linecap="round" stroke-linejoin="round" stroke-width="3"/>
    <path id="Path_2103" data-name="Path 2103" d="M4.9,10.44,21.426,19.4,37.947,10.44" transform="translate(-4.426 -2.178)" fill="none" stroke="#18131d" stroke-linecap="round" stroke-linejoin="round" stroke-width="3"/>
    <path id="Path_2104" data-name="Path 2104" d="M18,35.88V18" transform="translate(-1 -1.88)" fill="none" stroke="#18131d" stroke-linecap="round" stroke-linejoin="round" stroke-width="3"/>
  </g>
</svg>
