<svg xmlns="http://www.w3.org/2000/svg" width="26.806" height="21.771" viewBox="0 0 26.806 21.771">
  <path id="Icon_awesome-twitter" data-name="Icon awesome-twitter" d="M24.05,8.807c.017.238.017.476.017.714A15.524,15.524,0,0,1,8.436,25.152,15.525,15.525,0,0,1,0,22.686a11.365,11.365,0,0,0,1.327.068,11,11,0,0,0,6.82-2.347A5.5,5.5,0,0,1,3.011,16.6a6.928,6.928,0,0,0,1.038.085,5.811,5.811,0,0,0,1.446-.187A5.5,5.5,0,0,1,1.089,11.1v-.068a5.533,5.533,0,0,0,2.483.7,5.5,5.5,0,0,1-1.7-7.348A15.616,15.616,0,0,0,13.2,10.133a6.2,6.2,0,0,1-.136-1.259A5.5,5.5,0,0,1,22.57,5.116a10.816,10.816,0,0,0,3.487-1.327,5.479,5.479,0,0,1-2.415,3.028,11.013,11.013,0,0,0,3.164-.85,11.809,11.809,0,0,1-2.755,2.84Z" transform="translate(0 -3.381)"/>
</svg>
