<svg xmlns="http://www.w3.org/2000/svg" width="23.455" height="23.455" viewBox="0 0 23.455 23.455">
  <path id="Icon_awesome-whatsapp" data-name="Icon awesome-whatsapp" d="M19.942,5.658A11.627,11.627,0,0,0,1.649,19.684L0,25.705l6.162-1.618A11.587,11.587,0,0,0,11.717,25.5h.005A11.735,11.735,0,0,0,23.455,13.878a11.669,11.669,0,0,0-3.513-8.22Zm-8.22,17.884A9.643,9.643,0,0,1,6.8,22.2l-.351-.209L2.8,22.946l.974-3.565-.23-.366a9.679,9.679,0,1,1,17.952-5.136,9.768,9.768,0,0,1-9.769,9.665Zm5.3-7.235c-.288-.147-1.717-.848-1.984-.942s-.461-.147-.654.147-.749.942-.921,1.141-.34.22-.628.073a7.905,7.905,0,0,1-3.953-3.455c-.3-.513.3-.476.853-1.586a.538.538,0,0,0-.026-.508c-.073-.147-.654-1.576-.9-2.157-.236-.565-.476-.487-.654-.5s-.361-.01-.555-.01a1.076,1.076,0,0,0-.775.361A3.263,3.263,0,0,0,5.811,11.3,5.689,5.689,0,0,0,6.995,14.3a12.978,12.978,0,0,0,4.963,4.387c1.843.8,2.565.864,3.487.728A2.975,2.975,0,0,0,17.4,18.035a2.429,2.429,0,0,0,.168-1.382C17.5,16.522,17.308,16.449,17.021,16.307Z" transform="translate(0 -2.25)"/>
</svg>
