<svg xmlns="http://www.w3.org/2000/svg" width="20.104" height="26.131" viewBox="0 0 20.104 26.131">
  <path id="Icon_awesome-pinterest-p" data-name="Icon awesome-pinterest-p" d="M10.68.457C5.309.457,0,4.038,0,9.834c0,3.686,2.073,5.78,3.33,5.78.518,0,.817-1.445.817-1.853,0-.487-1.241-1.524-1.241-3.55a7.075,7.075,0,0,1,7.351-7.194c3.565,0,6.2,2.026,6.2,5.749,0,2.78-1.115,7.995-4.728,7.995a2.325,2.325,0,0,1-2.419-2.293c0-1.979,1.382-3.9,1.382-5.937,0-3.466-4.916-2.838-4.916,1.351a6.151,6.151,0,0,0,.5,2.654c-.722,3.11-2.2,7.743-2.2,10.947,0,.99.141,1.963.236,2.953.178.2.089.178.361.079,2.639-3.612,2.544-4.319,3.738-9.047a4.246,4.246,0,0,0,3.628,1.885c5.56,0,8.057-5.419,8.057-10.3C20.1,3.85,15.612.457,10.68.457Z" transform="translate(0 -0.457)"/>
</svg>
