<svg xmlns="http://www.w3.org/2000/svg" xmlns:xlink="http://www.w3.org/1999/xlink" width="409.226" height="282.5" viewBox="0 0 409.226 282.5">
  <defs>
    <linearGradient id="linear-gradient" y1="0.5" x2="1" y2="0.5" gradientUnits="objectBoundingBox">
      <stop offset="0" stop-color="gray" stop-opacity="0.251"/>
      <stop offset="0.54" stop-color="gray" stop-opacity="0.122"/>
      <stop offset="1" stop-color="gray" stop-opacity="0.102"/>
    </linearGradient>
  </defs>
  <g id="undraw_authentication_fsn5" transform="translate(0 0.006)">
    <path id="Path_1325" data-name="Path 1325" d="M248.379,85.92c-26.231.035-51.479-7.4-75.629-15.661s-48.114-17.511-73.857-21.43c-16.556-2.52-35.383-2.288-48.324,6.86C38.112,64.489,34.5,79.056,32.764,92.513c-1.309,10.124-1.912,20.75,2.99,30.01,3.4,6.429,9.229,11.728,13.335,17.854,14.331,21.314,5.713,48.542-8.215,70.351-6.53,10.233-14.18,20.041-19.118,30.859s-6.962,23.087-1.927,33.765c4.99,10.584,16.261,18.265,28.357,23.511,24.564,10.675,53.163,12.963,80.994,13.844,61.606,1.955,123.332-2.032,184.893-6.018,22.781-1.474,45.664-2.958,67.975-7.229,12.387-2.369,25.143-5.885,33.926-13.591,11.149-9.783,13.429-25.757,5.316-37.239-13.6-19.258-49.479-22.89-59.234-43.727-5.38-11.471-.74-24.627,6.092-35.684,14.654-23.725,39.878-44.977,40.3-71.513.291-18.223-12.826-36-32.417-43.92-20.535-8.3-48.535-6.162-62.922,9.3C298.318,79.014,271.54,85.9,248.379,85.92Z" transform="translate(-16.91 -47.46)" fill="tomato" opacity="0.1"/>
    <path id="Path_1326" data-name="Path 1326" d="M993.557,689.956s-4.313-2.846-8.587-.821c0,0,1.316,2.534,6.727,2.295Z" transform="translate(-645.265 -463.494)" fill="tomato"/>
    <path id="Path_1327" data-name="Path 1327" d="M1005.712,693.25s1.313,5-1.979,8.4c0,0-1.979-2.06,0-7.106Z" transform="translate(-656.873 -466.638)" fill="tomato"/>
    <path id="Path_1328" data-name="Path 1328" d="M1007.937,673.8s-.319-4.25-9.917-2.839c0,0-.046,2.741,3.323,4.039S1006.256,675.2,1007.937,673.8Z" transform="translate(-653.735 -451.983)" fill="tomato"/>
    <path id="Path_1329" data-name="Path 1329" d="M1022.8,679.5s4.057,1.3.439,10.3c0,0-2.678-.6-3.158-4.179S1021.019,680.805,1022.8,679.5Z" transform="translate(-667.99 -457.713)" fill="tomato"/>
    <path id="Path_1330" data-name="Path 1330" d="M1026.289,650.613s.551-6.994-9.257-6.278c0,0-.7,6.317,7.527,7.959Z" transform="translate(-666.067 -434.854)" fill="tomato"/>
    <path id="Path_1331" data-name="Path 1331" d="M1041.289,628.713s-1.344-7.927-11.149-5.565c0,0-.035,6.853,9.548,7.453Z" transform="translate(-674.584 -420.85)" fill="tomato"/>
    <path id="Path_1332" data-name="Path 1332" d="M1053.276,605.754s-2.253-7.72-11.966-5.411c0,0,2.313,6.945,11.321,6.836Z" transform="translate(-681.834 -406.053)" fill="tomato"/>
    <path id="Path_1333" data-name="Path 1333" d="M1066.81,582.627s-2.2-8.011-11.58-5.615c0,0,3.13,7.611,10.959,6.969Z" transform="translate(-690.87 -390.899)" fill="tomato"/>
    <path id="Path_1334" data-name="Path 1334" d="M1077.186,557.569s-1.691-9.8-10.436-7.629c0,0,2.541,8.913,9.794,9.057Z" transform="translate(-698.347 -373.414)" fill="tomato"/>
    <path id="Path_1335" data-name="Path 1335" d="M1084.118,532.249s-2.032-9.875-10.878-7.018c0,0,3.467,9.334,10.25,8.369Z" transform="translate(-702.56 -357.242)" fill="tomato"/>
    <path id="Path_1336" data-name="Path 1336" d="M1090.384,504.142s-3.225-9.878-10.064-9.612c0,0,3.3,10.433,9.492,11.58Z" transform="translate(-707.155 -337.648)" fill="tomato"/>
    <path id="Path_1337" data-name="Path 1337" d="M1095.295,477.86s-3.509-11.889-9.075-10.973c0,0,2.428,9.089,8.878,12.826Z" transform="translate(-710.985 -319.676)" fill="tomato"/>
    <path id="Path_1338" data-name="Path 1338" d="M1097.593,450.943s-3.292-9.906-8.773-10.3c0,0,2.239,9.748,8.664,12.879Z" transform="translate(-712.672 -302.672)" fill="tomato"/>
    <path id="Path_1339" data-name="Path 1339" d="M1101.43,424.881s-4.1-9.917-7.72-10.141c0,0,1.783,9.766,7.369,11.77Z" transform="translate(-715.847 -285.86)" fill="tomato"/>
    <path id="Path_1340" data-name="Path 1340" d="M1105.628,397.544s-2.523-10.77-6.148-11.664c0,0,.495,8.811,5.783,12.471Z" transform="translate(-719.592 -267.128)" fill="tomato"/>
    <path id="Path_1341" data-name="Path 1341" d="M1110.56,368.7s-2.653-8.587-5.59-9.9c0,0,.579,10.124,4.913,11.994Z" transform="translate(-723.155 -249.551)" fill="tomato"/>
    <path id="Path_1342" data-name="Path 1342" d="M1120.046,338l.533-15.138s-5.492,11.412-.93,17.795Z" transform="translate(-731.507 -226.222)" fill="tomato"/>
    <path id="Path_1343" data-name="Path 1343" d="M1132.258,301.5s3.955-11.054,4.913-11.671c0,0-7.755,7.173-7,16.4Z" transform="translate(-739.481 -204.783)" fill="tomato"/>
    <path id="Path_1344" data-name="Path 1344" d="M1041.26,662.129s6.955-.909,6.748,8.92c0,0-6.285,1.025-8.338-7.106Z" transform="translate(-680.77 -446.423)" fill="tomato"/>
    <path id="Path_1345" data-name="Path 1345" d="M1059.884,639.06s8.036-.025,7.369,10.036c0,0-6.748,1.207-8.973-8.134Z" transform="translate(-692.849 -431.464)" fill="tomato"/>
    <path id="Path_1346" data-name="Path 1346" d="M1074.436,617.2s7.3-3.421,11.963,5.411c0,0-6.738,2.849-12.608-3.983Z" transform="translate(-702.917 -416.854)" fill="tomato"/>
    <path id="Path_1347" data-name="Path 1347" d="M1087.548,592.64s7.471-3.639,11.857,4.986c0,0-7.783,2.681-12.475-3.621Z" transform="translate(-711.446 -400.839)" fill="tomato"/>
    <path id="Path_1348" data-name="Path 1348" d="M1095.61,567.266s7.19-6.867,12.928.077c0,0-7.345,5.653-13.258,1.453Z" transform="translate(-716.866 -382.897)" fill="tomato"/>
    <path id="Path_1349" data-name="Path 1349" d="M1102.6,539.923s7.232-7.018,12.924.323c0,0-8.117,5.766-13.184,1.151Z" transform="translate(-721.448 -365.151)" fill="tomato"/>
    <path id="Path_1350" data-name="Path 1350" d="M1106.93,508s5.573-8.773,12.135-6.815c0,0-5.783,9.289-12.072,8.875Z" transform="translate(-724.427 -341.784)" fill="tomato"/>
    <path id="Path_1351" data-name="Path 1351" d="M1111.344,480.8s5.615-11.047,10.927-9.124c0,0-4.05,8.492-11.071,10.987Z" transform="translate(-727.199 -322.67)" fill="tomato"/>
    <path id="Path_1352" data-name="Path 1352" d="M1111.682,454.076s5.772-8.7,11.18-7.632c0,0-4.72,8.818-11.742,10.148Z" transform="translate(-727.147 -306.38)" fill="tomato"/>
    <path id="Path_1353" data-name="Path 1353" d="M1114,424.916s4.474-9.759,8.11-9.826c0,0-2.148,9.689-7.808,11.482Z" transform="translate(-729.016 -286.088)" fill="tomato"/>
    <path id="Path_1354" data-name="Path 1354" d="M1116.5,400.2s4.973-9.882,8.71-9.9c0,0-2.544,8.45-8.545,10.77Z" transform="translate(-730.639 -269.997)" fill="tomato"/>
    <path id="Path_1355" data-name="Path 1355" d="M1118.63,371.923s3.72-8.176,6.8-9.1c0,0-1.86,9.966-6.39,11.271Z" transform="translate(-732.022 -252.16)" fill="tomato"/>
    <path id="Path_1356" data-name="Path 1356" d="M1123.144,341.724l8.313-12.664s-2.13,12.493-9.527,15.089Z" transform="translate(-734.164 -230.247)" fill="tomato"/>
    <path id="Path_1357" data-name="Path 1357" d="M1134.205,311.675s9.661-6.667,10.011-7.745c0,0-4.913,9.338-14.036,10.987Z" transform="translate(-739.519 -213.935)" fill="tomato"/>
    <path id="Path_1358" data-name="Path 1358" d="M1142.807,297.744s11.092-10.664,13.924-10.654a18.107,18.107,0,0,0-14.191,10.085Z" transform="translate(-747.542 -203.005)" fill="tomato"/>
    <path id="Path_1359" data-name="Path 1359" d="M1118.94,342.434l.4.053c2.084-16.314,5.123-25.968,8.555-27.15l-.133-.386C1124.126,316.213,1121.067,325.72,1118.94,342.434Z" transform="translate(-732.223 -221.088)" fill="#444053"/>
    <path id="Path_1360" data-name="Path 1360" d="M1110.2,430.045l.611.049c.13-1.523.228-3.081.295-4.636.582-13.5,1.484-25.9,2.67-35.2l-.351-.439c-1.19,9.317-2.348,22.09-2.93,35.614C1110.428,426.978,1110.33,428.529,1110.2,430.045Z" transform="translate(-726.55 -269.685)" fill="#444053"/>
    <path id="Path_1361" data-name="Path 1361" d="M976.39,576.18c.105-.046,10.854-4.846,22.009-16.293a88.51,88.51,0,0,0,16.089-22.809c5.158-10.5,8.3-23.409,9.355-35.948l-.635.3c-2.369,28.143-15.181,47.373-25.368,57.848-11.047,11.345-21.676,16.1-21.781,16.142Z" transform="translate(-639.482 -341.935)" fill="#444053"/>
    <path id="Path_1362" data-name="Path 1362" d="M427.059,132.69H89.874a3,3,0,0,0-3,3v8.752H430.063v-8.752A3,3,0,0,0,427.059,132.69Z" transform="translate(-62.32 -102.786)" fill="#3f3d56"/>
    <path id="Path_1363" data-name="Path 1363" d="M86.87,166.19V363.137a6.057,6.057,0,0,0,6.057,6.057h331.08a6.057,6.057,0,0,0,6.057-6.057V166.19Z" transform="translate(-62.32 -124.53)" fill="#fff"/>
    <circle id="Ellipse_305" data-name="Ellipse 305" cx="1.404" cy="1.404" r="1.404" transform="translate(28.582 34.291)" fill="#fa5959" opacity="0.8"/>
    <circle id="Ellipse_306" data-name="Ellipse 306" cx="1.404" cy="1.404" r="1.404" transform="translate(32.442 34.291)" fill="#fed253" opacity="0.8"/>
    <circle id="Ellipse_307" data-name="Ellipse 307" cx="1.404" cy="1.404" r="1.404" transform="translate(36.302 34.291)" fill="#8ccf4d" opacity="0.8"/>
    <rect id="Rectangle_229" data-name="Rectangle 229" width="275.818" height="121.283" transform="translate(56.451 74.499)" opacity="0.05"/>
    <rect id="Rectangle_230" data-name="Rectangle 230" width="271.607" height="118.609" transform="translate(58.557 75.418)" fill="#3f3d56"/>
    <path id="Path_1364" data-name="Path 1364" d="M344.8,349.38a27.02,27.02,0,1,0,27.02,27.02,27.02,27.02,0,0,0-27.02-27.02Zm4.846,27.669v12.794h-9.552V377.049a7.913,7.913,0,1,1,9.552,0Z" transform="translate(-212.201 -243.436)" fill="tomato"/>
    <path id="Path_1365" data-name="Path 1365" d="M344.8,349.38a27.02,27.02,0,1,0,27.02,27.02,27.02,27.02,0,0,0-27.02-27.02Zm4.846,27.669v12.794h-9.552V377.049a7.913,7.913,0,1,1,9.552,0Z" transform="translate(-212.201 -243.436)" opacity="0.05"/>
    <path id="Path_1366" data-name="Path 1366" d="M330.52,327.38a34.74,34.74,0,1,0,34.74,34.74,34.74,34.74,0,0,0-34.74-34.74Zm6.229,35.576V379.4H324.467V362.956a10.176,10.176,0,1,1,12.282,0Z" transform="translate(-197.921 -229.156)" fill="tomato"/>
    <rect id="Rectangle_231" data-name="Rectangle 231" width="112.292" height="11.931" transform="translate(181.728 128.406)" fill="#fff"/>
    <rect id="Rectangle_232" data-name="Rectangle 232" width="24.213" height="11.931" transform="translate(269.807 150.162)" fill="tomato"/>
    <path id="Path_1367" data-name="Path 1367" d="M556.868,425.336h-2.032l1.807-1.8a.179.179,0,0,0,0-.249.175.175,0,0,0-.249,0l-1.807,1.807v-2.035a.175.175,0,0,0-.175-.175.179.179,0,0,0-.175.175v2.035l-1.8-1.818a.176.176,0,0,0-.249,0,.179.179,0,0,0,0,.249l1.807,1.8h-2.035a.179.179,0,0,0-.175.175.175.175,0,0,0,.175.175h2.035l-1.807,1.807a.179.179,0,0,0,0,.249.183.183,0,0,0,.249,0l1.8-1.807v2.032a.175.175,0,0,0,.351,0v-2.032l1.807,1.807a.182.182,0,0,0,.249,0,.179.179,0,0,0,0-.249l-1.807-1.807h2.032a.17.17,0,1,0,0-.34Z" transform="translate(-364.087 -291.144)" fill="tomato"/>
    <path id="Path_1368" data-name="Path 1368" d="M577.868,425.336h-2.032l1.807-1.8a.179.179,0,0,0,0-.249.176.176,0,0,0-.249,0l-1.807,1.807v-2.035a.175.175,0,0,0-.175-.175.179.179,0,0,0-.175.175v2.035l-1.8-1.818a.176.176,0,0,0-.249,0,.179.179,0,0,0,0,.249l1.807,1.8h-2.035a.179.179,0,0,0-.175.175.175.175,0,0,0,.175.175h2.035l-1.807,1.807a.179.179,0,0,0,0,.249.183.183,0,0,0,.249,0l1.8-1.807v2.032a.175.175,0,1,0,.351,0v-2.032l1.807,1.807a.182.182,0,0,0,.249,0,.179.179,0,0,0,0-.249l-1.807-1.807h2.032a.17.17,0,1,0,0-.34Z" transform="translate(-377.718 -291.144)" fill="tomato"/>
    <path id="Path_1369" data-name="Path 1369" d="M598.868,425.336h-2.032l1.807-1.8a.179.179,0,0,0,0-.249.176.176,0,0,0-.249,0l-1.807,1.807v-2.035a.175.175,0,0,0-.175-.175.179.179,0,0,0-.175.175v2.035l-1.8-1.818a.175.175,0,0,0-.249,0,.179.179,0,0,0,0,.249l1.807,1.8h-2.035a.179.179,0,0,0-.176.175.176.176,0,0,0,.176.175h2.035l-1.807,1.807a.179.179,0,0,0,0,.249.182.182,0,0,0,.249,0l1.8-1.807v2.032a.175.175,0,1,0,.351,0v-2.032l1.807,1.807a.182.182,0,0,0,.249,0,.179.179,0,0,0,0-.249l-1.807-1.807h2.032a.17.17,0,1,0,0-.34Z" transform="translate(-391.349 -291.144)" fill="tomato"/>
    <path id="Path_1370" data-name="Path 1370" d="M619.868,425.336h-2.032l1.807-1.8a.179.179,0,0,0,0-.249.175.175,0,0,0-.249,0l-1.807,1.807v-2.035a.175.175,0,0,0-.175-.175.179.179,0,0,0-.176.175v2.035l-1.8-1.818a.175.175,0,0,0-.249,0,.179.179,0,0,0,0,.249l1.807,1.8h-2.035a.179.179,0,0,0-.175.175.175.175,0,0,0,.175.175h2.035l-1.807,1.807a.179.179,0,0,0,0,.249.182.182,0,0,0,.249,0l1.8-1.807v2.032a.175.175,0,1,0,.351,0v-2.032l1.807,1.807a.182.182,0,0,0,.249,0,.179.179,0,0,0,0-.249l-1.807-1.807h2.032a.17.17,0,1,0,0-.34Z" transform="translate(-404.979 -291.144)" fill="tomato"/>
    <path id="Path_1371" data-name="Path 1371" d="M640.868,425.336h-2.032l1.807-1.8a.179.179,0,0,0,0-.249.176.176,0,0,0-.249,0l-1.807,1.807v-2.035a.175.175,0,0,0-.175-.175.179.179,0,0,0-.175.175v2.035l-1.8-1.818a.175.175,0,0,0-.249,0,.179.179,0,0,0,0,.249l1.807,1.8h-2.035a.179.179,0,0,0-.175.175.175.175,0,0,0,.175.175h2.035l-1.807,1.807a.179.179,0,0,0,0,.249.182.182,0,0,0,.249,0l1.8-1.807v2.032a.175.175,0,1,0,.351,0v-2.032l1.807,1.807a.183.183,0,0,0,.249,0,.179.179,0,0,0,0-.249l-1.807-1.807h2.032a.17.17,0,1,0,0-.34Z" transform="translate(-418.61 -291.144)" fill="tomato"/>
    <path id="Path_1372" data-name="Path 1372" d="M661.868,425.336h-2.032l1.807-1.8a.179.179,0,0,0,0-.249.175.175,0,0,0-.249,0l-1.807,1.807v-2.035a.176.176,0,0,0-.175-.175.179.179,0,0,0-.175.175v2.035l-1.8-1.818a.175.175,0,0,0-.249,0,.179.179,0,0,0,0,.249l1.807,1.8h-2.035a.179.179,0,0,0-.175.175.175.175,0,0,0,.175.175h2.035l-1.807,1.807a.179.179,0,0,0,0,.249.182.182,0,0,0,.249,0l1.8-1.807v2.032a.175.175,0,0,0,.351,0v-2.032l1.807,1.807a.182.182,0,0,0,.249,0,.179.179,0,0,0,0-.249l-1.807-1.807h2.032a.17.17,0,1,0,0-.34Z" transform="translate(-432.241 -291.144)" fill="tomato"/>
    <path id="Path_1373" data-name="Path 1373" d="M682.868,425.336h-2.032l1.807-1.8a.179.179,0,0,0,0-.249.176.176,0,0,0-.249,0l-1.807,1.807v-2.035a.175.175,0,0,0-.175-.175.179.179,0,0,0-.175.175v2.035l-1.8-1.818a.175.175,0,0,0-.249,0,.179.179,0,0,0,0,.249l1.807,1.8h-2.035a.179.179,0,0,0-.175.175.175.175,0,0,0,.175.175h2.035l-1.807,1.807a.179.179,0,0,0,0,.249.182.182,0,0,0,.249,0l1.8-1.807v2.032a.175.175,0,1,0,.351,0v-2.032l1.807,1.807a.182.182,0,0,0,.249,0,.179.179,0,0,0,0-.249l-1.807-1.807h2.032a.17.17,0,1,0,0-.34Z" transform="translate(-445.872 -291.144)" fill="tomato"/>
    <path id="Path_1374" data-name="Path 1374" d="M703.868,425.336h-2.032l1.807-1.8a.179.179,0,0,0,0-.249.176.176,0,0,0-.249,0l-1.807,1.807v-2.035a.175.175,0,0,0-.175-.175.179.179,0,0,0-.176.175v2.035l-1.8-1.818a.176.176,0,0,0-.249,0,.179.179,0,0,0,0,.249l1.807,1.8h-2.035a.179.179,0,0,0-.175.175.175.175,0,0,0,.175.175h2.035l-1.807,1.807a.179.179,0,0,0,0,.249.183.183,0,0,0,.249,0l1.8-1.807v2.032a.175.175,0,1,0,.351,0v-2.032l1.807,1.807a.183.183,0,0,0,.249,0,.179.179,0,0,0,0-.249l-1.807-1.807h2.032a.17.17,0,1,0,0-.34Z" transform="translate(-459.503 -291.144)" fill="tomato"/>
    <path id="Path_1375" data-name="Path 1375" d="M724.868,425.336h-2.032l1.807-1.8a.179.179,0,0,0,0-.249.175.175,0,0,0-.249,0l-1.807,1.807v-2.035a.175.175,0,0,0-.175-.175.179.179,0,0,0-.175.175v2.035l-1.8-1.818a.175.175,0,0,0-.249,0,.179.179,0,0,0,0,.249l1.807,1.8h-2.035a.179.179,0,0,0-.176.175.176.176,0,0,0,.176.175h2.035l-1.807,1.807a.179.179,0,0,0,0,.249.182.182,0,0,0,.249,0l1.8-1.807v2.032a.175.175,0,0,0,.351,0v-2.032l1.807,1.807a.182.182,0,0,0,.249,0,.179.179,0,0,0,0-.249l-1.807-1.807h2.032a.17.17,0,1,0,0-.34Z" transform="translate(-473.134 -291.144)" fill="tomato"/>
    <path id="Path_1376" data-name="Path 1376" d="M745.868,425.336h-2.032l1.807-1.8a.179.179,0,0,0,0-.249.175.175,0,0,0-.249,0l-1.807,1.807v-2.035a.175.175,0,0,0-.175-.175.179.179,0,0,0-.175.175v2.035l-1.8-1.818a.175.175,0,0,0-.249,0,.179.179,0,0,0,0,.249l1.807,1.8h-2.035a.179.179,0,0,0-.175.175.175.175,0,0,0,.175.175h2.035l-1.807,1.807a.179.179,0,0,0,0,.249.182.182,0,0,0,.249,0l1.8-1.807v2.032a.175.175,0,1,0,.351,0v-2.032l1.807,1.807a.182.182,0,0,0,.249,0,.179.179,0,0,0,0-.249l-1.807-1.807h2.032a.17.17,0,1,0,0-.34Z" transform="translate(-486.764 -291.144)" fill="tomato"/>
    <path id="Path_1377" data-name="Path 1377" d="M766.868,425.336h-2.032l1.807-1.8a.179.179,0,0,0,0-.249.175.175,0,0,0-.249,0l-1.807,1.807v-2.035a.175.175,0,0,0-.175-.175.179.179,0,0,0-.175.175v2.035l-1.8-1.818a.175.175,0,0,0-.249,0,.179.179,0,0,0,0,.249l1.807,1.8h-2.035a.179.179,0,0,0-.175.175.175.175,0,0,0,.175.175h2.035l-1.807,1.807a.179.179,0,0,0,0,.249.182.182,0,0,0,.249,0l1.8-1.807v2.032a.175.175,0,1,0,.351,0v-2.032l1.807,1.807a.182.182,0,0,0,.249,0,.179.179,0,0,0,0-.249l-1.807-1.807h2.032a.17.17,0,1,0,0-.34Z" transform="translate(-500.395 -291.144)" fill="tomato"/>
    <path id="Path_1378" data-name="Path 1378" d="M838.722,496.893a6.283,6.283,0,0,0-.158-1.26c-.316-1.186-1.028-2.621-2.2-2.979a18.473,18.473,0,0,1-3.488-1.474c-.211-3.762.653-7.611-.288-11.257a28.628,28.628,0,0,1-1.084-3.976c-.193-1.7.27-3.509-.407-5.074a5.008,5.008,0,0,0-2.965-2.562,15.8,15.8,0,0,0-3.955-.7c-1.684-.137-7.138-.783-9.039.723h0a1.986,1.986,0,0,0-.351.351h0a1.4,1.4,0,0,0-.112.182l-.018.028a1.42,1.42,0,0,0-.095.228h0a1.782,1.782,0,0,0-.06.263v.632c.025.316.07.632.07.944a2.035,2.035,0,0,1-.042.463,3.243,3.243,0,0,1-.583,1.137h0l-.063.091c-.039.056-.077.109-.112.165s-.063.1-.091.147-.056.081-.081.126a1.7,1.7,0,0,0-.091.179c0,.035-.039.067-.053.1a1.734,1.734,0,0,0-.105.295,1.958,1.958,0,0,0-.021.933,3.474,3.474,0,0,0,.481,1.105c.088.144.182.284.281.425l.246.333a7.55,7.55,0,0,0-.074.983,7.26,7.26,0,0,0,2.771,5.705,21.5,21.5,0,0,1-.045,4.454c-.032.309-.07.621-.112.93s-.074.512-.116.768a3.562,3.562,0,0,1-1.534-.116,7.226,7.226,0,0,0-.7-.27c-1.021-.256-2.063.761-3.074.453a.411.411,0,0,1-.046.14,1.376,1.376,0,0,0-.7-.207,2.56,2.56,0,0,1-1.523-.874l-1.337-1.26a1.477,1.477,0,0,1-.232-.26,1.82,1.82,0,0,1-.161-.432,4.974,4.974,0,0,0-1.295-1.856.877.877,0,0,0-.383-.277.592.592,0,0,0-.176,0,1.514,1.514,0,0,0-.116-.14,3.307,3.307,0,0,0-.291-.295c-.639-.59-.7-1.095-1.256-1.755a16.875,16.875,0,0,1-1.312-1.983c-.046-.368-.109-.747-.186-1.13a14.533,14.533,0,0,0-.769-2.562l-.7-1.555-.081.081c-.509-.758-1.053-1.172-1.541-1.074-.818.168-1.221,1.755-1.091,3.829l.281,2.105a.648.648,0,0,0,.039.158,3.879,3.879,0,0,0-.077.758c0,.295.274.512.418.775a2.193,2.193,0,0,1,.351,1.2c-.018.151-.063.295-.07.442a1.7,1.7,0,0,0,.33.912l1.755,2.948.351.618.021.028a1.5,1.5,0,0,0,.47.54,6.429,6.429,0,0,0,.579,2.13c.06.133.126.26.2.386a12.413,12.413,0,0,0,1.656,2.151l.835.937c.825.919,1.649,1.842,2.544,2.691a3.408,3.408,0,0,0,1.137.8,1.288,1.288,0,0,0,1.277-.186q0,.653,0,1.305a.733.733,0,0,1,.554,1.154,28.941,28.941,0,0,1-2.6,5.5,11.7,11.7,0,0,1,2.176,1.66,9.782,9.782,0,0,1,1.133,1.534c.032.26.056.516.07.772.26,4.183-1.358,8.334-2.807,12.321a9.6,9.6,0,0,0-.839,3.488,6.839,6.839,0,0,0-.786.565,5.2,5.2,0,0,1,.144,2.225,3.941,3.941,0,0,1-.291,1.4,9.875,9.875,0,0,1-.505.9,13.387,13.387,0,0,0-1.291,5.341c-.109,1.105.319,2.456-.182,3.446a14.1,14.1,0,0,0-1.755,5.4,5.413,5.413,0,0,1-.161,1.26c-.109.351-.3.649-.4.993a4.251,4.251,0,0,0-.07,1.4,13.432,13.432,0,0,1-.737,4.951,6.732,6.732,0,0,0-.579,3.881,5.471,5.471,0,0,0-1.484,3.26,5.142,5.142,0,0,1-.112.93,4.525,4.525,0,0,1-.421.895,7.831,7.831,0,0,0-.954,4.211,11.713,11.713,0,0,0-1.891,4.941c-.312,1.751-.449,3.534-.849,5.264-.533,2.288-1.5,4.6-1.688,6.945a4.892,4.892,0,0,0-1.846,3.464,15.422,15.422,0,0,1-.811,3.955c-.288.639-.7,1.211-.976,1.863a8.553,8.553,0,0,0-.421,1.6,6.257,6.257,0,0,0-.109,2.632,3.966,3.966,0,0,1-1.028.783c.056-.218.1-.435.14-.656-.905.821-2.548.533-3.271,1.519a1.481,1.481,0,0,0,.351,2.032,2.809,2.809,0,0,0,.726.312,11.607,11.607,0,0,0,5.362.828,1.6,1.6,0,0,0,.607-.193,1.954,1.954,0,0,0,.565-.653c.27-.428.54-.856.807-1.284a16.672,16.672,0,0,0,1.969.46c.067.561.116,1.123.14,1.684.351.07.821.091.986-.235a.853.853,0,0,0,.06-.39c0-.249.035-.579.056-.916h.07a6.667,6.667,0,0,0,3.105-.628c-.375-3.109.863-6.148,1.937-9.089,1.133-3.1,2.106-6.246,3.085-9.4.7-2.218,1.477-4.365,2.165-6.587q1.3-4.211,2.607-8.422c.379-1.235.761-2.456,1.2-3.685a57.416,57.416,0,0,1,3.253-7.239c.351-.663.7-1.319.99-2.007.351-.839.6-1.716.881-2.583a40.017,40.017,0,0,1,2.2-5.187c.025-.046.042-.088.067-.13.284,1.161.568,2.341.758,3.509a13.338,13.338,0,0,1,.06,4.337,14.3,14.3,0,0,0-.449,2.941c.053,1.372.786,2.618,1.148,3.941a15,15,0,0,1,.393,3.018c.1,1.579.954,3.351.351,4.814-1.877,4.636-.969,9.871-2.039,14.738-.551,2.5-2.239,4.846-2.105,7.4q.14,2.72.477,5.425a5.165,5.165,0,0,0,.439,1.646,6.034,6.034,0,0,0,.481.786c-.154.06-.284.218-.4.551a2.165,2.165,0,0,0,.779,2.456,3.406,3.406,0,0,0,1.014.351,5.338,5.338,0,0,0,1.467.2,3.416,3.416,0,0,0,.46-.056,16.712,16.712,0,0,0,1.66.6,3.608,3.608,0,0,0,.046.432.537.537,0,0,0,.182.4.547.547,0,0,0,.281.049H825.8v-.477a1.569,1.569,0,0,0,1.211-.393,1.873,1.873,0,0,0,.351-.73q.779-2.642,1.548-5.288a16.906,16.906,0,0,0,.754-6.036c-.677-6.467.811-12.956.326-19.441a46.567,46.567,0,0,1,.6-11.664c.158-.87.351-1.755.421-2.621.154-1.635-.035-3.288.081-4.913.039-.569.116-1.134.186-1.7a81.565,81.565,0,0,0,.754-10.58,33.317,33.317,0,0,0-.218-3.509,2,2,0,0,0,.958-.561,2.386,2.386,0,0,0,.228-1.5,10.864,10.864,0,0,1,.944-3.586,42.6,42.6,0,0,0,1.326-4.934,17.223,17.223,0,0,0,.589-4.123q0-.211-.021-.421a1.086,1.086,0,0,0,.323-.351,2.038,2.038,0,0,0,.168-.649c.126-.895.256-1.793.383-2.691q.14-.965.277-1.926L838.1,506.6c.095-.677.193-1.351.288-2.025l.291-2.014c.032-.239.067-.477.091-.7C839.631,500.43,838.813,498.521,838.722,496.893Zm-9.31,29.154a6.414,6.414,0,0,1-.7-3.049h-.039a1.566,1.566,0,0,0-.046-.99c-.109-.256-.3-.474-.414-.73a2.674,2.674,0,0,1-.189-.983,26.789,26.789,0,0,1,.5-6.366c.046-.246.095-.495.14-.74a1.831,1.831,0,0,0,.4-.312,2.846,2.846,0,0,0,.453-.7c.4-.8.758-1.607,1.091-2.432.109-.267.267-.576.537-.642-.056,2.053.154,4.148-.681,6a3.8,3.8,0,0,0-.351.947c-.077.523.14,1.053.063,1.572-.039.27-.154.519-.2.786a.768.768,0,0,0,.2.744.617.617,0,0,0,.151.077c-.021.14-.039.284-.053.421-.028.288-.042.558-.06.726a22.63,22.63,0,0,0-.095,2.583c0,.93.035,1.86.021,2.807a1.9,1.9,0,0,1-.133.8,1.385,1.385,0,0,1-.267.351A9.086,9.086,0,0,0,829.412,526.046Z" transform="translate(-515.756 -320.012)" fill="url(#linear-gradient)"/>
    <ellipse id="Ellipse_308" data-name="Ellipse 308" cx="1.979" cy="5.604" rx="1.979" ry="5.604" transform="matrix(0.98, -0.201, 0.201, 0.98, 281.77, 154.735)" fill="#fbbebe"/>
    <path id="Path_1379" data-name="Path 1379" d="M878.2,837.15a2.125,2.125,0,0,0,.779,2.432,3.471,3.471,0,0,0,1.007.351,5.314,5.314,0,0,0,1.463.2c.607-.028,1.19-.267,1.8-.351a.281.281,0,0,1,.207.028.3.3,0,0,1,.077.246,9.261,9.261,0,0,0,.077,1.032.53.53,0,0,0,.182.4.547.547,0,0,0,.281.049h1.9a18.548,18.548,0,0,0-.544-4.962,1.111,1.111,0,0,0-.14-.351,1.162,1.162,0,0,0-.607-.351,3.392,3.392,0,0,0-1.47-.256,4.307,4.307,0,0,0-1.649.807,2.513,2.513,0,0,1-1.87.453C879.054,836.7,878.524,836.174,878.2,837.15Z" transform="translate(-575.89 -559.04)" fill="#3f3d56"/>
    <path id="Path_1380" data-name="Path 1380" d="M794.463,834.276a5.263,5.263,0,0,1-1.919,1.305l-.323.154a.225.225,0,0,0-.109.088.19.19,0,0,0,.035.158,2.271,2.271,0,0,0,2.576.937,1.364,1.364,0,0,0,.565-.295,1.852,1.852,0,0,0,.435-1.13,2.313,2.313,0,0,0-.053-1.295C795.182,833.1,795,833.6,794.463,834.276Z" transform="translate(-520.08 -557.707)" fill="#fbbebe"/>
    <path id="Path_1381" data-name="Path 1381" d="M797.78,838.973a.852.852,0,0,1-.06.39c-.165.323-.625.305-.983.235a23.637,23.637,0,0,0-.432-3.544c-.681-.032-1.172.614-1.537,1.193l-.941,1.491a1.942,1.942,0,0,1-.561.653,1.662,1.662,0,0,1-.607.193,11.507,11.507,0,0,1-5.344-.828,2.835,2.835,0,0,1-.726-.309,1.484,1.484,0,0,1-.351-2.028c.726-.983,2.358-.7,3.264-1.516a8.181,8.181,0,0,1-.463,1.674c1.211-.182,2.025-1.291,3-2.032a1.848,1.848,0,0,1,.856-.407,1.883,1.883,0,0,1,.7.074,8.233,8.233,0,0,1,3.088,1.519,3.33,3.33,0,0,1,1.105,1.151A8.522,8.522,0,0,1,797.78,838.973Z" transform="translate(-516.105 -558.082)" fill="#3f3d56"/>
    <circle id="Ellipse_309" data-name="Ellipse 309" cx="7.25" cy="7.25" r="7.25" transform="translate(298.564 150.612)" fill="#fbbebe"/>
    <path id="Path_1382" data-name="Path 1382" d="M915.185,615.084a17.192,17.192,0,0,1-.586,4.1,42.347,42.347,0,0,1-1.326,4.913,10.813,10.813,0,0,0-.937,3.579,2.38,2.38,0,0,1-.232,1.495,2.184,2.184,0,0,1-1.025.586,1.281,1.281,0,0,0-.863.768,5.42,5.42,0,0,1-.73-1.607q-.944-2.892-1.755-5.815a.754.754,0,0,1,.049-.7.87.87,0,0,1,.305-.172,3.158,3.158,0,0,0,.972-.625,1.421,1.421,0,0,0,.323-.418,1.892,1.892,0,0,0,.137-.793c0-.93,0-1.856-.025-2.786a23.272,23.272,0,0,1,.1-2.572c0-.168.032-.439.06-.726.053-.551.158-1.19.456-1.4.446-.3,1.779.1,2.284.172.87.119,1.755.26,2.6.425A6.954,6.954,0,0,1,915.185,615.084Z" transform="translate(-595.089 -414.418)" fill="#3f3d56"/>
    <path id="Path_1383" data-name="Path 1383" d="M830.984,507.026c-.281.561-.954.832-1.474,1.186l-1.779,1.221a1.186,1.186,0,0,1-.881.3,1.158,1.158,0,0,1-.656-.614.114.114,0,0,0,0-.028l-.368-.618-1.755-2.941a1.673,1.673,0,0,1-.326-.905c0-.151.053-.291.067-.442a2.123,2.123,0,0,0-.351-1.193c-.14-.263-.421-.481-.414-.776a2.807,2.807,0,0,1,.2-1.133,2.3,2.3,0,0,1,.768-.821c.165-.119.333-.232.509-.351a1,1,0,0,1,.305-.14c.291-.06.579.182.874.193,1.267.849,1.755,2.456,2.751,3.614.561.66.618,1.165,1.253,1.755.1.091.2.189.295.291a2.038,2.038,0,0,1,.316.456C830.43,506.384,831.128,506.738,830.984,507.026Z" transform="translate(-540.162 -341.048)" fill="#3f3d56"/>
    <path id="Path_1384" data-name="Path 1384" d="M875.085,508.131a6.533,6.533,0,0,1,.779,3.534,2.208,2.208,0,0,1-.305.93,3.005,3.005,0,0,1-2.488.961,1.467,1.467,0,0,0-1.081.351.982.982,0,0,0,.067,1.2,2.708,2.708,0,0,0,1.074.7,9.507,9.507,0,0,0,4.622,1.025c.737-.07,1.453-.284,2.186-.393a22.968,22.968,0,0,1,2.407-.133c.954-.035,1.905-.13,2.856-.225l2.519-.249a.562.562,0,0,0,.375-.137c.186-.218-.053-.537-.284-.7-1.337-.99-3.039-1.67-3.8-3.158a18.582,18.582,0,0,1-.719-2.295,19.316,19.316,0,0,1-.835-2.214,14.681,14.681,0,0,1-.116-2.042,2.741,2.741,0,0,0-.7-1.867,2.926,2.926,0,0,0-1.909-.614,6.18,6.18,0,0,0-4.653,1.509c-.319.319-.593.7-.923.99s-.779.372-.561.751.646.614.877.947A8.071,8.071,0,0,1,875.085,508.131Z" transform="translate(-571.819 -343.016)" fill="#fbbebe"/>
    <path id="Path_1385" data-name="Path 1385" d="M875.325,530.4a39.863,39.863,0,0,1-2.148,7.906,29.769,29.769,0,0,0-1.263,3.544c-.27,1.088-.218,2.253-.467,3.344-.309,1.358-.618,2.72-.867,4.088a26.8,26.8,0,0,0-.5,6.352,2.656,2.656,0,0,0,.19.979c.116.253.3.47.411.73a1.754,1.754,0,0,1-.1,1.4,4.065,4.065,0,0,1-.723,1.095c-3.27.976-6.769.656-10.176.863-3.141.189-6.316.835-9.411.3-.351-1.4.235-2.874.737-4.242,1.456-3.976,3.067-8.117,2.807-12.282a12.726,12.726,0,0,0-.165-1.449,19.214,19.214,0,0,1,.933-8.868,15.216,15.216,0,0,0,.4-5.537,10.108,10.108,0,0,1-.025-1.814,3.19,3.19,0,0,1,.66-1.695c0-.025.032-.049.049-.074a.482.482,0,0,1,.263,0h0a.225.225,0,0,0,.175,0l.039-.025a.088.088,0,0,1,.1,0c.081.049.126.218.3.249a6.973,6.973,0,0,0,.782.074,4.211,4.211,0,0,1,.933.133h.042a2.741,2.741,0,0,0,1.362-.116,3.617,3.617,0,0,0,.835-.323c.077-.084.561-.161.66-.221.319-.193.249-1.1.316-1.47a4.046,4.046,0,0,1,.263-1.088,1.853,1.853,0,0,1,1.5-.874,8,8,0,0,1,1.8.161c1.309.186,2.649.154,3.934.456a2.93,2.93,0,0,0,1.944.084c.161.039.186.179.186.351a2.247,2.247,0,0,1-.1.481c-.225.969.537,1.86,1.239,2.562a3.973,3.973,0,0,0,1.035.825c.351.161.7.228,1.053.4a1.915,1.915,0,0,1,.7.642,2.681,2.681,0,0,1,.4,1.021A6.108,6.108,0,0,1,875.325,530.4Z" transform="translate(-557.766 -355.081)" fill="#3f3d56"/>
    <path id="Path_1386" data-name="Path 1386" d="M881.433,537.1a39.863,39.863,0,0,1-2.148,7.906,29.786,29.786,0,0,0-1.263,3.544c-.27,1.088-.218,2.253-.467,3.344-.309,1.358-.618,2.72-.867,4.088-.074.042-.151.081-.228.116a5.384,5.384,0,0,1-1.376.442,8.419,8.419,0,0,1-2.569-.084l-5.008-.67c-2-.27-4.13-.6-5.615-1.951a11.978,11.978,0,0,1-1.958-2.674,12.715,12.715,0,0,0-.165-1.449,19.214,19.214,0,0,1,.933-8.868,15.218,15.218,0,0,0,.4-5.537,10.109,10.109,0,0,1-.025-1.814,3.19,3.19,0,0,1,.66-1.695,2.5,2.5,0,0,1,.312-.07h0a1.568,1.568,0,0,1,.214-.028h.1a1.53,1.53,0,0,1,.351.042,6.338,6.338,0,0,1,.7.27h.042a2.689,2.689,0,0,0,.933.133c.463,0,.94-.074,1.4-.105a2.59,2.59,0,0,1,1.663.3,9.953,9.953,0,0,1,.926.846,3.98,3.98,0,0,0,1.169.635,12.419,12.419,0,0,0,9.341-.2,1.828,1.828,0,0,1,.937-.239,1.756,1.756,0,0,1,.674.288c.211.123.418.242.632.351a2.681,2.681,0,0,1,.4,1.021A6.105,6.105,0,0,1,881.433,537.1Z" transform="translate(-563.874 -361.778)" opacity="0.1"/>
    <path id="Path_1387" data-name="Path 1387" d="M878.883,533.532a18.728,18.728,0,0,1-4-1.755,1.794,1.794,0,0,0-.674-.288,1.884,1.884,0,0,0-.94.239,12.412,12.412,0,0,1-9.338.2,4.061,4.061,0,0,1-1.169-.635,10.483,10.483,0,0,0-.926-.846c-1.154-.747-2.751.13-4.043-.351a7.142,7.142,0,0,0-.7-.27c-1.021-.256-2.06.761-3.064.453a17.075,17.075,0,0,0-.825,3.13,34.12,34.12,0,0,0-.228,3.692c0,.74-.035,1.481,0,2.221a.729.729,0,0,1,.555,1.151,28.769,28.769,0,0,1-2.59,5.478,11.908,11.908,0,0,1,2.169,1.656c1.228,1.3,1.832,3.12,3.158,4.32,1.495,1.351,3.625,1.681,5.615,1.948l5.007.67a8.562,8.562,0,0,0,2.572.088,5.415,5.415,0,0,0,1.372-.446,2.455,2.455,0,0,0,.765-.505,2.808,2.808,0,0,0,.453-.7c.4-.793.758-1.6,1.091-2.425.116-.291.291-.632.607-.656,1.86-1.677,3.614-3.4,5.474-5.074a12.129,12.129,0,0,0,2-2.105c.923-1.365.084-3.3,0-4.948a6.24,6.24,0,0,0-.158-1.253C880.761,535.318,880.052,533.886,878.883,533.532Z" transform="translate(-558.268 -360.532)" fill="tomato"/>
    <path id="Path_1388" data-name="Path 1388" d="M836.8,517.751c-.281.561-.954.832-1.474,1.186l-1.779,1.221a1.186,1.186,0,0,1-.881.3,1.158,1.158,0,0,1-.656-.614v-.253a2.352,2.352,0,0,1,.112-.839,2.614,2.614,0,0,1,.786-1.011,6.435,6.435,0,0,1,2.305-1.4.79.79,0,0,1,.421-.042.556.556,0,0,1,.154.067,2.039,2.039,0,0,1,.316.456C836.251,517.109,836.949,517.464,836.8,517.751Z" transform="translate(-545.982 -351.773)" opacity="0.1"/>
    <path id="Path_1389" data-name="Path 1389" d="M841.8,521.87a2.557,2.557,0,0,1-1.519-.87l-1.33-1.235a1.244,1.244,0,0,1-.232-.26,1.823,1.823,0,0,1-.161-.432,4.953,4.953,0,0,0-1.291-1.853.842.842,0,0,0-.382-.274.768.768,0,0,0-.425.042,6.418,6.418,0,0,0-2.306,1.4,2.622,2.622,0,0,0-.786,1.011,2.333,2.333,0,0,0-.112.839,6.444,6.444,0,0,0,.611,2.681c.06.13.126.26.2.386a12.152,12.152,0,0,0,1.649,2.144l.835.933c.821.919,1.642,1.839,2.534,2.684a3.346,3.346,0,0,0,1.137.793,1.27,1.27,0,0,0,1.305-.211,1.888,1.888,0,0,0,.372-.667,13.127,13.127,0,0,0,1.084-4.376,16.58,16.58,0,0,0-.077-1.814C842.849,522.158,842.4,521.908,841.8,521.87Z" transform="translate(-546.787 -352.193)" fill="tomato"/>
    <path id="Path_1390" data-name="Path 1390" d="M840.293,641.089a81.089,81.089,0,0,1-.751,10.552c-.07.565-.147,1.13-.186,1.695-.116,1.639.074,3.285-.081,4.913-.081.881-.263,1.755-.418,2.614a46.486,46.486,0,0,0-.6,11.633c.484,6.467-1,12.938-.326,19.388a15.669,15.669,0,0,1-.207,3.751,15.9,15.9,0,0,1-.544,2.267q-.769,2.635-1.544,5.264a1.825,1.825,0,0,1-.351.73,1.663,1.663,0,0,1-1.316.39,15.179,15.179,0,0,1-5.769-1.79,2.008,2.008,0,0,1-.579-.351c-.383-.4-.351-1.021-.519-1.544a14.7,14.7,0,0,0-.884-1.551,5.065,5.065,0,0,1-.383-1.6q-.351-2.695-.477-5.411c-.133-2.548,1.551-4.892,2.105-7.369,1.053-4.871.161-10.092,2.032-14.714.59-1.46-.267-3.228-.351-4.8a15.219,15.219,0,0,0-.393-3.011c-.351-1.319-1.091-2.562-1.144-3.93a14.441,14.441,0,0,1,.446-2.93,13.17,13.17,0,0,0-.06-4.327c-.186-1.179-.47-2.358-.755-3.509l-.063.13a39.646,39.646,0,0,0-2.2,5.176c-.281.86-.526,1.737-.877,2.572-.288.7-.642,1.344-.99,2a57.543,57.543,0,0,0-3.246,7.211c-.435,1.214-.818,2.456-1.2,3.674l-2.6,8.422c-.7,2.214-1.47,4.355-2.158,6.566-.972,3.158-1.944,6.288-3.074,9.376-1.053,2.93-2.305,5.966-1.93,9.061a6.668,6.668,0,0,1-3.1.628,18.141,18.141,0,0,1-5.264-1.277,4.092,4.092,0,0,1-1.818-1.081c-.779-.951-.586-2.344-.351-3.555a8.586,8.586,0,0,1,.421-1.6c.267-.646.7-1.218.976-1.856a15.573,15.573,0,0,0,.8-3.941,4.863,4.863,0,0,1,1.839-3.457c.193-2.337,1.154-4.643,1.684-6.927.4-1.73.533-3.509.849-5.264a11.561,11.561,0,0,1,1.884-4.93,7.815,7.815,0,0,1,.954-4.211,4.6,4.6,0,0,0,.418-.895,5.136,5.136,0,0,0,.112-.926A5.478,5.478,0,0,1,809.8,659.1a6.6,6.6,0,0,1,.576-3.86,13.41,13.41,0,0,0,.737-4.937,4.331,4.331,0,0,1,.067-1.4c.1-.351.291-.649.4-.986a5.615,5.615,0,0,0,.158-1.26,14.571,14.571,0,0,1,1.755-5.383c.505-.99.077-2.334.182-3.435a13.28,13.28,0,0,1,1.291-5.323c.169-.3.351-.59.5-.9a3.906,3.906,0,0,0,.291-1.4,5.168,5.168,0,0,0-.144-2.218c1.877-1.562,4.439-2,6.881-2.105s4.913.116,7.3-.4c.7-.158,1.4-.376,2.144-.481a13.871,13.871,0,0,1,5.046.516,6.01,6.01,0,0,0,.7,3.042,32.658,32.658,0,0,1,2.6,12.535Z" transform="translate(-524.015 -422.285)" fill="#33313f"/>
    <path id="Path_1391" data-name="Path 1391" d="M885.69,673.29l-4.032,9.068c-.186-1.179-.47-2.358-.754-3.509l-.063.13v-.19l2.2-4.832Z" transform="translate(-577.675 -453.682)" opacity="0.1"/>
    <path id="Path_1392" data-name="Path 1392" d="M918.809,615.084a1.516,1.516,0,0,1-.8.3,3.891,3.891,0,0,1-1.312-.179l-3.158-.79a1.553,1.553,0,0,1-.288-.1c.053-.551.158-1.19.456-1.4.446-.3,1.779.1,2.284.172.87.119,1.755.26,2.6.425a6.954,6.954,0,0,1,.214,1.579Z" transform="translate(-598.712 -414.418)" opacity="0.1"/>
    <path id="Path_1393" data-name="Path 1393" d="M920.873,557.738c.067.291.161.579.218.874a6.669,6.669,0,0,1-.074,2.172l-.288,2.007-.288,2.018-1.112,7.766-.274,1.923-.386,2.685a1.933,1.933,0,0,1-.168.646,1.344,1.344,0,0,1-1.1.649,3.981,3.981,0,0,1-1.312-.179l-3.158-.793a.989.989,0,0,1-.386-.158.762.762,0,0,1-.2-.74c.046-.267.161-.516.2-.783.077-.519-.14-1.053-.063-1.569a3.9,3.9,0,0,1,.351-.944c1.053-2.326.442-5.043.8-7.569a11.473,11.473,0,0,1,2.435-5.418,15.55,15.55,0,0,1,2.688-2.639,5.408,5.408,0,0,1,1.512-1.053C920.9,556.5,920.768,557.3,920.873,557.738Z" transform="translate(-598.107 -377.951)" fill="tomato"/>
    <path id="Path_1394" data-name="Path 1394" d="M862.534,470.375c-.232.737.13,1.548-.035,2.3-.179.828-.958,1.4-1.179,2.235-.351,1.267.723,2.421,1.509,3.474,2.913,3.909,2.53,9.32,1.533,14.089a72.745,72.745,0,0,1-3.316,11.229,8.6,8.6,0,0,1-1.786,3.134,9.237,9.237,0,0,1,4.948-.481c2.049.568,3.818,2.558,5.9,2.105,1.249-.277,2.126-1.386,3.249-2,2.106-1.133,4.643-.421,6.99-.056a2.743,2.743,0,0,0,1.526-.077,2.537,2.537,0,0,0,.926-.853,8.653,8.653,0,0,0,1.8-4.667,5.987,5.987,0,0,0-1.723-4.608,9.856,9.856,0,0,1-1.477-1.4,4.359,4.359,0,0,1-.579-2.127c-.277-3.86.663-7.8-.305-11.535a28.46,28.46,0,0,1-1.077-3.965c-.193-1.695.267-3.509-.407-5.06a4.963,4.963,0,0,0-2.958-2.555,16.2,16.2,0,0,0-3.944-.7C870.205,468.691,863.338,467.866,862.534,470.375Z" transform="translate(-563.668 -320.816)" fill="#33313f"/>
    <g id="Group_170" data-name="Group 170" transform="translate(295.592 148.755)" opacity="0.1">
      <path id="Path_1395" data-name="Path 1395" d="M867.7,502.122a72.6,72.6,0,0,1-3.3,11.184c.242-.481.446-.986.639-1.488a72.349,72.349,0,0,0,3.316-11.229c1-4.772,1.383-10.176-1.53-14.089-.7-.933-1.6-1.944-1.572-3.039a3.741,3.741,0,0,0-.6,1.1c-.351,1.267.723,2.421,1.509,3.474C869.078,491.942,868.7,497.353,867.7,502.122Z" transform="translate(-862.596 -479.221)"/>
      <path id="Path_1396" data-name="Path 1396" d="M868.439,474.128a3.414,3.414,0,0,0,.618-1.183,6,6,0,0,0-.042-1.565,1.688,1.688,0,0,0-.583.8A6.941,6.941,0,0,0,868.439,474.128Z" transform="translate(-865.158 -471.38)"/>
      <path id="Path_1397" data-name="Path 1397" d="M883.456,567.012a2.527,2.527,0,0,1-.926.849,2.681,2.681,0,0,1-1.526.077c-2.348-.351-4.913-1.074-6.99.06-1.127.611-2,1.719-3.253,2-2.074.463-3.843-1.526-5.892-2.105a8.225,8.225,0,0,0-4.446.351,6.13,6.13,0,0,1-1.162,1.677,9.237,9.237,0,0,1,4.948-.481c2.049.568,3.818,2.558,5.9,2.105,1.249-.277,2.127-1.386,3.25-2,2.105-1.133,4.643-.421,6.99-.056a2.745,2.745,0,0,0,1.526-.077,2.537,2.537,0,0,0,.926-.853,9.434,9.434,0,0,0,1.453-2.779A10.222,10.222,0,0,1,883.456,567.012Z" transform="translate(-859.26 -532.654)"/>
    </g>
  </g>
</svg>
