<svg id="undraw_credit_card_payment_12va" xmlns="http://www.w3.org/2000/svg" xmlns:xlink="http://www.w3.org/1999/xlink" width="126.207" height="96.697" viewBox="0 0 126.207 96.697">
  <defs>
    <linearGradient id="linear-gradient" x1="0.5" y1="1" x2="0.5" gradientUnits="objectBoundingBox">
      <stop offset="0" stop-color="gray" stop-opacity="0.251"/>
      <stop offset="0.54" stop-color="gray" stop-opacity="0.122"/>
      <stop offset="1" stop-color="gray" stop-opacity="0.102"/>
    </linearGradient>
    <linearGradient id="linear-gradient-2" x1="0.5" x2="0.5" y2="0" xlink:href="#linear-gradient"/>
  </defs>
  <path id="Path_604" data-name="Path 604" d="M68.953,124.576a5.6,5.6,0,0,0-3.816,3.867c-.5,2.2.651,4.424.815,6.681.537,7.406-9.213,12.631-7.823,19.909.553,2.889,2.786,5.018,4.988,6.77,3.524,2.807,7.434,5.286,11.759,5.987,6.571,1.063,13.438-2.064,19.826-.087,5.152,1.594,9.094,6.267,14.211,7.992,3.9,1.313,8.091.8,12.141.264,2.178-.285,4.467-.616,6.229-2.03,3.28-2.634,3.478-7.833,5.671-11.56,3.385-5.753,10.806-6.876,17.029-5.758s12.262,3.874,18.567,3.641a7.954,7.954,0,0,0,3.9-.961,10.238,10.238,0,0,0,3.248-3.911,67.078,67.078,0,0,0,8.492-31.443,12.145,12.145,0,0,0-.856-5.588,9.536,9.536,0,0,0-5.239-4.264c-5.016-2.051-10.556-2.383-15.473-4.712-4.742-2.244-8.584-6.18-12.713-9.547A65.408,65.408,0,0,0,122.025,86.4a16.4,16.4,0,0,0-7.189-.277c-2.715.659-5.055,2.488-7.159,4.456-5.6,5.239-10.085,11.7-15.243,17.438A89.081,89.081,0,0,1,80.851,118.8a42.31,42.31,0,0,1-6.066,4.351C72.84,124.157,71.011,123.9,68.953,124.576Z" transform="translate(-57.993 -79.882)" fill="#a7a8c2" opacity="0.1"/>
  <path id="Path_605" data-name="Path 605" d="M298.94,83.187c-2.561-.536-7.411-1.54-12.9-2.653-8.125-1.647-10.246,4.588-10.246,4.588,0,3.176-10.595,16.351-10.595,16.351l-3.16-7.079a3.332,3.332,0,0,0,1.453-.1c1.809-.54,2.7-2.581,2.993-4.445a14.607,14.607,0,0,0-1.137-8.266c-.539-1.181-1.238-2.291-1.671-3.514-1.827-5.13,1.338-11.068-.576-16.178-.791-2.108-2.367-3.819-3.457-5.789-2.445-4.43-2.34-9.972-5.006-14.275a12.921,12.921,0,0,0-12.15-5.892c-2.784.314-4.774,1.309-7.368.116-2.19-1-4.819-2.126-7.074-.545-1.923,1.348-2.251,4-3.3,6.1-1.844,3.687-6.22,6.094-6.734,10.184a18.141,18.141,0,0,1-.295,3.027c-.841,2.751-4.5,3.564-6,6.019a4.734,4.734,0,0,0,2.747,6.729c1.164.3,2.417.116,3.58.43,1.091.291,2.149,1.311,1.961,2.376l-2.419.44-6.961.773-1.077.068v.052l-.058.007.057.047v.382c-1.959.767-5.134,2.815-6.334,8.187a8.131,8.131,0,0,1-1.622,3.347c-1.785,2.2-4.747,6.5-4.581,10.623.233,5.882.233,8.235,8.008,6.587a27.083,27.083,0,0,0,6.2-2.309,23.778,23.778,0,0,0,1.1,6.661c2.12,5.764-2.355,26.116-2.355,26.116h43.221s-3.651-12-7.184-18.116c-2.5-4.333-1.578-6.954-.825-8.115a10.893,10.893,0,0,0,1.443-3.216c.128-.5.253-1.071.36-1.7a9.083,9.083,0,0,0,2.6,1.585,4.7,4.7,0,0,0,2.8.162c1.842,2.252,3.9,4.721,6.1,7.287,8.479,9.881,10.835,3.764,10.835,3.764s8.6-16.351,9.78-21.292,3.769-4.706,3.769-4.706c7.088,1.792,13.37-.809,16.289-2.374a.777.777,0,0,0-.217-1.448ZM211.49,86.143A11.184,11.184,0,0,0,213,83.931h.022a16.8,16.8,0,0,1-.828,2.408c-.66.127-1.058.193-1.058.193Z" transform="translate(-180.819 -34.721)" fill="url(#linear-gradient)"/>
  <path id="Path_606" data-name="Path 606" d="M334.134,44.546c-1.9,1.334-2.225,3.959-3.26,6.04-1.823,3.649-6.148,6.032-6.657,10.079a17.984,17.984,0,0,1-.291,2.994c-.83,2.723-4.45,3.528-5.938,5.958a4.686,4.686,0,0,0,2.715,6.66c1.154.293,2.389.116,3.539.425s2.264,1.436,1.884,2.561c-.283.838-1.281,1.316-1.462,2.182a2.558,2.558,0,0,0,.841,2.035,8.442,8.442,0,0,0,2.125,1.936c2.3,1.323,5.16.529,7.808.441a14.107,14.107,0,0,1,8.9,2.83,6.826,6.826,0,0,1,1.876,2c1.48,2.606.08,5.876.395,8.855.356,3.386,2.885,6.1,5.438,8.354a10.938,10.938,0,0,0,3.376,2.249,4.139,4.139,0,0,0,3.889-.39,4.791,4.791,0,0,0,1.532-3.842c.007-1.429-.293-2.85-.221-4.276.035-.7.29-1.529.971-1.666a1.587,1.587,0,0,1,1,.226c2.173,1.092,4.257,3.231,6.585,2.537,1.789-.534,2.678-2.554,2.96-4.4a14.471,14.471,0,0,0-1.125-8.178c-.533-1.164-1.224-2.267-1.652-3.478-1.8-5.087,1.326-10.965-.565-16.019-.781-2.086-2.34-3.779-3.417-5.729-2.422-4.385-2.313-9.87-4.95-14.128a12.768,12.768,0,0,0-12.012-5.832c-2.752.311-4.719,1.3-7.284.116C338.968,44.093,336.369,42.977,334.134,44.546Z" transform="translate(-287.213 -42.712)" fill="#40243e"/>
  <path id="Path_607" data-name="Path 607" d="M596.527,366.088s7.568-2.329,10.595,11.177l7.684,17.231s10.478-13.04,10.478-16.183c0,0,2.1-6.171,10.129-4.541,5.427,1.1,10.215,2.1,12.752,2.625a.768.768,0,0,1,.208,1.429c-2.885,1.549-9.1,4.123-16.1,2.349,0,0-2.561-.233-3.726,4.657s-9.663,21.073-9.663,21.073-2.329,6.054-10.711-3.726-14.67-18.163-14.67-18.163Z" transform="translate(-531.153 -327.373)" fill="#ffbcc8"/>
  <path id="Path_608" data-name="Path 608" d="M378.285,261.084l-1,3.305-.992,3.269-1.963,6.465-9.314,1.746-3.035-1.936-3.718-2.372-3.205-2.212-4.712-3.26-3.842-8.033s1.059-.187,4.363-.788l4.6-.842c3.178-.582,4.38-2.948,4.747-5.356a16.548,16.548,0,0,0-.322-5.821h11.759a9.317,9.317,0,0,1,1.11,5.4,13.683,13.683,0,0,1-.527,2.985c-1.034,3.579,1.3,4.773,2.884,5.161a6.567,6.567,0,0,0,1.307.194Z" transform="translate(-312.91 -220.739)" fill="#ffbcc8"/>
  <path id="Path_609" data-name="Path 609" d="M474.339,250.665a11.067,11.067,0,0,1-12.546.426,16.55,16.55,0,0,0-.323-5.821h11.759A9.253,9.253,0,0,1,474.339,250.665Z" transform="translate(-414.494 -220.756)" opacity="0.1"/>
  <circle id="Ellipse_63" data-name="Ellipse 63" cx="11.061" cy="11.061" r="11.061" transform="translate(42.206 9.609)" fill="#ffbcc8"/>
  <path id="Path_610" data-name="Path 610" d="M378.285,352.3l-1,3.305-.992,3.269-1.963,6.465-9.314,1.746-3.035-1.936-3.718-2.372-3.205-2.212-4.712-3.26-3.842-8.033s1.059-.187,4.363-.788c2.329,6.479,5.274,8.892,7.932,9.674a9.781,9.781,0,0,0,4.259.175,10.989,10.989,0,0,1,4.567.233c3.574.994,5.456-.909,6.444-3.325A16.868,16.868,0,0,0,375.113,350a6.562,6.562,0,0,0,1.307.194Z" transform="translate(-312.91 -311.95)" opacity="0.1"/>
  <path id="Path_611" data-name="Path 611" d="M303.948,409.786s4.424-20.142,2.329-25.847a22.21,22.21,0,0,1-1.055-5.97,74.077,74.077,0,0,1,.356-11.494c.1-.194.194-.388.285-.582q.349-.745.615-1.458c2.5-6.713-.609-11.183-2.183-12.892a7.846,7.846,0,0,0-.815-.784l8.907-.99c2.341,6.719,5.344,9.2,8.045,9.992a9.779,9.779,0,0,0,4.259.175,10.99,10.99,0,0,1,4.567.233c3.574.994,5.456-.909,6.444-3.325a18.861,18.861,0,0,0,1.076-6.786l5.123,1.513s-.452,2.806-.86,6.493c-.1.865-.191,1.778-.276,2.715a55.417,55.417,0,0,0-.144,11.167,22.593,22.593,0,0,1-.439,8.695,10.782,10.782,0,0,1-1.425,3.183c-.744,1.148-1.658,3.743.815,8.033,3.493,6.054,7.1,17.93,7.1,17.93Z" transform="translate(-274.899 -313.09)" fill="#ff808e"/>
  <path id="Path_612" data-name="Path 612" d="M594.35,365.75s4.23,6.636-1.32,12.341-3.337-2.329-3.337-2.329l1.4-9.314Z" transform="translate(-527.404 -327.209)" fill="#ff808e"/>
  <path id="Path_613" data-name="Path 613" d="M310.48,363.357a5.76,5.76,0,0,1,.968-.217c1.514.722,2.352,2.726,2.807,4.818a10.835,10.835,0,0,1-1.592,8.3C315.158,369.535,312.054,365.066,310.48,363.357Z" transform="translate(-281.084 -324.903)" opacity="0.1"/>
  <path id="Path_614" data-name="Path 614" d="M353.248,413.255a44.8,44.8,0,0,1-5.733-.127,5.071,5.071,0,0,1-1.4,4.587,3.174,3.174,0,0,1-2.871,1c-5.372-.931-13.54,3.958-13.54,3.958a75.621,75.621,0,0,1-12,7.768,74.077,74.077,0,0,1,.356-11.494c.1-.194.194-.388.285-.582,2.489-.466,11.533-2.305,13.337-5.006a4.265,4.265,0,0,1,1.234-1.127,22.542,22.542,0,0,1,6.349-2.348,25.355,25.355,0,0,1,8.922-.566,24.608,24.608,0,0,1,3.791.739c.543.15,1.066.312,1.547.481,1.318.466,2.317.986,2.49,1.54C356.249,412.829,354.92,413.146,353.248,413.255Z" transform="translate(-287.38 -365.565)" opacity="0.1"/>
  <path id="Path_615" data-name="Path 615" d="M441.205,406.262c-1.792-.03-3.36-.171-3.36-.171a5.071,5.071,0,0,1-1.4,4.587,3.174,3.174,0,0,1-2.871,1,14.681,14.681,0,0,0-6.679.855l-3.722-2.372-3.205-2.212a5.654,5.654,0,0,0,2.041-1.63c1.034-1.551,4.424-2.7,7.583-3.475a25.157,25.157,0,0,1,12.6.144l.109.029c2.025.565,3.8,1.264,4.038,2.021C446.684,406.132,443.725,406.306,441.205,406.262Z" transform="translate(-377.826 -359.342)" opacity="0.1"/>
  <path id="Path_616" data-name="Path 616" d="M211.455,358.12s-6.09.619-7.866,8.514a8.179,8.179,0,0,1-1.618,3.353c-1.765,2.181-4.684,6.427-4.521,10.5.233,5.821.233,8.15,7.917,6.52S223.414,377,223.414,377s8.169-4.882,13.54-3.959a3.176,3.176,0,0,0,2.871-1,5.056,5.056,0,0,0,1.4-4.587s9.081.815,8.5-1.048c-.233-.757-2.013-1.457-4.038-2.02a25.176,25.176,0,0,0-12.713-.175c-3.164.772-6.549,1.926-7.583,3.475-2.1,3.143-13.971,5.123-13.971,5.123l.349-.392a10.878,10.878,0,0,0,2.5-9.473C213.808,360.846,212.974,358.842,211.455,358.12Z" transform="translate(-181.208 -320.468)" fill="#ffbcc8"/>
  <path id="Path_617" data-name="Path 617" d="M303.963,355.983s-.349,14.088,4.89,11.992,1.164-11.992,1.164-11.992l-2.329-.233Z" transform="translate(-275.322 -318.374)" fill="#ff808e"/>
  <path id="Path_618" data-name="Path 618" d="M414.647,113.815a51.494,51.494,0,0,0,10.168-2.185,3.417,3.417,0,0,0,2.17-1.439c.1-.206.179-.451.381-.564a.806.806,0,0,1,.575-.022,23.264,23.264,0,0,1,3.191,1.417,3.091,3.091,0,0,0,3.29-.281c.981-.969.657-2.634.01-3.85-2.4-4.527-8.021-6.593-13.134-6.218a5.67,5.67,0,0,0-2.1.466c-1.369.658-2.119,2.121-2.861,3.447C414.9,107.157,407.272,114.631,414.647,113.815Z" transform="translate(-370.325 -92.956)" opacity="0.1"/>
  <path id="Path_619" data-name="Path 619" d="M414.647,110.815a51.493,51.493,0,0,0,10.168-2.185,3.417,3.417,0,0,0,2.17-1.439c.1-.206.179-.451.381-.564a.806.806,0,0,1,.575-.022,23.262,23.262,0,0,1,3.191,1.417,3.091,3.091,0,0,0,3.29-.281c.981-.969.657-2.634.01-3.85-2.4-4.527-8.021-6.593-13.134-6.218a5.67,5.67,0,0,0-2.1.466c-1.369.658-2.119,2.121-2.861,3.447C414.9,104.157,407.272,111.631,414.647,110.815Z" transform="translate(-370.325 -90.305)" fill="#40243e"/>
  <path id="Path_620" data-name="Path 620" d="M895.7,316.75H872.067a1.077,1.077,0,0,0-1.077,1.077v13.855a1.077,1.077,0,0,0,1.077,1.077H895.7a1.077,1.077,0,0,0,1.077-1.077V317.827A1.077,1.077,0,0,0,895.7,316.75Z" transform="translate(-776.335 -283.914)" fill="url(#linear-gradient-2)"/>
  <rect id="Rectangle_127" data-name="Rectangle 127" width="25.187" height="15.633" rx="7.816" transform="translate(94.954 33.024)" fill="#a7a8c2"/>
  <rect id="Rectangle_128" data-name="Rectangle 128" width="25.187" height="2.866" transform="translate(94.954 35.76)" fill="#a7a8c2"/>
  <rect id="Rectangle_129" data-name="Rectangle 129" width="25.187" height="2.866" transform="translate(94.954 35.76)" opacity="0.3"/>
  <rect id="Rectangle_130" data-name="Rectangle 130" width="20.41" height="1.39" transform="translate(97.342 40.754)" fill="#d6d6e3"/>
  <circle id="Ellipse_64" data-name="Ellipse 64" cx="1.998" cy="1.998" r="1.998" transform="translate(97.038 43.619)" fill="#a7a8c2"/>
  <circle id="Ellipse_65" data-name="Ellipse 65" cx="1.998" cy="1.998" r="1.998" transform="translate(97.038 43.619)" opacity="0.3"/>
  <path id="Path_621" data-name="Path 621" d="M285.376,484.75s-2.212,1.175-2.579,2.61-.8,1.7-.8,1.7" transform="translate(-255.92 -432.354)" opacity="0.05"/>
  <path id="Path_622" data-name="Path 622" d="M773.466,610.75s-1.048,3.609,0,4.075" transform="translate(-689.754 -543.685)" opacity="0.05"/>
  <path id="Path_623" data-name="Path 623" d="M328,629.846s9.081,1.979,15.834-2.1h2.911s8.732,4.424,12.923,3.144" transform="translate(-296.564 -558.705)" opacity="0.05"/>
  <rect id="Rectangle_131" data-name="Rectangle 131" width="4.402" height="8.578" transform="translate(94.141 68.174) rotate(-66.42)" fill="#8ed16f"/>
  <ellipse id="Ellipse_66" data-name="Ellipse 66" cx="0.903" cy="1.806" rx="0.903" ry="1.806" transform="translate(96.912 68.03) rotate(-66.42)" fill="#8ed16f"/>
  <ellipse id="Ellipse_67" data-name="Ellipse 67" cx="0.903" cy="1.806" rx="0.903" ry="1.806" transform="translate(96.912 68.03) rotate(-66.42)" opacity="0.1"/>
  <rect id="Rectangle_132" data-name="Rectangle 132" width="4.402" height="8.578" transform="translate(105.67 53.8) rotate(-66.42)" fill="#8ed16f"/>
  <ellipse id="Ellipse_68" data-name="Ellipse 68" cx="0.903" cy="1.806" rx="0.903" ry="1.806" transform="translate(108.442 53.656) rotate(-66.42)" fill="#8ed16f"/>
  <ellipse id="Ellipse_69" data-name="Ellipse 69" cx="0.903" cy="1.806" rx="0.903" ry="1.806" transform="translate(108.442 53.656) rotate(-66.42)" opacity="0.1"/>
  <rect id="Rectangle_133" data-name="Rectangle 133" width="4.402" height="8.578" transform="translate(117.077 65.215) rotate(-11.09)" fill="#8ed16f"/>
  <ellipse id="Ellipse_70" data-name="Ellipse 70" cx="0.903" cy="1.806" rx="0.903" ry="1.806" transform="translate(118.773 67.412) rotate(-11.09)" fill="#8ed16f"/>
  <ellipse id="Ellipse_71" data-name="Ellipse 71" cx="0.903" cy="1.806" rx="0.903" ry="1.806" transform="translate(118.773 67.412) rotate(-11.09)" opacity="0.1"/>
  <rect id="Rectangle_134" data-name="Rectangle 134" width="4.402" height="8.578" transform="translate(104.094 87.924) rotate(-66.42)" fill="#8ed16f"/>
  <ellipse id="Ellipse_72" data-name="Ellipse 72" cx="0.903" cy="1.806" rx="0.903" ry="1.806" transform="translate(106.867 87.78) rotate(-66.42)" fill="#8ed16f"/>
  <ellipse id="Ellipse_73" data-name="Ellipse 73" cx="0.903" cy="1.806" rx="0.903" ry="1.806" transform="translate(106.867 87.78) rotate(-66.42)" opacity="0.1"/>
  <rect id="Rectangle_135" data-name="Rectangle 135" width="4.402" height="8.578" transform="translate(84.668 84.111) rotate(-66.42)" fill="#8ed16f"/>
  <ellipse id="Ellipse_74" data-name="Ellipse 74" cx="0.903" cy="1.806" rx="0.903" ry="1.806" transform="translate(87.44 83.967) rotate(-66.42)" fill="#8ed16f"/>
  <ellipse id="Ellipse_75" data-name="Ellipse 75" cx="0.903" cy="1.806" rx="0.903" ry="1.806" transform="translate(87.44 83.967) rotate(-66.42)" opacity="0.1"/>
</svg>
