<svg xmlns="http://www.w3.org/2000/svg" width="322.518" height="227.117" viewBox="0 0 322.518 227.117">
  <g id="Group_630" data-name="Group 630" transform="translate(-617 -2460)">
    <rect id="Rectangle_719" data-name="Rectangle 719" width="322.518" height="227.117" rx="29.884" transform="translate(617 2460)" fill="#253b80"/>
    <g id="Group_620" data-name="Group 620" transform="translate(351.707 1823.559)">
      <path id="Path_2144" data-name="Path 2144" d="M342.737,736.36c-.961,6.3-5.778,6.3-10.436,6.3H329.65l1.86-11.775a1.464,1.464,0,0,1,1.446-1.236h1.215c3.173,0,6.167,0,7.713,1.809C342.807,732.542,343.089,734.145,342.737,736.36ZM340.71,719.9H323.139a2.441,2.441,0,0,0-2.412,2.061l-7.106,45.056a1.462,1.462,0,0,0,1.449,1.69h8.388a2.44,2.44,0,0,0,2.412-2.063l1.917-12.152a2.438,2.438,0,0,1,2.41-2.063h5.562c11.574,0,18.254-5.6,20-16.7.786-4.856.033-8.671-2.241-11.343C351.02,721.456,346.591,719.9,340.71,719.9Z" fill="#fff"/>
      <path id="Path_2145" data-name="Path 2145" d="M381.5,752.533a9.378,9.378,0,0,1-9.494,8.034,6.519,6.519,0,0,1-6.97-8.18,9.419,9.419,0,0,1,9.429-8.1,7.1,7.1,0,0,1,5.611,2.291A7.284,7.284,0,0,1,381.5,752.533Zm11.728-16.376h-8.414a1.466,1.466,0,0,0-1.447,1.236L383,739.746l-.588-.853c-1.822-2.643-5.884-3.527-9.938-3.527-9.3,0-17.239,7.042-18.786,16.921a15.882,15.882,0,0,0,3.134,12.925c2.564,3.021,6.233,4.28,10.6,4.28a16.1,16.1,0,0,0,11.646-4.817l-.375,2.338a1.465,1.465,0,0,0,1.444,1.7h7.579a2.442,2.442,0,0,0,2.413-2.063l4.547-28.8A1.458,1.458,0,0,0,393.232,736.157Z" fill="#fff"/>
      <path id="Path_2146" data-name="Path 2146" d="M438.044,736.157h-8.455a2.449,2.449,0,0,0-2.022,1.072L415.9,754.406,410.962,737.9a2.449,2.449,0,0,0-2.343-1.742H400.31a1.465,1.465,0,0,0-1.39,1.937l9.313,27.331-8.755,12.361a1.464,1.464,0,0,0,1.194,2.312h8.445a2.439,2.439,0,0,0,2.007-1.048l28.122-40.593A1.464,1.464,0,0,0,438.044,736.157Z" fill="#fff"/>
      <path id="Path_2147" data-name="Path 2147" d="M468.065,736.36c-.959,6.3-5.776,6.3-10.436,6.3H454.98l1.862-11.775a1.46,1.46,0,0,1,1.444-1.236H459.5c3.17,0,6.166,0,7.712,1.809C468.137,732.542,468.417,734.145,468.065,736.36ZM466.038,719.9H448.464a2.442,2.442,0,0,0-2.41,2.061l-7.106,45.056a1.461,1.461,0,0,0,1.444,1.69h9.018a1.708,1.708,0,0,0,1.685-1.443l2.017-12.772a2.438,2.438,0,0,1,2.41-2.063h5.56c11.576,0,18.254-5.6,20-16.7.788-4.856.031-8.671-2.243-11.343C476.345,721.456,471.918,719.9,466.038,719.9Z" fill="#fff"/>
      <path id="Path_2148" data-name="Path 2148" d="M506.829,752.533a9.375,9.375,0,0,1-9.494,8.034,6.519,6.519,0,0,1-6.97-8.18,9.422,9.422,0,0,1,9.429-8.1,7.1,7.1,0,0,1,5.611,2.291A7.249,7.249,0,0,1,506.829,752.533Zm11.728-16.376h-8.409a1.457,1.457,0,0,0-1.444,1.236l-.372,2.353-.591-.853c-1.822-2.643-5.881-3.527-9.935-3.527-9.3,0-17.237,7.042-18.784,16.921a15.893,15.893,0,0,0,3.132,12.925c2.569,3.021,6.233,4.28,10.6,4.28a16.1,16.1,0,0,0,11.646-4.817l-.375,2.338a1.465,1.465,0,0,0,1.449,1.7h7.577a2.44,2.44,0,0,0,2.409-2.063l4.551-28.8A1.468,1.468,0,0,0,518.557,736.157Z" fill="#fff"/>
      <path id="Path_2149" data-name="Path 2149" d="M528.477,721.14l-7.212,45.881a1.461,1.461,0,0,0,1.444,1.69h7.25a2.436,2.436,0,0,0,2.412-2.063l7.112-45.053a1.464,1.464,0,0,0-1.444-1.693H529.92A1.467,1.467,0,0,0,528.477,721.14Z" fill="#fff"/>
    </g>
  </g>
</svg>
