<svg xmlns="http://www.w3.org/2000/svg" width="196" height="146" viewBox="0 0 196 146">
  <g id="Group_607" data-name="Group 607" transform="translate(-225.59 -1476.531)">
    <path id="Path_624" data-name="Path 624" d="M132.251,65.277c-7.967-3.226-16.386-5.92-24.981-5.582A37.163,37.163,0,0,0,76.562,78.877c-5.04,9.418-5.662,20.456-7.833,30.907-2.672,12.874-7.8,25.113-13.273,37.079-2.94,6.428-6.042,13-6.525,20.042-.669,9.783,4.026,19.532,11.389,26.039s17.142,9.941,26.957,10.69c5.223.4,10.681.029,15.32-2.392,4.908-2.562,8.486-7.191,13.414-9.716,4.567-2.34,9.909-2.668,15.036-2.364a67.568,67.568,0,0,1,19.63,4.157c7.166,2.679,13.83,6.561,20.971,9.279s15.139,4.234,22.446,1.967c6.87-2.131,12.293-7.3,17.184-12.543a219.487,219.487,0,0,0,21.915-27.6c4.413-6.584,8.52-13.531,10.471-21.2a42.259,42.259,0,0,0-12.791-41.244c-9.435-8.3-22.1-11.9-34.492-14.091-11.3-1.994-24.372-2.117-34.776-7.314C151.684,75.609,142.655,69.492,132.251,65.277Z" transform="translate(176.722 1416.865)" fill="tomato" opacity="0.1"/>
    <path id="Path_625" data-name="Path 625" d="M533.707,520.511V527.5h1.868L535.213,520Z" transform="translate(-193.756 1075.157)" fill="#aaabb0"/>
    <path id="Path_626" data-name="Path 626" d="M402.79,514.326v6.992h1.869l-.362-7.506Z" transform="translate(-90.892 1079.931)" fill="#aaabb0"/>
    <rect id="Rectangle_137" data-name="Rectangle 137" width="2.41" height="12.447" rx="1.205" transform="translate(342.12 1582.709)" fill="#aaabb0"/>
    <rect id="Rectangle_138" data-name="Rectangle 138" width="2.41" height="15.205" rx="1.205" transform="translate(311.206 1579.949)" fill="#aaabb0"/>
    <path id="Path_627" data-name="Path 627" d="M618.3,196.949s2.41-1.091,2.771,0,.542,10.522.542,10.522h-2.29Z" transform="translate(-270.691 1311.275)" fill="#aaabb0"/>
    <path id="Path_628" data-name="Path 628" d="M482.958,196.949s-2.412-1.091-2.773,0-.542,10.522-.542,10.522h2.291Z" transform="translate(-161.748 1311.275)" fill="#aaabb0"/>
    <path id="Path_629" data-name="Path 629" d="M446.6,97.218l-.362,7.828h1.627v-8.02Z" transform="translate(-125.032 1401.638)" fill="#aaabb0"/>
    <path id="Path_630" data-name="Path 630" d="M490.332,200.148l.483-11.292s-.181-2.5,5.543-1.732,22.479,2.31,22.479,2.31v10.715Z" transform="translate(-170.147 1318.597)" fill="#33323d"/>
    <path id="Path_631" data-name="Path 631" d="M486.272,503.679l-.9,17.257a33.238,33.238,0,0,1-29.349.385l1.446-18.156Z" transform="translate(-143.186 1074.54)" fill="#33323d"/>
    <path id="Path_632" data-name="Path 632" d="M489.556,135.774l.3,11.163h18.682l-1.085-14.755Z" transform="translate(-159.066 1374.501)" fill="#444053"/>
    <rect id="Rectangle_139" data-name="Rectangle 139" width="17.598" height="23.737" transform="translate(314.791 1570.839)" fill="#4c4981"/>
    <path id="Path_633" data-name="Path 633" d="M517.028,510.138s2.531-2.117,2.952-1.476-1.5,3.4-2.289,3.08S517.028,510.138,517.028,510.138Z" transform="translate(-191.116 1070.39)" fill="#ffb9b9"/>
    <rect id="Rectangle_140" data-name="Rectangle 140" width="115.517" height="61.59" transform="translate(280.641 1518.103)" fill="#504f60"/>
    <path id="Path_634" data-name="Path 634" d="M489.138,104.094s-.9-8.983,0-10.072,16.09-11.421,30.132.7c0,0,1.325.065,1.085,3.272a40.943,40.943,0,0,0,.029,6.1S490.163,106.4,489.138,104.094Z" transform="translate(-168.892 1394.313)" fill="#33323d"/>
    <path id="Path_635" data-name="Path 635" d="M489.138,104.094s-.9-8.983,0-10.072,16.09-11.421,30.132.7c0,0,1.325.065,1.085,3.272a40.943,40.943,0,0,0,.029,6.1S490.163,106.4,489.138,104.094Z" transform="translate(-168.892 1394.313)" opacity="0.1"/>
    <path id="Path_636" data-name="Path 636" d="M489.138,109.156s-.9-8.983,0-10.072,16.09-11.421,30.132.7c0,0,1.325.065,1.085,3.272a40.943,40.943,0,0,0,.029,6.1S490.163,111.466,489.138,109.156Z" transform="translate(-168.892 1390.406)" fill="#33323d"/>
    <path id="Path_637" data-name="Path 637" d="M608.356,142.627s.964,3.849.664,4.49a8.24,8.24,0,0,0-.246,2.439s.065,1.155-.418,1.282-.9.192-.513.577,0,.962,0,.962a3.188,3.188,0,0,0,0,1.476c.212.577-1.237.818-1.113,1.54s.528,2.758,0,2.823.181,2.566-.295,2.566-.814,4.49-.814,4.49-3.345-3.014-5.574-2.181c0,0,.181-2.5.9-3.4s.5-3.207.5-3.207L605.042,145Z" transform="translate(-256.352 1352.83)" fill="#4c4981"/>
    <path id="Path_638" data-name="Path 638" d="M534.1,329.221c-.783.922-1.627-4-1.627-4s-2.229,3.272-3.675,1.091c-1-1.511-.211-5.791.362-8.276.257-1.1.474-1.855.474-1.855l3.254-.577s.011.754.083,1.671c.1,1.238.309,2.773.759,3.141C534.519,321.051,534.881,328.292,534.1,329.221Z" transform="translate(-199.99 1219.315)" fill="#ae6e79"/>
    <path id="Path_639" data-name="Path 639" d="M514.161,116.581s-5.666-.064-7.051,3.143-1.446,4.3-1.989,4.812,5.9,3.208,5.9,3.208l.3,11.034a3.307,3.307,0,0,1,3.314-.747,10.491,10.491,0,0,0,4.641,0s-.121-.233,1.567,0,7.051-2.781,7.051-2.781.089-4.827-.031-5.855,3.825-8.58,3.825-8.58,3.073-3.143-.119-4.234a4.668,4.668,0,0,0-4.037-1.8C524.632,114.8,514.161,116.581,514.161,116.581Z" transform="translate(-181.741 1374.321)" opacity="0.1"/>
    <path id="Path_640" data-name="Path 640" d="M514.161,115.737s-5.666-.064-7.051,3.143-1.446,4.3-1.989,4.812,5.9,3.208,5.9,3.208l.3,11.034a3.307,3.307,0,0,1,3.314-.747,10.491,10.491,0,0,0,4.641,0s-.121-.233,1.567,0,7.051-2.781,7.051-2.781,2.108-3.657,1.989-4.683,4.218-8.79,4.218-8.79.664-4.105-2.531-5.2a4.668,4.668,0,0,0-4.037-1.8C524.632,113.958,514.161,115.737,514.161,115.737Z" transform="translate(-181.741 1374.972)" fill="#4c4981"/>
    <path id="Path_641" data-name="Path 641" d="M536.117,317.274c-1.242-.412-3.191.5-3.811.77.257-1.1.474-1.855.474-1.855l3.254-.577S536.039,316.365,536.117,317.274Z" transform="translate(-203.127 1219.308)" opacity="0.1"/>
    <path id="Path_642" data-name="Path 642" d="M506.4,156.683h-1.746s-.361,3.915,0,5.07.542.987.421,1.842a4.083,4.083,0,0,0,.844,2.163,15.988,15.988,0,0,0,.723,4.427c.6,1.2-.664,6.586-.664,6.586a7.826,7.826,0,0,0,1.506,2.5c1.025,1.089,1.567,5.131,1.265,6.671a1.878,1.878,0,0,0,.844,2.117s.483,7.187.663,7.187,3.676-1.925,4.76-.258l-.844-6.607.062-12.766a3.535,3.535,0,0,1-.542-3.016c.6-1.411-.483-4.748-.483-4.748l-1.568-7.441Z" transform="translate(-181.271 1341.98)" fill="#4c4981"/>
    <path id="Path_643" data-name="Path 643" d="M448.948,600.444s-2.531-.578-2.591,0-3.014,6.48.664,8.213,13.5,5.453,29.468.641c0,0,1.023.385.783-1.988s-.24-5-.24-5a12.2,12.2,0,0,0-4.22-.448C471,602.115,455.275,605.514,448.948,600.444Z" transform="translate(-134.668 999.65)" fill="#33323d"/>
    <path id="Path_644" data-name="Path 644" d="M448.948,600.444s-2.531-.578-2.591,0-3.014,6.48.664,8.213,13.5,5.453,29.468.641c0,0,1.023.385.783-1.988s-.24-5-.24-5a12.2,12.2,0,0,0-4.22-.448C471,602.115,455.275,605.514,448.948,600.444Z" transform="translate(-134.668 999.65)" opacity="0.1"/>
    <path id="Path_645" data-name="Path 645" d="M448.948,597.069s-2.531-.577-2.591,0-3.014,6.48.664,8.213,13.5,5.453,29.468.641c0,0,1.023.385.783-1.988s-.24-5-.24-5a12.2,12.2,0,0,0-4.22-.449C471,598.74,455.275,602.139,448.948,597.069Z" transform="translate(-134.668 1002.255)" fill="#33323d"/>
    <path id="Path_646" data-name="Path 646" d="M529.566,165.488a26.782,26.782,0,0,0-.562,2.8,2.448,2.448,0,0,0,1.117,2.41,3.632,3.632,0,0,1,.667.289,1.6,1.6,0,0,1,.515,1.064,6.179,6.179,0,0,1,.063,1.582,2.842,2.842,0,0,0,.094,1.567c.432.822,1.558.7,2.415.47l-.295,2.431a.643.643,0,0,0,.094.541.542.542,0,0,0,.434.1,4.386,4.386,0,0,0,2.15-.577,2.1,2.1,0,0,0,.992-1.979c-.141-.908-1.023-1.63-.9-2.543.092-.706.741-1.155,1.168-1.7a3.439,3.439,0,0,0,.208-3.626,3.853,3.853,0,0,0-2.979-1.948,7.515,7.515,0,0,1-1.989-.231,1.567,1.567,0,0,1-.922-1.035" transform="translate(-200.528 1335.481)" fill="#444053"/>
    <path id="Path_647" data-name="Path 647" d="M433.526,518.765l.631-1.463s3.406-3.378,4.189-3.615,3.977-1.268,4.46-1.268,9.282-.514,9.282-.514l1.023,2.568-11.042,2.581-3.722,2.887Z" transform="translate(-125.513 1067.793)" fill="#767d9f"/>
    <path id="Path_648" data-name="Path 648" d="M533.08,351.9l-.577,4.725-.222,1.819-2.591.385s-.28-.639-.676-1.621c-1.2-2.979-3.466-9.123-2.153-10.184,1.745-1.413,2.169,3.272,2.169,3.272l1.989-1.028Z" transform="translate(-198.536 1195.264)" fill="#ffb9b9"/>
    <rect id="Rectangle_141" data-name="Rectangle 141" width="13.083" height="21.043" transform="translate(321.028 1555.956)" fill="#fff"/>
    <rect id="Rectangle_142" data-name="Rectangle 142" width="13.083" height="21.043" transform="translate(321.028 1555.956)" opacity="0.1"/>
    <path id="Path_2114" data-name="Path 2114" d="M.068.05l13.1.122.185,21.015-13.1-.122Z" transform="translate(326.989 1555) rotate(8.41)" fill="#fff"/>
    <path id="Path_2115" data-name="Path 2115" d="M.035.026,6.779.089l.1,10.816L.13,10.842Z" transform="translate(328.236 1557.013) rotate(8.41)" fill="tomato"/>
    <path id="Path_2116" data-name="Path 2116" d="M.008.03l8.17.076L8.2,2.456.029,2.379Z" transform="translate(326.062 1570.775) rotate(8.41)" fill="tomato"/>
    <ellipse id="Ellipse_76" data-name="Ellipse 76" cx="7.562" cy="8.051" rx="7.562" ry="8.051" transform="translate(329.979 1486.763)" opacity="0.1"/>
    <ellipse id="Ellipse_77" data-name="Ellipse 77" cx="7.562" cy="8.051" rx="7.562" ry="8.051" transform="translate(329.979 1486.571)" fill="#ae6e79"/>
    <path id="Path_649" data-name="Path 649" d="M526.46,97.915a.972.972,0,0,1,.052-.622c.288-.637,1.107-.693,1.77-.66,1.56.077,3.272.087,4.493-.962.506-.431,1.072-1.515,1.808-1.309.655.183.927,1.128,1.609,1.338a3.116,3.116,0,0,0,1.508-.192,10.23,10.23,0,0,1,2.2-.019,2.6,2.6,0,0,0,2.032-.714c.676-.77.566-1.973.506-3.028a17.337,17.337,0,0,1,.258-4.069c.246-1.332.624-2.822-.067-3.963-.658-1.087-2.021-1.386-2.952-2.219-.871-.77-1.332-2-2.252-2.718-1.159-.9-2.734-.77-4.158-.614l-3.091.35a4.413,4.413,0,0,0-2.283.7c-1.184.912-1.347,2.808-2.468,3.807a9.873,9.873,0,0,1-1.707.993,2.158,2.158,0,0,0-1.184,1.54,4.985,4.985,0,0,0,.382,1.667c.338,1.328-.19,2.695-.528,4.032s-.4,2.962.578,3.849c.2.181.43.32.624.508a3.059,3.059,0,0,1,.6,2.671" transform="translate(-195.155 1402.674)" fill="#444053"/>
    <ellipse id="Ellipse_78" data-name="Ellipse 78" cx="0.181" cy="0.481" rx="0.181" ry="0.481" transform="translate(337.977 1503.716)" fill="#444053"/>
    <ellipse id="Ellipse_79" data-name="Ellipse 79" cx="0.181" cy="0.481" rx="0.181" ry="0.481" transform="translate(337.977 1505.721)" fill="#444053"/>
    <path id="Path_650" data-name="Path 650" d="M549.041,359.992a3.7,3.7,0,0,0,.4-1.648l-2.155-2.86S548.195,361.029,549.041,359.992Z" transform="translate(-214.893 1188.531)" fill="#ae6e79"/>
    <path id="Path_651" data-name="Path 651" d="M457.42,538.945s-3.536,5.82-14.584,5.2c-10.408-.577-15.488-6.03-15.246-7.955s-.663-6.609,1.566-7.957c1.293-.779,2.994-.318,4.194.21a2.26,2.26,0,0,0,2.489-.475,6.2,6.2,0,0,1,6.375-1.3,2.161,2.161,0,0,0,1.266-.025c1.345-.437,4.547-1.2,6.87.489a2.231,2.231,0,0,0,2.516.1l.033-.021c1.085-.706,6.147,5.967,6.147,5.967S459.287,538.3,457.42,538.945Z" transform="translate(-120.842 1056.851)" opacity="0.1"/>
    <path id="Path_652" data-name="Path 652" d="M457.42,539.789s-3.536,5.82-14.584,5.2c-10.408-.578-15.488-6.03-15.246-7.955s-.663-6.609,1.566-7.957c1.293-.779,2.994-.318,4.194.21a2.26,2.26,0,0,0,2.489-.475,6.2,6.2,0,0,1,6.375-1.3,2.162,2.162,0,0,0,1.266-.025c1.345-.437,4.547-1.2,6.87.489a2.231,2.231,0,0,0,2.516.1l.033-.021c1.085-.706,6.147,5.967,6.147,5.967S459.287,539.148,457.42,539.789Z" transform="translate(-120.842 1056.2)" fill="#767d9f"/>
    <ellipse id="Ellipse_80" data-name="Ellipse 80" cx="7.203" cy="7.668" rx="7.203" ry="7.668" transform="translate(314.791 1582.932)" opacity="0.1"/>
    <ellipse id="Ellipse_81" data-name="Ellipse 81" cx="7.203" cy="7.668" rx="7.203" ry="7.668" transform="translate(314.791 1583.125)" fill="#ffb9b9"/>
    <path id="Path_653" data-name="Path 653" d="M467.352,530.865a3,3,0,0,0-1.869,1.316,5.426,5.426,0,0,1-.622,1.249c-.456.487-1.224.5-1.84.77s-1.023,1.236-.419,1.54a1.394,1.394,0,0,0-1.173,1.266,3.975,3.975,0,0,0,.353,1.811,12.257,12.257,0,0,0,2.956,5.218c2.48,2.2,6.219,2.1,9.551,1.863a1.485,1.485,0,0,0,.783-.193,1.594,1.594,0,0,0,.466-1.168,28,28,0,0,1,1.788-5.224c.607-1.742.857-3.788-.166-5.329C475.652,531.7,469.886,530.133,467.352,530.865Z" transform="translate(-147.423 1053.299)" fill="#b96b6b"/>
    <path id="Path_654" data-name="Path 654" d="M541.853,389.65l-.222,1.819-2.591.385s-.28-.639-.676-1.621l3.448-.689Z" transform="translate(-207.886 1162.241)" opacity="0.1"/>
    <path id="Path_655" data-name="Path 655" d="M542.905,430.487l1.508-1.861-.3-10.264a17.717,17.717,0,0,0,.3-2.246,14.482,14.482,0,0,0-.754-3.528,7.947,7.947,0,0,1,.512-1.413c.362-.77-.51-2.5-.51-2.5s-1.3-4.49-.756-6.736a5.337,5.337,0,0,0-.132-3.528,20.753,20.753,0,0,1-.47-3.528c.06-1.026-1.206-1.99-1.206-1.99l-.964-2.5-3.856.77v8.661s.241,8.276,0,9.881a6.2,6.2,0,0,0,.481,3.143,9.131,9.131,0,0,0-.06,3.272c.362.9,1.085,3.079,1.085,3.079a5.314,5.314,0,0,0,.121,2.34,2.323,2.323,0,0,1,0,1.765Z" transform="translate(-206.208 1161.589)" fill="#767d9f"/>
    <path id="Path_656" data-name="Path 656" d="M617,110.539a17.317,17.317,0,0,0-.273,3.42,17.382,17.382,0,0,1,.28-2.841,11.669,11.669,0,0,0,.318-2.627A16.961,16.961,0,0,1,617,110.539Z" transform="translate(-269.458 1379.178)"/>
    <path id="Path_657" data-name="Path 657" d="M523.619,144.058c-.193-.192-.425-.327-.624-.51a2.722,2.722,0,0,1-.794-1.925,3.06,3.06,0,0,0,.794,2.5c.2.183.43.321.624.51a2.427,2.427,0,0,1,.655,1.607A2.753,2.753,0,0,0,523.619,144.058Z" transform="translate(-195.18 1353.605)"/>
    <path id="Path_658" data-name="Path 658" d="M524.376,112.541a3.858,3.858,0,0,0-.1-1.211c-.1-.412-.293-.814-.361-1.228a1.37,1.37,0,0,1-.02.139,5.08,5.08,0,0,0,.381,1.667A3.47,3.47,0,0,1,524.376,112.541Z" transform="translate(-196.514 1377.935)"/>
    <path id="Path_659" data-name="Path 659" d="M549.417,142.845a2.582,2.582,0,0,1-2.032.714,10.105,10.105,0,0,0-2.2.021,3.005,3.005,0,0,1-1.508.192c-.682-.21-.955-1.155-1.607-1.338-.743-.208-1.309.876-1.808,1.307-1.221,1.039-2.932,1.03-4.493.962-.664-.033-1.483.023-1.768.662a.947.947,0,0,0-.052.622l-2.209.37a4.851,4.851,0,0,1-.06.577l2.269-.385a.947.947,0,0,1,.052-.622c.286-.639,1.1-.695,1.768-.662,1.56.077,3.272.087,4.493-.962.506-.431,1.072-1.515,1.808-1.307.653.181.926,1.128,1.607,1.338a3.139,3.139,0,0,0,1.508-.192,10.109,10.109,0,0,1,2.2-.021,2.6,2.6,0,0,0,2.032-.714,3.209,3.209,0,0,0,.542-2.256A2.615,2.615,0,0,1,549.417,142.845Z" transform="translate(-202.636 1353.969)"/>
    <path id="Path_660" data-name="Path 660" d="M530.7,184.9a3.528,3.528,0,0,0-.667-.289,1.79,1.79,0,0,1-.873-.951,2.052,2.052,0,0,0,1.054,1.528,3.537,3.537,0,0,1,.667.289,1.052,1.052,0,0,1,.32.4A1.512,1.512,0,0,0,530.7,184.9Z" transform="translate(-200.654 1321.154)"/>
    <path id="Path_661" data-name="Path 661" d="M542.034,208.238c-.833.225-1.922.343-2.379-.41a1.387,1.387,0,0,0,.145.518c.39.741,1.345.716,2.157.533Z" transform="translate(-208.9 1302.503)"/>
    <path id="Path_662" data-name="Path 662" d="M553.568,211.937a2.1,2.1,0,0,1-.994,1.971,4.5,4.5,0,0,1-2.15.577.7.7,0,0,1-.351-.042.481.481,0,0,0,.075.495.413.413,0,0,0,.456.125,4.387,4.387,0,0,0,2.149-.577,2.093,2.093,0,0,0,.992-1.979A2.279,2.279,0,0,0,553.568,211.937Z" transform="translate(-217.058 1299.331)"/>
    <path id="Path_663" data-name="Path 663" d="M563.965,181.4a3.329,3.329,0,0,1-.542,2.723c-.427.55-1.076.991-1.168,1.7a1.691,1.691,0,0,0,.181.937,1.326,1.326,0,0,1,0-.36c.092-.706.741-1.155,1.168-1.7A3.411,3.411,0,0,0,563.965,181.4Z" transform="translate(-226.652 1322.906)"/>
    <path id="Path_664" data-name="Path 664" d="M466.312,534.209c.615-.271,1.383-.281,1.84-.77a5.454,5.454,0,0,0,.622-1.247,2.969,2.969,0,0,1,1.867-1.316c2.531-.732,8.3.831,9.806,3.1a4.4,4.4,0,0,1,.691,2.325,4.559,4.559,0,0,0-.689-2.708c-1.5-2.265-7.269-3.828-9.806-3.1a2.984,2.984,0,0,0-1.867,1.316,5.459,5.459,0,0,1-.622,1.247c-.457.487-1.226.5-1.84.77a1.175,1.175,0,0,0-.689,1.222A1.3,1.3,0,0,1,466.312,534.209Z" transform="translate(-150.713 1053.587)"/>
    <path id="Path_665" data-name="Path 665" d="M461.429,554.26a1.389,1.389,0,0,1,1.173-1.267.5.5,0,0,1-.276-.329,1.48,1.48,0,0,0-.9,1.211,2.145,2.145,0,0,0,0,.472A.354.354,0,0,0,461.429,554.26Z" transform="translate(-147.421 1036.332)"/>
    <rect id="Rectangle_146" data-name="Rectangle 146" width="16.452" height="22.84" transform="translate(335.853 1520.844)" fill="#fff"/>
    <rect id="Rectangle_147" data-name="Rectangle 147" width="16.452" height="22.84" transform="translate(335.853 1520.844)" opacity="0.1"/>
    <path id="Path_2117" data-name="Path 2117" d="M0,0,16.482-.178l-.232,22.8L-.232,22.8Z" transform="matrix(0.986, -0.17, 0.17, 0.986, 342.377, 1525.153)" fill="#fff"/>
    <path id="Path_2118" data-name="Path 2118" d="M0,0,3.872-.042,3.818,5.315l-3.872.042Z" transform="matrix(0.986, -0.17, 0.17, 0.986, 346.306, 1540.498)" fill="tomato"/>
    <path id="Path_2119" data-name="Path 2119" d="M0,0,3.872-.042,3.818,5.315l-3.872.042Z" transform="matrix(0.986, -0.17, 0.17, 0.986, 351.577, 1539.532)" fill="tomato"/>
    <path id="Path_2120" data-name="Path 2120" d="M0,0,13.58-.146l-.055,5.381-13.58.146Z" transform="translate(345.752 1533.528) rotate(-9.744)" fill="tomato"/>
    <path id="Path_2121" data-name="Path 2121" d="M0,0,13.58-.146l-.012,1.2L-.012,1.2Z" transform="translate(344.639 1527.188) rotate(-9.744)" fill="tomato"/>
    <path id="Path_2122" data-name="Path 2122" d="M0,0,13.58-.146l-.012,1.2L-.012,1.2Z" transform="translate(345.077 1529.368) rotate(-9.744)" fill="tomato"/>
    <path id="Path_666" data-name="Path 666" d="M588.9,226.71s-7.562,8.084-3.766,10.137,6.268-6.833,6.268-6.833l.6-2.021Z" transform="translate(-243.798 1287.928)" fill="#ae6e79"/>
    <path id="Path_667" data-name="Path 667" d="M600.1,219.647l-.935,2.2s4.61.689,5.574,2.173l-.571-3.878-.678-1.655Z" transform="translate(-255.662 1294.278)" opacity="0.1"/>
    <path id="Path_668" data-name="Path 668" d="M600.948,218.8l-.935,2.2s4.61.689,5.574,2.173l-.571-3.878-.678-1.655Z" transform="translate(-256.325 1294.929)" fill="#4c4981"/>
    <path id="Path_669" data-name="Path 669" d="M685.377,340.23l-.1.073.137.065.148-.013.018-.11Z" transform="translate(-312.848 1213.915)" fill="#464a5f"/>
    <path id="Path_670" data-name="Path 670" d="M685.377,340.23l-.1.073.137.065.148-.013.018-.11Z" transform="translate(-312.848 1213.915)" opacity="0.1"/>
    <path id="Path_671" data-name="Path 671" d="M685.078,339.774l-.1.069-.079-.1.049-.085.045-.015Z" transform="translate(-312.55 1214.371)" fill="#9c9ca1"/>
    <path id="Path_672" data-name="Path 672" d="M685.078,339.774l-.1.069-.079-.1.049-.085.045-.015Z" transform="translate(-312.55 1214.371)" opacity="0.1"/>
    <path id="Path_673" data-name="Path 673" d="M724.115,301.7l-7.4-11.381a.878.878,0,0,0-.566-.391.838.838,0,0,0-.66.15l-16.5,12.056a.98.98,0,0,0-.229,1.307l7.381,11.525Z" transform="translate(-333.791 1239.146)" fill="#9c9ca1"/>
    <path id="Path_674" data-name="Path 674" d="M724.115,301.7l-7.4-11.381a.878.878,0,0,0-.566-.391.838.838,0,0,0-.66.15l-16.5,12.056a.98.98,0,0,0-.229,1.307l7.381,11.525Z" transform="translate(-333.791 1239.146)" opacity="0.1"/>
    <path id="Path_675" data-name="Path 675" d="M724.956,301.815l-7.4-11.381a.849.849,0,0,0-1.227-.241l-16.5,12.064a.982.982,0,0,0-.231,1.307l7.381,11.531Z" transform="translate(-334.452 1239.055)" fill="#9c9ca1"/>
    <path id="Path_676" data-name="Path 676" d="M758.91,344.449l-6.147-2.1-17.977,13.267,6.245,2.175a.9.9,0,0,0,.837-.135l17.093-12.849a.2.2,0,0,0,.09-.2A.188.188,0,0,0,758.91,344.449Z" transform="translate(-362.219 1198.671)" fill="#464a5f"/>
    <path id="Path_677" data-name="Path 677" d="M758.91,344.449l-6.147-2.1-17.977,13.267,6.245,2.175a.9.9,0,0,0,.837-.135l17.093-12.849a.2.2,0,0,0,.09-.2A.188.188,0,0,0,758.91,344.449Z" transform="translate(-362.219 1198.671)" opacity="0.1"/>
    <path id="Path_678" data-name="Path 678" d="M758.733,343.861l-6.147-2.1-17.977,13.267,6.244,2.171a.892.892,0,0,0,.837-.133l17.093-12.849a.2.2,0,0,0,.086-.194A.189.189,0,0,0,758.733,343.861Z" transform="translate(-362.08 1199.126)" fill="#464a5f"/>
    <path id="Path_679" data-name="Path 679" d="M799.628,336.856l-.454-.693a.174.174,0,0,0-.246-.048l-.674.479a.2.2,0,0,0-.049.26l.417.683a.174.174,0,0,0,.244.056l.71-.475A.2.2,0,0,0,799.628,336.856Z" transform="translate(-412.028 1203.506)"/>
    <path id="Path_680" data-name="Path 680" d="M793.971,340.777l-.456-.691a.174.174,0,0,0-.246-.048l-.672.483a.2.2,0,0,0-.051.26l.418.683a.174.174,0,0,0,.244.058l.712-.475a.193.193,0,0,0,.078-.123A.2.2,0,0,0,793.971,340.777Z" transform="translate(-407.582 1200.477)"/>
    <path id="Path_681" data-name="Path 681" d="M788.026,344.886l-.456-.691a.174.174,0,0,0-.246-.048l-.674.483a.2.2,0,0,0-.049.262l.418.683a.174.174,0,0,0,.244.056l.71-.475a.193.193,0,0,0,.08-.123A.2.2,0,0,0,788.026,344.886Z" transform="translate(-402.91 1197.306)"/>
    <path id="Path_682" data-name="Path 682" d="M782.02,349.05l-.456-.693a.174.174,0,0,0-.244-.048l-.674.485a.2.2,0,0,0-.049.26l.417.683a.174.174,0,0,0,.242.058l.712-.477a.193.193,0,0,0,.078-.123A.2.2,0,0,0,782.02,349.05Z" transform="translate(-398.193 1194.093)"/>
    <path id="Path_683" data-name="Path 683" d="M776.009,353.214l-.456-.691a.174.174,0,0,0-.246-.048l-.672.483a.2.2,0,0,0-.051.26l.418.683a.174.174,0,0,0,.244.058l.712-.477a.2.2,0,0,0,.078-.123A.2.2,0,0,0,776.009,353.214Z" transform="translate(-393.468 1190.878)"/>
    <path id="Path_684" data-name="Path 684" d="M769.921,357.326l-.566-.858a.081.081,0,0,0-.052-.037.078.078,0,0,0-.062.014l-.828.595a.088.088,0,0,0-.036.055.091.091,0,0,0,.012.066l.519.849a.08.08,0,0,0,.114.027l.875-.577a.088.088,0,0,0,.041-.061A.093.093,0,0,0,769.921,357.326Z" transform="translate(-388.612 1187.801)"/>
    <path id="Path_685" data-name="Path 685" d="M763.9,361.485l-.57-.858a.083.083,0,0,0-.054-.037.079.079,0,0,0-.062.014l-.828.595a.092.092,0,0,0-.021.121l.519.849a.08.08,0,0,0,.052.04A.076.076,0,0,0,763,362.2l.873-.577a.086.086,0,0,0,.045-.059A.092.092,0,0,0,763.9,361.485Z" transform="translate(-383.879 1184.591)"/>
    <path id="Path_686" data-name="Path 686" d="M758.592,365.205l-.566-.851a.08.08,0,0,0-.114-.021l-.828.593a.094.094,0,0,0-.023.123l.519.849a.082.082,0,0,0,.114.027l.875-.577a.088.088,0,0,0,.047-.065A.093.093,0,0,0,758.592,365.205Z" transform="translate(-379.711 1181.712)"/>
    <path id="Path_687" data-name="Path 687" d="M752.633,369.3l-.566-.858a.08.08,0,0,0-.114-.021l-.828.593a.089.089,0,0,0-.036.056.093.093,0,0,0,.012.067l.519.849a.082.082,0,0,0,.114.027l.875-.577a.09.09,0,0,0,.041-.062A.1.1,0,0,0,752.633,369.3Z" transform="translate(-375.028 1178.56)"/>
    <path id="Path_688" data-name="Path 688" d="M746.863,373.255l-.566-.858a.081.081,0,0,0-.052-.037.077.077,0,0,0-.062.014l-.828.595a.087.087,0,0,0-.036.055.091.091,0,0,0,.012.066l.519.849a.08.08,0,0,0,.114.027l.875-.577a.089.089,0,0,0,.041-.061.093.093,0,0,0-.017-.072Z" transform="translate(-370.494 1175.506)"/>
    <path id="Path_689" data-name="Path 689" d="M741.111,377.288l-.56-.86a.08.08,0,0,0-.114-.021l-.828.593a.089.089,0,0,0-.036.056.093.093,0,0,0,.012.067l.519.849a.082.082,0,0,0,.114.027l.875-.577a.088.088,0,0,0,.037-.062A.091.091,0,0,0,741.111,377.288Z" transform="translate(-365.979 1172.393)"/>
    <path id="Path_690" data-name="Path 690" d="M735.321,381.279l-.566-.858a.082.082,0,0,0-.052-.037.077.077,0,0,0-.062.014l-.828.591a.087.087,0,0,0-.036.055.092.092,0,0,0,.012.066l.519.849a.08.08,0,0,0,.114.027l.875-.577a.089.089,0,0,0,.039-.059A.092.092,0,0,0,735.321,381.279Z" transform="translate(-361.426 1169.313)"/>
    <path id="Path_691" data-name="Path 691" d="M795.847,331.364l-.455-.693a.174.174,0,0,0-.246-.048l-.667.485a.2.2,0,0,0-.05.26l.417.683a.174.174,0,0,0,.244.056l.712-.475A.2.2,0,0,0,795.847,331.364Z" transform="translate(-409.06 1207.745)"/>
    <path id="Path_692" data-name="Path 692" d="M787.517,319.348l-.456-.7a.174.174,0,0,0-.244-.048l-.674.483a.2.2,0,0,0-.051.26l.418.683a.174.174,0,0,0,.244.058l.712-.475A.2.2,0,0,0,787.517,319.348Z" transform="translate(-402.51 1217.022)"/>
    <path id="Path_693" data-name="Path 693" d="M790.171,335.288l-.456-.691a.174.174,0,0,0-.244-.048l-.674.483a.2.2,0,0,0-.049.26l.416.683a.174.174,0,0,0,.244.058l.712-.475a.193.193,0,0,0,.078-.123A.2.2,0,0,0,790.171,335.288Z" transform="translate(-404.597 1204.714)"/>
    <path id="Path_694" data-name="Path 694" d="M784.223,339.394l-.456-.691a.174.174,0,0,0-.246-.048l-.672.477a.2.2,0,0,0-.051.262l.417.683a.174.174,0,0,0,.244.056l.712-.475A.2.2,0,0,0,784.223,339.394Z" transform="translate(-399.922 1201.545)"/>
    <path id="Path_695" data-name="Path 695" d="M778.215,343.555l-.454-.693a.174.174,0,0,0-.246-.048l-.674.491a.2.2,0,0,0-.049.26l.418.683a.174.174,0,0,0,.244.056l.711-.475a.193.193,0,0,0,.08-.125A.2.2,0,0,0,778.215,343.555Z" transform="translate(-395.203 1198.335)"/>
    <path id="Path_696" data-name="Path 696" d="M781.99,323.476l-.455-.691a.174.174,0,0,0-.244-.048l-.674.483a.2.2,0,0,0-.051.26l.418.683a.174.174,0,0,0,.244.058l.712-.475a.192.192,0,0,0,.078-.123A.2.2,0,0,0,781.99,323.476Z" transform="translate(-398.168 1213.831)"/>
    <path id="Path_697" data-name="Path 697" d="M776.051,327.584l-.456-.693a.174.174,0,0,0-.246-.048l-.673.477a.2.2,0,0,0-.051.26l.418.683a.174.174,0,0,0,.244.056l.712-.475A.2.2,0,0,0,776.051,327.584Z" transform="translate(-393.501 1210.663)"/>
    <path id="Path_698" data-name="Path 698" d="M770.04,331.748l-.455-.691a.174.174,0,0,0-.244-.05l-.674.491a.2.2,0,0,0-.049.26l.418.683a.174.174,0,0,0,.244.058l.711-.477a.193.193,0,0,0,.08-.125A.2.2,0,0,0,770.04,331.748Z" transform="translate(-388.779 1207.447)"/>
    <path id="Path_699" data-name="Path 699" d="M772.228,347.72l-.456-.691a.174.174,0,0,0-.244-.05l-.669.485a.2.2,0,0,0-.049.26l.41.683a.174.174,0,0,0,.242.058l.712-.477a.192.192,0,0,0,.078-.122A.2.2,0,0,0,772.228,347.72Z" transform="translate(-390.503 1195.119)"/>
    <path id="Path_700" data-name="Path 700" d="M766.2,351.881l-.456-.691a.174.174,0,0,0-.246-.048l-.672.483a.2.2,0,0,0-.051.26l.418.683a.174.174,0,0,0,.244.058l.712-.475a.194.194,0,0,0,.078-.123A.2.2,0,0,0,766.2,351.881Z" transform="translate(-385.759 1191.907)"/>
    <path id="Path_701" data-name="Path 701" d="M760.109,355.993l-.566-.858a.081.081,0,0,0-.052-.037.078.078,0,0,0-.062.014l-.828.595a.087.087,0,0,0-.036.055.092.092,0,0,0,.012.066l.519.849a.081.081,0,0,0,.052.039.077.077,0,0,0,.062-.012l.875-.577a.088.088,0,0,0,.041-.061A.093.093,0,0,0,760.109,355.993Z" transform="translate(-380.902 1188.83)"/>
    <path id="Path_702" data-name="Path 702" d="M754.794,359.68l-.566-.86a.08.08,0,0,0-.114-.021l-.826.593a.094.094,0,0,0-.023.123l.519.849a.082.082,0,0,0,.114.027l.875-.577a.084.084,0,0,0,.042-.061A.088.088,0,0,0,754.794,359.68Z" transform="translate(-376.728 1185.984)"/>
    <path id="Path_703" data-name="Path 703" d="M748.828,363.8l-.566-.858a.08.08,0,0,0-.114-.021l-.828.593a.086.086,0,0,0-.036.055.092.092,0,0,0,.012.066l.519.851a.082.082,0,0,0,.114.027l.875-.577a.091.091,0,0,0,.041-.062A.1.1,0,0,0,748.828,363.8Z" transform="translate(-372.039 1182.8)"/>
    <path id="Path_704" data-name="Path 704" d="M743.058,367.8l-.566-.858a.081.081,0,0,0-.053-.037.076.076,0,0,0-.061.014l-.828.587a.088.088,0,0,0-.036.055.092.092,0,0,0,.012.066l.519.849a.08.08,0,0,0,.114.027l.875-.577a.089.089,0,0,0,.037-.057A.094.094,0,0,0,743.058,367.8Z" transform="translate(-367.505 1179.72)"/>
    <path id="Path_705" data-name="Path 705" d="M780.274,333.685l-.456-.691a.173.173,0,0,0-.244-.048l-.674.485a.2.2,0,0,0-.049.26l.418.683a.174.174,0,0,0,.242.056l.712-.475a.193.193,0,0,0,.078-.123A.2.2,0,0,0,780.274,333.685Z" transform="translate(-396.82 1205.951)"/>
    <path id="Path_706" data-name="Path 706" d="M774.254,337.843l-.455-.693a.174.174,0,0,0-.246-.048l-.672.485a.2.2,0,0,0-.051.26l.418.683a.174.174,0,0,0,.244.058l.712-.477a.193.193,0,0,0,.078-.123A.2.2,0,0,0,774.254,337.843Z" transform="translate(-392.089 1202.744)"/>
    <path id="Path_707" data-name="Path 707" d="M768.253,342.009l-.456-.691a.174.174,0,0,0-.246-.048l-.674.483a.2.2,0,0,0-.049.26l.418.683a.174.174,0,0,0,.244.058l.711-.477a.192.192,0,0,0,.078-.122A.2.2,0,0,0,768.253,342.009Z" transform="translate(-387.374 1199.527)"/>
    <path id="Path_708" data-name="Path 708" d="M762.244,346.172l-.456-.691a.174.174,0,0,0-.244-.048l-.674.483a.2.2,0,0,0-.049.26l.418.691a.174.174,0,0,0,.242.058l.712-.475a.193.193,0,0,0,.082-.127A.2.2,0,0,0,762.244,346.172Z" transform="translate(-382.654 1196.313)"/>
    <path id="Path_709" data-name="Path 709" d="M756.2,350.281l-.566-.858a.08.08,0,0,0-.052-.037.077.077,0,0,0-.061.014l-.828.595a.092.092,0,0,0-.023.121l.519.851a.082.082,0,0,0,.052.038.077.077,0,0,0,.062-.013l.875-.577a.088.088,0,0,0,.041-.06A.1.1,0,0,0,756.2,350.281Z" transform="translate(-377.829 1193.239)"/>
    <path id="Path_710" data-name="Path 710" d="M750.839,353.968l-.566-.86a.082.082,0,0,0-.116-.021l-.826.593a.094.094,0,0,0-.023.123l.519.849a.08.08,0,0,0,.114.027l.875-.577a.089.089,0,0,0,.041-.061A.092.092,0,0,0,750.839,353.968Z" transform="translate(-373.619 1190.394)"/>
    <path id="Path_711" data-name="Path 711" d="M744.878,358.068l-.566-.86a.082.082,0,0,0-.116-.021l-.828.593a.1.1,0,0,0-.024.123l.521.849a.08.08,0,0,0,.114.027l.873-.577a.086.086,0,0,0,.043-.06A.091.091,0,0,0,744.878,358.068Z" transform="translate(-368.934 1187.229)"/>
    <path id="Path_712" data-name="Path 712" d="M739.11,362.084l-.566-.858a.083.083,0,0,0-.053-.037.079.079,0,0,0-.062.014l-.828.595a.092.092,0,0,0-.022.121l.519.849a.081.081,0,0,0,.052.04.076.076,0,0,0,.063-.013l.873-.577a.085.085,0,0,0,.043-.06A.091.091,0,0,0,739.11,362.084Z" transform="translate(-364.402 1184.129)"/>
    <path id="Path_713" data-name="Path 713" d="M737.287,371.794l-.566-.858a.08.08,0,0,0-.114-.021l-.828.593a.088.088,0,0,0-.036.055.091.091,0,0,0,.012.066l.519.851a.082.082,0,0,0,.114.027l.875-.577a.09.09,0,0,0,.041-.062A.1.1,0,0,0,737.287,371.794Z" transform="translate(-362.97 1176.632)"/>
    <path id="Path_714" data-name="Path 714" d="M731.516,375.786l-.566-.858a.081.081,0,0,0-.052-.037.077.077,0,0,0-.062.014l-.828.595a.086.086,0,0,0-.036.055.091.091,0,0,0,.012.066l.519.849a.08.08,0,0,0,.114.027l.875-.577a.088.088,0,0,0,.041-.061A.093.093,0,0,0,731.516,375.786Z" transform="translate(-358.436 1173.553)"/>
    <path id="Path_715" data-name="Path 715" d="M740.645,352.008l-.542-.808a.108.108,0,0,0-.154-.029l-.781.56a.118.118,0,0,0-.047.075.123.123,0,0,0,.017.089l.488.8a.11.11,0,0,0,.069.053.1.1,0,0,0,.083-.016l.826-.552a.118.118,0,0,0,.056-.075A.125.125,0,0,0,740.645,352.008Z" transform="translate(-365.624 1191.876)"/>
    <path id="Path_716" data-name="Path 716" d="M734.908,356l-.533-.808a.11.11,0,0,0-.071-.049.105.105,0,0,0-.083.019l-.781.57a.116.116,0,0,0-.047.074.122.122,0,0,0,.017.088l.488.8a.108.108,0,0,0,.152.037l.826-.552a.119.119,0,0,0,.054-.081A.124.124,0,0,0,734.908,356Z" transform="translate(-361.123 1188.796)"/>
    <path id="Path_717" data-name="Path 717" d="M729.136,360l-.533-.81a.108.108,0,0,0-.154-.029l-.781.56a.117.117,0,0,0-.047.075.124.124,0,0,0,.017.089l.488.8a.108.108,0,0,0,.068.052.1.1,0,0,0,.083-.016l.826-.552a.118.118,0,0,0,.05-.076A.123.123,0,0,0,729.136,360Z" transform="translate(-356.588 1185.709)"/>
    <path id="Path_718" data-name="Path 718" d="M723.342,363.975l-.566-.86a.08.08,0,0,0-.114-.021l-.828.593a.094.094,0,0,0-.024.123l.519.849a.082.082,0,0,0,.114.027l.875-.577a.084.084,0,0,0,.043-.06A.088.088,0,0,0,723.342,363.975Z" transform="translate(-352.014 1182.67)"/>
    <path id="Path_719" data-name="Path 719" d="M787.31,325.3l-.49-.741a.174.174,0,0,0-.246-.046l-1.913,1.426a.2.2,0,0,0-.047.258l.461.758a.18.18,0,0,0,.115.081.171.171,0,0,0,.136-.03l1.942-1.445A.2.2,0,0,0,787.31,325.3Z" transform="translate(-401.349 1212.462)"/>
    <path id="Path_720" data-name="Path 720" d="M728.662,365.808l-.6-.9a.081.081,0,0,0-.054-.037.077.077,0,0,0-.062.016l-2.065,1.54a.09.09,0,0,0-.022.119l.564.93a.083.083,0,0,0,.054.039.08.08,0,0,0,.064-.014l2.1-1.565A.094.094,0,0,0,728.662,365.808Z" transform="translate(-355.195 1181.288)"/>
    <path id="Path_721" data-name="Path 721" d="M750.247,335.683l-.553-.862a.08.08,0,0,0-.114-.023l-4.585,3.3a.092.092,0,0,0-.023.121l.566.924a.083.083,0,0,0,.054.039.079.079,0,0,0,.064-.014l4.57-3.357a.09.09,0,0,0,.035-.057A.094.094,0,0,0,750.247,335.683Z" transform="translate(-370.212 1204.51)"/>
    <path id="Path_722" data-name="Path 722" d="M800.189,336.957l-.456-.693a.174.174,0,0,0-.246-.048l-.672.485a.2.2,0,0,0-.051.26l.418.683a.174.174,0,0,0,.244.058l.712-.477a.2.2,0,0,0,.078-.123.2.2,0,0,0-.027-.145Z" transform="translate(-412.467 1203.428)" fill="#464a5f"/>
    <path id="Path_723" data-name="Path 723" d="M794.5,340.882l-.456-.691a.174.174,0,0,0-.244-.048l-.674.483a.2.2,0,0,0-.051.26l.418.683a.174.174,0,0,0,.244.058l.712-.475a.193.193,0,0,0,.078-.123A.2.2,0,0,0,794.5,340.882Z" transform="translate(-407.999 1200.396)" fill="#464a5f"/>
    <path id="Path_724" data-name="Path 724" d="M788.6,345l-.455-.691a.174.174,0,0,0-.246-.048l-.673.485a.2.2,0,0,0-.051.26l.418.683a.174.174,0,0,0,.244.056l.712-.475a.193.193,0,0,0,.078-.123A.2.2,0,0,0,788.6,345Z" transform="translate(-403.359 1197.221)" fill="#464a5f"/>
    <path id="Path_725" data-name="Path 725" d="M782.567,349.152l-.456-.693a.174.174,0,0,0-.244-.048l-.674.485a.193.193,0,0,0-.077.124.2.2,0,0,0,.029.145l.418.683a.174.174,0,0,0,.244.058l.71-.477a.193.193,0,0,0,.081-.127A.2.2,0,0,0,782.567,349.152Z" transform="translate(-398.62 1194.014)" fill="#464a5f"/>
    <path id="Path_726" data-name="Path 726" d="M776.57,353.318l-.455-.691a.174.174,0,0,0-.244-.048l-.674.483a.2.2,0,0,0-.049.26l.416.683a.174.174,0,0,0,.244.058l.712-.477a.194.194,0,0,0,.078-.123A.2.2,0,0,0,776.57,353.318Z" transform="translate(-393.91 1190.797)" fill="#464a5f"/>
    <path id="Path_727" data-name="Path 727" d="M770.478,357.427l-.566-.858a.081.081,0,0,0-.052-.037.078.078,0,0,0-.062.014l-.828.595a.088.088,0,0,0-.036.055.092.092,0,0,0,.012.066l.519.849a.08.08,0,0,0,.114.027l.875-.577a.088.088,0,0,0,.041-.061.092.092,0,0,0-.017-.072Z" transform="translate(-389.049 1187.723)" fill="#464a5f"/>
    <path id="Path_728" data-name="Path 728" d="M764.471,361.586l-.566-.858a.083.083,0,0,0-.053-.037.079.079,0,0,0-.062.014l-.826.595a.087.087,0,0,0-.036.055.091.091,0,0,0,.012.066l.519.851a.08.08,0,0,0,.052.038.077.077,0,0,0,.062-.013l.875-.577a.091.091,0,0,0,.04-.061A.1.1,0,0,0,764.471,361.586Z" transform="translate(-384.329 1184.513)" fill="#464a5f"/>
    <path id="Path_729" data-name="Path 729" d="M759.149,365.274l-.566-.86a.08.08,0,0,0-.114-.021l-.828.585a.094.094,0,0,0-.024.123l.519.849a.082.082,0,0,0,.114.027l.875-.577a.089.089,0,0,0,.036-.057A.092.092,0,0,0,759.149,365.274Z" transform="translate(-380.148 1181.667)" fill="#464a5f"/>
    <path id="Path_730" data-name="Path 730" d="M753.19,369.426l-.566-.853a.08.08,0,0,0-.114-.021l-.828.593a.089.089,0,0,0-.036.056.094.094,0,0,0,.012.067l.519.849a.082.082,0,0,0,.114.027l.875-.577a.088.088,0,0,0,.045-.064A.092.092,0,0,0,753.19,369.426Z" transform="translate(-375.466 1178.456)" fill="#464a5f"/>
    <path id="Path_731" data-name="Path 731" d="M747.42,373.39l-.566-.858a.082.082,0,0,0-.052-.037.078.078,0,0,0-.061.014l-.828.595a.087.087,0,0,0-.036.055.092.092,0,0,0,.012.066l.519.849a.082.082,0,0,0,.052.039.077.077,0,0,0,.062-.012l.875-.577a.088.088,0,0,0,.041-.061A.093.093,0,0,0,747.42,373.39Z" transform="translate(-370.932 1175.402)" fill="#464a5f"/>
    <path id="Path_732" data-name="Path 732" d="M741.651,377.389l-.566-.86a.08.08,0,0,0-.114-.021l-.828.593a.094.094,0,0,0-.023.123l.519.849a.082.082,0,0,0,.114.027l.875-.577a.088.088,0,0,0,.041-.061A.094.094,0,0,0,741.651,377.389Z" transform="translate(-366.399 1172.315)" fill="#464a5f"/>
    <path id="Path_733" data-name="Path 733" d="M735.878,381.38l-.566-.858a.081.081,0,0,0-.052-.037.077.077,0,0,0-.061.014l-.828.595a.087.087,0,0,0-.036.055.092.092,0,0,0,.012.066l.519.849a.082.082,0,0,0,.052.039.078.078,0,0,0,.062-.012l.875-.577a.089.089,0,0,0,.041-.061A.093.093,0,0,0,735.878,381.38Z" transform="translate(-361.863 1169.235)" fill="#464a5f"/>
    <path id="Path_734" data-name="Path 734" d="M796.388,331.493l-.456-.693a.174.174,0,0,0-.244-.048l-.674.485a.2.2,0,0,0-.049.26l.416.683a.175.175,0,0,0,.244.058l.712-.477a.194.194,0,0,0,.077-.122A.2.2,0,0,0,796.388,331.493Z" transform="translate(-409.482 1207.645)" fill="#464a5f"/>
    <path id="Path_735" data-name="Path 735" d="M788.078,319.469l-.456-.691a.174.174,0,0,0-.244-.048l-.674.483a.2.2,0,0,0-.049.26l.418.683a.174.174,0,0,0,.242.058l.712-.475a.194.194,0,0,0,.079-.123A.2.2,0,0,0,788.078,319.469Z" transform="translate(-402.953 1216.925)" fill="#464a5f"/>
    <path id="Path_736" data-name="Path 736" d="M790.727,335.376l-.455-.695a.174.174,0,0,0-.244-.048l-.674.483a.2.2,0,0,0-.049.26l.418.683a.174.174,0,0,0,.242.058l.712-.475A.2.2,0,0,0,790.727,335.376Z" transform="translate(-405.034 1204.649)" fill="#464a5f"/>
    <path id="Path_737" data-name="Path 737" d="M784.811,339.5l-.448-.691a.174.174,0,0,0-.244-.048l-.674.483a.2.2,0,0,0-.049.262l.416.683a.174.174,0,0,0,.244.056l.712-.475a.194.194,0,0,0,.074-.125.2.2,0,0,0-.031-.144Z" transform="translate(-400.391 1201.464)" fill="#464a5f"/>
    <path id="Path_738" data-name="Path 738" d="M778.776,343.656l-.456-.693a.174.174,0,0,0-.246-.048l-.673.485a.2.2,0,0,0-.051.26l.418.683a.174.174,0,0,0,.244.058l.712-.477a.192.192,0,0,0,.078-.123A.2.2,0,0,0,778.776,343.656Z" transform="translate(-395.643 1198.257)" fill="#464a5f"/>
    <path id="Path_739" data-name="Path 739" d="M782.552,323.564l-.456-.695a.174.174,0,0,0-.244-.048l-.674.483a.2.2,0,0,0-.049.26l.417.683a.174.174,0,0,0,.242.058l.712-.475A.2.2,0,0,0,782.552,323.564Z" transform="translate(-398.61 1213.766)" fill="#464a5f"/>
    <path id="Path_740" data-name="Path 740" d="M776.608,327.688l-.456-.693a.174.174,0,0,0-.244-.048l-.674.485a.2.2,0,0,0-.051.26l.418.683a.174.174,0,0,0,.244.058l.712-.477a.193.193,0,0,0,.077-.123.2.2,0,0,0-.027-.145Z" transform="translate(-393.939 1210.582)" fill="#464a5f"/>
    <path id="Path_741" data-name="Path 741" d="M770.6,331.851l-.456-.691a.174.174,0,0,0-.246-.048l-.672.483a.2.2,0,0,0-.051.26l.418.685a.174.174,0,0,0,.244.058l.71-.477a.193.193,0,0,0,.08-.123A.2.2,0,0,0,770.6,331.851Z" transform="translate(-389.219 1207.367)" fill="#464a5f"/>
    <path id="Path_742" data-name="Path 742" d="M772.765,347.825l-.456-.691a.174.174,0,0,0-.244-.048l-.674.479a.2.2,0,0,0-.049.26l.418.683a.174.174,0,0,0,.242.058l.713-.477A.2.2,0,0,0,772.765,347.825Z" transform="translate(-390.921 1195.037)" fill="#464a5f"/>
    <path id="Path_743" data-name="Path 743" d="M766.753,351.985l-.456-.691a.174.174,0,0,0-.244-.048l-.674.493a.2.2,0,0,0-.051.26l.418.683a.174.174,0,0,0,.244.058l.712-.475a.193.193,0,0,0,.083-.128A.2.2,0,0,0,766.753,351.985Z" transform="translate(-386.196 1191.826)" fill="#464a5f"/>
    <path id="Path_744" data-name="Path 744" d="M760.692,356.094l-.566-.858a.081.081,0,0,0-.052-.037.077.077,0,0,0-.061.014l-.821.595a.087.087,0,0,0-.036.055.092.092,0,0,0,.012.066l.519.849a.082.082,0,0,0,.052.039.077.077,0,0,0,.062-.012l.875-.577a.091.091,0,0,0,.036-.063A.094.094,0,0,0,760.692,356.094Z" transform="translate(-381.366 1188.752)" fill="#464a5f"/>
    <path id="Path_745" data-name="Path 745" d="M755.348,359.756l-.566-.86a.082.082,0,0,0-.116-.021l-.828.593a.1.1,0,0,0-.024.123l.521.849a.08.08,0,0,0,.114.027l.873-.577a.086.086,0,0,0,.043-.06A.092.092,0,0,0,755.348,359.756Z" transform="translate(-377.161 1185.926)" fill="#464a5f"/>
    <path id="Path_746" data-name="Path 746" d="M749.387,363.907l-.566-.86a.08.08,0,0,0-.114-.021l-.828.593a.094.094,0,0,0-.023.123l.519.849a.082.082,0,0,0,.114.027l.875-.577a.085.085,0,0,0,.043-.06A.089.089,0,0,0,749.387,363.907Z" transform="translate(-372.478 1182.721)" fill="#464a5f"/>
    <path id="Path_747" data-name="Path 747" d="M743.645,367.9l-.56-.858a.081.081,0,0,0-.052-.037.078.078,0,0,0-.062.014l-.828.595a.092.092,0,0,0-.024.121l.519.849a.08.08,0,0,0,.114.027l.875-.577a.087.087,0,0,0,.039-.062A.091.091,0,0,0,743.645,367.9Z" transform="translate(-367.971 1179.642)" fill="#464a5f"/>
    <path id="Path_748" data-name="Path 748" d="M780.831,333.785l-.454-.693a.174.174,0,0,0-.246-.048l-.674.485a.2.2,0,0,0-.049.26l.418.683a.174.174,0,0,0,.244.056l.71-.475a.193.193,0,0,0,.078-.123A.2.2,0,0,0,780.831,333.785Z" transform="translate(-397.258 1205.876)" fill="#464a5f"/>
    <path id="Path_749" data-name="Path 749" d="M774.824,337.949l-.455-.691a.174.174,0,0,0-.244-.05l-.674.485a.2.2,0,0,0-.049.26l.418.683a.174.174,0,0,0,.242.058l.712-.477a.193.193,0,0,0,.078-.123A.2.2,0,0,0,774.824,337.949Z" transform="translate(-392.538 1202.661)" fill="#464a5f"/>
    <path id="Path_750" data-name="Path 750" d="M768.845,342.117l-.461-.689a.174.174,0,0,0-.246-.048l-.658.481a.2.2,0,0,0-.051.26l.418.683a.174.174,0,0,0,.244.058l.712-.475a.194.194,0,0,0,.074-.126A.2.2,0,0,0,768.845,342.117Z" transform="translate(-387.847 1199.442)" fill="#464a5f"/>
    <path id="Path_751" data-name="Path 751" d="M762.8,346.273l-.455-.691a.174.174,0,0,0-.244-.048l-.674.483a.2.2,0,0,0-.049.26l.418.683a.174.174,0,0,0,.242.058l.712-.475a.193.193,0,0,0,.078-.123A.2.2,0,0,0,762.8,346.273Z" transform="translate(-383.092 1196.235)" fill="#464a5f"/>
    <path id="Path_752" data-name="Path 752" d="M756.713,350.382l-.566-.858a.082.082,0,0,0-.053-.037.079.079,0,0,0-.062.014l-.828.595a.092.092,0,0,0-.023.121l.519.851a.083.083,0,0,0,.053.038.079.079,0,0,0,.063-.013l.873-.577a.089.089,0,0,0,.042-.06A.094.094,0,0,0,756.713,350.382Z" transform="translate(-378.233 1193.162)" fill="#464a5f"/>
    <path id="Path_753" data-name="Path 753" d="M751.415,354.069l-.566-.858a.081.081,0,0,0-.052-.037.077.077,0,0,0-.061.014l-.823.593a.094.094,0,0,0-.023.123l.519.849a.082.082,0,0,0,.114.027l.875-.577a.09.09,0,0,0,.037-.062A.092.092,0,0,0,751.415,354.069Z" transform="translate(-374.076 1190.315)" fill="#464a5f"/>
    <path id="Path_754" data-name="Path 754" d="M745.439,358.195l-.566-.86a.082.082,0,0,0-.116-.021l-.826.593a.094.094,0,0,0-.023.123l.519.849a.08.08,0,0,0,.114.027l.875-.577a.089.089,0,0,0,.041-.061A.093.093,0,0,0,745.439,358.195Z" transform="translate(-369.376 1187.131)" fill="#464a5f"/>
    <path id="Path_755" data-name="Path 755" d="M739.666,362.185l-.566-.858a.082.082,0,0,0-.053-.037.079.079,0,0,0-.062.014l-.826.595a.086.086,0,0,0-.036.055.09.09,0,0,0,.012.066l.519.851a.081.081,0,0,0,.052.038.077.077,0,0,0,.062-.013l.875-.577a.091.091,0,0,0,.04-.061A.1.1,0,0,0,739.666,362.185Z" transform="translate(-364.84 1184.051)" fill="#464a5f"/>
    <path id="Path_756" data-name="Path 756" d="M737.847,371.9l-.566-.86a.082.082,0,0,0-.116-.021l-.828.593a.094.094,0,0,0-.023.123l.519.849a.082.082,0,0,0,.114.027l.875-.577a.086.086,0,0,0,.043-.06A.091.091,0,0,0,737.847,371.9Z" transform="translate(-363.41 1176.555)" fill="#464a5f"/>
    <path id="Path_757" data-name="Path 757" d="M732.077,375.887l-.566-.859a.083.083,0,0,0-.053-.037.079.079,0,0,0-.062.014l-.828.595a.092.092,0,0,0-.023.121l.519.849a.083.083,0,0,0,.052.039.078.078,0,0,0,.063-.012l.873-.577a.086.086,0,0,0,.043-.06A.09.09,0,0,0,732.077,375.887Z" transform="translate(-358.876 1173.475)" fill="#464a5f"/>
    <path id="Path_758" data-name="Path 758" d="M741.218,352.111l-.533-.81a.108.108,0,0,0-.154-.029l-.787.56a.124.124,0,0,0-.031.164l.488.8a.108.108,0,0,0,.154.035l.824-.552a.117.117,0,0,0,.053-.075A.124.124,0,0,0,741.218,352.111Z" transform="translate(-366.077 1191.798)" fill="#464a5f"/>
    <path id="Path_759" data-name="Path 759" d="M735.468,356.1l-.533-.808a.11.11,0,0,0-.071-.049.1.1,0,0,0-.083.019l-.781.562a.122.122,0,0,0-.031.162l.488.8a.11.11,0,0,0,.154.037l.826-.552a.123.123,0,0,0,.049-.078.128.128,0,0,0-.018-.092Z" transform="translate(-361.563 1188.718)" fill="#464a5f"/>
    <path id="Path_760" data-name="Path 760" d="M729.663,360.1l-.542-.81a.106.106,0,0,0-.152-.029l-.783.56a.124.124,0,0,0-.031.164l.488.8a.108.108,0,0,0,.154.035l.826-.552a.116.116,0,0,0,.054-.074A.125.125,0,0,0,729.663,360.1Z" transform="translate(-356.995 1185.63)" fill="#464a5f"/>
    <path id="Path_761" data-name="Path 761" d="M723.905,364.084l-.566-.86a.082.082,0,0,0-.116-.021l-.828.593a.094.094,0,0,0-.022.123l.519.849a.08.08,0,0,0,.114.027l.875-.577a.089.089,0,0,0,.041-.061.093.093,0,0,0-.017-.072Z" transform="translate(-352.456 1182.585)" fill="#464a5f"/>
    <path id="Path_762" data-name="Path 762" d="M787.862,325.419l-.483-.743a.173.173,0,0,0-.246-.046l-1.924,1.426a.2.2,0,0,0-.047.258l.463.758a.18.18,0,0,0,.115.081.172.172,0,0,0,.136-.03l1.94-1.445A.2.2,0,0,0,787.862,325.419Z" transform="translate(-401.78 1212.371)" fill="#464a5f"/>
    <path id="Path_763" data-name="Path 763" d="M729.218,365.91l-.6-.9a.081.081,0,0,0-.054-.037.078.078,0,0,0-.062.016l-2.064,1.54a.092.092,0,0,0-.022.121l.566.928a.083.083,0,0,0,.054.039.079.079,0,0,0,.064-.014l2.1-1.565A.094.094,0,0,0,729.218,365.91Z" transform="translate(-355.632 1181.21)" fill="#464a5f"/>
    <path id="Path_764" data-name="Path 764" d="M750.841,335.8l-.542-.857a.082.082,0,0,0-.116-.025l-4.583,3.291a.088.088,0,0,0-.036.055.091.091,0,0,0,.012.066l.564.924a.083.083,0,0,0,.054.039.079.079,0,0,0,.064-.014l4.57-3.357A.092.092,0,0,0,750.841,335.8Z" transform="translate(-370.687 1204.417)" fill="#464a5f"/>
    <path id="Path_765" data-name="Path 765" d="M733.721,312.472l-2.437-3.77a.435.435,0,0,0-.625-.127l-6.713,4.8a.487.487,0,0,0-.192.309.509.509,0,0,0,.07.363l2.484,3.878a.452.452,0,0,0,.291.2.43.43,0,0,0,.34-.077l6.666-4.91a.483.483,0,0,0,.188-.308A.5.5,0,0,0,733.721,312.472Z" transform="translate(-353.545 1224.803)" opacity="0.1"/>
    <path id="Path_766" data-name="Path 766" d="M734.27,312.576l-2.437-3.77a.437.437,0,0,0-.625-.127l-6.7,4.8a.484.484,0,0,0-.193.308.506.506,0,0,0,.07.363l2.477,3.874a.451.451,0,0,0,.291.2.43.43,0,0,0,.34-.077l6.669-4.91a.483.483,0,0,0,.186-.309A.5.5,0,0,0,734.27,312.576Z" transform="translate(-353.982 1224.722)" fill="#939498"/>
    <path id="Path_767" data-name="Path 767" d="M761.576,346.538l-5.171-1.836-16.583,12.264,5.133,1.78a.893.893,0,0,0,.83-.131l15.839-11.725a.2.2,0,0,0,.087-.193A.189.189,0,0,0,761.576,346.538Z" transform="translate(-366.177 1196.854)" fill="tomato"/>
  </g>
</svg>
