<svg xmlns="http://www.w3.org/2000/svg" xmlns:xlink="http://www.w3.org/1999/xlink" width="234.799" height="210.258" viewBox="0 0 234.799 210.258">
  <defs>
    <linearGradient id="linear-gradient" x1="0.5" y1="1" x2="0.5" gradientUnits="objectBoundingBox">
      <stop offset="0" stop-color="gray" stop-opacity="0.251"/>
      <stop offset="0.54" stop-color="gray" stop-opacity="0.122"/>
      <stop offset="1" stop-color="gray" stop-opacity="0.102"/>
    </linearGradient>
  </defs>
  <g id="Group_413" data-name="Group 413" transform="translate(-384.85 -618.45)">
    <path id="Path_1813" data-name="Path 1813" d="M148.757,65.98c-9.544-3.63-19.63-6.662-29.926-6.281-15.138.559-29.67,9.077-36.787,21.584-6.038,10.6-6.783,23.017-9.384,34.777-3.2,14.487-9.343,28.258-15.9,41.723-3.521,7.234-7.238,14.623-7.816,22.552-.8,11.008,4.823,21.978,13.644,29.3s20.535,11.186,32.293,12.028c6.257.448,12.8.032,18.352-2.692,5.88-2.883,10.166-8.091,16.07-10.933,5.471-2.633,11.87-3,18.012-2.66a85.469,85.469,0,0,1,23.515,4.678c8.585,3.015,16.568,7.383,25.122,10.441s18.136,4.765,26.89,2.213c8.23-2.4,14.727-8.219,20.585-14.114a250.174,250.174,0,0,0,26.253-31.054c5.287-7.409,10.207-15.225,12.544-23.86,4.47-16.509-1.681-35.135-15.323-46.409-11.3-9.341-26.472-13.4-41.32-15.855-13.54-2.244-29.2-2.382-41.66-8.23C172.036,77.605,161.221,70.723,148.757,65.98Z" transform="translate(335.982 577.877)" fill="#f5f5f5"/>
    <g id="Group_274" data-name="Group 274" transform="translate(432.51 618.45)">
      <path id="Path_1769" data-name="Path 1769" d="M419.448,354.085c-.992-5.187-2.1-10.386-2.283-15.663-.109-3.111.109-6.276-.292-9.379-.2-1.524-.544-3.021-.887-4.519l-1.376-5.992a10.008,10.008,0,0,0-.132-3.449,12.058,12.058,0,0,0-.548-1.754,27.223,27.223,0,0,0,3.154-5.833,5.819,5.819,0,0,0,.537-2.913c-.28-1.894-2.115-3.142-3.823-4.075a8.392,8.392,0,0,0-3.305-1.2,5.37,5.37,0,0,0-4.355,1.944,9.461,9.461,0,0,1,.28-4.6c-1.015-.455-2.038-.883-3.068-1.3a28.169,28.169,0,0,1-.156-4.048c.023-1.622.051-3.259.144-4.884a14.427,14.427,0,0,0,9.48-13.466v-.494a11.7,11.7,0,0,0,1-8.975,15.8,15.8,0,0,0-7.707-9.072,26.537,26.537,0,0,0-11.868-2.963,17.076,17.076,0,0,0-4.13.261,19.927,19.927,0,0,0-4.207,1.555,17.74,17.74,0,0,0-5.67,3.624c-2.671,2.85-3.27,7.038-2.979,10.888a48.4,48.4,0,0,0,4.029,14.652,17.994,17.994,0,0,0,2.411,4.46,2.555,2.555,0,0,0,3.41.369,37.331,37.331,0,0,0-.085,3.733,9.422,9.422,0,0,0-5.864,1.462,2.629,2.629,0,0,0-1.345,2.372,2.2,2.2,0,0,1,2.123,1.886,4.072,4.072,0,0,1-.735,2.333c-.175.319-.35.642-.529.96-1.672,1.789-3.387,4.029-3.539,6.249a7.79,7.79,0,0,0-.813.121c-1.517.28-3.025.8-4.515,1.186l-10.779,2.839-2.664.739-4.277,1.128a30.266,30.266,0,0,0-7.909,2.889,9.911,9.911,0,0,0-4.95,6.42c-.241,1.353-.093,2.761-.389,4.1a.7.7,0,0,1-.039.179,13.122,13.122,0,0,1-.992,2.454c-2.415,5.09-4.134,10.639-3.811,16.243a47.338,47.338,0,0,0,2.108,10.11q1.482,5.082,2.924,10.165a53.364,53.364,0,0,0,2.407,7.116,27.414,27.414,0,0,0,7.205,9.632,12.727,12.727,0,0,0,2.878,1.944,10.464,10.464,0,0,0,5.055.82c.467-.031.926-.082,1.38-.156a25.164,25.164,0,0,0,9.313-3.951q1.793-1.135,3.5-2.391a22.2,22.2,0,0,0,.778,3.857,6.91,6.91,0,0,1,.463,2.656c-.14,1.252-1.05,2.279-1.52,3.453-1,2.481.027,5.246.194,7.905a29.006,29.006,0,0,1-.933,7.419,77.464,77.464,0,0,0-1.435,12.412,37.538,37.538,0,0,1-.311,4.721c-.362,2.209-1.209,4.34-1.357,6.572-.226,3.476,1.275,6.879,1.139,10.359-.159,4.087-2.559,8.057-1.723,12.055.105.5.389,1.081.848,1.209l-.226.206c-.688.638-1.357,1.816-.576,2.333a1.529,1.529,0,0,0,.587.2c1.209.253,2.426.482,3.644.7a11.277,11.277,0,0,0,.42,3.329c.222.159.447.3.673.439a.9.9,0,0,0,.245,1.167,1.529,1.529,0,0,0,.587.2,126.954,126.954,0,0,0,30.467,2.528,11.03,11.03,0,0,0,5.3-1.135c1.559-.933,2.613-2.92,1.87-4.557-.657-1.447-2.376-2.073-3.92-2.555l-1.812-.56a3.111,3.111,0,0,0,.163-2.722c-.657-1.447-2.376-2.073-3.92-2.555l-4.172-1.295a4.1,4.1,0,0,1-1.517-.712,8.236,8.236,0,0,1-.824-.957,4.667,4.667,0,0,0-2.275-1.427,17.693,17.693,0,0,1,.058-2.652l1.167-14.081a30.489,30.489,0,0,0-.226-9.554,8.559,8.559,0,0,1-.486-3.826c.455-2.069,2.633-3.22,4.118-4.756,2.24-2.333,2.936-5.65,3.449-8.808a177.812,177.812,0,0,0,1.991-39.434,63,63,0,0,1,14.318-2.3,1.478,1.478,0,0,0,1.485-1.194A4.8,4.8,0,0,0,419.448,354.085Zm-23.273.688c.027-.136.058-.272.082-.408l.323.412Z" transform="translate(-326.094 -251.425)" fill="url(#linear-gradient)"/>
      <path id="Path_1770" data-name="Path 1770" d="M467.313,324.637c-.1,1.353-.579,2.652-.754,4-.2,1.485-.023,3-.121,4.5a5.715,5.715,0,0,1-1.668,4.048,78.6,78.6,0,0,1,19.412,4.2c-1.894-2.333-1.944-5.592-1.9-8.586.062-4.429.14-8.944,1.587-13.124a31.941,31.941,0,0,0-13.12-.171c-.941.187-3.791.07-4.215.949C466.228,321.094,467.383,323.657,467.313,324.637Z" transform="translate(-404.816 -292.663)" fill="#a1616a"/>
      <path id="Path_1771" data-name="Path 1771" d="M467.313,324.637c-.1,1.353-.579,2.652-.754,4-.2,1.485-.023,3-.121,4.5a5.715,5.715,0,0,1-1.668,4.048,78.6,78.6,0,0,1,19.412,4.2c-1.894-2.333-1.944-5.592-1.9-8.586.062-4.429.14-8.944,1.587-13.124a31.941,31.941,0,0,0-13.12-.171c-.941.187-3.791.07-4.215.949C466.228,321.094,467.383,323.657,467.313,324.637Z" transform="translate(-404.816 -292.663)" opacity="0.1"/>
      <path id="Path_1772" data-name="Path 1772" d="M448.182,745.269a8.076,8.076,0,0,0,.778.976,3.911,3.911,0,0,0,1.481.712l4.075,1.295c1.513.482,3.193,1.1,3.834,2.551.723,1.633-.307,3.62-1.832,4.55a10.622,10.622,0,0,1-5.176,1.135,121.769,121.769,0,0,1-29.783-2.524,1.556,1.556,0,0,1-.572-.2c-.778-.525-.113-1.7.56-2.333,2.625-2.489,5.479-5.1,9.053-5.673,1.878-.307,3.764-.183,5.631-.63,1.342-.323,2.609-.879,3.947-1.209C442.672,743.306,446.4,743.088,448.182,745.269Z" transform="translate(-377.845 -552.153)" fill="#46455b"/>
      <path id="Path_1773" data-name="Path 1773" d="M448.182,745.269a8.076,8.076,0,0,0,.778.976,3.911,3.911,0,0,0,1.481.712l4.075,1.295c1.513.482,3.193,1.1,3.834,2.551.723,1.633-.307,3.62-1.832,4.55a10.622,10.622,0,0,1-5.176,1.135,121.769,121.769,0,0,1-29.783-2.524,1.556,1.556,0,0,1-.572-.2c-.778-.525-.113-1.7.56-2.333,2.625-2.489,5.479-5.1,9.053-5.673,1.878-.307,3.764-.183,5.631-.63,1.342-.323,2.609-.879,3.947-1.209C442.672,743.306,446.4,743.088,448.182,745.269Z" transform="translate(-377.845 -552.153)" opacity="0.1"/>
      <path id="Path_1774" data-name="Path 1774" d="M427.956,516.99a24.716,24.716,0,0,0-.35,16.53c-1.357-.148-1.944,1.688-1.909,3.056a22.64,22.64,0,0,0,.859,5.631,7.058,7.058,0,0,1,.455,2.652c-.14,1.252-1.027,2.279-1.489,3.449-.972,2.477.027,5.238.194,7.894a29.429,29.429,0,0,1-.918,7.412,79.037,79.037,0,0,0-1.4,12.393,37.385,37.385,0,0,1-.307,4.717c-.35,2.209-1.167,4.336-1.322,6.564-.222,3.469,1.244,6.871,1.112,10.348-.156,4.079-2.5,8.045-1.684,12.055.117.564.432,1.229,1.011,1.237,5.864.074,11.343-1.555,17.145-.7.591-13.423,1.167-26.909,3.811-40.087,2.333-11.732,6.288-23.331,5.918-35.293-.214-6.84-1.839-13.548-2.827-20.322a26.734,26.734,0,0,0-18.3,2.469Z" transform="translate(-378.081 -411.826)" fill="#bbbdc8"/>
      <path id="Path_1775" data-name="Path 1775" d="M427.956,516.99a24.716,24.716,0,0,0-.35,16.53c-1.357-.148-1.944,1.688-1.909,3.056a22.64,22.64,0,0,0,.859,5.631,7.058,7.058,0,0,1,.455,2.652c-.14,1.252-1.027,2.279-1.489,3.449-.972,2.477.027,5.238.194,7.894a29.429,29.429,0,0,1-.918,7.412,79.037,79.037,0,0,0-1.4,12.393,37.385,37.385,0,0,1-.307,4.717c-.35,2.209-1.167,4.336-1.322,6.564-.222,3.469,1.244,6.871,1.112,10.348-.156,4.079-2.5,8.045-1.684,12.055.117.564.432,1.229,1.011,1.237,5.864.074,11.343-1.555,17.145-.7.591-13.423,1.167-26.909,3.811-40.087,2.333-11.732,6.288-23.331,5.918-35.293-.214-6.84-1.839-13.548-2.827-20.322a26.734,26.734,0,0,0-18.3,2.469Z" transform="translate(-378.081 -411.826)" opacity="0.1"/>
      <path id="Path_1776" data-name="Path 1776" d="M462.182,760.269a8.084,8.084,0,0,0,.778.976,3.912,3.912,0,0,0,1.482.712l4.075,1.295c1.513.482,3.193,1.1,3.834,2.551.723,1.633-.307,3.62-1.832,4.55a10.62,10.62,0,0,1-5.176,1.135,121.76,121.76,0,0,1-29.783-2.524,1.555,1.555,0,0,1-.572-.2c-.778-.525-.113-1.7.56-2.333,2.625-2.489,5.479-5.1,9.053-5.673,1.878-.307,3.764-.183,5.631-.63,1.342-.323,2.609-.879,3.947-1.209C456.672,758.306,460.4,758.088,462.182,760.269Z" transform="translate(-386.401 -561.32)" fill="#46455b"/>
      <path id="Path_1777" data-name="Path 1777" d="M436.856,518.668a9.98,9.98,0,0,0-1.742,6.945,29.039,29.039,0,0,0,1.828,7.077c-1.069.984-.848,2.679-.708,4.126.509,5.374-1.357,10.736-1.085,16.126.113,2.267.607,4.5.723,6.77a43.5,43.5,0,0,1-.482,7.416,442.4,442.4,0,0,0-3.111,47.475,15.344,15.344,0,0,0,.389,4.348c2.827,2.08,6.377,2.36,9.8,1.583a37.051,37.051,0,0,0,9.613-4.223,29.687,29.687,0,0,0,4.76-3.072,2.539,2.539,0,0,0,.957-1.314c.327-1.555-1.835-2.259-3.076-3.266-1.8-1.466-1.777-4.18-1.59-6.5l1.128-14.061a31.13,31.13,0,0,0-.218-9.543,8.87,8.87,0,0,1-.478-3.822c.443-2.061,2.574-3.212,4.025-4.748,2.193-2.333,2.87-5.642,3.375-8.792A181.725,181.725,0,0,0,462.47,516c-2.858.992-6.245.451-9.259.684s-6.008,1.241-9.06,1.322C441.608,518.065,438.42,516.661,436.856,518.668Z" transform="translate(-384.959 -413.118)" fill="#bbbdc8"/>
      <circle id="Ellipse_375" data-name="Ellipse 375" cx="14.501" cy="14.501" r="14.501" transform="translate(58.004 7.59)" fill="#a1616a"/>
      <path id="Path_1778" data-name="Path 1778" d="M463.109,359.449a77.429,77.429,0,0,0-14.353-4.954c-3.476-.828-7.447-1.326-10.351.754a2.607,2.607,0,0,0-1.314,2.372,2.162,2.162,0,0,1,2.073,1.882,4.128,4.128,0,0,1-.715,2.333l-3.356,6.222a17.786,17.786,0,0,0-2.621,9.675l-.389,5.646a67.6,67.6,0,0,0-.163,10.682c.241,2.679.8,5.37.42,8.034-.307,2.143-1.213,4.153-1.723,6.261-.957,3.966-.521,8.314-2.376,11.953a3.6,3.6,0,0,1,2.407-.218c5.631,1.038,10.06,5.483,15.527,7.182,1.38-2.014,3.251-3.5,4.795-5.374a10.391,10.391,0,0,0,2.2-4.876,18.344,18.344,0,0,1,2.854,4.573,3.072,3.072,0,0,0,.622,1.139c.735.716,1.944.439,2.928.14a60.349,60.349,0,0,1,14.843-2.516,1.454,1.454,0,0,0,1.454-1.194,4.811,4.811,0,0,0-.039-2.4,105.029,105.029,0,0,1-2.228-15.644c-.109-3.111.1-6.264-.288-9.368-.194-1.52-.533-3.018-.867-4.511l-2.776-12.338c-.156-.688-.894-1.139-1.209-1.773-1.275-2.582-3.714-4.449-4.974-7.038A9.228,9.228,0,0,1,463.109,359.449Z" transform="translate(-382.491 -313.978)" fill="#46455b"/>
      <path id="Path_1779" data-name="Path 1779" d="M452.8,279.486a.953.953,0,0,1,.136-.576,1.3,1.3,0,0,1,.56-.346,2.952,2.952,0,0,0,1.645-3.154l1.361-.284.043-4.74c2.022-1.12,4.779-.272,6.681-1.59a9.042,9.042,0,0,0,2.271-3.142c.653-1.128,1.625-2.263,2.924-2.356a8.329,8.329,0,0,0,.447,7.05,8.03,8.03,0,0,0,3.278-3.064l.677,3.889a.964.964,0,0,0,.288.634c.354.261.832-.066,1.143-.389l1.762-1.73a24.25,24.25,0,0,1,1.513,5.79,11.43,11.43,0,0,0,2.679-11.191,15.731,15.731,0,0,0-7.532-9.06,25.465,25.465,0,0,0-11.6-2.959,16.5,16.5,0,0,0-4.036.261,19.162,19.162,0,0,0-4.114,1.555,17.234,17.234,0,0,0-5.541,3.616c-2.613,2.846-3.2,7.031-2.913,10.888a49.324,49.324,0,0,0,3.939,14.633,18.049,18.049,0,0,0,2.357,4.456c1.575,1.995,5.444.338,4.95-3.6C455.379,281.255,452.8,282.34,452.8,279.486Z" transform="translate(-392.372 -251.922)" fill="#3f3d56"/>
      <path id="Path_1780" data-name="Path 1780" d="M394.967,442.564A61.012,61.012,0,0,1,373.4,466.906a24.339,24.339,0,0,1-9.1,3.947c-.447.074-.894.124-1.349.156a10.071,10.071,0,0,1-4.927-.836,12.44,12.44,0,0,1-2.815-1.944,27.34,27.34,0,0,1-7.042-9.616,54.142,54.142,0,0,1-2.353-7.108q-1.431-5.078-2.854-10.161a47.676,47.676,0,0,1-2.061-10.11c-.315-5.6,1.365-11.137,3.725-16.219a13.371,13.371,0,0,0,.968-2.45,1.056,1.056,0,0,1,.039-.179c.28-1.342.136-2.745.389-4.1a9.868,9.868,0,0,1,4.837-6.412,29.018,29.018,0,0,1,7.734-2.885l4.172-1.124,2.59-.7,10.534-2.835c1.458-.389,2.932-.906,4.414-1.167,1.653-.311,1.641-.148,1.769,1.47a66.921,66.921,0,0,0,.778,8.718c.587,2.773,1.622,5.444,2.4,8.166,1.964,6.871,2.29,14.1,3.838,21.084.354,1.59.844,3.286,2.123,4.277,1.466,1.167,3.935,1.454,4.324,3.282A4.193,4.193,0,0,1,394.967,442.564Z" transform="translate(-329.091 -337.971)" fill="#c1c1c1"/>
      <path id="Path_1781" data-name="Path 1781" d="M364.3,501.243c-.447.074-.894.124-1.349.156a10.071,10.071,0,0,1-4.927-.82,12.442,12.442,0,0,1-2.815-1.944,27.34,27.34,0,0,1-7.042-9.616,54.143,54.143,0,0,1-2.353-7.108q-1.431-5.078-2.854-10.161a47.677,47.677,0,0,1-2.061-10.11c-.315-5.6,1.365-11.137,3.725-16.219a13.375,13.375,0,0,0,.968-2.45,1.056,1.056,0,0,1,.039-.179c6.346,1.116,13.96,13.256,17.887,29.164C366.413,483.85,366.538,494.8,364.3,501.243Z" transform="translate(-329.091 -368.376)" opacity="0.1"/>
      <path id="Path_1782" data-name="Path 1782" d="M410.136,435.491l-1.062.183c-1.093-2.87-2.181-5.743-3.461-8.535-.665-1.458-1.384-2.9-1.944-4.4-2.1-5.778-1.742-12.634-5.635-17.394a5.951,5.951,0,0,0-.945-.957l2.59-.7A35.122,35.122,0,0,1,404.4,415.4a46.719,46.719,0,0,0,1.342,6.058,41.887,41.887,0,0,0,1.995,4.332A19.907,19.907,0,0,1,410.136,435.491Z" transform="translate(-363.454 -344.481)" opacity="0.1"/>
      <path id="Path_1783" data-name="Path 1783" d="M449.284,367.685a12.859,12.859,0,0,1,10.231-3.111,19.576,19.576,0,0,1,6.02,2.333c3.721,1.975,7.388,4.25,10.071,7.5a30.058,30.058,0,0,1,3.974,6.688,16.214,16.214,0,0,1,1.167,3.27c.949,4.394-1.38,8.761-3.624,12.657l-4.316,7.489a64.714,64.714,0,0,1-6.564,9.928c-1.19,1.392-2.5,2.679-3.8,3.966l-5.72,5.646a.644.644,0,0,1-1.062-.008l-1.89-1.5a32.144,32.144,0,0,0,4.83-4.095,64.907,64.907,0,0,0,6.529-8.434l6.292-9.123c1.839-2.671,3.76-5.611,3.554-8.847a13.6,13.6,0,0,0-1.291-4.445q-1.622-3.807-3.523-7.493a38.075,38.075,0,0,0-5.028-7.808,16.357,16.357,0,0,0-7.622-5.121,6.346,6.346,0,0,0-2.761-.264c-2.045.338-3.5,2.1-4.795,3.729l-3.943,5.055c-.9,1.147-1.723,2.477-1.777.3C444.144,372.884,447.285,369.683,449.284,367.685Z" transform="translate(-392.266 -320.487)" fill="#c1c1c1"/>
      <path id="Path_1784" data-name="Path 1784" d="M455.763,408.27c.778,2.994,1.925,6.393,4.806,7.528a6.6,6.6,0,0,0,6.2-1.167,17.391,17.391,0,0,0,4.169-5.055,49.112,49.112,0,0,1,3.216-4.876c2.306-2.893,5.444-5.187,7-8.555.459-1,.778-2.076,1.3-3.041a19.006,19.006,0,0,1,1.882-2.516,27.268,27.268,0,0,0,4.242-7.365,5.922,5.922,0,0,0,.525-2.909c-.276-1.894-2.069-3.138-3.737-4.067a8.056,8.056,0,0,0-3.231-1.2,5.229,5.229,0,0,0-4.386,2.112,8.438,8.438,0,0,0-1.6,4.732c-.117,2.073.288,4.227-.389,6.187a9.722,9.722,0,0,1-1.466,2.535,29.727,29.727,0,0,1-7.975,7.361,13.841,13.841,0,0,0-.945-4.289c-.3-.754-6.09,0-6.844.124-1.493.218-4.386.389-5.327,1.812s.226,3.815.607,5.25Z" transform="translate(-397.524 -326.97)" fill="#a1616a"/>
      <path id="Path_1785" data-name="Path 1785" d="M451.753,373.571a20.478,20.478,0,0,0-2.4,2.333,13.355,13.355,0,0,0-2.788,7.482,32.155,32.155,0,0,0,.614,8.065q.63,3.585,1.489,7.12a4.912,4.912,0,0,1,3.266-3.889,10.438,10.438,0,0,1,5.277-.311,25.794,25.794,0,0,1,6.634,1.917l.82-11.5a20.034,20.034,0,0,0-.027-4.666,10.285,10.285,0,0,0-4.8-6.98C456.726,371.245,454.552,371.125,451.753,373.571Z" transform="translate(-393.653 -324.946)" fill="#46455b"/>
      <circle id="Ellipse_379" data-name="Ellipse 379" cx="2.559" cy="2.559" r="2.559" transform="translate(87.859 41.71)" fill="#c1c1c1" opacity="0.1"/>
      <circle id="Ellipse_380" data-name="Ellipse 380" cx="7.25" cy="7.25" r="7.25" transform="translate(0 161.129)" fill="#c1c1c1" opacity="0.1"/>
      <ellipse id="Ellipse_386" data-name="Ellipse 386" cx="2.559" cy="2.985" rx="2.559" ry="2.985" transform="translate(14.501 197.808)" fill="#c1c1c1" opacity="0.1"/>
      <ellipse id="Ellipse_387" data-name="Ellipse 387" cx="2.559" cy="2.985" rx="2.559" ry="2.985" transform="translate(10.236 135.539)" fill="#c1c1c1" opacity="0.1"/>
    </g>
  </g>
</svg>
