<svg xmlns="http://www.w3.org/2000/svg" xmlns:xlink="http://www.w3.org/1999/xlink" width="196" height="146" viewBox="0 0 196 146">
  <defs>
    <linearGradient id="linear-gradient" y1="0.5" x2="1" y2="0.5" gradientUnits="objectBoundingBox">
      <stop offset="0" stop-color="gray" stop-opacity="0.251"/>
      <stop offset="0.535" stop-color="gray" stop-opacity="0.122"/>
      <stop offset="1" stop-color="gray" stop-opacity="0.102"/>
    </linearGradient>
  </defs>
  <g id="Group_610" data-name="Group 610" transform="translate(-963.11 -1798.529)">
    <path id="Path_887" data-name="Path 887" d="M386.63,76.854,332,107.5s0,63.214,54.633,97.695c54.633-34.481,54.633-97.695,54.633-97.695Z" transform="translate(670.193 1721.88)" fill="#3f3d56"/>
    <path id="Path_888" data-name="Path 888" d="M599.578,76.854l-.878.547V210.2c.292.209.583.417.878.624,51.4-35.993,51.4-101.979,51.4-101.979Z" transform="translate(459.335 1721.88)" fill="tomato" opacity="0.04"/>
    <g id="Group_609" data-name="Group 609" transform="translate(963.11 1798.529)">
      <path id="Path_891" data-name="Path 891" d="M325.646,108.558a.7.7,0,0,1-.39-.846.34.34,0,0,0,.015-.078h0a.351.351,0,0,0-.631-.233h0a.334.334,0,0,0-.039.069.7.7,0,0,1-.846.39.337.337,0,0,0-.078-.015h0a.351.351,0,0,0-.233.631h0a.337.337,0,0,0,.069.039.7.7,0,0,1,.39.846.337.337,0,0,0-.015.078h0a.351.351,0,0,0,.631.233h0a.339.339,0,0,0,.039-.069.7.7,0,0,1,.846-.39.335.335,0,0,0,.078.015h0a.351.351,0,0,0,.233-.631h0A.335.335,0,0,0,325.646,108.558Z" transform="translate(-295.482 -107.261)" fill="#4d8af0" opacity="0.5"/>
      <path id="Path_892" data-name="Path 892" d="M179.646,433.558a.7.7,0,0,1-.39-.846.34.34,0,0,0,.015-.078h0a.351.351,0,0,0-.631-.233h0a.332.332,0,0,0-.039.069.7.7,0,0,1-.846.39.337.337,0,0,0-.078-.015h0a.351.351,0,0,0-.233.631h0a.335.335,0,0,0,.069.039.7.7,0,0,1,.39.846.338.338,0,0,0-.015.078h0a.351.351,0,0,0,.631.233h0a.339.339,0,0,0,.039-.069.7.7,0,0,1,.846-.39.34.34,0,0,0,.078.015h0a.351.351,0,0,0,.233-.631h0A.333.333,0,0,0,179.646,433.558Z" transform="translate(-177.305 -361.158)" fill="#4d8af0" opacity="0.5"/>
      <circle id="Ellipse_113" data-name="Ellipse 113" cx="1.143" cy="1.143" r="1.143" transform="translate(173.704 45.235)" fill="#f55f44" opacity="0.5"/>
      <circle id="Ellipse_114" data-name="Ellipse 114" cx="1.143" cy="1.143" r="1.143" transform="translate(20.656 139.838)" fill="#f55f44" opacity="0.5"/>
      <circle id="Ellipse_115" data-name="Ellipse 115" cx="1.143" cy="1.143" r="1.143" transform="translate(193.141 95.773)" fill="#f55f44" opacity="0.5"/>
      <path id="Path_893" data-name="Path 893" d="M864.646,137.558a.7.7,0,0,1-.39-.846.337.337,0,0,0,.015-.078h0a.351.351,0,0,0-.631-.233h0a.327.327,0,0,0-.039.069.7.7,0,0,1-.846.39.335.335,0,0,0-.078-.015h0a.351.351,0,0,0-.233.631h0a.343.343,0,0,0,.069.039.7.7,0,0,1,.39.846.331.331,0,0,0-.015.078h0a.351.351,0,0,0,.631.233h0a.338.338,0,0,0,.039-.069.7.7,0,0,1,.846-.39.334.334,0,0,0,.078.015h0a.351.351,0,0,0,.232-.631h0A.334.334,0,0,0,864.646,137.558Z" transform="translate(-698.205 -130.735)" fill="#4d8af0" opacity="0.5"/>
      <path id="Path_894" data-name="Path 894" d="M964.646,765.558a.7.7,0,0,1-.39-.846.333.333,0,0,0,.015-.078h0a.351.351,0,0,0-.631-.233h0a.348.348,0,0,0-.039.069.7.7,0,0,1-.846.39.32.32,0,0,0-.078-.015h0a.351.351,0,0,0-.233.631h0a.329.329,0,0,0,.069.039.7.7,0,0,1,.39.846.333.333,0,0,0-.015.078h0a.351.351,0,0,0,.631.233h0a.333.333,0,0,0,.039-.069.7.7,0,0,1,.846-.39.327.327,0,0,0,.078.015h0a.351.351,0,0,0,.233-.631h0A.323.323,0,0,0,964.646,765.558Z" transform="translate(-779.148 -630.392)" fill="#4d8af0" opacity="0.5"/>
      <path id="Path_895" data-name="Path 895" d="M172.646,243.558a.7.7,0,0,1-.39-.846.337.337,0,0,0,.015-.078h0a.351.351,0,0,0-.631-.233h0a.336.336,0,0,0-.039.069.7.7,0,0,1-.846.39.336.336,0,0,0-.078-.015h0a.351.351,0,0,0-.233.631h0a.337.337,0,0,0,.069.039.7.7,0,0,1,.39.846.34.34,0,0,0-.015.078h0a.351.351,0,0,0,.631.233h0a.335.335,0,0,0,.039-.069.7.7,0,0,1,.846-.39.334.334,0,0,0,.078.015h0a.351.351,0,0,0,.233-.631h0A.334.334,0,0,0,172.646,243.558Z" transform="translate(-161.639 -212.737)" fill="#4d8af0" opacity="0.5"/>
      <circle id="Ellipse_116" data-name="Ellipse 116" cx="1.143" cy="1.143" r="1.143" transform="translate(12.653 51.798)" fill="#47e6b1" opacity="0.5"/>
      <circle id="Ellipse_117" data-name="Ellipse 117" cx="1.143" cy="1.143" r="1.143" transform="translate(193.713 62.3)" fill="#47e6b1" opacity="0.5"/>
      <g id="Group_136" data-name="Group 136" transform="translate(2.362 134.603)" opacity="0.5">
        <rect id="Rectangle_158" data-name="Rectangle 158" width="0.572" height="3.24" transform="translate(1.334)" fill="#47e6b1"/>
        <rect id="Rectangle_159" data-name="Rectangle 159" width="0.572" height="3.24" transform="translate(3.24 1.334) rotate(90)" fill="#47e6b1"/>
      </g>
      <g id="Group_137" data-name="Group 137" transform="translate(166.081 77.69)" opacity="0.5">
        <rect id="Rectangle_160" data-name="Rectangle 160" width="0.572" height="3.24" transform="translate(1.334)" fill="#47e6b1"/>
        <rect id="Rectangle_161" data-name="Rectangle 161" width="0.572" height="3.24" transform="translate(3.24 1.334) rotate(90)" fill="#47e6b1"/>
      </g>
      <path id="Path_896" data-name="Path 896" d="M793.433,116.933l1.228,1.125L796.4,115.5l.614.512-2.353,3.07-1.739-1.944Z" transform="translate(-609.59 -101.332)" fill="#47e6b1" opacity="0.5"/>
    </g>
    <g id="Group_608" data-name="Group 608" transform="translate(1040.509 1801.687)">
      <g id="Group_133" data-name="Group 133" transform="translate(0 53.382)" opacity="0.7">
        <path id="Path_889" data-name="Path 889" d="M348.958,311.2l9.689,8.881,12.011-17.327,4.845,4.037-16.856,21.364L344.921,312.81Z" transform="translate(-344.921 -302.75)" fill="url(#linear-gradient)"/>
      </g>
      <path id="Path_890" data-name="Path 890" d="M364.2,310.92l7.859,7.2L383.19,301.75l3.93,3.275-15.064,19.649L360.921,312.23Z" transform="translate(-357.83 -248.576)" fill="#3ad29f"/>
      <g id="Group_134" data-name="Group 134" transform="translate(45.346)" opacity="0.5">
        <rect id="Rectangle_154" data-name="Rectangle 154" width="0.572" height="3.24" transform="translate(1.334)" fill="#47e6b1"/>
        <rect id="Rectangle_155" data-name="Rectangle 155" width="0.572" height="3.24" transform="translate(3.24 1.334) rotate(90)" fill="#47e6b1"/>
      </g>
      <g id="Group_135" data-name="Group 135" transform="translate(47.527 123.446)" opacity="0.5">
        <rect id="Rectangle_156" data-name="Rectangle 156" width="0.572" height="3.24" transform="translate(1.334)" fill="#47e6b1"/>
        <rect id="Rectangle_157" data-name="Rectangle 157" width="0.572" height="3.24" transform="translate(3.24 1.334) rotate(90)" fill="#47e6b1"/>
      </g>
      <rect id="Rectangle_162" data-name="Rectangle 162" width="4.239" height="5.45" transform="translate(47.967 41.211) rotate(-2.221)" fill="tomato"/>
      <path id="Path_897" data-name="Path 897" d="M657.19,399.652s-5.865-2.8-5.771-.382,5.912,4.013,5.912,4.013Z" transform="translate(-624.898 -339.336)" fill="#ffb9b9"/>
      <path id="Path_898" data-name="Path 898" d="M675.929,499.161a84.628,84.628,0,0,0-3.79,11.66c-1.022,4.887-2.579,11.613-.577,16.383s7.7,18.79,7.756,20.3-.488,3.049.722,3,7.8-2.12,8.063-3.04-2.247-3.246-2.247-3.246l-6.208-19.453,6.477-12.674L690.8,531l.915,23.6s4.491-1.386,5.143-.2a18.263,18.263,0,0,0,2.268-4.027c.256-1.222-.95-24.505-.95-24.505s4.122-26.52.794-26.391S682.606,491.631,675.929,499.161Z" transform="translate(-639.577 -417.486)" fill="tomato"/>
      <path id="Path_899" data-name="Path 899" d="M699.97,767.164s-3.07,6.785-3.361,7.1-2.291,3.422-.778,3.363,5.084-1.712,7.713-4.238,6.1-6.9,5.781-7.193a17.85,17.85,0,0,0-2.467-1.116Z" transform="translate(-659.829 -635.35)" fill="#575a89"/>
      <path id="Path_900" data-name="Path 900" d="M779.774,793.453a17.632,17.632,0,0,1-.743,4.271c-.558,1.234-.488,3.049,1.025,2.99s5.422-.816,5.422-.816.232-1.827-.082-2.118-1.653-3.572-1.084-4.5S779.774,793.453,779.774,793.453Z" transform="translate(-726.91 -657.873)" fill="#575a89"/>
      <path id="Path_901" data-name="Path 901" d="M777.389,278.6a56.426,56.426,0,0,0,4.482,6.189c1.257,1.163-2.28,3.724-2.28,3.724l-6.33.851s.08-5.76-.246-6.353S777.389,278.6,777.389,278.6Z" transform="translate(-722.262 -242.7)" fill="#ffb9b9"/>
      <path id="Path_902" data-name="Path 902" d="M738.588,307.228s1.3,2.373,2.514,2.326,7.469-2.714,7.737-3.633,2.073,6.585,2.073,6.585L735.6,339.46l-3.736-2.582,1.81-15.825,1.487-8.541Z" transform="translate(-688.984 -264.589)" fill="tomato"/>
      <path id="Path_903" data-name="Path 903" d="M716.728,323.617a8.474,8.474,0,0,0-.94,3.975c0,.061,0,.121.01.181.145,2.8,1.176,6.038,1.547,8.393.268,1.689.192,2.922-.8,3.212-2.4.7.349,1.2-8.923,4.285s-10.891.422-10.914-.183,1.313-5.2,1-5.492-4.4,3.806-5.631,3.248-.141-3.63-.141-3.63,2.779-6.47,2.72-7.983,4.209-8.647,4.209-8.647l2.9-18.9s1.116-2.467,2.617-2.828a3.718,3.718,0,0,1,2.746.5l-2.512,5.551-2.65,9.8.443,3.619s3.081-6.482,5.105-8.985,6.339-8.426,6.339-8.426,1.007-3.4.247-4.415,3.172-1.171,4.849,3.005c.889,2.214,2.332,5.515,3.236,8.588.805,2.723,1.186,5.268.388,6.723C721.36,317.432,718.292,320.353,716.728,323.617Z" transform="translate(-656.233 -256.791)" fill="#575a89"/>
      <path id="Path_904" data-name="Path 904" d="M824.6,363.822c-1.22,2.223-4.288,5.144-5.852,8.408-.408-1.472-.907-2.995-.907-2.995s-1.912-10.227,3.743-12.87a3.784,3.784,0,0,1,2.628.734C825.017,359.821,825.4,362.367,824.6,363.822Z" transform="translate(-758.006 -305.431)" opacity="0.1"/>
      <path id="Path_905" data-name="Path 905" d="M685.3,392.191l-4.794,1.4-6.656.258-.685,5.783,10.938.788S686.84,392.737,685.3,392.191Z" transform="translate(-642.161 -334.401)" fill="#575a89"/>
      <path id="Path_906" data-name="Path 906" d="M755.917,494.231s-6.413,1.064-4.949,2.994,7.145-.1,7.145-.1Z" transform="translate(-704.483 -416.798)" fill="#ffb9b9"/>
      <path id="Path_907" data-name="Path 907" d="M778.977,461.5c.145,2.8,1.176,6.038,1.547,8.393-2.043,1.934-3.986,3.639-4.718,3.667-1.513.059-3.945-.15-4.84.188s-1.421-5.4-1.421-5.4a4.961,4.961,0,0,1,2.92-2.84A33.214,33.214,0,0,0,778.977,461.5Z" transform="translate(-719.435 -390.327)" opacity="0.1"/>
      <path id="Path_908" data-name="Path 908" d="M782.372,346.827s5.12-.8,4.843,7.69.54,13.916-1.519,15.511-8.747,8.823-10.26,8.881-3.945-.15-4.84.188-1.421-5.4-1.421-5.4a4.961,4.961,0,0,1,2.92-2.84c2.385-1,8-4.552,7.957-5.762a38.588,38.588,0,0,0-1.421-5.4S776.718,349.47,782.372,346.827Z" transform="translate(-718.904 -297.643)" fill="#575a89"/>
      <ellipse id="Ellipse_118" data-name="Ellipse 118" cx="6.661" cy="6.661" rx="6.661" ry="6.661" transform="translate(43.794 29.959)" fill="#ffb9b9"/>
      <path id="Path_909" data-name="Path 909" d="M733.752,226.889a1.285,1.285,0,0,1-.56.281.4.4,0,0,1-.463-.321,1.66,1.66,0,0,1-.635.815c-.311.162-.792.026-.837-.322a1.471,1.471,0,0,1-.338.713.506.506,0,0,1-.712.024,18.283,18.283,0,0,1,.095,2.266,2.886,2.886,0,0,0,.815,2.054c.833.725,2.085.546,3.18.409a.966.966,0,0,1,.5.027c.41.175.391.746.4,1.191a3.31,3.31,0,0,0,2.9,3.144,1.66,1.66,0,0,0,1.234-.3c.311-.264.47-.693.826-.891.58-.322,1.283.148,1.707.658s.842,1.138,1.5,1.231c.868.123,1.53-.762,1.854-1.576a9.19,9.19,0,0,0-.183-7.14C743.215,225.2,737.021,224.573,733.752,226.889Z" transform="translate(-687.77 -199.869)" fill="#2f2e41"/>
    </g>
  </g>
</svg>
