<svg id="undraw_confirmation_2uy0" xmlns="http://www.w3.org/2000/svg" xmlns:xlink="http://www.w3.org/1999/xlink" width="173.592" height="114.121" viewBox="0 0 173.592 114.121">
  <defs>
    <linearGradient id="linear-gradient" x1="0.5" y1="1" x2="0.5" gradientUnits="objectBoundingBox">
      <stop offset="0" stop-color="gray" stop-opacity="0.251"/>
      <stop offset="0.54" stop-color="gray" stop-opacity="0.122"/>
      <stop offset="1" stop-color="gray" stop-opacity="0.102"/>
    </linearGradient>
    <linearGradient id="linear-gradient-2" x1="0.5" y1="1" x2="0.5" y2="0" xlink:href="#linear-gradient"/>
  </defs>
  <path id="Path_442" data-name="Path 442" d="M186.367,165.9q-.813.715-1.662,1.388c-.1.077-.193.151-.29.23a58.344,58.344,0,0,1-6.344,4.285l-.412.24c-.1.06-.2.116-.3.172-2.305,1.331-4.7,2.556-7.116,3.716l-.026.014-.183.086q-2.928,1.4-5.943,2.686l-.048.018q-1.359.573-2.719,1.115c-.37.151-.742.292-1.113.435-.7.267-1.4.53-2.107.782l-.088.033-.151.053-.189.069q-2.766.988-5.606,1.825l-.033.009q-1.98.577-3.986,1.068l-.183.045c-1.964.474-3.959.882-5.967,1.208l-.462.074q-2.2.346-4.435.565a109.451,109.451,0,0,1-25.15-.976A179.872,179.872,0,0,1,63.38,171.8q-4.35-1.926-8.532-4.124c-.023-.012-.042-.024-.065-.035q-2.5-1.316-4.938-2.742c-.476-.275-.949-.556-1.418-.838Q47.559,163.54,46.7,163q-1.133-.707-2.266-1.449l-.353-.236-.136-.092c-.192-.128-.381-.257-.571-.387-7.1-4.834-13.431-10.692-16.421-18.023-3.456-8.459-1.245-19.184,7.316-24.184a34.007,34.007,0,0,1,9.819-3.429l.353-.079c.585-.128,1.169-.252,1.751-.376,2.038-.432,4.086-.861,6.115-1.34h0c1.057-.249,2.1-.511,3.145-.793l.426-.118a50.922,50.922,0,0,0,7.343-2.586h.015q.383-.17.755-.352c.16-.076.32-.151.48-.234a28.453,28.453,0,0,0,7.379-5.162c.168-.169.331-.341.489-.514.122-.134.243-.27.36-.406a10.322,10.322,0,0,0,2.675-5.624h0a7.25,7.25,0,0,0-.091-2.029c-.237-1.267-.467-2.508-.636-3.718a19.051,19.051,0,0,1,.015-6.542h0a12.315,12.315,0,0,1,3.385-6.186q.437-.453.941-.906a19.831,19.831,0,0,1,5.231-3.305l.711-.3c5.3-2.145,11.666-2.592,17.615-2.3a96.092,96.092,0,0,1,16.5,2.3c.431.1.861.2,1.289.3a114.407,114.407,0,0,1,13.6,4.2,168.786,168.786,0,0,1,32.6,17.015l.3.2q.637.415,1.267.834,1.219.808,2.417,1.627l.539.367q.4.272.793.545l.81.56h0a.889.889,0,0,1,.109.077l.689.477c.4.278.795.557,1.192.838h0l.852.6c.177.127.355.252.532.381l.906.662.2.151c.042.03.085.06.125.094l.026.017c2.456,1.8,4.853,3.671,7.1,5.651l.29.257.03.027c.245.218.489.438.73.66a49.178,49.178,0,0,1,7.71,8.713C203.023,133.547,200.094,153.836,186.367,165.9Z" transform="translate(-25.39 -72.257)" fill="#a7a8c2" opacity="0.1"/>
  <path id="Path_443" data-name="Path 443" d="M859.509,236.808c.1-.263-.625-1.722-.625-1.795s-.755-.884-.755-1.34-.986-1.435-.986-1.435a2.5,2.5,0,0,1-1.471-1.746c-.145-1.195-1.535-1.221-1.589-1.222,0,0,0-.109.009-.275a3.993,3.993,0,0,0-.178-1.4,1.42,1.42,0,0,0-.819-.7,3.154,3.154,0,0,0-.435-1.219,1.373,1.373,0,0,1-.335-1.293,1.717,1.717,0,0,0-.189-1.116,1.144,1.144,0,0,0-.7-.654H851.4c-.692-.168-1.467-.424-1.467-.424s-.079.015-.2.032l-.1-.032a4.329,4.329,0,0,1-.5.063.627.627,0,0,1-.409-.134,8.3,8.3,0,0,0-2.554-.766,6.068,6.068,0,0,1-1.4-.479l-1.035-.79a6.6,6.6,0,0,1-.906-1.251l-.012-.017h0a4.092,4.092,0,0,1-.19-.527c-.011-.033-.018-.066-.029-.1h0a5.765,5.765,0,0,0,.575-.707v-.008c.047-.065.091-.136.134-.2q.1-.151.181-.313c.024-.047.047-.1.071-.141a.6.6,0,0,0,.151-.026l.065-.024a.769.769,0,0,0,.166-.1l.048-.044a1.181,1.181,0,0,0,.3-.464c.017-.051.032-.1.044-.151a.224.224,0,0,1,.014-.054c0-.017.017-.072.023-.11l.009-.06a.612.612,0,0,1,.018-.107.206.206,0,0,0,0-.062c0-.044.012-.091.017-.136.021-.171.039-.338.076-.5a.013.013,0,0,0,0-.008,3.861,3.861,0,0,1,.357-.918c.151-.292.317-.579.453-.879h0c.039-.086.077-.174.11-.261s.066-.193.1-.292a.4.4,0,0,1,.021-.089,2.109,2.109,0,0,0,.048-.216.756.756,0,0,0,.018-.1c.018-.1.03-.2.039-.3a3.706,3.706,0,0,0-.248-1.681c-.18-.453-.453-.853-.633-1.3-.276-.681-.349-1.452-.687-2.1a2.5,2.5,0,0,0-3-1.222c-.523.193-.977.573-1.511.743a4.994,4.994,0,0,1-2.21-.047,2.747,2.747,0,0,0-2.145.37c-.681.554-.869,1.6-1.511,2.2a3.471,3.471,0,0,1-.5.378c-.13.089-.261.177-.384.278a1.431,1.431,0,0,0-.446.6.522.522,0,0,0-.017.051.464.464,0,0,0-.017.062.616.616,0,0,1-.011.071.274.274,0,0,0,0,.05.851.851,0,0,0,0,.109h0v.018a.693.693,0,0,0,.02.121v.033a.6.6,0,0,0,.03.1.075.075,0,0,1,0,.02,1.088,1.088,0,0,0,.044.109.177.177,0,0,0,.021.054.21.21,0,0,1,.021.045,2.858,2.858,0,0,1,.224.554.628.628,0,0,1-.023.369.589.589,0,0,1-.1.162,2.034,2.034,0,0,1-.169.187,5,5,0,0,0-1.089,1.742c-.027.074-.053.151-.077.225h0l.032.009.032.008a1.058,1.058,0,0,0,.18.038,1.1,1.1,0,0,0,.121.014,1.871,1.871,0,0,0,.492-.039.753.753,0,0,0,.08-.018h0a.088.088,0,0,0,.024-.008h.015a2.618,2.618,0,0,0,.4-.137c.03-.014.062-.026.092-.041v.562a5.684,5.684,0,0,0,2.894,4.621c.086.05.171.1.258.14.008.051.015.1.021.151s.012.086.017.13l-.067-.062a.439.439,0,0,0-.18-.036.577.577,0,0,0-.287.074,1.057,1.057,0,0,0-.376.367,2.679,2.679,0,0,1-1.181.906s-4.381.693-4.553,1.267l-2.048.121s-.724.1-.795,1.6v.035c-.011.18-.024.34-.041.483v.021c-.127,1-.414,1.112-.414,1.112a5.718,5.718,0,0,0-.772,2.249.069.069,0,0,1,0,.018h0a.985.985,0,0,1-.02.31,1.36,1.36,0,0,1-.631.814l-.1,1.36a.926.926,0,0,0-1.012.814,3.222,3.222,0,0,1-.6,1.36s-1.325,1.1-1.4,2.033l-.82.5s-1.9-.431-2.337-1.2c0,0-.051-.051-.133-.125l-.012-.018a.045.045,0,0,0,0,.009,6.661,6.661,0,0,0-.8-.7.591.591,0,0,1,.039.387l-.142-.151-.379-.423s-.542-.508-1.305-1.113h0q-.261-.209-.551-.426a7.822,7.822,0,0,0-3.021-1.568c-.018-.036-.091-.31-.261-.31a.287.287,0,0,0-.187.092,2.514,2.514,0,0,0-.017,3.686l.2.184.613.574,2.07,1.934c.026.018.05.038.076.054l.122.151.1.122.165.21.237.3c-.012.032-.026.062-.036.092-.089.218-.166.429-.23.622v.021c-.015.048-.03.094-.044.139a.188.188,0,0,1-.015.047c-.015.045-.027.091-.041.131a.636.636,0,0,0-.021.079.472.472,0,0,1-.015.047c-.068.24-.11.424-.133.527l-.16-.05.151.068a.2.2,0,0,1,0,.026l-.009.048c.047.023.1.044.151.065l.035.015.592.261h0c.119.053.249.109.388.172s.246.11.381.168h0a34.721,34.721,0,0,1,3.869,1.876,3.045,3.045,0,0,0,3.278.453,3.45,3.45,0,0,0,1.757-1.94,20.135,20.135,0,0,0,1.447-2.224c.036-.221.683-.47.982-.574l.029-.009.121-.039v.366a18.541,18.541,0,0,1-.221,3.2.019.019,0,0,0,0,.009,3.48,3.48,0,0,1-.24.8,55.347,55.347,0,0,0-1.589,6.366h.024a.7.7,0,0,1,.181-.009c-.021.1-.035.172-.045.224s-.015.077-.015.077h.018a.7.7,0,0,1,.175-.011.375.375,0,0,1,.059.008.936.936,0,0,1-.015.109v.038c0,.006-.009.047-.012.073-.125.864-.488,3.113-.488,3.113a7.124,7.124,0,0,1-.387,1.674,4.148,4.148,0,0,0-.2,1.208c0,.076-.01.151-.017.23-.039.64-.045,1.24-.045,1.24l-.011.039-.355,1.61c.006.015.012.03.02.044h0c.026.048.066.131.125.234h0l.018.039a4.5,4.5,0,0,0,.837,1.178,2.176,2.176,0,0,0,.254.216h0a.276.276,0,0,1-.011.053c0,.015-.009.057-.014.085a2.443,2.443,0,0,1-.171.6,2.021,2.021,0,0,0-.174.659h0a3.028,3.028,0,0,0-.015.489l-.02.089h0c-.053.246-.2.968-.286,1.556-.02.134-.038.264-.048.385a1.882,1.882,0,0,0,0,.337,2.756,2.756,0,0,1-.03.565,1.273,1.273,0,0,1-.02.166c-.082.532-.216,1.089-.216,1.089l-.434,4.162v.246a.477.477,0,0,1-.009.109c0,.1-.015.215-.026.35a1.32,1.32,0,0,1-.009.151.79.79,0,0,1-.009.143v.079a.708.708,0,0,1-.008.119.581.581,0,0,0,0,.115v.107c-.014.222-.029.462-.039.705v.233a1.749,1.749,0,0,1-.011.233v1.538a4.407,4.407,0,0,0,.036.48c.017.118.029.242.035.369v.175a.839.839,0,0,1,0,.088v.677c-.038.52-.109.941-.119,1.008h0v.142c0,.038.009.086.014.139v.076h0a.3.3,0,0,0,.009.088c.009.03,0,.029,0,.045,0,.054.009.11.015.169s.014.122.018.186l.009.119c0,.057.012.118.017.177v.06c0,.041.009.08.012.122l.014.186c0,.041.009.083.012.124a.425.425,0,0,1,0,.063l.02.245a.643.643,0,0,0,.008.121,1.892,1.892,0,0,0,.015.189c.006.06,0,.139.011.2a1.3,1.3,0,0,1,.009.184,2.546,2.546,0,0,1,0,.512c-.039.172-.166.654-.239,1.177,0,.047-.014.094-.018.142a.513.513,0,0,0,0,.085l-.009.113c0,.091-.011.183-.011.272a2.093,2.093,0,0,0,.068.6,2.864,2.864,0,0,1,.076.4.206.206,0,0,0,.008.066c0,.048.011.1.015.151s.008.1.011.151c0,.106.009.214.014.325v.219c.011.637-.02,1.261-.029,1.421v.039s.151,2.681.313,3.541c.021.113.036.228.047.346a.766.766,0,0,0,.008.131,6.74,6.74,0,0,1-.1,1.486,16.315,16.315,0,0,1-.24,1.841,1.18,1.18,0,0,0-.216.713v.012a2.326,2.326,0,0,0,.793,1.789l.073.071.088-.033c.707-.252,1.408-.515,2.107-.782.372-.144.743-.287,1.113-.435q1.372-.542,2.719-1.115h0a.172.172,0,0,1-.086-.109,4.922,4.922,0,0,1,.11-1.686c.042-.175.434-3.9.434-3.9a4.826,4.826,0,0,1,.048-1.672,7.977,7.977,0,0,0-.242-2.443.432.432,0,0,1,.121-.526,10.639,10.639,0,0,0,.169-2.847s-.024-1.293-.024-1.628a5.973,5.973,0,0,1,.553-1.964,3.849,3.849,0,0,0,.1-1.677h0l.015-.1a.972.972,0,0,1,.021-.134l.023-.128a17.773,17.773,0,0,1,.468-2.077c.314-1,.675-2.775.675-2.775l2.107-5.651h0l.07-.175.026-.069a9.182,9.182,0,0,1,1.035,3.686,21.354,21.354,0,0,1,.195,2.7,32.6,32.6,0,0,0,.216,3.278s.311,3.878.311,4.044a23.545,23.545,0,0,0,.628,3.6,3.183,3.183,0,0,1-.385,1.986,30.748,30.748,0,0,0,.048,3.662s-.364,2.775-.435,3.349c-.014.1-.035.261-.057.453,2.417-1.16,4.811-2.385,7.116-3.716.1-.056.2-.112.3-.172l.017-3.434a8.676,8.676,0,0,0-.024-2.251c-.193-.648-.385-1.888-.119-2.224s.024-1.89.024-1.89a19.111,19.111,0,0,1,.361-4.092c.361-.813.242-5.958.242-5.958l.1-3.375s.769-.728.6-4.5v-.128a6.331,6.331,0,0,1,1.93.035,3.846,3.846,0,0,0,2.524.813h0a1.228,1.228,0,0,0,.462-.192,13.608,13.608,0,0,0,1.208-.934l-.384-6.455h0l-.041-.718c.072.11.136.208.19.3.151.23.234.37.234.37,0-1,2.844-4.258,2.844-4.258a46.436,46.436,0,0,1,3.228-3.829,12.22,12.22,0,0,0,1.711-2.56,10.437,10.437,0,0,1,.579-1.2C860.284,238.221,859.412,237.071,859.509,236.808Zm-8.482,4.594a1.5,1.5,0,0,1-.32.645c-.012-.151-.024-.292-.036-.443v-.039a48.971,48.971,0,0,1-.267-4.9,5.845,5.845,0,0,0,.1-1.236h0c.011-.579,0-1.13,0-1.13h0l.027-.038a12.069,12.069,0,0,0,2,3.272s.266.766.579.79.192,1,.192,1a1.14,1.14,0,0,0-.411.151,3.611,3.611,0,0,0-.426.289h0A4.7,4.7,0,0,0,851.027,241.4Z" transform="translate(-692.065 -185.346)" fill="url(#linear-gradient)"/>
  <path id="Path_444" data-name="Path 444" d="M837,399.971s.879-4.607,3.7-4.631l2.066,4.251-1.39.944A12.935,12.935,0,0,1,837,399.971Z" transform="translate(-714.4 -346.536)" fill="#65617d"/>
  <path id="Path_445" data-name="Path 445" d="M842.764,399.61l-1.384.95a16.333,16.333,0,0,1-3.61-.3A4.124,4.124,0,0,1,837,400a.279.279,0,0,1,.015-.074.1.1,0,0,1,0-.018,10.487,10.487,0,0,1,.535-1.692c.086-.207.186-.42.292-.633a4.324,4.324,0,0,1,1.792-1.964,2.45,2.45,0,0,1,.941-.246h.125l.047.094.7,1.437Z" transform="translate(-714.4 -346.561)" opacity="0.1"/>
  <path id="Path_446" data-name="Path 446" d="M1018.34,476.071a15.892,15.892,0,0,1,3.23-.071c.261.213,1.947,1.307,2.946.618s.332-3.088.332-3.183-.095-3.491-.095-3.491l-1.781-2.4-2.233-4.2-4.559-.453.118,6.674-.023,3.42Z" transform="translate(-866.514 -403.882)" fill="#65617d"/>
  <path id="Path_447" data-name="Path 447" d="M1018.34,476.071a15.892,15.892,0,0,1,3.23-.071c.261.213,1.947,1.307,2.946.618s.332-3.088.332-3.183-.095-3.491-.095-3.491l-1.781-2.4-2.233-4.2-4.559-.453.118,6.674-.023,3.42Z" transform="translate(-866.514 -403.882)" opacity="0.1"/>
  <path id="Path_448" data-name="Path 448" d="M819.5,369.945s-.234,2.9-2.047,2.943a14.21,14.21,0,0,1-1.2-.823c-1.586-1.186-4.1-3.467-3.406-5.589,1-3.039,5.841,2.568,5.841,2.568l.373.417Z" transform="translate(-693.792 -321.265)" fill="#a5636d"/>
  <path id="Path_449" data-name="Path 449" d="M838.457,391.778s-.234,2.9-2.047,2.943a14.21,14.21,0,0,1-1.2-.823l-.151-.2a2.36,2.36,0,0,0,.99.267,1.326,1.326,0,0,0,1.292-.814,10.484,10.484,0,0,0,.5-1.15,3.46,3.46,0,0,0,.181-.713Z" transform="translate(-712.753 -343.098)" opacity="0.1"/>
  <path id="Path_450" data-name="Path 450" d="M838.471,395.677l-.406-.523-1.36-1.76-.705-.9a2.358,2.358,0,0,0,.988.266,1.324,1.324,0,0,0,1.292-.814,10.192,10.192,0,0,0,.5-1.15c.225-.64.221-.97.141-1.082a7.278,7.278,0,0,1,.786.7l.011.009.13.124.05.1.687,1.376v.057C840.646,392.513,840.878,395.284,838.471,395.677Z" transform="translate(-713.551 -341.749)" fill="#e7effd"/>
  <path id="Path_451" data-name="Path 451" d="M904.585,528.8a.69.69,0,0,0-.142-.094h-.012c-.284-.119-.024-1.592.024-1.782s.428-3.864.428-3.864a5,5,0,0,1,.048-1.662,8.109,8.109,0,0,0-.239-2.417.444.444,0,0,1,.119-.523,10.926,10.926,0,0,0,.166-2.826s-.023-1.281-.023-1.615a5.891,5.891,0,0,1,.545-1.947,3.794,3.794,0,0,0,.1-1.662h0l.014-.1c.008-.035.014-.08.021-.133l.023-.127a.619.619,0,0,1,.017-.1c.014-.076.029-.151.045-.248.009-.054.02-.112.032-.169.035-.181.076-.381.119-.585.014-.063.029-.128.044-.192s.036-.151.056-.23c.012-.047.023-.092.036-.139.035-.139.073-.273.113-.4.3-1,.666-2.755.666-2.755l2.207-5.8.026-.069.07.134h0a8.893,8.893,0,0,1,.95,3.521,20.914,20.914,0,0,1,.19,2.683,31.771,31.771,0,0,0,.214,3.254s.3,3.846.3,4.012a23.726,23.726,0,0,0,.618,3.586,3.133,3.133,0,0,1-.381,1.964,30.32,30.32,0,0,0,.048,3.634s-.357,2.754-.429,3.323c-.015.136-.045.364-.077.643l.183-.086.026-.014c2.417-1.16,4.811-2.385,7.116-3.716l.02-3.642a8.729,8.729,0,0,0-.023-2.233c-.189-.641-.381-1.876-.121-2.21s.026-1.875.026-1.875a19.14,19.14,0,0,1,.355-4.06c.355-.807.239-5.914.239-5.914l.094-3.347s.775-.739.592-4.594c-.02-.411-.05-.856-.092-1.343-.131-1.455-.264-2.772-.385-3.912-.01-.1-.021-.195-.032-.289-.012-.127-.027-.252-.039-.375-.029-.258-.056-.506-.083-.742-.009-.07-.017-.137-.024-.205q-.059-.508-.11-.937c-.012-.112-.027-.222-.039-.326-.02-.151-.038-.3-.054-.443a.747.747,0,0,0-.014-.1,1.268,1.268,0,0,0-.021-.174c-.079-.616-.125-.953-.125-.953h-.021l-2.388.021-5.213.05h-.153l-2.719.026h-.166l-1.305.014h-.222l-2.719.026h-.165l-1.116,4.6-2.28,5.225s-.035.573-.115,1.131v.033a.109.109,0,0,1-.009.054.4.4,0,0,0-.014.085,2.933,2.933,0,0,1-.192.739,1.849,1.849,0,0,0-.151.521,3.059,3.059,0,0,0-.035.579h0v.032s-.181.823-.287,1.524c-.02.134-.038.264-.048.385a2.439,2.439,0,0,0-.021.443,2.488,2.488,0,0,1-.017.453,1.283,1.283,0,0,1-.02.166c-.074.556-.224,1.178-.224,1.178l-.429,4.133a.128.128,0,0,1,0,.014v.172a.477.477,0,0,1-.009.109c0,.1-.015.215-.026.35a1.3,1.3,0,0,1-.009.151.791.791,0,0,1-.009.144v.079a.708.708,0,0,1-.008.119.577.577,0,0,0,0,.115v.107c-.012.222-.027.462-.038.705v.233a1.74,1.74,0,0,1-.011.233v1.55a4.139,4.139,0,0,0,.036.5c.015.112.027.227.035.344v.94c-.038.52-.109.941-.119,1.008h0v.142c0,.038.009.086.014.139v.076h0a.3.3,0,0,0,.009.088c.009.03,0,.029,0,.045,0,.054.009.11.015.169s.012.122.018.186l.009.119c0,.057.012.118.017.177v.06c0,.041.009.08.012.122l.014.186c0,.041.009.083.012.124v.064l.02.245a.648.648,0,0,0,.008.121c0,.063.009.128.015.189s0,.139.011.2a1.282,1.282,0,0,1,.009.184,2.677,2.677,0,0,1,0,.5,11.618,11.618,0,0,0-.236,1.193c0,.047-.014.094-.018.142a.513.513,0,0,0,0,.085l-.009.113c0,.091-.011.183-.011.272a2.087,2.087,0,0,0,.068.57,3.189,3.189,0,0,1,.083.5c.012.1.02.2.026.3s.009.214.014.325v.219c.009.718-.03,1.4-.03,1.4a.18.18,0,0,0,0,.018v.012c.015.3.151,2.684.3,3.485a3.631,3.631,0,0,1,.053.429.771.771,0,0,0,.008.131,6.917,6.917,0,0,1-.107,1.388,16.61,16.61,0,0,1-.293,1.844,1.289,1.289,0,0,0-.213.826v.012a2.347,2.347,0,0,0,.784,1.662l.169.169c.707-.252,1.408-.515,2.107-.782.372-.143.743-.287,1.113-.435q1.372-.542,2.719-1.115Z" transform="translate(-765.88 -422.346)" fill="#3f3d56"/>
  <path id="Path_452" data-name="Path 452" d="M980.976,282.814l-3.515,3.754s-4.51-1.813-4.036-2.417a3.52,3.52,0,0,0,.048-1.825c-.166-1.316-.523-2.831-.523-2.831s7.884-1.282,7.217.048a2.183,2.183,0,0,0-.05,1.577A5.98,5.98,0,0,0,980.976,282.814Z" transform="translate(-829.814 -247.719)" fill="#a5636d"/>
  <path id="Path_453" data-name="Path 453" d="M980.167,279.506c-.242.485-.358.532-.207,1.057-1.03,1.106-2.341,2.316-3.971,2.316a5.624,5.624,0,0,1-2.517-.589c-.166-1.316-.523-2.831-.523-2.831S980.834,278.175,980.167,279.506Z" transform="translate(-829.814 -247.687)" opacity="0.1"/>
  <path id="Path_454" data-name="Path 454" d="M966.955,234.863a5.653,5.653,0,1,1-11.305,0v-.082a5.652,5.652,0,1,1,11.3.082Z" transform="translate(-815.127 -205.467)" fill="#a5636d"/>
  <path id="Path_455" data-name="Path 455" d="M946.558,496.1c-.755,0-3.242.027-6.027.071H940.5l-.92.015h-.029c-3.3.053-6.559-.592-7.866-.47-2.779.261,1-2.568,1-2.568a23.261,23.261,0,0,0,6.329.64l.8-.042a33.99,33.99,0,0,0,6.388-.778C946.288,493.707,946.422,494.775,946.558,496.1Z" transform="translate(-793.913 -429.418)" opacity="0.1"/>
  <path id="Path_456" data-name="Path 456" d="M946.558,495.161c-.755,0-3.242.026-6.027.071H940.5l-.92.015h-.029c-3.3.053-6.559-.592-7.866-.47-2.779.26,1-2.568,1-2.568a23.227,23.227,0,0,0,6.329.639l.8-.041a34.113,34.113,0,0,0,6.388-.778C946.288,492.767,946.422,493.838,946.558,495.161Z" transform="translate(-793.913 -428.62)" fill="#5f5d7e"/>
  <path id="Path_457" data-name="Path 457" d="M939.5,310.178l-4.37,2.042-3.37,26.069s1.994-.906,3.134-.332,4.654.048,4.654.048,2.568-.151,2.944.142,4.846-1.187,4.846-1.187.807-1.805.189-2.089.19-3.092.19-3.092l-.379-18.808-.755-2.417-2.042-1.234-2.089,1.662-1,.143Z" transform="translate(-794.846 -273.51)" opacity="0.1"/>
  <path id="Path_458" data-name="Path 458" d="M939.5,308.3l-4.369,2.042-3.372,26.076s1.994-.906,3.134-.332,4.654.047,4.654.047a10.851,10.851,0,0,1,2.944.142c.376.284,4.846-1.187,4.846-1.187s.807-1.8.189-2.089.19-3.088.19-3.088l-.379-18.808-.755-2.417-2.042-1.236-2.089,1.662-1,.142Z" transform="translate(-794.846 -271.922)" fill="#e7effd"/>
  <path id="Path_459" data-name="Path 459" d="M963.488,318.961s1.26,1.5,1.236,1.805-.071,1.044-.071,1.044l-.943,1.924s-.523,2.4-.523,2.9-.831,4.82-.831,4.82l-1,6.646-1.26,8.716,1.283,2.208,1.52-1.283,2.017-15.529.427-3.063s.453-5.509.453-6.079a19.419,19.419,0,0,0-.261-2.066,2.433,2.433,0,0,1,1.592-1.757c1.282-.332-.1-.073-.1-.073l-.736-.594-.642.261S963.869,318.3,963.488,318.961Z" transform="translate(-818.905 -281.371)" opacity="0.1"/>
  <path id="Path_460" data-name="Path 460" d="M962.5,318.021s1.258,1.5,1.236,1.8-.073,1.045-.073,1.045l-.95,1.924s-.523,2.4-.523,2.9-.831,4.822-.831,4.822l-1,6.647-1.258,8.715,1.282,2.208,1.52-1.282,2.017-15.527.427-3.063s.453-5.509.453-6.08a19.322,19.322,0,0,0-.261-2.065,2.415,2.415,0,0,1,1.591-1.758c1.289-.332-.094-.071-.094-.071l-.737-.594-.64.261S962.878,317.354,962.5,318.021Z" transform="translate(-818.056 -280.573)" fill="#a7a8c2"/>
  <path id="Path_461" data-name="Path 461" d="M970.75,303.65s-.19.142-.237,1.092a18.97,18.97,0,0,1-.713,3.088s2.47-1.71,3.705-1.52Z" transform="translate(-827.14 -268.696)" opacity="0.1"/>
  <path id="Path_462" data-name="Path 462" d="M970.75,301.76s-.19.143-.237,1.092a19.011,19.011,0,0,1-.713,3.088s2.47-1.71,3.705-1.52Z" transform="translate(-827.14 -267.092)" fill="#e7effd"/>
  <path id="Path_463" data-name="Path 463" d="M998.888,298.62,995,302.04a40.372,40.372,0,0,1,3.706,2.417c.427.47.855-4.654.855-4.654Z" transform="translate(-848.533 -264.426)" opacity="0.1"/>
  <path id="Path_464" data-name="Path 464" d="M999.794,296.73l-3.894,3.42a40.405,40.405,0,0,1,3.7,2.417c.428.47.855-4.656.855-4.656Z" transform="translate(-849.297 -262.822)" fill="#e7effd"/>
  <path id="Path_465" data-name="Path 465" d="M913.329,303.447s-.427-.214-.831.4a2.7,2.7,0,0,1-1.163.906s-4.323.689-4.489,1.258l-2.018.118s-.713.086-.779,1.6-.453,1.637-.453,1.637a5.63,5.63,0,0,0-.755,2.233,1.237,1.237,0,0,1-.642,1.141l2.974,7.71s.1,3.183-.453,4.346a54.913,54.913,0,0,0-1.568,6.317s.428-.1.4.19-.523,3.4-.523,3.4a6.839,6.839,0,0,1-.379,1.662,12.1,12.1,0,0,0-.261,2.66L902,340.636s.906,2.018,2.281,1.733,3.87-5.675,3.87-5.675l1.591-5.817,1.236-5.748.357-3.894.57-8.621.831-5.7S913.666,303.851,913.329,303.447Z" transform="translate(-769.582 -268.494)" opacity="0.1"/>
  <path id="Path_466" data-name="Path 466" d="M912.428,301.561s-.427-.213-.831.4a2.7,2.7,0,0,1-1.165.906s-4.322.689-4.488,1.258l-2.018.119s-.713.1-.784,1.591-.453,1.639-.453,1.639a5.655,5.655,0,0,0-.755,2.233,1.236,1.236,0,0,1-.641,1.139l2.964,7.713s.1,3.183-.453,4.346a54.837,54.837,0,0,0-1.566,6.317s.427-.1.4.19-.523,3.4-.523,3.4a6.84,6.84,0,0,1-.379,1.662,12.1,12.1,0,0,0-.261,2.66l-.378,1.622s.906,2.018,2.279,1.734,3.872-5.677,3.872-5.677L908.842,329l1.236-5.74.355-3.894.571-8.619.831-5.7S912.76,301.965,912.428,301.561Z" transform="translate(-768.818 -266.892)" fill="#65617d"/>
  <path id="Path_467" data-name="Path 467" d="M841.932,398.761l-1.384.95a16.33,16.33,0,0,1-3.61-.3l-.767-.34L836.02,399l.159.05a3.134,3.134,0,0,0,1.9.068c1.95-.656,1.734-3.875,1.662-4.6a.649.649,0,0,0-.015-.137.045.045,0,0,1,0-.009l.012.018a.867.867,0,0,0,.089.125,1,1,0,0,0,.088.092h0l.687,1.376v.057Z" transform="translate(-713.568 -345.712)" opacity="0.1"/>
  <path id="Path_468" data-name="Path 468" d="M847.5,362l-.665.19-.1,1.359a.913.913,0,0,0-1,.808,3.3,3.3,0,0,1-.594,1.36s-1.307,1.092-1.378,2.018l-.808.5s-1.876-.427-2.3-1.187c0,0,.855,6.127-3.7,4.631,0,0,5.106,2.233,5.343,2.541a3,3,0,0,0,3.23.453,3.426,3.426,0,0,0,1.734-1.947,19.856,19.856,0,0,0,1.424-2.208c.047-.285,1.116-.618,1.116-.618l2.042-4.938Z" transform="translate(-714.366 -318.232)" fill="#65617d"/>
  <path id="Path_469" data-name="Path 469" d="M1014.471,299.864l.689-3.134a3.569,3.569,0,0,0,.618,1.258c.316.237,1.021.784,1.021.784a5.933,5.933,0,0,0,1.376.476,8.285,8.285,0,0,1,2.518.755c.237.257,1.187.071,1.187.071s.784.261,1.473.428,1.021,1.307.878,1.757a1.373,1.373,0,0,0,.332,1.283,3.041,3.041,0,0,1,.427,1.208,1.393,1.393,0,0,1,.808.689,4.79,4.79,0,0,1,.166,1.662l-3.538,4.985a14.538,14.538,0,0,1-.1,2.35c-.142.427.5,7.695.5,7.695l.736,12.491a13.132,13.132,0,0,1-1.187.926c-.215.1-.427-4.417-.427-4.583s-5.485-8.217-5.485-8.217a7.367,7.367,0,0,1-.737-1.449c0-.261-.689-2.659-.689-2.659L1014,314.018Z" transform="translate(-864.663 -262.822)" opacity="0.1"/>
  <path id="Path_470" data-name="Path 470" d="M1027.847,306.8c0,.163-.009.272-.009.272l-3.536,4.985h0a14.521,14.521,0,0,1-.094,2.352c-.083.248.1,2.8.266,4.9.119,1.511.233,2.792.233,2.792l.311,5.3.423,7.193a13.256,13.256,0,0,1-1.186.926c-.213.1-.427-4.417-.427-4.585s-5.489-8.219-5.489-8.219a7.391,7.391,0,0,1-.736-1.45c0-.261-.689-2.66-.689-2.66l-1.044-4.63.474-14.154.4-3.134a6.709,6.709,0,0,0,.906,1.258c.313.236,1.02.784,1.02.784a5.925,5.925,0,0,0,1.378.476,8.283,8.283,0,0,1,2.518.755c.239.257,1.187.071,1.187.071s.783.261,1.471.427,1.021,1.307.879,1.757a1.368,1.368,0,0,0,.332,1.282,3.06,3.06,0,0,1,.427,1.208,1.4,1.4,0,0,1,.808.689A4.079,4.079,0,0,1,1027.847,306.8Z" transform="translate(-866.251 -262.788)" fill="#65617d"/>
  <path id="Path_471" data-name="Path 471" d="M906.356,782.815c-.37.151-.742.292-1.113.435-1.165-.34-2.252-.74-2.252-.74A30.927,30.927,0,0,1,906.356,782.815Z" transform="translate(-770.422 -675.221)" opacity="0.1"/>
  <path id="Path_472" data-name="Path 472" d="M999.67,700.6s2.826.665,2.992,1.116Z" transform="translate(-852.498 -605.684)" opacity="0.1"/>
  <path id="Path_473" data-name="Path 473" d="M923.752,714.12s-1.473.427-.047,1.283S923.752,714.12,923.752,714.12Z" transform="translate(-787.48 -617.162)" opacity="0.1"/>
  <path id="Path_474" data-name="Path 474" d="M970.74,559.785c.166,0,2.755-.855,3.657-.474a6,6,0,0,0,2.02.379Z" transform="translate(-827.938 -485.655)" opacity="0.1"/>
  <path id="Path_475" data-name="Path 475" d="M954.068,573.631l-.026.236-2.214,5.792s-.357,1.757-.666,2.754a18.081,18.081,0,0,0-.462,2.062l1.964-12.154Z" transform="translate(-810.925 -496.782)" opacity="0.1"/>
  <path id="Path_476" data-name="Path 476" d="M987.408,499.621l-.92.015h-.029l-.539-2.394c.264-.012.532-.026.8-.042Z" transform="translate(-840.825 -433.009)" fill="#3f3d56"/>
  <path id="Path_477" data-name="Path 477" d="M1016.246,481.2l-.591.488-1.968,1.627s-5.343,2.85-6.814.142c-1.3-2.385,4.76-4.088,6.219-4.459.2-.05.311-.076.311-.076Z" transform="translate(-858.459 -417.49)" fill="#a5636d"/>
  <path id="Path_478" data-name="Path 478" d="M918.87,339.49s1.044.476,1.281,1.141S918.87,339.49,918.87,339.49Z" transform="translate(-783.903 -299.122)" opacity="0.1"/>
  <path id="Path_479" data-name="Path 479" d="M891.567,386.66s-1.52,1.852-.906,2.568S891.567,386.66,891.567,386.66Z" transform="translate(-759.831 -339.167)" opacity="0.1"/>
  <path id="Path_480" data-name="Path 480" d="M1069.053,346.41s-1.425.142-1.473,1.378Z" transform="translate(-910.149 -304.997)" opacity="0.1"/>
  <path id="Path_481" data-name="Path 481" d="M989.92,449.55c.151-.142,3.42-4.985,4.18-4.559Z" transform="translate(-844.221 -388.664)" opacity="0.1"/>
  <path id="Path_482" data-name="Path 482" d="M966.955,234.9a5.631,5.631,0,0,1-.669,2.668h-.042c-.358-.076-.544-.492-.817-.755a1.113,1.113,0,0,0-1.283-.18,1.3,1.3,0,0,0-.63,1.219c-.181-.755-.124-1.569-.3-2.331s-.708-1.533-1.436-1.547c-.314,0-.68.116-.906-.119-.137-.142-.165-.366-.267-.538-.521-.841-2.1-.415-2.751.017a16.91,16.91,0,0,1-2.2,1.491,5.652,5.652,0,1,1,11.3.082Z" transform="translate(-815.127 -205.501)" opacity="0.1"/>
  <path id="Path_483" data-name="Path 483" d="M952.479,216.016c.1.172.13.4.267.538.227.234.592.113.906.119.728.012,1.26.784,1.437,1.545s.119,1.571.3,2.331a1.3,1.3,0,0,1,.63-1.218,1.11,1.11,0,0,1,1.281.18c.273.26.453.677.819.755s.7-.269.834-.646a10.226,10.226,0,0,0,.2-1.183,15.784,15.784,0,0,1,.906-2.053,3.717,3.717,0,0,0-.024-2.653c-.178-.453-.443-.847-.624-1.293-.272-.677-.344-1.44-.677-2.085a2.452,2.452,0,0,0-2.958-1.208c-.517.195-.965.571-1.489.739a4.919,4.919,0,0,1-2.178-.045,2.7,2.7,0,0,0-2.115.367c-.672.55-.857,1.583-1.488,2.187-.266.254-.6.415-.875.65a1.2,1.2,0,0,0-.489.964c.042.492.524.94.346,1.394a1.1,1.1,0,0,1-.264.347,4.984,4.984,0,0,0-1.15,1.956c1.272.4,2.647-1,3.642-1.662C950.376,215.6,951.959,215.173,952.479,216.016Z" transform="translate(-807.003 -188.351)" fill="#4c3e42"/>
  <path id="Path_484" data-name="Path 484" d="M1051.662,481.189l-.591.488a17.354,17.354,0,0,0-2.662-2.6l.092-.089c.2-.05.311-.076.311-.076Z" transform="translate(-893.875 -417.482)" opacity="0.1"/>
  <path id="Path_485" data-name="Path 485" d="M1053.031,476.062s-.213.529-.432.986-.453.872-.471.535c-.024-.666-2.778-2.9-2.778-2.9l.373-.363.434-.421Z" transform="translate(-894.673 -413.229)" fill="#e7effd"/>
  <path id="Path_486" data-name="Path 486" d="M1053.254,449.294l.311,5.3c-.737-1.147-2.763-4.088-4.065-3.992l3.159-3.625a4.075,4.075,0,0,0,.363-.465C1053.141,448.018,1053.254,449.294,1053.254,449.294Z" transform="translate(-894.801 -389.976)" opacity="0.1"/>
  <path id="Path_487" data-name="Path 487" d="M1055.162,476.062s-.213.529-.432.986c-.828-1.136-1.964-2.476-2.87-2.727l.434-.421Z" transform="translate(-896.804 -413.229)" opacity="0.1"/>
  <path id="Path_488" data-name="Path 488" d="M1056.339,361l.855.665s1.424.024,1.567,1.208a2.479,2.479,0,0,0,1.449,1.734s.974.973.974,1.424.736,1.258.736,1.329.713,1.52.618,1.781.755,1.4.5,1.829a10.471,10.471,0,0,0-.569,1.187,12.012,12.012,0,0,1-1.687,2.541,45.329,45.329,0,0,0-3.181,3.8s-2.8,3.23-2.8,4.23c0,0-2.731-4.56-4.346-4.441l3.159-3.633s.545-.594.569-.95a4.655,4.655,0,0,1,2.233-2.066s.118-.974-.19-1-.569-.784-.569-.784-2.091-2.47-2.115-4.038S1056.339,361,1056.339,361Z" transform="translate(-895.607 -317.383)" fill="#65617d"/>
  <path id="Path_489" data-name="Path 489" d="M1088.621,376s-2,1.471-1.568,1.947S1088.621,376,1088.621,376Z" transform="translate(-926.63 -330.117)" opacity="0.1"/>
  <path id="Path_490" data-name="Path 490" d="M1098.4,413.244s3.7-1.187,4.079,0Z" transform="translate(-936.314 -361.288)" opacity="0.1"/>
  <path id="Path_491" data-name="Path 491" d="M922.054,374.08s0,5.414-.464,5.949S922.054,374.08,922.054,374.08Z" transform="translate(-786.102 -328.487)" opacity="0.1"/>
  <path id="Path_492" data-name="Path 492" d="M1067.11,385.63l.689,1.935S1068.072,385.666,1067.11,385.63Z" transform="translate(-909.75 -338.293)" opacity="0.1"/>
  <g id="Group_111" data-name="Group 111" transform="translate(139.083 25.221)" opacity="0.1">
    <path id="Path_493" data-name="Path 493" d="M953.645,240.58c.174-.446-.281-.882-.341-1.36a.906.906,0,0,0-.076.429c.03.361.3.7.367,1.03A.618.618,0,0,0,953.645,240.58Z" transform="translate(-952.153 -239.22)"/>
    <path id="Path_494" data-name="Path 494" d="M955.487,254.11c-.171-.755-.121-1.542-.293-2.29s-.708-1.535-1.437-1.547c-.314,0-.68.115-.906-.119-.137-.142-.165-.366-.267-.538-.52-.841-2.1-.415-2.751.017-.971.645-2.305,2-3.551,1.69-.059.144-.115.289-.162.438,1.272.4,2.647-1,3.642-1.662.648-.43,2.23-.858,2.751-.015.1.172.13.4.267.538.227.234.592.113.906.119.728.012,1.26.784,1.437,1.545s.119,1.571.3,2.331A1.289,1.289,0,0,1,955.487,254.11Z" transform="translate(-946.12 -247.636)"/>
    <path id="Path_495" data-name="Path 495" d="M1011.74,273.854c-.13.378-.468.724-.834.647s-.544-.492-.817-.755a1.115,1.115,0,0,0-1.283-.178,1.292,1.292,0,0,0-.63,1.15,1.24,1.24,0,0,1,.559-.687,1.11,1.11,0,0,1,1.281.18c.273.26.453.677.819.755s.7-.269.834-.647a3.323,3.323,0,0,0,.13-.683A2.137,2.137,0,0,1,1011.74,273.854Z" transform="translate(-998.802 -268.271)"/>
    <path id="Path_496" data-name="Path 496" d="M1033.676,251.816a13.843,13.843,0,0,0-.906,2.051c-.033.151-.051.3-.07.453a15.654,15.654,0,0,1,.906-2.045,3.584,3.584,0,0,0,.219-.985A3.432,3.432,0,0,1,1033.676,251.816Z" transform="translate(-1019.622 -249.467)"/>
  </g>
  <circle id="Ellipse_62" data-name="Ellipse 62" cx="0.059" cy="0.059" r="0.059" transform="translate(118.76 44.647)" fill="#e6e8ec"/>
  <path id="Path_497" data-name="Path 497" d="M497.7,583.726a3.774,3.774,0,0,1,3.388-.453s-.483,1.024-2.628,1.011Z" transform="translate(-426.354 -505.875)" fill="#a7a8c2"/>
  <path id="Path_498" data-name="Path 498" d="M495.937,588.09a3.783,3.783,0,0,0,.906,3.295s.755-.846-.1-2.814Z" transform="translate(-424.798 -510.17)" fill="#a7a8c2"/>
  <path id="Path_499" data-name="Path 499" d="M481.75,568.52s.062-1.687,3.882-1.275a1.813,1.813,0,0,1-1.254,1.651A2.194,2.194,0,0,1,481.75,568.52Z" transform="translate(-412.813 -492.418)" fill="#a7a8c2"/>
  <path id="Path_500" data-name="Path 500" d="M476.208,576s-1.586.577-.018,4.086a1.807,1.807,0,0,0,1.184-1.7A2.2,2.2,0,0,0,476.208,576Z" transform="translate(-407.506 -499.906)" fill="#a7a8c2"/>
  <path id="Path_501" data-name="Path 501" d="M465.323,546s-.323-2.76,3.571-2.625c0,0,.372,2.5-2.86,3.264Z" transform="translate(-398.862 -472.204)" fill="#a7a8c2"/>
  <path id="Path_502" data-name="Path 502" d="M447.58,526.7s.412-3.159,4.329-2.372c0,0,.118,2.719-3.668,3.1Z" transform="translate(-383.805 -455.936)" fill="#a7a8c2"/>
  <path id="Path_503" data-name="Path 503" d="M434.35,506.072s.773-3.1,4.654-2.322a4.438,4.438,0,0,1-4.381,2.87Z" transform="translate(-372.574 -438.464)" fill="#a7a8c2"/>
  <path id="Path_504" data-name="Path 504" d="M421.76,485.185s.755-3.205,4.5-2.394c0,0-1.124,3.06-4.23,2.926Z" transform="translate(-361.885 -420.665)" fill="#a7a8c2"/>
  <path id="Path_505" data-name="Path 505" d="M413.39,461.459s.521-3.9,4.02-3.18c0,0-.87,3.568-3.74,3.734Z" transform="translate(-354.78 -399.892)" fill="#a7a8c2"/>
  <path id="Path_506" data-name="Path 506" d="M405.35,438.689s.654-3.941,4.2-2.938c0,0-1.231,3.748-3.927,3.474Z" transform="translate(-347.954 -380.704)" fill="#a7a8c2"/>
  <path id="Path_507" data-name="Path 507" d="M400.08,411.758s1.127-3.959,3.84-3.958c0,0-1.148,4.18-3.583,4.733Z" transform="translate(-343.48 -357.114)" fill="#a7a8c2"/>
  <path id="Path_508" data-name="Path 508" d="M396.45,387.056s1.208-4.76,3.426-4.482c0,0-.823,3.634-3.323,5.211Z" transform="translate(-340.399 -335.688)" fill="#a7a8c2"/>
  <path id="Path_509" data-name="Path 509" d="M393.86,362.691s1.151-3.973,3.323-4.211c0,0-.739,3.893-3.234,5.228Z" transform="translate(-338.2 -315.244)" fill="#a7a8c2"/>
  <path id="Path_510" data-name="Path 510" d="M391.19,338.991s1.473-3.988,2.908-4.131c0,0-.557,3.893-2.74,4.77Z" transform="translate(-335.933 -295.192)" fill="#a7a8c2"/>
  <path id="Path_511" data-name="Path 511" d="M389.13,313.231s.835-4.3,2.257-4.711c0,0-.062,3.5-2.1,5.024Z" transform="translate(-334.184 -272.831)" fill="#a7a8c2"/>
  <path id="Path_512" data-name="Path 512" d="M384.42,287.852s.92-3.44,2.063-4c0,0-.077,4.015-1.761,4.822Z" transform="translate(-330.186 -251.887)" fill="#a7a8c2"/>
  <path id="Path_513" data-name="Path 513" d="M378.231,257.426l-.441-5.986s2.343,4.441.636,7.033Z" transform="translate(-324.557 -224.373)" fill="#a7a8c2"/>
  <path id="Path_514" data-name="Path 514" d="M356.195,226.515s-1.731-4.316-2.115-4.545c0,0,3.172,2.719,3.021,6.385Z" transform="translate(-304.429 -199.355)" fill="#a7a8c2"/>
  <path id="Path_515" data-name="Path 515" d="M450.319,560.651s-2.767-.254-2.536,3.634c0,0,2.5.3,3.193-2.94Z" transform="translate(-383.966 -486.873)" fill="#a7a8c2"/>
  <path id="Path_516" data-name="Path 516" d="M430.913,540.08s-3.183.112-2.77,4.078c0,0,2.689.375,3.427-3.356Z" transform="translate(-367.273 -469.412)" fill="#a7a8c2"/>
  <path id="Path_517" data-name="Path 517" d="M408.046,520.358s-2.941-1.245-4.656,2.322a4.447,4.447,0,0,0,4.932-1.767Z" transform="translate(-346.29 -452.49)" fill="#a7a8c2"/>
  <path id="Path_518" data-name="Path 518" d="M395.379,498.193s-3.014-1.328-4.619,2.154c0,0,3.122.943,4.884-1.622Z" transform="translate(-335.568 -433.641)" fill="#a7a8c2"/>
  <path id="Path_519" data-name="Path 519" d="M384.906,474.222s-2.95-2.61-5.116.227c0,0,2.994,2.125,5.27.373Z" transform="translate(-326.255 -412.572)" fill="#a7a8c2"/>
  <path id="Path_520" data-name="Path 520" d="M377.663,449.3s-2.971-2.672-5.113.323c0,0,3.3,2.159,5.237.255Z" transform="translate(-320.109 -391.416)" fill="#a7a8c2"/>
  <path id="Path_521" data-name="Path 521" d="M374.426,418.235s-2.34-3.387-4.906-2.514c0,0,2.429,3.589,4.912,3.323Z" transform="translate(-317.537 -363.717)" fill="#a7a8c2"/>
  <path id="Path_522" data-name="Path 522" d="M371.784,392.148s-2.391-4.29-4.464-3.45c0,0,1.731,3.3,4.55,4.183Z" transform="translate(-315.669 -340.804)" fill="#a7a8c2"/>
  <path id="Path_523" data-name="Path 523" d="M369.291,368.523s-2.417-3.355-4.541-2.852c0,0,2,3.418,4.8,3.84Z" transform="translate(-313.487 -321.305)" fill="#a7a8c2"/>
  <path id="Path_524" data-name="Path 524" d="M373.881,340.416s-1.918-3.795-3.361-3.776c0,0,1,3.8,3.266,4.428Z" transform="translate(-318.386 -296.703)" fill="#a7a8c2"/>
  <path id="Path_525" data-name="Path 525" d="M369.358,317.844s-2.115-3.837-3.6-3.787c0,0,1.136,3.307,3.545,4.134Z" transform="translate(-314.345 -277.531)" fill="#a7a8c2"/>
  <path id="Path_526" data-name="Path 526" d="M370.669,292.17s-1.6-3.181-2.829-3.5c0,0,.887,3.917,2.7,4.366Z" transform="translate(-316.11 -255.979)" fill="#a7a8c2"/>
  <path id="Path_527" data-name="Path 527" d="M359.943,262.888,356.46,258s1.033,4.912,4,5.823Z" transform="translate(-306.449 -229.942)" fill="#a7a8c2"/>
  <path id="Path_528" data-name="Path 528" d="M340.269,238.544s-3.927-2.494-4.079-2.914c0,0,2.094,3.625,5.725,4.137Z" transform="translate(-289.241 -210.951)" fill="#a7a8c2"/>
  <path id="Path_529" data-name="Path 529" d="M329.484,224.6s-4.553-4.053-5.674-4.006a7.178,7.178,0,0,1,5.77,3.776Z" transform="translate(-278.731 -198.189)" fill="#a7a8c2"/>
  <path id="Path_530" data-name="Path 530" d="M364.2,255.623l-.16.027c-1.073-6.427-2.417-10.2-3.8-10.619l.047-.151C361.748,245.321,363.1,249.039,364.2,255.623Z" transform="translate(-309.658 -218.804)" fill="#444053"/>
  <path id="Path_531" data-name="Path 531" d="M387.048,328.716l-.24.03c-.074-.6-.136-1.218-.187-1.831-.435-5.338-.98-10.234-1.591-13.9l.133-.178c.6,3.669,1.264,8.71,1.7,14.048C386.912,327.506,386.976,328.121,387.048,328.716Z" transform="translate(-330.704 -276.498)" fill="#444053"/>
  <path id="Path_532" data-name="Path 532" d="M416.356,443.938a31.5,31.5,0,0,1-8.962-6.118,35.1,35.1,0,0,1-6.715-8.779,40.949,40.949,0,0,1-4.249-14.091l.257.109a37.143,37.143,0,0,0,10.92,22.517,31.258,31.258,0,0,0,8.867,6.062Z" transform="translate(-340.382 -363.184)" fill="#444053"/>
  <g id="Group_112" data-name="Group 112" transform="translate(66.73 15.079)" opacity="0.7">
    <path id="Path_533" data-name="Path 533" d="M548.25,573.277a3.782,3.782,0,0,1,3.369.573s-.766.835-2.81.183Z" transform="translate(-535.998 -512.529)" fill="#a7a8c2"/>
    <path id="Path_534" data-name="Path 534" d="M544.06,574.25a3.782,3.782,0,0,0-.112,3.417s.971-.585.74-2.719Z" transform="translate(-532.027 -513.499)" fill="#a7a8c2"/>
    <path id="Path_535" data-name="Path 535" d="M536.46,554.344s.562-1.594,4.079-.062a1.819,1.819,0,0,1-1.689,1.208A2.182,2.182,0,0,1,536.46,554.344Z" transform="translate(-525.989 -495.983)" fill="#a7a8c2"/>
    <path id="Path_536" data-name="Path 536" d="M527.635,558s-1.687.08-1.233,3.9a1.813,1.813,0,0,0,1.636-1.272A2.194,2.194,0,0,0,527.635,558Z" transform="translate(-517.385 -499.704)" fill="#a7a8c2"/>
    <path id="Path_537" data-name="Path 537" d="M525.35,528.947s.514-2.731,4.19-1.444c0,0-.388,2.492-3.7,2.266Z" transform="translate(-516.557 -473.521)" fill="#a7a8c2"/>
    <path id="Path_538" data-name="Path 538" d="M514.34,505.378s1.334-2.893,4.834-.976c0,0-.693,2.624-4.421,1.863Z" transform="translate(-507.21 -453.645)" fill="#a7a8c2"/>
    <path id="Path_539" data-name="Path 539" d="M507.93,482.2s1.662-2.727,5.136-.832a4.446,4.446,0,0,1-5.036,1.444Z" transform="translate(-501.768 -434.078)" fill="#a7a8c2"/>
    <path id="Path_540" data-name="Path 540" d="M502,458.4s1.671-2.837,5.008-.949c0,0-1.983,2.588-4.912,1.535Z" transform="translate(-496.734 -413.798)" fill="#a7a8c2"/>
    <path id="Path_541" data-name="Path 541" d="M499.83,433.215s1.662-3.573,4.779-1.84c0,0-1.893,3.147-4.683,2.452Z" transform="translate(-494.892 -391.804)" fill="#a7a8c2"/>
    <path id="Path_542" data-name="Path 542" d="M499.2,409s1.8-3.568,4.881-1.556c0,0-2.292,3.212-4.785,2.14Z" transform="translate(-494.357 -371.367)" fill="#a7a8c2"/>
    <path id="Path_543" data-name="Path 543" d="M500.76,382.986s2.254-3.444,4.843-2.636c0,0-2.34,3.65-4.834,3.453Z" transform="translate(-495.681 -348.785)" fill="#a7a8c2"/>
    <path id="Path_544" data-name="Path 544" d="M503.086,357.654s2.568-4.186,4.6-3.258c0,0-1.869,3.224-4.721,3.986Z" transform="translate(-497.558 -326.742)" fill="#a7a8c2"/>
    <path id="Path_545" data-name="Path 545" d="M507.761,333.935s2.281-3.449,4.423-3.032c0,0-1.863,3.5-4.644,4.03Z" transform="translate(-501.437 -306.882)" fill="#a7a8c2"/>
    <path id="Path_546" data-name="Path 546" d="M513.459,309.921s2.594-3.37,4.006-3.08c0,0-1.69,3.55-4.035,3.74Z" transform="translate(-506.438 -286.469)" fill="#a7a8c2"/>
    <path id="Path_547" data-name="Path 547" d="M518.35,283.725s2.077-3.86,3.557-3.826c0,0-1.1,3.323-3.5,4.172Z" transform="translate(-510.614 -263.612)" fill="#a7a8c2"/>
    <path id="Path_548" data-name="Path 548" d="M522.6,257.767s1.9-3.009,3.16-3.207c0,0-1.269,3.811-3.116,4.079Z" transform="translate(-514.222 -242.101)" fill="#a7a8c2"/>
    <path id="Path_549" data-name="Path 549" d="M524.1,223.434l1.359-5.844s.917,4.935-1.48,6.908Z" transform="translate(-515.394 -210.715)" fill="#a7a8c2"/>
    <path id="Path_550" data-name="Path 550" d="M520.569,187.36s-.369-4.636-.669-4.97c0,0,2.225,3.544.982,6.994Z" transform="translate(-511.93 -180.833)" fill="#a7a8c2"/>
    <path id="Path_551" data-name="Path 551" d="M505.032,537.879s-2.568-1.068-3.5,2.719c0,0,2.3,1.041,3.927-1.856Z" transform="translate(-496.335 -482.505)" fill="#a7a8c2"/>
    <path id="Path_552" data-name="Path 552" d="M492,513.225s-3.071-.84-3.859,3.076c0,0,2.455,1.159,4.272-2.184Z" transform="translate(-484.968 -461.628)" fill="#a7a8c2"/>
    <path id="Path_553" data-name="Path 553" d="M478.426,488.235s-2.437-2.063-5.136.832a4.446,4.446,0,0,0,5.234-.221Z" transform="translate(-472.361 -439.873)" fill="#a7a8c2"/>
    <path id="Path_554" data-name="Path 554" d="M473.15,463.037s-2.48-2.165-5.05.686c0,0,2.7,1.828,5.145-.1Z" transform="translate(-467.955 -418.417)" fill="#a7a8c2"/>
    <path id="Path_555" data-name="Path 555" d="M472.092,435.728s-2.041-3.37-4.952-1.307c0,0,2.225,2.922,4.92,1.924Z" transform="translate(-467.14 -394.225)" fill="#a7a8c2"/>
    <path id="Path_556" data-name="Path 556" d="M472.385,409.872s-2.042-3.434-4.985-1.208c0,0,2.511,3.044,4.924,1.8Z" transform="translate(-467.361 -372.289)" fill="#a7a8c2"/>
    <path id="Path_557" data-name="Path 557" d="M480.7,376.585s-1.225-3.927-3.937-3.859c0,0,1.252,4.151,3.7,4.642Z" transform="translate(-475.307 -342.415)" fill="#a7a8c2"/>
    <path id="Path_558" data-name="Path 558" d="M486.006,350.691s-1.008-4.807-3.236-4.621c0,0,.671,3.666,3.1,5.346Z" transform="translate(-480.409 -319.783)" fill="#a7a8c2"/>
    <path id="Path_559" data-name="Path 559" d="M490.748,327.079s-1.31-3.927-3.488-4.079c0,0,.894,3.861,3.441,5.1Z" transform="translate(-484.221 -300.202)" fill="#a7a8c2"/>
    <path id="Path_560" data-name="Path 560" d="M503.553,301.383s-.7-4.193-2.086-4.6c0,0-.178,3.927,1.8,5.2Z" transform="translate(-496.278 -277.943)" fill="#a7a8c2"/>
    <path id="Path_561" data-name="Path 561" d="M506.028,278.493s-.881-4.293-2.308-4.683c0,0,.1,3.494,2.156,5Z" transform="translate(-498.194 -258.443)" fill="#a7a8c2"/>
    <path id="Path_562" data-name="Path 562" d="M514.716,254.346s-.579-3.512-1.662-4.186c0,0-.319,4,1.279,4.973Z" transform="translate(-506.097 -238.365)" fill="#a7a8c2"/>
    <path id="Path_563" data-name="Path 563" d="M513.145,223.212l-1.872-5.7s-.476,5,2.086,6.751Z" transform="translate(-504.577 -210.647)" fill="#a7a8c2"/>
    <path id="Path_564" data-name="Path 564" d="M501.831,194.107s-3.008-3.55-3.021-4c0,0,.92,4.079,4.23,5.653Z" transform="translate(-494.026 -187.386)" fill="#a7a8c2"/>
    <path id="Path_565" data-name="Path 565" d="M495.62,177.594s-3.14-5.225-4.23-5.514a7.164,7.164,0,0,1,4.381,5.323Z" transform="translate(-487.727 -172.08)" fill="#a7a8c2"/>
    <path id="Path_566" data-name="Path 566" d="M519.308,217.594l-.16-.023c.888-6.455.722-10.458-.468-11.269l.092-.133C520.034,207.029,520.219,210.978,519.308,217.594Z" transform="translate(-510.895 -201.02)" fill="#444053"/>
    <path id="Path_567" data-name="Path 567" d="M502.579,294.314l-.239-.044c.109-.6.231-1.208.367-1.8,1.172-5.225,2.115-10.062,2.615-13.746l.18-.13c-.508,3.684-1.384,8.692-2.559,13.923C502.81,293.117,502.686,293.72,502.579,294.314Z" transform="translate(-497.023 -262.501)" fill="#444053"/>
    <path id="Path_568" data-name="Path 568" d="M509.15,412.843a31.467,31.467,0,0,1-6.736-8.506,35.057,35.057,0,0,1-3.805-10.381,41,41,0,0,1,.134-14.716l.213.18a37.142,37.142,0,0,0,3.727,24.746,31.153,31.153,0,0,0,6.663,8.424Z" transform="translate(-493.344 -347.947)" fill="#444053"/>
  </g>
  <path id="Path_569" data-name="Path 569" d="M126.082,340.123a5.737,5.737,0,0,1-1.1.329,11.06,11.06,0,0,1-2,.189c.02.177.035.341.05.491.036.411.057.693.057.693l-.708-.048-5.843-.4-3.417-.506a6.371,6.371,0,0,0,.536.63,2.827,2.827,0,0,0,.683.53s3.083,2.5,3.616,2.52c.076,0,.1.076.088.195,1.3,0,5.332.189,4.213,2.435a1.79,1.79,0,0,1-.917.893c-1.295.548-3.248-.438-4.254-1.044-.1.192-.192.37-.275.523-.171.322-.29.535-.29.535l-.1-.072-5.184-3.692-1.136-.964a3.96,3.96,0,0,1-.983-.171h0l-.151-.048a.289.289,0,0,0-.017.041,2.115,2.115,0,0,0-.092.363v.054a4.248,4.248,0,0,0-.042.424c0,.1-.008.2-.008.3a28.467,28.467,0,0,0,.816,5.364s2.137,5.452,1.379,6.71h0a.566.566,0,0,1-.151.163,1.5,1.5,0,0,0-.511.947,9.6,9.6,0,0,0,.213,3.373s-.045.075-.122.193a5.844,5.844,0,0,1-.562.755c-.032.036-.065.074-.1.109a2.629,2.629,0,0,1-.3.272c.02.059.041.119.062.184s.048.166.069.257a3.683,3.683,0,0,1-.189,2.222,6.122,6.122,0,0,0-.381,1.6h0a12.215,12.215,0,0,0,.077,3.006c-.023-.012-.042-.024-.065-.035q-2.506-1.31-4.941-2.736c-.476-.275-.949-.556-1.418-.838q-.867-.523-1.727-1.057-1.133-.707-2.266-1.449l-.353-.236-.136-.092c-.192-.128-.381-.257-.571-.387a29.014,29.014,0,0,1-2.136-3.172c-.107-.192-.2-.375-.284-.542v-.009l-.051-.11-.213-.076h0c-.4-.14-.654-.239-.654-.239h0a7.411,7.411,0,0,0,.263-2.069,6.267,6.267,0,0,0-1.938-4.625,7.6,7.6,0,0,1-2.639-5.122v-.151a1.893,1.893,0,0,1,.009-.207l.175-.168c-.444-.089-.861-.13-.861-.13s1.52-5.5,4.079-7.334a12.008,12.008,0,0,0,3.071-3.713,56.272,56.272,0,0,1,4.574-6.705l.461-.582.134-.171.029-.035.036-.048q-.094-.142-.19-.281l-.042-.062a1.537,1.537,0,0,1-.346-.965v-.088a1.162,1.162,0,0,1,.033-.178.171.171,0,0,0,.018.027c.216-.628,1.048-.906,1.662-1.254,1.446-.813,2.062-2.591,2.372-4.245.24-1.287.44-2.73,1.437-3.556.644-.532,1.511-.707,2.162-1.234a4.051,4.051,0,0,0,.918-1.18c.151-.257.281-.523.421-.779a7.864,7.864,0,0,1,2.609-2.941,4.335,4.335,0,0,1,3.766-.5c.473.18.906.453,1.36.654a5.3,5.3,0,0,0,.864.269,15.158,15.158,0,0,1,2.761.657,8.052,8.052,0,0,1,3.163,3.323,15.834,15.834,0,0,1,1.5,2.674v-.1a3.835,3.835,0,0,1,.3,1.39,2.115,2.115,0,0,1-.065.6,1.731,1.731,0,0,1-.94,1.077l-.071.035a3.011,3.011,0,0,1-.293.131c-.015.083-.032.168-.05.249-.008.035-.017.071-.026.106-.02.085-.042.168-.066.251a5.813,5.813,0,0,1-1.813,2.77,6.092,6.092,0,0,1-2.027,1.148c-.053.018-.109.032-.162.048a1.3,1.3,0,0,1-.19.352,1.018,1.018,0,0,1-.205.2,1.249,1.249,0,0,1-.151.088.2.2,0,0,1-.041.02,1.977,1.977,0,0,1-1.813-.313c-.027-.018-.053-.039-.079-.059a1.735,1.735,0,0,1-.029.27c-.015.094-.026.151-.042.23s-.023.116-.033.172-.018.094-.027.137l-.018.077a11.867,11.867,0,0,1-1.683,4.094,5.843,5.843,0,0,1-.382.515l-.375.571v.077a6.5,6.5,0,0,1-.971,3.594,10.479,10.479,0,0,1-.672,1.011l.085.05a8.179,8.179,0,0,0,3.568,1.266s3.988.515,4.45.257c.063-.036.125.014.183.121a9.225,9.225,0,0,1,3.3-1.335,1.287,1.287,0,0,1,1.609,1.208A1.908,1.908,0,0,1,126.082,340.123Z" transform="translate(-79.646 -274.064)" fill="url(#linear-gradient-2)"/>
  <path id="Path_570" data-name="Path 570" d="M139.425,626.871a3.311,3.311,0,0,1,.218,2.9,7.379,7.379,0,0,0-.37,2.908c-.476-.275-.949-.556-1.418-.838q-.867-.523-1.727-1.057-1.133-.707-2.266-1.449l-.353-.236-.136-.092a.287.287,0,0,0-.044-.06,27.434,27.434,0,0,1-2.083-3.19c-.127-.236-.237-.453-.325-.653V625.1a1.271,1.271,0,0,1-.177-.727,1.49,1.49,0,0,1,.733-.906c.87-.453,2.266-.035,3.647.631a25.2,25.2,0,0,1,3.4,2.074l.122.089.012.009c.453.322.716.535.716.535A.732.732,0,0,1,139.425,626.871Z" transform="translate(-114.818 -540.04)" fill="#fbbebe"/>
  <path id="Path_571" data-name="Path 571" d="M137.948,625.549a3.311,3.311,0,0,1,.218,2.908,7.383,7.383,0,0,0-.37,2.909q-.713-.415-1.418-.84-.869-.523-1.727-1.057c-.755-.473-1.511-.956-2.258-1.45l-.353-.236-.136-.092a.326.326,0,0,0-.044-.06,27.161,27.161,0,0,1-2.083-3.19c-.127-.236-.237-.453-.325-.653v-.009a1.275,1.275,0,0,1-.177-.728,1.493,1.493,0,0,1,.733-.906c.87-.453,2.266-.035,3.647.631a25.219,25.219,0,0,1,3.4,2.074l.122.089.012.009c.453.322.716.535.716.535S137.921,625.506,137.948,625.549Z" transform="translate(-113.57 -538.919)" opacity="0.05"/>
  <path id="Path_572" data-name="Path 572" d="M165.919,633.044a3.688,3.688,0,0,1-.213.755,5.972,5.972,0,0,0-.343,1.359h0a12.012,12.012,0,0,0,.012,2.971q-2.506-1.31-4.941-2.736c-.476-.275-.949-.556-1.418-.838a4.361,4.361,0,0,0-.427-1.684,30.066,30.066,0,0,1-2.293-3.5c-.1-.181-.192-.356-.275-.523v-.008c-.032-.066-.062-.13-.091-.193a1.725,1.725,0,0,1-.258-.944,1.744,1.744,0,0,1,.622-.9c1.34-.979,4.125.346,6.264,1.662l.053.032c.4.252.789.5,1.133.734l.2.136c.885.6,1.473,1.074,1.473,1.074a3.216,3.216,0,0,1,.349.722,3.824,3.824,0,0,1,.125.438A3.651,3.651,0,0,1,165.919,633.044Z" transform="translate(-135.98 -542.75)" fill="#fbbebe"/>
  <path id="Path_573" data-name="Path 573" d="M131.245,625.727a15.02,15.02,0,0,0,3.6.906,1.706,1.706,0,0,0,.273-.014h0a31.58,31.58,0,0,1,4.292.21c.7.062,1.382.127,1.943.184l1.408.151v-.544c-.391-.269-.846-.568-1.332-.87-2.147-1.326-4.967-2.681-6.317-1.695-1.9-.918-3.832-1.359-4.381.275A2.94,2.94,0,0,0,131.245,625.727Z" transform="translate(-114.81 -540.006)" opacity="0.1"/>
  <path id="Path_574" data-name="Path 574" d="M99.243,546.157a7.6,7.6,0,0,0,2.521,5.062c2.789,2.719,1.6,6.628,1.6,6.628a21.974,21.974,0,0,0,4.757,1.34,1.706,1.706,0,0,0,.273-.014,51.84,51.84,0,0,1,6.24.394l1.408.151V548.16l-15.4-3.74-1.394,1.39A2.717,2.717,0,0,0,99.243,546.157Z" transform="translate(-88.085 -473.096)" fill="#5c5c8e"/>
  <path id="Path_575" data-name="Path 575" d="M135.46,630.91" transform="translate(-118.833 -546.521)" fill="none"/>
  <g id="Group_113" data-name="Group 113" transform="translate(11.156 71.331)" opacity="0.1">
    <path id="Path_576" data-name="Path 576" d="M174.29,642.387l.252.026v.124l-1.408-.151c-1.409-.142-3.563-.344-4.985-.4A57.076,57.076,0,0,1,174.29,642.387Z" transform="translate(-157.741 -627.239)"/>
    <path id="Path_577" data-name="Path 577" d="M99.249,545.86l1.394-1.39.931.225-1.162,1.165a2.722,2.722,0,0,0,0,.347,7.6,7.6,0,0,0,2.521,5.062c2.789,2.719,1.6,6.627,1.6,6.627a26.283,26.283,0,0,0,4.325,1.3,3.723,3.723,0,0,0-.453.026,1.713,1.713,0,0,1-.273.014,22.036,22.036,0,0,1-4.757-1.341s1.189-3.908-1.6-6.627a7.584,7.584,0,0,1-2.532-5.057A2.721,2.721,0,0,1,99.249,545.86Z" transform="translate(-99.24 -544.47)"/>
  </g>
  <path id="Path_578" data-name="Path 578" d="M303,493.247s4.657-3.23,5-.323-5,2.5-5,2.5Z" transform="translate(-261.065 -428.349)" fill="#fbbebe"/>
  <path id="Path_579" data-name="Path 579" d="M230.747,487.7s2.518,1.662,3.912,1.563c0,0,3.807.511,4.249.255s.715,3.689.715,3.689l-6.255-.443-4.012-.612s-2.006-1.224-2.006-2.278S230.747,487.7,230.747,487.7Z" transform="translate(-196.842 -424.944)" fill="#f7cddd"/>
  <path id="Path_580" data-name="Path 580" d="M230.747,487.7s2.518,1.662,3.912,1.563c0,0,3.807.511,4.249.255s.715,3.689.715,3.689l-6.255-.443-4.012-.612s-2.006-1.224-2.006-2.278S230.747,487.7,230.747,487.7Z" transform="translate(-196.842 -424.944)" fill="#a7a8c2"/>
  <path id="Path_581" data-name="Path 581" d="M267.735,543.31s5.663-.234,4.394,2.4-5.559-.565-5.559-.565Z" transform="translate(-230.138 -472.149)" fill="#fbbebe"/>
  <path id="Path_582" data-name="Path 582" d="M236.58,456.145s4.589-3.434,3.944-7.615-3.944,3.2-3.944,3.2Z" transform="translate(-204.678 -390.602)" fill="#5c5c8e"/>
  <path id="Path_583" data-name="Path 583" d="M245,348.03a5.807,5.807,0,0,0,3.625,5.376,5.209,5.209,0,0,0,.746.248,5.9,5.9,0,0,0,.823.151c.2.02.4.03.6.03a5.718,5.718,0,0,0,1.9-.331,5.8,5.8,0,1,0-7.7-5.474Z" transform="translate(-211.826 -301.443)" fill="#fbbebe"/>
  <path id="Path_584" data-name="Path 584" d="M99.243,546.157c.52.1,1.162.27,1.162.539,0,.453,7.251,2.9,7.251,2.9s-.272.633.453,1.722,6.621,7.343,6.621,7.343l-.02.184-.076.721-.36,3.446a11.9,11.9,0,0,1,2.991-.725.987.987,0,0,0,.724-.338,3.475,3.475,0,0,0-.473-1.159s-.588-.462-1.474-1.074V548.16l-15.4-3.74-1.394,1.39A2.717,2.717,0,0,0,99.243,546.157Z" transform="translate(-88.085 -473.096)" opacity="0.1"/>
  <path id="Path_585" data-name="Path 585" d="M94.94,418.8s1.813.18,1.813.634,7.251,2.9,7.251,2.9-.272.633.453,1.722,6.621,7.343,6.621,7.343l-.453,4.35a11.907,11.907,0,0,1,2.991-.725c.325.041.683-.26.979-.6a6.325,6.325,0,0,0,.654-.932s-.817-3.447.272-4.263-1.178-6.8-1.178-6.8-1.026-4.254-.724-6.079a2.22,2.22,0,0,1,.088-.358.109.109,0,0,1,.014-.041c.647-1.743,7.6-16.367,7.6-16.367a10.411,10.411,0,0,0-.088-1.24c-.014-.115-.032-.234-.054-.353a6.071,6.071,0,0,0-.14-.645c-.039-.139-.082-.272-.131-.4-.215-.553-.544-.977-1.036-.988a3.012,3.012,0,0,0-1.813-.764,7.948,7.948,0,0,0-4.079.764c-4.26,1.813-5.257,1.9-5.257,1.9l-2.142,2.805-.441.577a55.484,55.484,0,0,0-4.367,6.63,11.843,11.843,0,0,1-2.932,3.672C96.392,413.366,94.94,418.8,94.94,418.8Z" transform="translate(-84.434 -346.382)" fill="#a7a8c2"/>
  <path id="Path_586" data-name="Path 586" d="M152.927,482.3s-6.051,1.5-8.4,5.269Z" transform="translate(-126.533 -420.36)" opacity="0.1"/>
  <path id="Path_587" data-name="Path 587" d="M182.784,526.18s-1.144,7.683-.826,8.261S182.784,526.18,182.784,526.18Z" transform="translate(-158.26 -457.612)" opacity="0.1"/>
  <path id="Path_588" data-name="Path 588" d="M189.636,541.423c.441.577,2.228,5.032,2.228,5.032l-.517,7.479-.453,4.35a11.9,11.9,0,0,1,2.992-.725c.323.041.683-.258.979-.6-.471-2.548-1.477-7.879-1.662-7.982a24.945,24.945,0,0,1-1.529-5.61c-.065-1.19-1.769-3.873-1.769-3.873S189.193,540.846,189.636,541.423Z" transform="translate(-164.702 -468.911)" opacity="0.1"/>
  <path id="Path_589" data-name="Path 589" d="M201.617,422.986c.11.34.285,2.311.285,2.311a2.658,2.658,0,0,0,2.254,2.488,2.218,2.218,0,0,1,.088-.358c.544-1.539,7.615-16.408,7.615-16.408a9.762,9.762,0,0,0-.282-2.239,9.02,9.02,0,0,0-3.977.245c-.7-.092-3,4.477-3,4.477s-1.532,3.5-1.7,3.976a8.58,8.58,0,0,0-.068,1.532c-.068.272-.784.508-.885.884s-.035,1.119-.1,1.255A5.467,5.467,0,0,0,201.617,422.986Z" transform="translate(-174.972 -357.816)" opacity="0.1"/>
  <path id="Path_590" data-name="Path 590" d="M205.223,421.194c.112.34.286,2.311.286,2.311a2.567,2.567,0,0,0,1.813,2.361,3.823,3.823,0,0,0,1.088.218l1.094.949,5.047,3.724s1.882-3.474,1.372-3.5-3.455-2.492-3.455-2.492a7.606,7.606,0,0,1-2.222-2.912,2.347,2.347,0,0,0,.054-.3c.183-1.539,3.989-7.432,3.989-7.432a11.149,11.149,0,0,0,2.045-4.943c.017-.072.027-.151.041-.225a2.463,2.463,0,0,0,.03-.3c.068-1.234-.829-1.683-1.9-1.79h0a7.676,7.676,0,0,0-1.662.051,11.979,11.979,0,0,0-1.631.32c-.453-.059-1.58,1.837-2.317,3.18h0c-.4.728-.683,1.3-.683,1.3s-1.539,3.5-1.711,3.977a8.17,8.17,0,0,0-.068,1.532c-.068.273-.784.508-.884.884s-.036,1.119-.1,1.255A5.546,5.546,0,0,0,205.223,421.194Z" transform="translate(-178.034 -356.296)" fill="#a7a8c2"/>
  <path id="Path_591" data-name="Path 591" d="M166.61,358.52a3.468,3.468,0,0,0,3.767.488,25.1,25.1,0,0,0,3.465-2.115c.755-.453,1.547-.835,2.287-1.308h0c.109-.071.214-.142.317-.215.855-.6,1.594-1.379,2.477-1.933a3.855,3.855,0,0,1,1.991-.637,2.256,2.256,0,0,1,.95.2,1.229,1.229,0,0,1,.151.079,4.126,4.126,0,0,1,.8.6c.249.225.489.465.755.674.017-.073.027-.151.041-.225a2.464,2.464,0,0,0,.03-.3c.2.02.4.03.6.03a5.718,5.718,0,0,0,1.908-.338.426.426,0,0,1,.014-.074,4.553,4.553,0,0,1,1.529-2.994,11.029,11.029,0,0,1,2.122-.808,5.8,5.8,0,1,0-10.931.628,7.947,7.947,0,0,0-4.079.764c-4.26,1.813-5.257,1.9-5.257,1.9l-2.13,2.81a2.407,2.407,0,0,1,.517,1.115C167.989,357.629,167.252,358.156,166.61,358.52Z" transform="translate(-145.278 -301.459)" opacity="0.1"/>
  <path id="Path_592" data-name="Path 592" d="M187.714,327.388a4.577,4.577,0,0,0-1.529,2.992,2.353,2.353,0,0,1-.35,1.015c-.488.633-1.47.453-2.107,0a12.483,12.483,0,0,0-1.85-1.464,3.191,3.191,0,0,0-2.94.44c-.884.554-1.624,1.329-2.479,1.932-.826.583-1.748,1-2.609,1.523a24.482,24.482,0,0,1-3.464,2.115,3.467,3.467,0,0,1-3.766-.486c.642-.357,1.379-.884,1.329-1.647s-.94-1.335-.879-2.115.98-1.091,1.64-1.474c1.382-.8,1.964-2.568,2.266-4.2.23-1.273.418-2.7,1.372-3.515.613-.527,1.446-.7,2.063-1.221a6.383,6.383,0,0,0,1.281-1.937,7.692,7.692,0,0,1,2.489-2.911,4.019,4.019,0,0,1,3.6-.491c.453.177.858.453,1.3.645,1.1.477,2.367.414,3.461.915a7.87,7.87,0,0,1,3.021,3.287c.684,1.11,2.023,3.076,1.648,4.511C190.83,326.768,188.712,326.689,187.714,327.388Z" transform="translate(-145.286 -278.938)" fill="#7c5c5c"/>
  <g id="Group_114" data-name="Group 114" transform="translate(21.328 44.387)" opacity="0.1">
    <path id="Path_593" data-name="Path 593" d="M169.584,419.877a.937.937,0,0,1,.032-.177,2.713,2.713,0,0,1,.576,1.208,1.044,1.044,0,0,1-.026.31A2.365,2.365,0,0,1,169.584,419.877Z" transform="translate(-169.128 -411.603)"/>
    <path id="Path_594" data-name="Path 594" d="M170.08,377.537a25.055,25.055,0,0,0,3.464-2.115c.861-.524,1.783-.94,2.609-1.523.855-.6,1.6-1.379,2.479-1.932a3.2,3.2,0,0,1,2.94-.44,12.223,12.223,0,0,1,1.85,1.464c.642.461,1.619.64,2.107.008a2.328,2.328,0,0,0,.35-1.014,4.556,4.556,0,0,1,1.529-2.994c1-.7,3.116-.619,3.5-2.092a2.266,2.266,0,0,0,.05-.8,3.213,3.213,0,0,1,.224,1.887c-.385,1.473-2.5,1.394-3.5,2.092a4.583,4.583,0,0,0-1.529,2.994,2.338,2.338,0,0,1-.349,1.014c-.489.633-1.471.453-2.115-.008a12.306,12.306,0,0,0-1.85-1.464,3.2,3.2,0,0,0-2.94.44c-.884.553-1.624,1.329-2.479,1.932-.826.585-1.748,1-2.609,1.523a24.343,24.343,0,0,1-3.464,2.115,3.468,3.468,0,0,1-3.766-.488,4.7,4.7,0,0,0,.7-.465A4.027,4.027,0,0,0,170.08,377.537Z" transform="translate(-166.58 -366.1)"/>
  </g>
  <path id="Path_595" data-name="Path 595" d="M402.238,303.079l-6.193-6.228a3.289,3.289,0,0,0-4.671-.032l-38.891,38.562-16.444-16.573a3.279,3.279,0,0,0-4.637-.033l-6.26,6.193a3.323,3.323,0,0,0-.032,4.671l24.973,25.169a3.323,3.323,0,0,0,4.671.033l47.45-47.094a3.288,3.288,0,0,0,.035-4.669Z" transform="translate(-279.034 -262.084)" fill="#3acc6c"/>
  <g id="Group_115" data-name="Group 115" transform="translate(109.749 90.93)" opacity="0.5">
    <path id="Path_596" data-name="Path 596" d="M756.051,674.216s-4.619-.278-4.079,2.959a.79.79,0,0,0,.411.831s0-.24.473-.159a2.088,2.088,0,0,0,.5.024,1.038,1.038,0,0,0,.613-.252h0a3.669,3.669,0,0,0,1.8-2.66s.373-.462.358-.581l-.78.334a1.392,1.392,0,0,1,.057,1.029s-.026-1.009-.175-.985c-.03,0-.4.195-.4.195a2.33,2.33,0,0,1,.112,1.692s.131-1.209-.255-1.621l-.548.32a2.425,2.425,0,0,1,.172,1.837,3.431,3.431,0,0,0-.289-1.758l-.5.387a2.372,2.372,0,0,1,.2,1.683s-.039-1.474-.3-1.586a3.016,3.016,0,0,0-.5.542s.344.724.131,1.106c0,0-.131-.983-.239-.986a3.257,3.257,0,0,0-.479,1.1,2.359,2.359,0,0,1,.373-1.159,1.307,1.307,0,0,0-.663.344s.066-.453.77-.5a3.04,3.04,0,0,1,.453-.523,2.839,2.839,0,0,0-1.124.13,1.258,1.258,0,0,1,1.251-.237l.491-.4a4.049,4.049,0,0,0-1.311.012,1.6,1.6,0,0,1,1.444-.1l.535-.319a4.872,4.872,0,0,0-1.254-.109,1.926,1.926,0,0,1,1.411.023l.382-.172s-.576-.113-.745-.13-.177-.065-.177-.065a2,2,0,0,1,1.08.121A4.884,4.884,0,0,0,756.051,674.216Z" transform="translate(-751.928 -674.21)" fill="#a7a8c2"/>
  </g>
  <g id="Group_116" data-name="Group 116" transform="translate(104.74 68.324)" opacity="0.5">
    <path id="Path_597" data-name="Path 597" d="M719.61,524.565s-2.346,3.99.787,4.974a.792.792,0,0,0,.928.012s-.21-.116.072-.494a2.163,2.163,0,0,0,.251-.437,1.058,1.058,0,0,0,.053-.662h0a3.671,3.671,0,0,0-1.551-2.814s-.243-.544-.355-.585l-.057.846a1.4,1.4,0,0,1,.943.417s-.906-.435-.958-.292c-.009.03-.01.453-.01.453a2.305,2.305,0,0,1,1.559.668s-1.015-.665-1.56-.508l.036.634a2.424,2.424,0,0,1,1.716.68,3.439,3.439,0,0,0-1.7-.542l.119.619a2.347,2.347,0,0,1,1.588.588s-1.331-.633-1.55-.453a3.461,3.461,0,0,0,.254.693s.8.021,1.045.385c0,0-.935-.329-.988-.236a3.326,3.326,0,0,0,.755.924,2.365,2.365,0,0,1-.863-.859,1.3,1.3,0,0,0,0,.755s-.379-.269-.1-.906a3.008,3.008,0,0,1-.261-.642,2.865,2.865,0,0,0-.394,1.057,1.263,1.263,0,0,1,.357-1.224L719.6,527a4.091,4.091,0,0,0-.585,1.175,1.6,1.6,0,0,1,.563-1.334l-.042-.621a4.817,4.817,0,0,0-.665,1.066,1.921,1.921,0,0,1,.659-1.246l.021-.418s-.363.462-.453.6-.137.128-.137.128a1.986,1.986,0,0,1,.6-.906A5.045,5.045,0,0,0,719.61,524.565Z" transform="translate(-718.766 -524.56)" fill="#a7a8c2"/>
  </g>
  <g id="Group_117" data-name="Group 117" transform="translate(90.068 36.496)" opacity="0.5">
    <path id="Path_598" data-name="Path 598" d="M622.483,313.863s-2.344,3.991.787,4.974a.789.789,0,0,0,.928.012s-.21-.116.074-.494a2.15,2.15,0,0,0,.249-.437,1.047,1.047,0,0,0,.053-.662h0a3.664,3.664,0,0,0-1.551-2.814s-.243-.542-.355-.583l-.057.844a1.4,1.4,0,0,1,.943.417s-.906-.435-.956-.292c-.011.03-.011.453-.011.453a2.3,2.3,0,0,1,1.557.668s-1.015-.665-1.56-.508l.038.634a2.422,2.422,0,0,1,1.715.68,3.455,3.455,0,0,0-1.7-.542l.119.619a2.348,2.348,0,0,1,1.589.589s-1.332-.634-1.551-.453a3.389,3.389,0,0,0,.255.692s.8.021,1.044.385c0,0-.935-.329-.986-.236a3.274,3.274,0,0,0,.755.924,2.365,2.365,0,0,1-.864-.858,1.31,1.31,0,0,0,0,.746s-.379-.269-.1-.914a3.015,3.015,0,0,1-.261-.642,2.864,2.864,0,0,0-.394,1.057,1.262,1.262,0,0,1,.358-1.224l-.134-.619a4.055,4.055,0,0,0-.583,1.175,1.592,1.592,0,0,1,.562-1.334l-.042-.621a4.817,4.817,0,0,0-.665,1.066,1.917,1.917,0,0,1,.659-1.245l.021-.42s-.363.462-.453.6-.138.128-.138.128a2,2,0,0,1,.6-.906A4.826,4.826,0,0,0,622.483,313.863Z" transform="translate(-621.641 -313.86)" fill="#a7a8c2"/>
  </g>
  <g id="Group_118" data-name="Group 118" transform="translate(35.475 6.274)" opacity="0.5">
    <path id="Path_599" data-name="Path 599" d="M265.161,113.79s-8.731,6.344-2.952,11.37a1.844,1.844,0,0,0,1.973.89s-.341-.444.618-.988a4.92,4.92,0,0,0,.94-.7,2.432,2.432,0,0,0,.73-1.36h0s1.544-2.891-.693-7.462c0,0-.014-1.388-.217-1.58l-.906,1.755a3.261,3.261,0,0,1,1.628,1.77s-1.542-1.781-1.776-1.511c-.047.053-.441.952-.441.952s2.279,1.085,2.711,2.879c0,0-1.553-2.369-2.87-2.541l-.512,1.391s2.464,1.029,3.035,3.053c0,0-1.71-2.417-3.127-2.742l-.32,1.437s2.384,1.05,2.847,2.737c0,0-2.266-2.6-2.9-2.4a7.111,7.111,0,0,0-.1,1.718s1.695.793,1.876,1.8c0,0-1.693-1.574-1.893-1.423a7.62,7.62,0,0,0,.764,2.684,5.523,5.523,0,0,1-1.047-2.64,3.057,3.057,0,0,0-.684,1.6s-.562-.929.645-2.044a7.034,7.034,0,0,1,.042-1.616,6.651,6.651,0,0,0-1.832,1.9s.029-1.335,1.9-2.282l.29-1.449a9.49,9.49,0,0,0-2.341,1.964s.24-1.36,2.444-2.329l.489-1.367a11.419,11.419,0,0,0-2.417,1.662,4.491,4.491,0,0,1,2.568-2.05l.434-.876s-1.208.65-1.533.867-.415.151-.415.151a4.647,4.647,0,0,1,2.124-1.385A11.434,11.434,0,0,0,265.161,113.79Z" transform="translate(-260.232 -113.79)" fill="#a7a8c2"/>
  </g>
  <g id="Group_119" data-name="Group 119" transform="translate(18.878 25.896)" opacity="0.5">
    <path id="Path_600" data-name="Path 600" d="M163.406,245s-11.295-4.749-12.775,3.814a2.085,2.085,0,0,0,.3,2.438s.231-.592,1.323.02a5.615,5.615,0,0,0,1.233.5,2.774,2.774,0,0,0,1.755-.094h0s3.713-.2,6.838-5.06c0,0,1.338-.828,1.406-1.139l-2.24.151a3.716,3.716,0,0,1-.755,2.622s.823-2.544.427-2.615c-.08-.015-1.183.13-1.183.13s.286,2.85-1.208,4.325c0,0,1.387-2.9.782-4.273l-1.651.319s.453,3-1.181,4.742c0,0,1.343-3.082.825-4.647l-1.583.532s.382,2.932-.985,4.381c0,0,1.193-3.718.631-4.23a8.271,8.271,0,0,0-1.728.906s.227,2.115-.644,2.878c0,0,.535-2.568.27-2.674a8.646,8.646,0,0,0-2.159,2.319,6.282,6.282,0,0,1,1.95-2.568,3.463,3.463,0,0,0-1.964.276s.573-1.089,2.364-.573a7.783,7.783,0,0,1,1.594-.906,7.619,7.619,0,0,0-2.92-.662s1.313-.755,3.334.506l1.576-.571a10.738,10.738,0,0,0-3.287-1.118s1.459-.565,3.7,1.006l1.616-.334a12.8,12.8,0,0,0-3.036-1.367,5.082,5.082,0,0,1,3.5,1.292l1.106-.092s-1.338-.789-1.743-.98-.387-.316-.387-.316a5.272,5.272,0,0,1,2.594,1.248A12.8,12.8,0,0,0,163.406,245Z" transform="translate(-150.363 -243.685)" fill="#a7a8c2"/>
  </g>
  <g id="Group_120" data-name="Group 120" transform="translate(14.189 9.094)" opacity="0.5">
    <path id="Path_601" data-name="Path 601" d="M130.289,138.581s-4-9.255-9.761-5.011a1.713,1.713,0,0,0-1.208,1.616s.474-.221.773.766a4.69,4.69,0,0,0,.453,1,2.275,2.275,0,0,0,1.1.944h0s2.32,2,6.949.89a4.53,4.53,0,0,0,1.485.125l-1.415-1.189a3.04,3.04,0,0,1-1.946,1.124s1.938-1.042,1.743-1.31c-.039-.054-.776-.6-.776-.6s-1.455,1.855-3.172,1.884c0,0,2.476-.934,2.9-2.092l-1.163-.755s-1.461,2.044-3.423,2.151c0,0,2.553-1.065,3.137-2.292l-1.243-.579s-1.444,1.964-3.077,2.038c0,0,2.826-1.529,2.782-2.153a6.564,6.564,0,0,0-1.545-.441s-1.068,1.382-2.021,1.343c0,0,1.781-1.222,1.683-1.435a7.074,7.074,0,0,0-2.6.151,5.155,5.155,0,0,1,2.621-.414,2.83,2.83,0,0,0-1.322-.952s.962-.322,1.731,1a6.575,6.575,0,0,1,1.465.369,6.179,6.179,0,0,0-1.36-2.057s1.208.3,1.693,2.2l1.261.56a8.792,8.792,0,0,0-1.316-2.536s1.189.5,1.624,2.7l1.147.724a10.6,10.6,0,0,0-1.023-2.542,4.19,4.19,0,0,1,1.344,2.763l.71.574s-.347-1.23-.479-1.574-.048-.408-.048-.408a4.343,4.343,0,0,1,.829,2.218A10.37,10.37,0,0,0,130.289,138.581Z" transform="translate(-119.32 -132.456)" fill="#a7a8c2"/>
  </g>
  <g id="Group_121" data-name="Group 121" transform="translate(98.585 16.618)" opacity="0.5">
    <path id="Path_602" data-name="Path 602" d="M682.642,185.684s-.944-4.532-3.928-3.156a.789.789,0,0,0-.695.615s.234-.056.278.415a2.17,2.17,0,0,0,.107.491,1.057,1.057,0,0,0,.406.526h0a3.664,3.664,0,0,0,3.038,1.042s.545.239.657.193l-.527-.665a1.394,1.394,0,0,1-.977.325s.967-.289.906-.427c-.014-.029-.295-.34-.295-.34a2.3,2.3,0,0,1-1.6.553s1.2-.19,1.5-.672l-.453-.446a2.423,2.423,0,0,1-1.728.648,3.444,3.444,0,0,0,1.622-.739l-.5-.378a2.373,2.373,0,0,1-1.573.63s1.412-.426,1.45-.71a3.011,3.011,0,0,0-.654-.341s-.6.523-1.032.417c0,0,.906-.384.89-.489a3.255,3.255,0,0,0-1.184-.174,2.373,2.373,0,0,1,1.216.056,1.3,1.3,0,0,0-.506-.55s.462-.056.686.6a2.963,2.963,0,0,1,.624.3,2.908,2.908,0,0,0-.42-1.057,1.264,1.264,0,0,1,.557,1.147l.515.369a4.05,4.05,0,0,0-.357-1.263,1.59,1.59,0,0,1,.479,1.36l.453.432a4.844,4.844,0,0,0-.224-1.237,1.915,1.915,0,0,1,.347,1.36l.266.325s-.041-.585-.068-.755.015-.189.015-.189a2,2,0,0,1,.168,1.076A5.059,5.059,0,0,0,682.642,185.684Z" transform="translate(-678.02 -182.268)" fill="#a7a8c2"/>
  </g>
  <g id="Group_122" data-name="Group 122" transform="translate(82.326 100.624)" opacity="0.5">
    <path id="Path_603" data-name="Path 603" d="M575.014,741.8s-.943-4.532-3.927-3.156a.79.79,0,0,0-.7.615s.234-.056.278.415a2.087,2.087,0,0,0,.109.491,1.058,1.058,0,0,0,.4.526h0a3.666,3.666,0,0,0,3.039,1.042s.545.239.656.193l-.526-.665a1.4,1.4,0,0,1-.979.325s.967-.289.906-.428c-.012-.029-.295-.34-.295-.34a2.305,2.305,0,0,1-1.6.553s1.2-.19,1.5-.672l-.453-.453a2.378,2.378,0,0,1-1.722.646,3.444,3.444,0,0,0,1.622-.739l-.5-.378a2.368,2.368,0,0,1-1.571.63s1.412-.424,1.45-.71a3.046,3.046,0,0,0-.654-.341s-.6.523-1.033.417c0,0,.906-.384.89-.489a3.254,3.254,0,0,0-1.184-.174,2.378,2.378,0,0,1,1.218.056,1.306,1.306,0,0,0-.506-.55s.461-.056.684.6a2.964,2.964,0,0,1,.625.3,2.906,2.906,0,0,0-.42-1.057,1.261,1.261,0,0,1,.556,1.147l.517.369a4.065,4.065,0,0,0-.358-1.263,1.588,1.588,0,0,1,.48,1.359l.453.432a4.8,4.8,0,0,0-.225-1.237,1.911,1.911,0,0,1,.349,1.36l.266.325s-.042-.585-.069-.755.015-.187.015-.187a1.99,1.99,0,0,1,.168,1.074A5.669,5.669,0,0,0,575.014,741.8Z" transform="translate(-570.39 -738.388)" fill="#a7a8c2"/>
  </g>
</svg>
