<svg xmlns="http://www.w3.org/2000/svg" width="458.825" height="201.389" viewBox="0 0 458.825 201.389"><defs><style>.a{fill:#3f3d56;}.b{fill:#ff6584;}.c,.e{fill:tomato;}.d{opacity:0.1;}.e{opacity:0.4;}.f{fill:#ccc;}.g{fill:#f2f2f2;}</style></defs><g transform="translate(0 -7.667)"><path class="a" d="M174.6,494.844l-.787-.177a179.222,179.222,0,0,1,349.509-.476l-.787.179c-18.585-81.6-90.1-138.59-173.914-138.59C265.906,355.779,192.72,414.264,174.6,494.844Z" transform="translate(-116.384 -288.791)"/><circle class="b" cx="21.918" cy="21.918" r="21.918" transform="translate(341.12 66.821)"/><rect class="a" width="0.807" height="31.88" transform="translate(353.905 176.37)"/><path class="c" d="M905.65,608.316c.051,11.148-7.792,20.221-7.792,20.221s-7.926-9-7.978-20.148,7.792-20.221,7.792-20.221S905.6,597.168,905.65,608.316Z" transform="translate(-543.489 -427.883)"/><path class="d" d="M905.65,608.316c.051,11.148-7.792,20.221-7.792,20.221s-7.926-9-7.978-20.148,7.792-20.221,7.792-20.221S905.6,597.168,905.65,608.316Z" transform="translate(-543.489 -427.883)"/><circle class="e" cx="12.61" cy="12.61" r="12.61" transform="translate(189.573 87.768)"/><circle class="e" cx="8.846" cy="8.846" r="8.846" transform="translate(169.999 97.554)"/><circle class="e" cx="8.846" cy="8.846" r="8.846" transform="translate(75.167 122.977)"/><circle class="e" cx="12.61" cy="12.61" r="12.61" transform="translate(332.947 86.73)"/><path class="a" d="M87.825,690.767a8.122,8.122,0,0,0,3.025,4.092,6.993,6.993,0,0,0-2.475-9.151A8.122,8.122,0,0,0,87.825,690.767Z" transform="translate(-64.973 -486.062)"/><path class="c" d="M83.691,693.973a8.122,8.122,0,0,1,2.1,4.633A6.993,6.993,0,0,1,79,691.993,8.122,8.122,0,0,1,83.691,693.973Z" transform="translate(-59.834 -489.811)"/><path class="a" d="M699.825,690.767a8.122,8.122,0,0,0,3.025,4.092,6.993,6.993,0,0,0-2.475-9.151A8.122,8.122,0,0,0,699.825,690.767Z" transform="translate(-430.006 -486.062)"/><path class="c" d="M695.691,693.973a8.122,8.122,0,0,1,2.1,4.633A6.993,6.993,0,0,1,691,691.993,8.122,8.122,0,0,1,695.691,693.973Z" transform="translate(-424.867 -489.811)"/><path class="a" d="M65.669,436.349,64,433.566,79.582,420.21h40.069v3.9l-14.469,15.583-16.7,3.339Z" transform="translate(-38.173 -250.638)"/><path class="f" d="M181.66,426.763v-8.707h-5.246V420.8l-1.651-1.876-13.356,13.356-2.226,2.226-2.782,11.13,5.009,12.243h25.6V432.838Z" transform="translate(-93.285 -249.354)"/><rect class="g" width="42.295" height="25.6" transform="translate(25.827 182.928)"/><rect class="a" width="8.904" height="7.791" transform="translate(53.374 190.997)"/><rect class="f" width="7.791" height="17.808" transform="translate(41.965 190.719)"/><path class="a" d="M76.993,475.4v-2.782H73.654V475.4h3.339Z" transform="translate(-43.932 -281.896)"/><path class="a" d="M76.714,485.026h-3.06v2.783h3.339v-2.783Z" transform="translate(-43.932 -289.299)"/><rect class="a" width="3.339" height="2.783" transform="translate(35.287 190.719)"/><rect class="a" width="3.339" height="2.783" transform="translate(35.287 195.728)"/><path class="a" d="M193.524,476.087V473.3h-3.339v2.783h3.339Z" transform="translate(-113.438 -282.307)"/><path class="a" d="M193.246,485.716h-3.061V488.5h3.339v-2.782Z" transform="translate(-113.438 -289.71)"/><rect class="a" width="3.339" height="2.783" transform="translate(82.313 190.997)"/><rect class="a" width="3.339" height="2.783" transform="translate(82.313 196.006)"/><path class="a" d="M464.669,436.349,463,433.566l15.582-13.356h40.069v3.9l-14.469,15.583-16.7,3.339Z" transform="translate(-276.161 -250.638)"/><path class="f" d="M580.66,426.763v-8.707h-5.246V420.8l-1.651-1.876-13.356,13.356-2.226,2.226-2.782,11.13,5.009,12.243h25.6V432.838Z" transform="translate(-331.273 -249.354)"/><rect class="g" width="42.295" height="25.6" transform="translate(186.839 182.928)"/><rect class="a" width="8.904" height="7.791" transform="translate(214.386 190.997)"/><rect class="f" width="7.791" height="17.808" transform="translate(202.978 190.719)"/><path class="a" d="M475.993,475.4v-2.782h-3.339V475.4h3.339Z" transform="translate(-281.919 -281.896)"/><path class="a" d="M475.714,485.026h-3.06v2.783h3.339v-2.783Z" transform="translate(-281.919 -289.299)"/><rect class="a" width="3.339" height="2.783" transform="translate(196.3 190.719)"/><rect class="a" width="3.339" height="2.783" transform="translate(196.3 195.728)"/><path class="a" d="M592.524,476.087V473.3h-3.339v2.783h3.339Z" transform="translate(-351.425 -282.307)"/><path class="a" d="M592.246,485.716h-3.061V488.5h3.339v-2.782Z" transform="translate(-351.425 -289.71)"/><rect class="a" width="3.339" height="2.783" transform="translate(243.325 190.997)"/><rect class="a" width="3.339" height="2.783" transform="translate(243.325 196.006)"/><path class="a" d="M276.4,320.506l-2.782-2.226L289.2,304.367h39.512V316.61l-25.6,17.252Z" transform="translate(-163.203 -181.543)"/><path class="f" d="M379.551,312.171v-7.526h-5.246v1.843l-1.958-2.121-12.8,13.913-5.008,3.339-7.766,56.739,11.712,11.712H385.7V318.836Z" transform="translate(-206.836 -181.543)"/><rect class="g" width="42.295" height="71.79" transform="translate(110.416 136.737)"/><rect class="f" width="7.791" height="17.53" transform="translate(126.834 190.997)"/><path class="a" d="M288.681,481.6v-2.782h-3.339V481.6h3.339Z" transform="translate(-170.195 -285.598)"/><path class="a" d="M288.4,491.232h-3.061v2.783h3.339v-2.783Z" transform="translate(-170.195 -293)"/><rect class="a" width="3.339" height="2.783" transform="translate(120.712 193.223)"/><rect class="a" width="3.339" height="2.783" transform="translate(120.712 198.232)"/><path class="a" d="M345.223,481.6v-2.782h-3.339V481.6h3.339Z" transform="translate(-203.92 -285.598)"/><path class="a" d="M344.945,491.232h-3.061v2.783h3.339v-2.783Z" transform="translate(-203.92 -293)"/><rect class="a" width="3.339" height="2.783" transform="translate(143.529 193.223)"/><rect class="a" width="3.339" height="2.783" transform="translate(143.529 198.232)"/><path class="a" d="M403.144,343.7v-2.782H399.8V343.7h3.339Z" transform="translate(-238.468 -203.341)"/><path class="a" d="M402.866,353.325H399.8v2.782h3.339v-2.782Z" transform="translate(-238.468 -210.744)"/><rect class="a" width="3.339" height="2.783" transform="translate(166.903 137.572)"/><rect class="a" width="3.339" height="2.783" transform="translate(166.903 142.581)"/><path class="a" d="M403.144,382.31v-2.783H399.8v2.783h3.339Z" transform="translate(-238.468 -226.373)"/><path class="a" d="M402.866,391.939H399.8v2.782h3.339v-2.782Z" transform="translate(-238.468 -233.776)"/><rect class="a" width="3.339" height="2.783" transform="translate(166.903 153.154)"/><rect class="a" width="3.339" height="2.783" transform="translate(166.903 158.163)"/><path class="a" d="M403.144,420.924v-2.783H399.8v2.783h3.339Z" transform="translate(-238.468 -249.404)"/><path class="a" d="M402.866,430.553H399.8v2.782h3.339v-2.782Z" transform="translate(-238.468 -256.808)"/><rect class="a" width="3.339" height="2.783" transform="translate(166.903 168.737)"/><rect class="a" width="3.339" height="2.783" transform="translate(166.903 173.745)"/><path class="a" d="M403.144,459.538v-2.783H399.8v2.783h3.339Z" transform="translate(-238.468 -272.436)"/><path class="a" d="M402.866,469.167H399.8v2.782h3.339v-2.782Z" transform="translate(-238.468 -279.839)"/><rect class="a" width="3.339" height="2.783" transform="translate(166.903 184.319)"/><rect class="a" width="3.339" height="2.783" transform="translate(166.903 189.328)"/><rect class="a" width="32.278" height="6.678" transform="translate(115.147 140.355)"/><rect class="a" width="32.278" height="6.678" transform="translate(115.147 153.711)"/><rect class="a" width="32.278" height="6.678" transform="translate(115.147 167.067)"/><rect class="a" width="32.278" height="6.678" transform="translate(115.147 180.424)"/><path class="a" d="M679.4,320.506l-2.782-2.226L692.2,304.367h39.512V316.61l-25.6,17.252Z" transform="translate(-403.577 -181.543)"/><path class="f" d="M782.551,312.171v-7.526h-5.246v1.843l-1.958-2.121-12.8,13.913-5.008,3.339-7.766,56.739,11.712,11.712H788.7V318.836Z" transform="translate(-447.21 -181.543)"/><rect class="g" width="42.295" height="71.79" transform="translate(273.043 136.737)"/><rect class="f" width="7.791" height="17.53" transform="translate(289.46 190.997)"/><path class="a" d="M691.681,481.6v-2.782h-3.339V481.6h3.339Z" transform="translate(-410.568 -285.598)"/><path class="a" d="M691.4,491.232h-3.061v2.783h3.339v-2.783Z" transform="translate(-410.568 -293)"/><rect class="a" width="3.339" height="2.783" transform="translate(283.339 193.223)"/><rect class="a" width="3.339" height="2.783" transform="translate(283.339 198.232)"/><path class="a" d="M748.223,481.6v-2.782h-3.339V481.6h3.339Z" transform="translate(-444.293 -285.598)"/><path class="a" d="M747.945,491.232h-3.061v2.783h3.339v-2.783Z" transform="translate(-444.293 -293)"/><rect class="a" width="3.339" height="2.783" transform="translate(306.156 193.223)"/><rect class="a" width="3.339" height="2.783" transform="translate(306.156 198.232)"/><path class="a" d="M806.144,343.7v-2.782H802.8V343.7h3.339Z" transform="translate(-478.841 -203.341)"/><path class="a" d="M805.866,353.325H802.8v2.782h3.339v-2.782Z" transform="translate(-478.841 -210.744)"/><rect class="a" width="3.339" height="2.783" transform="translate(329.529 137.572)"/><rect class="a" width="3.339" height="2.783" transform="translate(329.529 142.581)"/><path class="a" d="M806.144,382.31v-2.783H802.8v2.783h3.339Z" transform="translate(-478.841 -226.373)"/><path class="a" d="M805.866,391.939H802.8v2.782h3.339v-2.782Z" transform="translate(-478.841 -233.776)"/><rect class="a" width="3.339" height="2.783" transform="translate(329.529 153.154)"/><rect class="a" width="3.339" height="2.783" transform="translate(329.529 158.163)"/><path class="a" d="M806.144,420.924v-2.783H802.8v2.783h3.339Z" transform="translate(-478.841 -249.404)"/><path class="a" d="M805.866,430.553H802.8v2.782h3.339v-2.782Z" transform="translate(-478.841 -256.808)"/><rect class="a" width="3.339" height="2.783" transform="translate(329.529 168.737)"/><rect class="a" width="3.339" height="2.783" transform="translate(329.529 173.745)"/><path class="a" d="M806.144,459.538v-2.783H802.8v2.783h3.339Z" transform="translate(-478.841 -272.436)"/><path class="a" d="M805.866,469.167H802.8v2.782h3.339v-2.782Z" transform="translate(-478.841 -279.839)"/><rect class="a" width="3.339" height="2.783" transform="translate(329.529 184.319)"/><rect class="a" width="3.339" height="2.783" transform="translate(329.529 189.328)"/><rect class="a" width="32.278" height="6.678" transform="translate(277.774 140.355)"/><rect class="a" width="32.278" height="6.678" transform="translate(277.774 153.711)"/><rect class="a" width="32.278" height="6.678" transform="translate(277.774 167.067)"/><rect class="a" width="32.278" height="6.678" transform="translate(277.774 180.424)"/><path class="a" d="M900.4,320.506l-2.782-2.226L913.2,304.367h39.512V316.61l-25.6,17.252Z" transform="translate(-535.394 -181.543)"/><path class="f" d="M1003.551,312.171v-7.526h-5.246v1.843l-1.958-2.121-12.8,13.913-5.008,3.339-7.766,56.739,11.712,11.712H1009.7V318.836Z" transform="translate(-579.027 -181.543)"/><rect class="g" width="42.295" height="71.79" transform="translate(362.226 136.737)"/><rect class="f" width="7.791" height="17.53" transform="translate(378.643 190.997)"/><path class="a" d="M912.681,481.6v-2.782h-3.339V481.6h3.339Z" transform="translate(-542.386 -285.598)"/><path class="a" d="M912.4,491.232h-3.061v2.783h3.339v-2.783Z" transform="translate(-542.386 -293)"/><rect class="a" width="3.339" height="2.783" transform="translate(372.521 193.223)"/><rect class="a" width="3.339" height="2.783" transform="translate(372.521 198.232)"/><path class="a" d="M969.223,481.6v-2.782h-3.339V481.6h3.339Z" transform="translate(-576.111 -285.598)"/><path class="a" d="M968.945,491.232h-3.061v2.783h3.339v-2.783Z" transform="translate(-576.111 -293)"/><rect class="a" width="3.339" height="2.783" transform="translate(395.338 193.223)"/><rect class="a" width="3.339" height="2.783" transform="translate(395.338 198.232)"/><path class="a" d="M1027.144,343.7v-2.782H1023.8V343.7h3.339Z" transform="translate(-610.659 -203.341)"/><path class="a" d="M1026.866,353.325H1023.8v2.782h3.339v-2.782Z" transform="translate(-610.659 -210.744)"/><rect class="a" width="3.339" height="2.783" transform="translate(418.712 137.572)"/><rect class="a" width="3.339" height="2.783" transform="translate(418.712 142.581)"/><path class="a" d="M1027.144,382.31v-2.783H1023.8v2.783h3.339Z" transform="translate(-610.659 -226.373)"/><path class="a" d="M1026.866,391.939H1023.8v2.782h3.339v-2.782Z" transform="translate(-610.659 -233.776)"/><rect class="a" width="3.339" height="2.783" transform="translate(418.712 153.154)"/><rect class="a" width="3.339" height="2.783" transform="translate(418.712 158.163)"/><path class="a" d="M1027.144,420.924v-2.783H1023.8v2.783h3.339Z" transform="translate(-610.659 -249.404)"/><path class="a" d="M1026.866,430.553H1023.8v2.782h3.339v-2.782Z" transform="translate(-610.659 -256.808)"/><rect class="a" width="3.339" height="2.783" transform="translate(418.712 168.737)"/><rect class="a" width="3.339" height="2.783" transform="translate(418.712 173.745)"/><path class="a" d="M1027.144,459.538v-2.783H1023.8v2.783h3.339Z" transform="translate(-610.659 -272.436)"/><path class="a" d="M1026.866,469.167H1023.8v2.782h3.339v-2.782Z" transform="translate(-610.659 -279.839)"/><rect class="a" width="3.339" height="2.783" transform="translate(418.712 184.319)"/><rect class="a" width="3.339" height="2.783" transform="translate(418.712 189.328)"/><rect class="a" width="32.278" height="6.678" transform="translate(366.956 140.355)"/><rect class="a" width="32.278" height="6.678" transform="translate(366.956 153.711)"/><rect class="a" width="32.278" height="6.678" transform="translate(366.956 167.067)"/><rect class="a" width="32.278" height="6.678" transform="translate(366.956 180.424)"/><rect class="a" width="458.825" height="0.807" transform="translate(0 208.25)"/><rect class="a" width="0.807" height="31.88" transform="translate(101.692 176.37)"/><path class="c" d="M280.65,608.316c.051,11.148-7.792,20.221-7.792,20.221s-7.926-9-7.978-20.148,7.791-20.221,7.791-20.221S280.6,597.168,280.65,608.316Z" transform="translate(-170.702 -427.883)"/><rect class="a" width="0.807" height="31.88" transform="translate(182.4 176.37)"/><path class="c" d="M480.65,608.316c.051,11.148-7.792,20.221-7.792,20.221s-7.926-9-7.978-20.148,7.792-20.221,7.792-20.221S480.6,597.168,480.65,608.316Z" transform="translate(-289.994 -427.883)"/><rect class="a" width="0.807" height="31.88" transform="translate(343.413 176.37)"/><path class="c" d="M879.65,608.316c.051,11.148-7.792,20.221-7.792,20.221s-7.926-9-7.978-20.148,7.792-20.221,7.792-20.221S879.6,597.168,879.65,608.316Z" transform="translate(-527.981 -427.883)"/><ellipse class="c" cx="15.335" cy="3.45" rx="15.335" ry="3.45" transform="translate(221.745 62.529)"/><circle class="g" cx="10.089" cy="10.089" r="10.089" transform="translate(226.588 7.667)"/></g></svg>