<svg id="undraw_personal_trainer_ote3_1_" data-name="undraw_personal_trainer_ote3 (1)" xmlns="http://www.w3.org/2000/svg" xmlns:xlink="http://www.w3.org/1999/xlink" width="196" height="146" viewBox="0 0 196 146">
  <defs>
    <linearGradient id="linear-gradient" x1="0.5" y1="1" x2="0.5" gradientUnits="objectBoundingBox">
      <stop offset="0" stop-color="gray" stop-opacity="0.251"/>
      <stop offset="0.54" stop-color="gray" stop-opacity="0.122"/>
      <stop offset="1" stop-color="gray" stop-opacity="0.102"/>
    </linearGradient>
  </defs>
  <path id="Path_815" data-name="Path 815" d="M137.818,88.521c-12.565-.489-24.531-5-35.952-9.938S79.119,68.169,66.855,65.552c-7.9-1.683-16.919-1.92-23.274,2.789-6.116,4.529-8.093,12.349-9.154,19.6-.8,5.459-1.269,11.205.92,16.314,1.521,3.548,4.221,6.53,6.089,9.929,6.5,11.822,1.909,26.4-5.136,37.95-3.3,5.415-7.135,10.582-9.683,16.348s-3.727,12.371-1.5,18.252c2.212,5.828,7.477,10.207,13.183,13.286,11.589,6.248,25.244,8.045,38.56,9.06,29.477,2.244,59.11,1.272,88.665.3,10.937-.36,21.924-.725,32.682-2.607,5.976-1.045,12.145-2.7,16.483-6.71a16.564,16.564,0,0,0,3.181-20.07c-6.189-10.694-23.307-13.348-27.629-24.826-2.382-6.316.065-13.354,3.525-19.212,7.424-12.568,19.867-23.594,20.523-37.961.449-9.867-5.532-19.746-14.782-24.425-9.7-4.893-23.136-4.277-30.29,3.823C161.856,85.742,148.913,88.951,137.818,88.521Z" transform="translate(-23.941 -64.45)" fill="tomato" opacity="0.1"/>
  <g id="Group_131" data-name="Group 131" transform="translate(78.253 77.382)" opacity="0.5">
    <path id="Path_816" data-name="Path 816" d="M468.57,402.58l-5.793.12-.947,1.3v4.493l1.183.828h5.558l1.183-1.3v-4.258Z" transform="translate(-461.83 -402.575)" fill="tomato"/>
    <path id="Path_817" data-name="Path 817" d="M496.333,467.715s-5.321.828-5.793,0l.119-.59,5.674-.125Z" transform="translate(-489.714 -467)" fill="#fff" opacity="0.2"/>
    <path id="Path_818" data-name="Path 818" d="M495.241,542.084l.945.947v4.5l-.945.932s-3.428,1.183-5.676.235l-1.065-1.063v-4.5l.947-1.065Z" transform="translate(-488.027 -529.072)" fill="tomato"/>
    <path id="Path_819" data-name="Path 819" d="M499.526,543.215s-4.138.945-5.556,0V542.15h5.793Z" transform="translate(-492.55 -529.138)" fill="#fff" opacity="0.2"/>
    <path id="Path_820" data-name="Path 820" d="M504.858,501.443v6.4a.959.959,0,0,1-1,.907h0a.959.959,0,0,1-1-.907v-6.4a.971.971,0,0,1,1.122-.9h0A.945.945,0,0,1,504.858,501.443Z" transform="translate(-499.893 -494.728)" fill="tomato"/>
    <path id="Path_821" data-name="Path 821" d="M522.161,403.64l-5.793.118-.947,1.3v4.493l1.183.828h5.558l1.183-1.3v-4.258Z" transform="translate(-506.141 -403.451)" fill="tomato"/>
    <path id="Path_822" data-name="Path 822" d="M549.933,468.8s-5.321.828-5.793,0l.118-.59,5.676-.118Z" transform="translate(-534.034 -467.901)" fill="#fff" opacity="0.2"/>
    <path id="Path_823" data-name="Path 823" d="M548.811,543.2l.945.947v4.5l-.945.937s-3.43,1.183-5.676.235l-1.065-1.063v-4.493l.947-1.065Z" transform="translate(-532.322 -530.006)" fill="tomato"/>
    <path id="Path_824" data-name="Path 824" d="M553.116,544.265s-4.138.945-5.556,0V543.2h5.79Z" transform="translate(-536.861 -530.006)" fill="#fff" opacity="0.2"/>
    <path id="Path_825" data-name="Path 825" d="M558.4,502.493v6.4a.961.961,0,0,1-1,.907h0a.961.961,0,0,1-1.006-.907v-6.4a.972.972,0,0,1,1.124-.9h0A.946.946,0,0,1,558.4,502.493Z" transform="translate(-544.162 -495.596)" fill="tomato"/>
    <path id="Path_826" data-name="Path 826" d="M596.069,423.39l-4.77.1-.779,1.07v3.7l.973.682h4.576l.973-1.072v-3.5Z" transform="translate(-568.238 -419.782)" fill="tomato"/>
    <path id="Path_827" data-name="Path 827" d="M623.168,488.425s-4.379.681-4.768,0l.1-.487,4.675-.1Z" transform="translate(-595.436 -484.232)" fill="#fff" opacity="0.2"/>
    <path id="Path_828" data-name="Path 828" d="M622.241,549.68l.779.779v3.7l-.779.779s-2.822.973-4.675.194l-.876-.876v-3.7l.779-.876Z" transform="translate(-594.022 -535.364)" fill="tomato"/>
    <path id="Path_829" data-name="Path 829" d="M625.784,550.556s-3.407.779-4.574,0v-.876h4.768Z" transform="translate(-597.759 -535.364)" fill="#fff" opacity="0.2"/>
    <path id="Path_830" data-name="Path 830" d="M630.174,516.146v5.265a.789.789,0,0,1-.828.746h0a.788.788,0,0,1-.826-.746v-5.265a.8.8,0,0,1,.923-.743h0a.779.779,0,0,1,.731.743Z" transform="translate(-603.803 -507.015)" fill="tomato"/>
    <path id="Path_831" data-name="Path 831" d="M640.188,424.26l-4.77.1-.777,1.07v3.7l.973.68h4.574l.973-1.07v-3.5Z" transform="translate(-604.719 -420.501)" fill="tomato"/>
    <path id="Path_832" data-name="Path 832" d="M667.28,489.293s-4.381.682-4.77,0l.1-.487,4.675-.1Z" transform="translate(-631.908 -484.951)" fill="#fff" opacity="0.2"/>
    <path id="Path_833" data-name="Path 833" d="M666.369,550.55l.777.777v3.7l-.777.779s-2.824.973-4.675.2l-.874-.871v-3.7l.779-.876Z" transform="translate(-630.511 -536.084)" fill="tomato"/>
    <path id="Path_834" data-name="Path 834" d="M669.894,551.426s-3.406.777-4.574,0v-.876h4.77Z" transform="translate(-634.232 -536.084)" fill="#fff" opacity="0.2"/>
    <path id="Path_835" data-name="Path 835" d="M674.285,517.036V522.3a.79.79,0,0,1-.828.746h0a.79.79,0,0,1-.828-.746v-5.264a.8.8,0,0,1,.925-.741h0A.777.777,0,0,1,674.285,517.036Z" transform="translate(-640.276 -507.756)" fill="tomato"/>
  </g>
  <path id="Path_836" data-name="Path 836" d="M246.863,247.788a2.924,2.924,0,0,0-1.765-1.477,5.673,5.673,0,0,0-2.219-.159,17.316,17.316,0,0,0-3.551.668,3.573,3.573,0,0,0-1.956,1.162c-.014.019-.029.043-.044.062-.745.223-1.485.565-2.206.844a18.717,18.717,0,0,1-2.206.683,13.22,13.22,0,0,0,2.73-2.2,8.64,8.64,0,0,0,1.018-1.386,3.56,3.56,0,0,0,1.7.13,6.065,6.065,0,0,0,2.94-2.075l2.777-2.915a6.252,6.252,0,0,0,1.188-1.549,6.817,6.817,0,0,0,.445-2.819c.014-1.328,0-2.656-.034-3.982l.879.774a9.973,9.973,0,0,1,.77-4.755,5.785,5.785,0,0,0,.714-2.189,3.282,3.282,0,0,0-1.841-2.71,10.577,10.577,0,0,1-2.762-1.709c-1.144-1.229-1.357-3.19-1.922-4.875a20.537,20.537,0,0,0-1.188-2.666l-1.1-2.188a31.919,31.919,0,0,0-1.846-3.328,28.9,28.9,0,0,0-4.014-4.544l-7.438-7.312a72.469,72.469,0,0,0-5.58-5.117c-3.969-3.157-8.446-5.326-12.895-7.473a7.38,7.38,0,0,0-3.5-1.026,3.772,3.772,0,0,0-2.45,1.2,13.574,13.574,0,0,1-1.866-.809l-.048-.025c.014-.114.029-.226.039-.341.015-.151.024-.3.034-.455a2.852,2.852,0,0,0,.96-.358,1.187,1.187,0,0,0,.4-.35,1.781,1.781,0,0,0,.2-.858,43.836,43.836,0,0,0,.126-6.079,14.207,14.207,0,0,0-1.527-5.763,2.816,2.816,0,0,0-1.157-1.278c-.679-.31-1.464-.021-2.189-.161-1.254-.242-2.036-1.642-2.944-2.673a6.482,6.482,0,0,0-8.872-.891,27.634,27.634,0,0,0-2.7,2.854,5.852,5.852,0,0,1-3.156,2.017,1.392,1.392,0,0,0-.64.194,1.546,1.546,0,0,0-.455.838,16.53,16.53,0,0,0-.769,3.367c-.012-.07-.022-.139-.032-.209a7.49,7.49,0,0,0-.029,1.28,4.131,4.131,0,0,0,.4,1.549,1.972,1.972,0,0,0,.928,1.011,2.246,2.246,0,0,0,.894.165h.134c-.049.149-.1.3-.141.449a13.987,13.987,0,0,0-.568,3.971c0,6.776,4.739,12.266,10.589,12.266a9.3,9.3,0,0,0,2.1-.252c.229.083.458.168.679.259a11.84,11.84,0,0,1,1.327.6c.183.1.925.592,1.821,1.229h0l-.061.145a8.409,8.409,0,0,0-1.949,7.44c.648,2.879,2.774,5.347,2.56,8.311a5.78,5.78,0,0,0-.046,1.268,3.183,3.183,0,0,0,.775,1.483c.3.376.609.74.925,1.1-.025,1.891-.17,3.781-.326,5.666-.014.165-.017.331-.019.5a3.784,3.784,0,0,0,.733,2.22,3.987,3.987,0,0,1,.6,2.621,19.928,19.928,0,0,1-1.077,3.736c-1.707,5.581.39,11.875-.791,17.638a28.074,28.074,0,0,0-.848,4.259,9.083,9.083,0,0,1-.221,2.71,4.955,4.955,0,0,1-1.345,1.773q-1.111,1.086-2.165,2.246a28.456,28.456,0,0,0-3.281-1.762,5.4,5.4,0,0,0-.56-.221,24.091,24.091,0,0,0-4.571-3.365c-1.3-.862-2.545-1.829-3.794-2.8a21.915,21.915,0,0,1-3.405-3.061c-.509-.6-.962-1.27-1.51-1.822a13.019,13.019,0,0,0-1.527-1.247,62.821,62.821,0,0,1-6.868-5.895c-1.651-1.634-3-3.738-4.766-5.2a5.088,5.088,0,0,0-3.661-1.549,3.188,3.188,0,0,0-1.206.424,2.832,2.832,0,0,0-1.106-.283A5.245,5.245,0,0,0,152.537,234q-8.144,5.647-16.543,10.791c-1.13.693-2.267,1.38-3.346,2.174a24.145,24.145,0,0,0-5.521,5.744c-.285.412-.645.881-1.1.819a.905.905,0,0,1-.351-.143,4.926,4.926,0,0,1-1.527-2.058,6.586,6.586,0,0,0-1.035-1.628h0a3.62,3.62,0,0,0-.363-.774c.6-1.7,1.122-3.432,1.6-5.18.251-.918.494-1.841.814-2.732.791-2.2,2.051-4.2,2.5-6.53.107-.563.17-1.142.253-1.711,4.878-1.1,8.56-6.067,8.56-12.037,0-6.776-4.74-12.266-10.589-12.266s-10.587,5.49-10.587,12.266a12.812,12.812,0,0,0,4.937,10.371v.068a9.733,9.733,0,0,1-.1,1.162,16.1,16.1,0,0,1-1.166,3.7c-.322.792-.645,1.587-.979,2.377a1.775,1.775,0,0,1-.463-.178,1.638,1.638,0,0,1-.521-.933,36.058,36.058,0,0,0-1.759-4.7,8.327,8.327,0,0,0-1.018-1.783,8.561,8.561,0,0,0-2.645-1.961c-.17-.093-.327-.194-.49-.283a4.181,4.181,0,0,0-.441-.327,10.969,10.969,0,0,1-2.323-1.587c-.494-.534-.833-1.229-1.295-1.8a8.161,8.161,0,0,0-2.859-1.994,3.432,3.432,0,0,0-1.685-.5,1.781,1.781,0,0,0-.246.031,3.5,3.5,0,0,0-.417.108,2.274,2.274,0,0,1-.377-.286,4.473,4.473,0,0,1-1.079-2.389,12.645,12.645,0,0,1-.487-4.524,7.687,7.687,0,0,1,.149-.774c.053-.1.1-.194.149-.3a9.5,9.5,0,0,0,5.834-6.426,11.293,11.293,0,0,0-1.2-9.15c-.087-.136-.17-.267-.266-.4l.1-.064a3.02,3.02,0,0,0,.718-3.384,5.8,5.8,0,0,0-2.292-2.635c-.136-.095-.273-.184-.412-.273l-.119-.074c-.105-.066-.209-.13-.314-.194l-.124-.072c-.124-.072-.248-.139-.372-.205l-.056-.031c-.154-.079-.309-.157-.465-.23h0c-.151-.072-.3-.137-.455-.194l-.063-.027c-.144-.06-.29-.116-.436-.17l-.032-.012a10.138,10.138,0,0,0-3.3-.635,13.929,13.929,0,0,0-3.266.412,14.364,14.364,0,0,0-3.054,1,11.148,11.148,0,0,0-4.186,3.581,3.579,3.579,0,0,0-.7.132,6.787,6.787,0,0,0-2.5,1.512,8.615,8.615,0,0,0-1.663,1.882,8.769,8.769,0,0,0-1.122,3.053c-.643,3.432.148,6.969.73,10.419s.918,7.209-.509,10.3c-.538,1.162-1.3,2.17-1.866,3.31a5.616,5.616,0,0,0-.631,3.781c.4,1.535,1.7,2.5,2.375,3.895a5.325,5.325,0,0,1-.463,5.227c-.046.062-.092.124-.141.194a1.838,1.838,0,0,1-.183.209,3.466,3.466,0,0,0,3.224-.722,6.145,6.145,0,0,0,1.9-2.089c1.213-2.273.668-5.211,1.1-7.838.562-3.44,2.828-6.508,2.516-9.991-.21-2.337-1.547-4.29-2.6-6.3a26.652,26.652,0,0,1-1.748-4.243l-.058-.194h0a7.04,7.04,0,0,1-.385-3.1,4.792,4.792,0,0,1,.265-.981c0,.037,0,.076,0,.112a8.506,8.506,0,0,0,.579,2.925c1.06,2.517,3.612,3.678,5.233,5.719.068.085.132.172.2.261.019.023.036.048.053.074l.137.194.058.091c.042.068.085.135.124.205l.053.087c.054.1.109.194.159.3a4.711,4.711,0,0,0,1-1.742c.015-.058.025-.118.036-.178.014.016.025.033.039.05.032.207.058.414.081.623h0a4.779,4.779,0,0,0,.083.889,44.585,44.585,0,0,1-.083,5.631c-.058,1,.17,2.478-.387,3.221l-.017.021a.967.967,0,0,1-.107.12h0c-.1.112-.192.223-.282.339a14.737,14.737,0,0,0-2.671,9.072A34.893,34.893,0,0,0,90.526,242.3a32.493,32.493,0,0,0,1.452,3.678A6.436,6.436,0,0,0,93.1,247.7a6.642,6.642,0,0,0,1.629,1.109c.143.077.287.153.429.232l.365.194L98.3,250.74c.509.854,1,1.731,1.5,2.61.071.124.141.252.214.376.543.968,1.089,1.936,1.646,2.877l4.681,7.91a6.537,6.537,0,0,0,1.171,1.591,2.366,2.366,0,0,0,.438.312,2.114,2.114,0,0,0,.243.114.982.982,0,0,0-.124.6,1.008,1.008,0,0,0,.339.505,7.355,7.355,0,0,1,2.567,3.587c.236,1.094,0,2.265.212,3.365.389,1.982,2.107,3.185,3.733,3.947a18.549,18.549,0,0,0,11.559,1.57,16.547,16.547,0,0,0,10.053-6.582c.77-1.08,1.427-2.259,2.158-3.374a27.747,27.747,0,0,1,1.647-2.257,13.206,13.206,0,0,0,1.8-1.134,36.275,36.275,0,0,0,3.393-3.221c.833-.829,1.705-1.611,2.47-2.517a29.125,29.125,0,0,0,1.922-2.71q2.036-3.078,4.206-6.034a8.857,8.857,0,0,1,2.674-2.71l.049-.023A7.31,7.31,0,0,0,158,251.89c1.748,3.1,3.577,6.286,6.278,8.26A18.843,18.843,0,0,0,169.1,262.5c4.242,1.529,8.551,2.73,12.864,3.932.143-.31.282-.6.438-.875a2.6,2.6,0,0,1,.187.256c.019.031.034.064.053.095a.559.559,0,0,0-.092.029,1.317,1.317,0,0,0-.609.732,9.151,9.151,0,0,0-.531,3.485c-.015,1.162,0,2.323,0,3.485a3.394,3.394,0,0,0,.17,1.274,2.25,2.25,0,0,0,1.914,1.162,14.046,14.046,0,0,0,3.9-.174,3.708,3.708,0,0,0,.361.985,6.3,6.3,0,0,0,3.285,2.774,26.141,26.141,0,0,0,4.043,1.041c2.408.546,4.871,1.419,7.265.8.955-.246,1.866-.722,2.822-.931,2.187-.472,4.454.484,6.656.1a9.65,9.65,0,0,0,3.034-1.233,4.194,4.194,0,0,0,1.3-1.022,2.037,2.037,0,0,0,.419-1.682,7.241,7.241,0,0,0-.4-.941,5.62,5.62,0,0,1-.287-1.587,49.218,49.218,0,0,0-.913-6.1c-.012-.056-.025-.114-.039-.172a22.686,22.686,0,0,0,4.629-3.113l3.168-2.528a18.541,18.541,0,0,1,3.205-2.215,12.365,12.365,0,0,1,5.609-1.129,22.606,22.606,0,0,1,2.345.126,1.208,1.208,0,0,0-.219.43,1.731,1.731,0,0,0,.46,1.566,5.992,5.992,0,0,0,1.281.914,8.354,8.354,0,0,1,2.884,3.235,3.945,3.945,0,0,1,.475,2.817c-.339,1.173-1.549,1.982-1.48,3.217a1.944,1.944,0,0,0,1.14,1.6,4.075,4.075,0,0,0,1.866.244,6.338,6.338,0,0,0,3.022-.664A8.03,8.03,0,0,0,245,270.98a5.424,5.424,0,0,0,1.222-1.673,5.742,5.742,0,0,0,.3-2.027c.051-3.245-.439-6.534.126-9.712.17-.968.441-1.915.585-2.89a23.213,23.213,0,0,0,.054-4.669A5.716,5.716,0,0,0,246.863,247.788Z" transform="translate(-68.684 -146.315)" fill="url(#linear-gradient)"/>
  <path id="Path_837" data-name="Path 837" d="M737.509,321.98a2.876,2.876,0,0,0-1,2.163c-.369,3.475,1.065,6.915.97,10.408a23.975,23.975,0,0,1-2.133,8.015,47.71,47.71,0,0,0-3,13.928c-.351,4.729-.866,9.653-3.4,13.653-.576.906-1.248,1.747-1.813,2.658-.592.952-1.061,1.974-1.584,2.964a31.9,31.9,0,0,1-5.887,7.908,8.122,8.122,0,0,1-2.31,1.719,4.651,4.651,0,0,1-3.612.038,3.452,3.452,0,0,1-2.23-2.876,5.121,5.121,0,0,1,1.326-3.1,50.843,50.843,0,0,1,7.965-8.443,4.585,4.585,0,0,0,1.385-1.57,7.024,7.024,0,0,0,.225-2.4,21.125,21.125,0,0,1,.866-3.771c1.212-5.106-.942-10.681.81-15.628a15.745,15.745,0,0,0,1.1-3.309,3.145,3.145,0,0,0-.611-2.324,3.054,3.054,0,0,1-.75-1.967,3.732,3.732,0,0,1,.017-.442,47.755,47.755,0,0,0,.306-6.817,15.983,15.983,0,0,0-1.615-6.579,18.684,18.684,0,0,1-1.583-3.158,8,8,0,0,1,.764-5.541,9.668,9.668,0,0,1,2.637-3.572,7.064,7.064,0,0,1,7.811-.5,11.535,11.535,0,0,1,3.932,4.613A8.088,8.088,0,0,1,737.509,321.98Z" transform="translate(-594.842 -257.059)" opacity="0.06"/>
  <path id="Path_838" data-name="Path 838" d="M751.562,257.375q-.5,1.345-.992,2.691c-.218.589-.435,1.183-.66,1.771a27.487,27.487,0,0,1-4.019,7.629c.272-.336-2.285-2.026-4.171-3.179-.919-.566-1.681-1-1.868-1.089a13.669,13.669,0,0,0-1.363-.53c-.719-.242-1.446-.452-2.164-.713-1.662-.6-.5-1.5.211-2.473,2.329-3.175,2.77-7.515,5.414-10.432a9.749,9.749,0,0,0,4.377,4.233c.036.019.074.036.113.052,1.57.734,3.305,1.051,4.929,1.666.088.033.19.08.22.173A.346.346,0,0,1,751.562,257.375Z" transform="translate(-614.616 -215.236)" fill="#a1616a"/>
  <path id="Path_839" data-name="Path 839" d="M795.566,611.757a7.81,7.81,0,0,0-.805,7.475,2.534,2.534,0,0,0,.583.9,2.734,2.734,0,0,0,1.113.519,23.963,23.963,0,0,0,10.631.173,18.719,18.719,0,0,0,3.5-.892,23.391,23.391,0,0,0,4.838-2.794l3.252-2.241a19.707,19.707,0,0,1,3.29-1.963,14.461,14.461,0,0,1,5.757-1,26.871,26.871,0,0,1,5.021.48c1.1.213,2.424.433,3.2-.372a3.029,3.029,0,0,0,.661-1.75,26.081,26.081,0,0,0-.019-7.371.957.957,0,0,0-.213-.563.865.865,0,0,0-.429-.2c-1.532-.346-3.07.372-4.559.866-3.094,1.029-6.417,1.152-9.565,2-3.3.888-6.406,2.57-9.821,2.911-1.628.163-3.262.021-4.893.057-1.513.033-2.924.556-4.407.618C799.846,608.741,797.361,609.24,795.566,611.757Z" transform="translate(-664.284 -498.812)" fill="#a1616a"/>
  <path id="Path_840" data-name="Path 840" d="M795.566,611.757a7.81,7.81,0,0,0-.805,7.475,2.534,2.534,0,0,0,.583.9,2.734,2.734,0,0,0,1.113.519,23.963,23.963,0,0,0,10.631.173,18.719,18.719,0,0,0,3.5-.892,23.391,23.391,0,0,0,4.838-2.794l3.252-2.241a19.707,19.707,0,0,1,3.29-1.963,14.461,14.461,0,0,1,5.757-1,26.871,26.871,0,0,1,5.021.48c1.1.213,2.424.433,3.2-.372a3.029,3.029,0,0,0,.661-1.75,26.081,26.081,0,0,0-.019-7.371.957.957,0,0,0-.213-.563.865.865,0,0,0-.429-.2c-1.532-.346-3.07.372-4.559.866-3.094,1.029-6.417,1.152-9.565,2-3.3.888-6.406,2.57-9.821,2.911-1.628.163-3.262.021-4.893.057-1.513.033-2.924.556-4.407.618C799.846,608.741,797.361,609.24,795.566,611.757Z" transform="translate(-664.284 -498.812)" opacity="0.06"/>
  <path id="Path_841" data-name="Path 841" d="M817.948,521.759a2.342,2.342,0,0,0-.04,1.162,2.165,2.165,0,0,0,.693.932c2.944,2.635,7.149,3.181,11.081,3.608a8.389,8.389,0,0,0,5.946-.977,26.308,26.308,0,0,0,5.453-3.141c1.6-1.3,2.886-2.961,4.545-4.185,1.886-1.385,4.2-2.178,5.887-3.809a7.914,7.914,0,0,0,2.308-4.374,12.471,12.471,0,0,0,0-3.446,10.244,10.244,0,0,0-.983-3.825,9.247,9.247,0,0,0-3.231-3.208,16.773,16.773,0,0,0-9.177-2.84c-4.5.04-8.657,2.66-11.888,5.6a34.988,34.988,0,0,0-8.138,11.069A33.8,33.8,0,0,0,817.948,521.759Z" transform="translate(-683.872 -413.605)" fill="#464353"/>
  <path id="Path_842" data-name="Path 842" d="M817.948,521.759a2.342,2.342,0,0,0-.04,1.162,2.165,2.165,0,0,0,.693.932c2.944,2.635,7.149,3.181,11.081,3.608a8.389,8.389,0,0,0,5.946-.977,26.308,26.308,0,0,0,5.453-3.141c1.6-1.3,2.886-2.961,4.545-4.185,1.886-1.385,4.2-2.178,5.887-3.809a7.914,7.914,0,0,0,2.308-4.374,12.471,12.471,0,0,0,0-3.446,10.244,10.244,0,0,0-.983-3.825,9.247,9.247,0,0,0-3.231-3.208,16.773,16.773,0,0,0-9.177-2.84c-4.5.04-8.657,2.66-11.888,5.6a34.988,34.988,0,0,0-8.138,11.069A33.8,33.8,0,0,0,817.948,521.759Z" transform="translate(-683.872 -413.605)" opacity="0.06"/>
  <path id="Path_843" data-name="Path 843" d="M737.509,321.98a2.876,2.876,0,0,0-1,2.163c-.369,3.475,1.065,6.915.97,10.408a23.975,23.975,0,0,1-2.133,8.015,47.71,47.71,0,0,0-3,13.928c-.351,4.729-.866,9.653-3.4,13.653-.576.906-1.248,1.747-1.813,2.658-.592.952-1.061,1.974-1.584,2.964a31.9,31.9,0,0,1-5.887,7.908,8.122,8.122,0,0,1-2.31,1.719,4.651,4.651,0,0,1-3.612.038,3.452,3.452,0,0,1-2.23-2.876,5.121,5.121,0,0,1,1.326-3.1,50.843,50.843,0,0,1,7.965-8.443,4.585,4.585,0,0,0,1.385-1.57,7.024,7.024,0,0,0,.225-2.4,21.125,21.125,0,0,1,.866-3.771c1.212-5.106-.942-10.681.81-15.628a15.745,15.745,0,0,0,1.1-3.309,3.145,3.145,0,0,0-.611-2.324,3.054,3.054,0,0,1-.75-1.967,3.732,3.732,0,0,1,.017-.442,47.755,47.755,0,0,0,.306-6.817,15.983,15.983,0,0,0-1.615-6.579,18.684,18.684,0,0,1-1.583-3.158,8,8,0,0,1,.764-5.541,9.668,9.668,0,0,1,2.637-3.572,7.064,7.064,0,0,1,7.811-.5,11.535,11.535,0,0,1,3.932,4.613A8.088,8.088,0,0,1,737.509,321.98Z" transform="translate(-594.842 -257.059)" fill="#a1616a"/>
  <ellipse id="Ellipse_108" data-name="Ellipse 108" cx="6.554" cy="10.283" rx="6.554" ry="10.283" transform="translate(126.527 48.309)" fill="#a1616a"/>
  <path id="Path_844" data-name="Path 844" d="M702.965,657.282a2.285,2.285,0,0,1,.346,1.9,3.33,3.33,0,0,0,2.128.62,6.581,6.581,0,0,0,2.19-.5,7.237,7.237,0,0,0,1.7-.893,7.51,7.51,0,0,0,2.078-2.614c.293-.547.542-1.255.173-1.747a1.676,1.676,0,0,0-.519-.4,30.846,30.846,0,0,0-4.156-1.976,3.054,3.054,0,0,0-1.253-.281,2.686,2.686,0,0,0-1.437.646,7.79,7.79,0,0,0-2.237,2.77c-.163.346-.655,1.169-.41,1.525.111.164.519.222.693.325A2.241,2.241,0,0,1,702.965,657.282Z" transform="translate(-586.348 -539.619)" fill="#fbbebe"/>
  <path id="Path_845" data-name="Path 845" d="M702.965,657.282a2.285,2.285,0,0,1,.346,1.9,3.33,3.33,0,0,0,2.128.62,6.581,6.581,0,0,0,2.19-.5,7.237,7.237,0,0,0,1.7-.893,7.51,7.51,0,0,0,2.078-2.614c.293-.547.542-1.255.173-1.747a1.676,1.676,0,0,0-.519-.4,30.846,30.846,0,0,0-4.156-1.976,3.054,3.054,0,0,0-1.253-.281,2.686,2.686,0,0,0-1.437.646,7.79,7.79,0,0,0-2.237,2.77c-.163.346-.655,1.169-.41,1.525.111.164.519.222.693.325A2.241,2.241,0,0,1,702.965,657.282Z" transform="translate(-586.348 -539.619)" opacity="0.03"/>
  <path id="Path_846" data-name="Path 846" d="M707.677,662.235c2.93.544,5.624,1.96,8.5,2.724a28.247,28.247,0,0,1,3.479.973,4.735,4.735,0,0,1,2.642,2.334,6.685,6.685,0,0,1,.4,1.648,2.365,2.365,0,0,1-2.54,3.292c-3.044.362-6.088.725-9.142.982a15.949,15.949,0,0,0-1.844.22c-.5.1-.992.253-1.491.371-.646.151-1.3.246-1.957.346a20.193,20.193,0,0,1-5.049.3,2.354,2.354,0,0,1-1.964-1.025,2.618,2.618,0,0,1-.173-1.129c-.009-1.029-.017-2.055,0-3.082a6.991,6.991,0,0,1,.545-3.089,1.228,1.228,0,0,1,.625-.649,1.435,1.435,0,0,1,.537-.049,6.343,6.343,0,0,1,2.637.471c.639.317,1.158.845,1.809,1.132,1.233.547,2.72.154,3.969.668a4.968,4.968,0,0,0,.009-2.724,21.22,21.22,0,0,1-.611-2.76,1.761,1.761,0,0,0-.118-.6C707.851,662.393,707.882,662.206,707.677,662.235Z" transform="translate(-584.053 -546.241)" fill="#464353"/>
  <path id="Path_847" data-name="Path 847" d="M707.677,662.235c2.93.544,5.624,1.96,8.5,2.724a28.247,28.247,0,0,1,3.479.973,4.735,4.735,0,0,1,2.642,2.334,6.685,6.685,0,0,1,.4,1.648,2.365,2.365,0,0,1-2.54,3.292c-3.044.362-6.088.725-9.142.982a15.949,15.949,0,0,0-1.844.22c-.5.1-.992.253-1.491.371-.646.151-1.3.246-1.957.346a20.193,20.193,0,0,1-5.049.3,2.354,2.354,0,0,1-1.964-1.025,2.618,2.618,0,0,1-.173-1.129c-.009-1.029-.017-2.055,0-3.082a6.991,6.991,0,0,1,.545-3.089,1.228,1.228,0,0,1,.625-.649,1.435,1.435,0,0,1,.537-.049,6.343,6.343,0,0,1,2.637.471c.639.317,1.158.845,1.809,1.132,1.233.547,2.72.154,3.969.668a4.968,4.968,0,0,0,.009-2.724,21.22,21.22,0,0,1-.611-2.76,1.761,1.761,0,0,0-.118-.6C707.851,662.393,707.882,662.206,707.677,662.235Z" transform="translate(-584.053 -546.241)" opacity="0.06"/>
  <path id="Path_848" data-name="Path 848" d="M174.2,440.595c-.59-.187-1.16.336-1.491.866a7.754,7.754,0,0,0-.163,7.359,5.586,5.586,0,0,0,1.067,1.588,10.271,10.271,0,0,0,2.078,1.385,15.633,15.633,0,0,1,4.98,4.675c.847,1.248,1.513,2.621,2.474,3.783,2.365,2.86,6.252,4.155,8.546,7.064a9,9,0,0,0,1.745,2,2.968,2.968,0,0,0,4.646-2.3,33.364,33.364,0,0,0,2.315-4.185,49.812,49.812,0,0,0,2.6-6.73c.258-.814.507-1.633.836-2.424.812-1.953,2.105-3.721,2.563-5.785a24.957,24.957,0,0,1,.5-2.492,4.742,4.742,0,0,1,1.191-1.9c1.8-1.751,2.77-4.3,4.2-6.361a13.735,13.735,0,0,0,1.57-2.606,4.122,4.122,0,0,0,.173-2.973,2.479,2.479,0,0,0-2.31-1.667,3.509,3.509,0,0,0-1.3.4,14.449,14.449,0,0,0-3.8,2.618,18.389,18.389,0,0,0-1.385,1.489,15.29,15.29,0,0,0-3.917,8.889c-.048,1.129.042,2.381-.675,3.255-1.977,2.415-2.613,5.736-4.3,8.365a7.223,7.223,0,0,1-3.011,3.02,1.284,1.284,0,0,1-.634.125c-.533-.061-.84-.622-1.065-1.11a42.952,42.952,0,0,0-3.046-5.5,5.234,5.234,0,0,0-1.68-1.809c-.5-.275-1.07-.4-1.536-.72a4.548,4.548,0,0,1-1.326-1.927,29.941,29.941,0,0,0-4.123-6.427c-.751-.9-1.742-1.82-2.9-1.686C175.918,439,175.243,440.16,174.2,440.595Z" transform="translate(-146.117 -358.166)" fill="#fbbebe"/>
  <path id="Path_849" data-name="Path 849" d="M174.2,440.595c-.59-.187-1.16.336-1.491.866a7.754,7.754,0,0,0-.163,7.359,5.586,5.586,0,0,0,1.067,1.588,10.271,10.271,0,0,0,2.078,1.385,15.633,15.633,0,0,1,4.98,4.675c.847,1.248,1.513,2.621,2.474,3.783,2.365,2.86,6.252,4.155,8.546,7.064a9,9,0,0,0,1.745,2,2.968,2.968,0,0,0,4.646-2.3,33.364,33.364,0,0,0,2.315-4.185,49.812,49.812,0,0,0,2.6-6.73c.258-.814.507-1.633.836-2.424.812-1.953,2.105-3.721,2.563-5.785a24.957,24.957,0,0,1,.5-2.492,4.742,4.742,0,0,1,1.191-1.9c1.8-1.751,2.77-4.3,4.2-6.361a13.735,13.735,0,0,0,1.57-2.606,4.122,4.122,0,0,0,.173-2.973,2.479,2.479,0,0,0-2.31-1.667,3.509,3.509,0,0,0-1.3.4,14.449,14.449,0,0,0-3.8,2.618,18.389,18.389,0,0,0-1.385,1.489,15.29,15.29,0,0,0-3.917,8.889c-.048,1.129.042,2.381-.675,3.255-1.977,2.415-2.613,5.736-4.3,8.365a7.223,7.223,0,0,1-3.011,3.02,1.284,1.284,0,0,1-.634.125c-.533-.061-.84-.622-1.065-1.11a42.952,42.952,0,0,0-3.046-5.5,5.234,5.234,0,0,0-1.68-1.809c-.5-.275-1.07-.4-1.536-.72a4.548,4.548,0,0,1-1.326-1.927,29.941,29.941,0,0,0-4.123-6.427c-.751-.9-1.742-1.82-2.9-1.686C175.918,439,175.243,440.16,174.2,440.595Z" transform="translate(-146.117 -358.166)" opacity="0.03"/>
  <ellipse id="Ellipse_109" data-name="Ellipse 109" cx="4.564" cy="4.119" rx="4.564" ry="4.119" transform="translate(23.399 63.201)" fill="#fbbebe"/>
  <ellipse id="Ellipse_110" data-name="Ellipse 110" cx="1.643" cy="1.643" rx="1.643" ry="1.643" transform="translate(30.6 64.769)" fill="#fbbebe"/>
  <ellipse id="Ellipse_111" data-name="Ellipse 111" cx="6.287" cy="1.681" rx="6.287" ry="1.681" transform="translate(22.275 63.816)" fill="#fbbebe"/>
  <path id="Path_850" data-name="Path 850" d="M146.085,343.253a11.386,11.386,0,0,1,.36,1.48,8.843,8.843,0,0,1-1.361-1.789,1.332,1.332,0,0,1-.241-.381,10.171,10.171,0,0,1-.944-4.057,8.893,8.893,0,1,1,11.23,8.579,11.111,11.111,0,0,0,.693-2.64,1.9,1.9,0,0,0-.128-.892,2.032,2.032,0,0,0-.653-.751,5.639,5.639,0,0,0-3.511-1.067,9.635,9.635,0,0,0-3.61.866c-.358.154-.788.362-1.212.5A3.156,3.156,0,0,1,146.085,343.253Z" transform="translate(-123.13 -278.761)" fill="#fbbebe"/>
  <path id="Path_851" data-name="Path 851" d="M178.684,434.918a3.033,3.033,0,0,1-2.857,1.11,9.75,9.75,0,0,1-5.35-2.493c-1.541-1.281-2.888-2.77-4.464-4a15.843,15.843,0,0,0-9.963-3.274c.729-.6.461-2.038.519-2.98a29.128,29.128,0,0,0,0-5.736c-.026-.2-.055-.4-.09-.6.059.062.121.123.185.185a8.9,8.9,0,0,0,8.5,2.168,6.929,6.929,0,0,0-.223.921,9.662,9.662,0,0,0,.5,4.007,3.743,3.743,0,0,0,1.108,2.116,4.881,4.881,0,0,0,1.444.611,7.964,7.964,0,0,1,2.691,1.558,21.761,21.761,0,0,0,1.626,1.456,11.321,11.321,0,0,0,1.757.907,21.991,21.991,0,0,1,4.225,2.561,1.385,1.385,0,0,1,.549.651A1.07,1.07,0,0,1,178.684,434.918Z" transform="translate(-133.176 -349.246)" fill="#fbbebe"/>
  <path id="Path_852" data-name="Path 852" d="M174.46,491.605c-.119.79-.843,1.406-1.354,2.019-1.389,1.676-2.8,3.357-4.349,4.891a68.044,68.044,0,0,1-5.31,4.562l-2.365,1.893a2.978,2.978,0,0,1-1.006.606,1.837,1.837,0,0,1-1.3-.154,2.535,2.535,0,0,1-.448-.275,6.072,6.072,0,0,1-1.2-1.411q-2.4-3.5-4.8-7.007c-.571-.835-1.132-1.692-1.69-2.549-.074-.111-.145-.223-.22-.334-.509-.779-1.016-1.558-1.538-2.311l-2.85-1.335-.374-.173-.442-.206a6.994,6.994,0,0,1-1.671-.982,5.657,5.657,0,0,1-1.151-1.525,26.7,26.7,0,0,1-1.493-3.267,27.257,27.257,0,0,1-2.324-9.542,11.789,11.789,0,0,1,2.741-8.036,8.62,8.62,0,0,1,.847-.821,1.514,1.514,0,0,1,1.229-.424c.476.068.928.137,1.385.215q1.891.326,3.752.8a7.771,7.771,0,0,0,3.408.384c.182-.036.362-.088.542-.135.147-.038.293-.074.443-.1a2.05,2.05,0,0,1,.253-.028,3.976,3.976,0,0,1,1.731.447,8.6,8.6,0,0,1,2.943,1.766c.474.5.822,1.119,1.328,1.591a11.475,11.475,0,0,0,2.386,1.408,4.287,4.287,0,0,1,.452.289,5.135,5.135,0,0,1,.866.822h0c1.049,1.238,1.673,2.909,2.831,4.14a16.9,16.9,0,0,1,2.4,3.25c.109.2.215.393.319.594q.26.5.483,1.016c.038.088.076.173.111.265a15.885,15.885,0,0,1,.57,1.588,10.276,10.276,0,0,0,1.527,3.768,18.888,18.888,0,0,0,2.166,1.84,3.832,3.832,0,0,1,1.053,1.432A2.047,2.047,0,0,1,174.46,491.605Z" transform="translate(-118.724 -386.511)" fill="#fbbebe"/>
  <path id="Path_853" data-name="Path 853" d="M182.768,483.091q-.3.376-.611.741c-.035.045-.073.088-.111.132a33.07,33.07,0,0,1-6.209,5.629c-1.423.994-2.924,1.875-4.422,2.755l-2.77,1.622a17.155,17.155,0,0,1-3.617,1.757c-.412.123-.843.222-1.264.338-.074-.111-.145-.223-.22-.334-.509-.779-1.016-1.558-1.538-2.312l-2.85-1.335a16.692,16.692,0,0,0,4.131-3.7,44.89,44.89,0,0,0,4.375-6.988,5.253,5.253,0,0,0,.538-1.247,4.286,4.286,0,0,0-.185-2.2,11.6,11.6,0,0,0-4.64-6.256,21.932,21.932,0,0,0-5.094-2.28,8.573,8.573,0,0,0-3.832-.663,8.416,8.416,0,0,1,.847-.819,1.509,1.509,0,0,1,1.229-.426c.476.068.928.137,1.385.216.926.284,1.837.623,2.743.973a12.853,12.853,0,0,1,1.731.784,15.491,15.491,0,0,1,1.595,1.117,39.859,39.859,0,0,0,4.73,3.1c1.9,1.051,3.9,1.9,5.9,2.77a1.569,1.569,0,0,0,.684.173.537.537,0,0,0,.519-.405.653.653,0,0,0-.083-.362,3.61,3.61,0,0,0-1.844-1.409,44.653,44.653,0,0,1-8.121-5.532.815.815,0,0,1-.163-.173l.443-.1a66.051,66.051,0,0,0,9.082,5.475q.251.128.5.249c.121.061.241.119.364.173h0a7.75,7.75,0,0,1,2.35,1.558,7.174,7.174,0,0,1,1.039,1.577,29.641,29.641,0,0,1,1.808,4.155.955.955,0,0,0,.033.09,1.6,1.6,0,0,0,.319.594.672.672,0,0,0,.182.144C182.053,482.866,182.5,482.845,182.768,483.091Z" transform="translate(-131.853 -389.4)" opacity="0.06"/>
  <path id="Path_854" data-name="Path 854" d="M166.056,466.385a65.873,65.873,0,0,0,9.081,5.473l.5.251a8.971,8.971,0,0,1,2.715,1.731,7.226,7.226,0,0,1,1.039,1.579,29.355,29.355,0,0,1,1.806,4.155,1.405,1.405,0,0,0,.535.828c.294.163.762.151,1.023.4-.235.294-.474.585-.722.866a33.022,33.022,0,0,1-6.209,5.631c-1.423.994-2.924,1.875-4.422,2.755l-2.77,1.622a17.231,17.231,0,0,1-3.617,1.756c-.483.147-.994.258-1.484.4-.509-.779-1.016-1.558-1.538-2.311l-3.224-1.51a16.227,16.227,0,0,0,4.5-3.923,44.793,44.793,0,0,0,4.375-6.986,5.281,5.281,0,0,0,.538-1.247,4.293,4.293,0,0,0-.185-2.2,11.6,11.6,0,0,0-4.628-6.238,22,22,0,0,0-5.094-2.28,8.572,8.572,0,0,0-3.832-.661,8.621,8.621,0,0,1,.847-.821,1.514,1.514,0,0,1,1.229-.424c.476.068.928.137,1.385.215.926.286,1.837.625,2.743.975a12.643,12.643,0,0,1,1.731.784,15.51,15.51,0,0,1,1.595,1.117,39.827,39.827,0,0,0,4.737,3.092c1.9,1.053,3.9,1.913,5.9,2.77a1.567,1.567,0,0,0,.684.173.533.533,0,0,0,.519-.405.649.649,0,0,0-.083-.36,3.6,3.6,0,0,0-1.844-1.409,44.343,44.343,0,0,1-8.121-5.541.767.767,0,0,1-.163-.173Z" transform="translate(-131.853 -387.558)" fill="tomato"/>
  <ellipse id="Ellipse_112" data-name="Ellipse 112" cx="10.868" cy="10.868" rx="10.868" ry="10.868" transform="translate(46.661 64.734)" fill="tomato"/>
  <path id="Path_855" data-name="Path 855" d="M394.233,556.884a23.322,23.322,0,0,0,5.887-2.459,34.76,34.76,0,0,0,3.477-2.853c.857-.734,1.751-1.427,2.537-2.237a26.442,26.442,0,0,0,1.974-2.393q2.085-2.729,4.306-5.354a8.645,8.645,0,0,1,2.744-2.4c1.972-.926,4.287-.3,6.368.334a59.229,59.229,0,0,1,9.133,3.411c1.659.826,3.266,1.747,4.94,2.538a69.888,69.888,0,0,0,9.549,3.425,1.212,1.212,0,0,0,.762.062,1.121,1.121,0,0,0,.452-.378,6.451,6.451,0,0,0,1-1.731.332.332,0,0,0-.081-.448,23.09,23.09,0,0,0-4.862-3.139c-1.337-.763-2.616-1.621-3.894-2.478a21.307,21.307,0,0,1-3.5-2.711c-.519-.535-.987-1.125-1.55-1.614a12.981,12.981,0,0,0-1.576-1.1,63.309,63.309,0,0,1-7.05-5.224c-1.693-1.447-3.08-3.312-4.89-4.611a5.69,5.69,0,0,0-3.759-1.377c-1.652.173-2.871,1.558-4.022,2.753-3.87,4.019-8.753,6.895-13.071,10.428-3.525,2.881-6.82,6.3-11.114,7.824.192.637.26,1.274.454,1.9a19.887,19.887,0,0,0,.9,2.57,20.2,20.2,0,0,0,1.2,2.147l1.721,2.81a7.106,7.106,0,0,0,1.2,1.605C393.74,556.432,394.233,556.522,394.233,556.884Z" transform="translate(-326.533 -434.667)" fill="#464353"/>
  <path id="Path_856" data-name="Path 856" d="M394.233,556.884a23.322,23.322,0,0,0,5.887-2.459,34.76,34.76,0,0,0,3.477-2.853c.857-.734,1.751-1.427,2.537-2.237a26.442,26.442,0,0,0,1.974-2.393q2.085-2.729,4.306-5.354a8.645,8.645,0,0,1,2.744-2.4c1.972-.926,4.287-.3,6.368.334a59.229,59.229,0,0,1,9.133,3.411c1.659.826,3.266,1.747,4.94,2.538a69.888,69.888,0,0,0,9.549,3.425,1.212,1.212,0,0,0,.762.062,1.121,1.121,0,0,0,.452-.378,6.451,6.451,0,0,0,1-1.731.332.332,0,0,0-.081-.448,23.09,23.09,0,0,0-4.862-3.139c-1.337-.763-2.616-1.621-3.894-2.478a21.307,21.307,0,0,1-3.5-2.711c-.519-.535-.987-1.125-1.55-1.614a12.981,12.981,0,0,0-1.576-1.1,63.309,63.309,0,0,1-7.05-5.224c-1.693-1.447-3.08-3.312-4.89-4.611a5.69,5.69,0,0,0-3.759-1.377c-1.652.173-2.871,1.558-4.022,2.753-3.87,4.019-8.753,6.895-13.071,10.428-3.525,2.881-6.82,6.3-11.114,7.824.192.637.26,1.274.454,1.9a19.887,19.887,0,0,0,.9,2.57,20.2,20.2,0,0,0,1.2,2.147l1.721,2.81a7.106,7.106,0,0,0,1.2,1.605C393.74,556.432,394.233,556.522,394.233,556.884Z" transform="translate(-326.533 -434.667)" opacity="0.06"/>
  <path id="Path_857" data-name="Path 857" d="M690.822,666.177a2.29,2.29,0,0,1,.346,1.9,3.323,3.323,0,0,0,2.123.625,6.672,6.672,0,0,0,2.2-.5,7.31,7.31,0,0,0,1.7-.893,7.6,7.6,0,0,0,2.086-2.616c.293-.545.542-1.254.164-1.745a1.629,1.629,0,0,0-.519-.4,30.921,30.921,0,0,0-4.147-1.976,3.094,3.094,0,0,0-1.254-.282,2.69,2.69,0,0,0-1.439.648,7.791,7.791,0,0,0-2.235,2.77c-.163.346-.655,1.17-.412,1.527.111.165.519.222.693.324A2.242,2.242,0,0,1,690.822,666.177Z" transform="translate(-576.275 -546.824)" fill="#fbbebe"/>
  <path id="Path_858" data-name="Path 858" d="M699.905,670.615c2.93.545,5.624,1.96,8.5,2.724a28.244,28.244,0,0,1,3.479.973,4.735,4.735,0,0,1,2.642,2.334,6.705,6.705,0,0,1,.4,1.648,2.365,2.365,0,0,1-2.54,3.292c-3.044.364-6.088.725-9.142.982a16.341,16.341,0,0,0-1.841.22c-.5.1-.992.253-1.491.371-.644.152-1.3.246-1.957.346a20.2,20.2,0,0,1-5.049.3,2.354,2.354,0,0,1-1.964-1.025,2.616,2.616,0,0,1-.173-1.129c0-1.027-.017-2.055,0-3.082a6.989,6.989,0,0,1,.545-3.089,1.233,1.233,0,0,1,.625-.649,1.433,1.433,0,0,1,.537-.048,6.342,6.342,0,0,1,2.637.471c.639.317,1.1-.63,1.75-.346,1.235.545.4-1.108,1.645-.594.291-.9,1.527-.364,1.312-1.283s.556-.519.467-1.465a1.767,1.767,0,0,0-.118-.6C700.078,670.773,700.109,670.586,699.905,670.615Z" transform="translate(-577.604 -553.17)" fill="#464353"/>
  <path id="Path_859" data-name="Path 859" d="M159.961,333.269a4.306,4.306,0,0,1-2.287.3,14.212,14.212,0,0,0-2.048.106,1.933,1.933,0,0,0-.7.187,1.763,1.763,0,0,0-.654.764,5.411,5.411,0,0,0-.552,1.7,3.9,3.9,0,0,1-.5,1.924c-.566.719-1.449.608-2.251.75a6.061,6.061,0,0,0-1.976.755,4.881,4.881,0,0,0-2.289,3.361c-.022.158-.038.313-.045.471-.017.447.028.9-.031,1.34a2.331,2.331,0,0,1-.066.324.691.691,0,0,1-.029.092c-.026-.2-.055-.4-.09-.6a8.838,8.838,0,0,1-1.361-1.789,1.331,1.331,0,0,1-.241-.381,10.171,10.171,0,0,1-.944-4.057,8.891,8.891,0,0,1,16.07-5.246Z" transform="translate(-123.121 -278.842)" opacity="0.06"/>
  <path id="Path_860" data-name="Path 860" d="M106.091,310.883a5.42,5.42,0,0,0-2.351-2.334,12.8,12.8,0,0,0-6.32-1.879,19.094,19.094,0,0,0-6.467,1.234,11.146,11.146,0,0,0-4.3,3.172,4.316,4.316,0,0,0-.719.116,7.242,7.242,0,0,0-2.564,1.34,8.163,8.163,0,0,0-1.707,1.667,7.164,7.164,0,0,0-1.151,2.706c-.66,3.04.152,6.178.748,9.23s.944,6.387-.519,9.13c-.552,1.039-1.337,1.922-1.925,2.933a4.359,4.359,0,0,0-.646,3.35c.4,1.364,1.738,2.23,2.438,3.458a4.156,4.156,0,0,1-.809,4.973,4.008,4.008,0,0,0,3.314-.639,5.856,5.856,0,0,0,1.951-1.851c1.245-2.015.693-4.618,1.125-6.947.577-3.047,2.9-5.766,2.583-8.851-.216-2.078-1.588-3.8-2.666-5.582a21.876,21.876,0,0,1-1.806-3.745,5.655,5.655,0,0,1-.455-2.905,3.912,3.912,0,0,1,.272-.866v.1a6.633,6.633,0,0,0,.592,2.6c1.288,2.632,4.718,3.6,6.171,6.145a4.1,4.1,0,0,0,1.039-1.55,7.115,7.115,0,0,0,.1-1.666,4.826,4.826,0,0,1,2.334-3.83,6,6,0,0,1,1.976-.753c.8-.144,1.683-.035,2.251-.753a3.9,3.9,0,0,0,.5-1.922,5.378,5.378,0,0,1,.552-1.7,1.747,1.747,0,0,1,.654-.762,1.9,1.9,0,0,1,.706-.187,14.193,14.193,0,0,1,2.047-.106,4.248,4.248,0,0,0,2.317-.317A2.445,2.445,0,0,0,106.091,310.883Z" transform="translate(-68.681 -258.915)" fill="#464353"/>
  <path id="Path_861" data-name="Path 861" d="M746.44,255.311v.071c-.313,2.7-2.911,2.576-3.517,6.832-.239,1.667-2.77,1.976-4.434,2.424-.719-.242-1.446-.452-2.164-.713-1.662-.6-.5-1.5.211-2.473,2.329-3.175,2.77-7.515,5.414-10.432a9.75,9.75,0,0,0,4.377,4.233A.626.626,0,0,0,746.44,255.311Z" transform="translate(-614.552 -215.352)" opacity="0.06"/>
  <path id="Path_862" data-name="Path 862" d="M695.355,214.952a11.013,11.013,0,0,1-.069,1.226,10.868,10.868,0,1,1,.069-1.226Z" transform="translate(-563.335 -177.206)" fill="#a1616a"/>
  <path id="Path_863" data-name="Path 863" d="M769.9,273.846a8.46,8.46,0,0,1,3.591.907,72.109,72.109,0,0,1,13.23,6.621,72.891,72.891,0,0,1,5.728,4.535l7.634,6.486a27.627,27.627,0,0,1,4.121,4.026,27.339,27.339,0,0,1,1.893,2.944l1.133,1.931a17.324,17.324,0,0,1,1.212,2.363c.582,1.491.8,3.229,1.972,4.318a11.452,11.452,0,0,0,2.836,1.513,2.959,2.959,0,0,1,1.889,2.408,4.55,4.55,0,0,1-.734,1.939,7.775,7.775,0,0,0-.79,4.213l-12.484-9.54a4.242,4.242,0,0,0-1.628-.9,4.429,4.429,0,0,0-2.367.4,45.891,45.891,0,0,1-18.823,2.474,19.774,19.774,0,0,1-8.154-2.109,25.287,25.287,0,0,1-3.774-2.77,46.25,46.25,0,0,1-4.329-3.944,2.789,2.789,0,0,1-.795-1.316,4.362,4.362,0,0,1,.047-1.122c.218-2.627-1.964-4.813-2.628-7.364a6.753,6.753,0,0,1,2.114-6.7c1.487,1.3,1.434,3.589,1.261,5.558-.234,2.651.507,3.965.273,6.618.942-.035.771.571,1.172-.282a7.9,7.9,0,0,0,.556-2.757q.417-5.1,1.013-10.184c.2-1.7.422-3.387.639-5.08a7,7,0,0,1,.658-2.907A4.458,4.458,0,0,1,769.9,273.846Z" transform="translate(-634.784 -232.516)" fill="tomato"/>
  <path id="Path_864" data-name="Path 864" d="M804.066,291.194a4.23,4.23,0,0,1,2.443.216q2.112.627,4.2,1.325a11.386,11.386,0,0,1,3.253,1.5,17.8,17.8,0,0,1,3.842,5.078,12.161,12.161,0,0,1,.693,3.439,4.509,4.509,0,0,1-.019,1.518,3.688,3.688,0,0,1-.836,1.46,9.985,9.985,0,0,1-2.054,1.841,19.217,19.217,0,0,1-6.9,2.447,45.416,45.416,0,0,1-6.484,1,2.684,2.684,0,0,1-2.357-.672,2.653,2.653,0,0,1-.346-.682,25.826,25.826,0,0,1-1.622-10.6,7.814,7.814,0,0,1,.3-1.943,13.919,13.919,0,0,1,3.144-4.82,6.64,6.64,0,0,1,4.182-1.084" transform="translate(-666.45 -247.53)" fill="#a1616a"/>
  <path id="Path_865" data-name="Path 865" d="M755.679,320.57a2.876,2.876,0,0,0-1,2.163c-.369,3.475,1.065,6.915.97,10.408a24.036,24.036,0,0,1-2.133,8.015,47.709,47.709,0,0,0-3,13.928c-.352,4.729-.866,9.653-3.4,13.653-.577.906-1.248,1.747-1.813,2.658-.592.952-1.061,1.974-1.584,2.964a31.9,31.9,0,0,1-5.887,7.908,8.124,8.124,0,0,1-2.31,1.719,4.651,4.651,0,0,1-3.612.038,3.452,3.452,0,0,1-2.23-2.876,5.121,5.121,0,0,1,1.326-3.1,50.85,50.85,0,0,1,7.965-8.443,4.585,4.585,0,0,0,1.385-1.57,7.024,7.024,0,0,0,.225-2.4,21.118,21.118,0,0,1,.866-3.771c1.212-5.106-.942-10.681.81-15.628a15.742,15.742,0,0,0,1.1-3.309,3.152,3.152,0,0,0-.611-2.324,3.065,3.065,0,0,1-.751-1.967,3.388,3.388,0,0,1,.019-.441,47.737,47.737,0,0,0,.306-6.817,15.981,15.981,0,0,0-1.615-6.58,18.7,18.7,0,0,1-1.583-3.158,8,8,0,0,1,.764-5.541,9.666,9.666,0,0,1,2.637-3.572,7.064,7.064,0,0,1,7.811-.5,11.534,11.534,0,0,1,3.932,4.613C754.96,317.957,755.7,319.071,755.679,320.57Z" transform="translate(-609.929 -255.893)" opacity="0.06"/>
  <path id="Path_866" data-name="Path 866" d="M757.958,320.57a2.876,2.876,0,0,0-1,2.163c-.369,3.475,1.065,6.915.97,10.408a24.038,24.038,0,0,1-2.133,8.015,47.766,47.766,0,0,0-3,13.928c-.353,4.729-.866,9.653-3.4,13.652-.577.906-1.247,1.747-1.813,2.658-.59.952-1.061,1.974-1.584,2.964a31.935,31.935,0,0,1-5.887,7.908,8.133,8.133,0,0,1-2.312,1.719,4.651,4.651,0,0,1-3.612.038,3.453,3.453,0,0,1-2.228-2.876,5.1,5.1,0,0,1,1.326-3.1,50.833,50.833,0,0,1,7.965-8.443,4.566,4.566,0,0,0,1.385-1.57,6.975,6.975,0,0,0,.225-2.4,21.118,21.118,0,0,1,.866-3.771c1.212-5.106-.942-10.681.81-15.628a15.748,15.748,0,0,0,1.106-3.309,3.161,3.161,0,0,0-.611-2.324,3.046,3.046,0,0,1-.772-1.967,3.41,3.41,0,0,1,.019-.442,47.977,47.977,0,0,0,.3-6.817,15.98,15.98,0,0,0-1.615-6.58,18.691,18.691,0,0,1-1.582-3.158,8,8,0,0,1,.763-5.541,9.686,9.686,0,0,1,2.637-3.572,7.064,7.064,0,0,1,7.811-.5,11.534,11.534,0,0,1,3.932,4.613A7.933,7.933,0,0,1,757.958,320.57Z" transform="translate(-611.822 -255.893)" fill="#a1616a"/>
  <path id="Path_867" data-name="Path 867" d="M982.589,627l-.149.045" transform="translate(-819.965 -520.484)" fill="#464353"/>
  <path id="Path_868" data-name="Path 868" d="M808.15,670.793a1.28,1.28,0,0,1,.031-.173" transform="translate(-674.74 -555.835)" fill="#464353"/>
  <path id="Path_869" data-name="Path 869" d="M1004.175,595.082a3.834,3.834,0,0,1,2.007-1.027,20.153,20.153,0,0,1,3.636-.592,6.8,6.8,0,0,1,2.279.14,2.936,2.936,0,0,1,1.811,1.309,4.551,4.551,0,0,1,.426,1.962,17.949,17.949,0,0,1-.055,4.135c-.147.866-.423,1.7-.6,2.563-.578,2.815-.076,5.729-.128,8.6a4.447,4.447,0,0,1-.31,1.8,5,5,0,0,1-1.254,1.482,7.954,7.954,0,0,1-1.712,1.283,7.369,7.369,0,0,1-3.1.589,4.749,4.749,0,0,1-1.9-.216,1.774,1.774,0,0,1-1.172-1.416c-.069-1.1,1.167-1.813,1.52-2.852a3.1,3.1,0,0,0-.488-2.495,7.9,7.9,0,0,0-2.963-2.866,6.279,6.279,0,0,1-1.314-.81,1.393,1.393,0,0,1-.473-1.385,1.653,1.653,0,0,1,1.5-.924,5.145,5.145,0,0,0,1.827-.289,2.5,2.5,0,0,0,1.077-1.212,4.5,4.5,0,0,0,.2-3.388,4.159,4.159,0,0,0-.644-1.172c-.26-.332-.793-.613-.978-.977C1003.022,596.668,1003.733,595.6,1004.175,595.082Z" transform="translate(-834.755 -489.347)" fill="tomato"/>
  <path id="Path_870" data-name="Path 870" d="M835.393,429.115c-2.86-2.528-6.848-3.215-10.588-3.982q-2.89-.59-5.752-1.316a21.454,21.454,0,0,0-3.809-.746,6.453,6.453,0,0,0-3.747.755,3.847,3.847,0,0,0-1.957,3.153c0,.519.123,1.029.085,1.543a8.021,8.021,0,0,1-.833,2.332,6.129,6.129,0,0,0-.209,3.837c.554,2.021,2.15,3.8,2.012,5.887a39.443,39.443,0,0,0,.558,10.562c.717,3.42,1.612,6.855,1.591,10.354s-1.08,7.179-3.693,9.509a14.272,14.272,0,0,0,6.29,3.437c2.014.5,4.408.454,5.842-1.048a1.615,1.615,0,0,0,.538-1.285,2.51,2.51,0,0,0-.372-.84,8.435,8.435,0,0,1-.429-5.91,48.807,48.807,0,0,0,1.371-5.9c.139-1.46-.017-2.944.262-4.384.215-1.1.679-2.142.957-3.231.822-3.231-.042-6.623-.9-9.842a11.171,11.171,0,0,0,3.484,4.065c2.133,1.7,4.713,3.2,7.425,2.9a8.846,8.846,0,0,0,5.887-3.917c.012-2.277.8-4.429.661-6.7a17,17,0,0,0-.533-2.952,14.66,14.66,0,0,0-1.039-3.163C837.831,430.919,836.5,430.09,835.393,429.115Z" transform="translate(-675.371 -348.472)" opacity="0.06"/>
  <path id="Path_871" data-name="Path 871" d="M838.827,429.115c-2.86-2.528-6.846-3.215-10.588-3.982q-2.89-.59-5.75-1.316a21.484,21.484,0,0,0-3.809-.746,6.451,6.451,0,0,0-3.745.755,3.843,3.843,0,0,0-1.956,3.153c0,.519.121,1.029.083,1.543a8.235,8.235,0,0,1-.833,2.332,6.129,6.129,0,0,0-.208,3.837c.552,2.021,2.149,3.8,2.012,5.887a39.372,39.372,0,0,0,.556,10.562c.717,3.42,1.612,6.855,1.591,10.354s-1.087,7.167-3.7,9.494a14.282,14.282,0,0,0,6.29,3.437c2.014.5,4.41.454,5.842-1.048a1.616,1.616,0,0,0,.538-1.285,2.511,2.511,0,0,0-.372-.84,8.435,8.435,0,0,1-.429-5.91,49.125,49.125,0,0,0,1.373-5.9c.137-1.46-.019-2.943.261-4.384.213-1.1.679-2.142.956-3.231.822-3.231-.04-6.623-.9-9.842a11.16,11.16,0,0,0,3.485,4.065c2.133,1.7,4.711,3.2,7.423,2.9a8.846,8.846,0,0,0,5.887-3.917c.01-2.277.8-4.429.66-6.7a17.01,17.01,0,0,0-.533-2.952,14.56,14.56,0,0,0-1.039-3.163C841.275,430.919,839.931,430.09,838.827,429.115Z" transform="translate(-678.224 -348.472)" fill="#a1616a"/>
  <path id="Path_872" data-name="Path 872" d="M747.975,687.1a10.81,10.81,0,0,1-3.222-3.018,8.5,8.5,0,0,0-.97-1.271,1.873,1.873,0,0,0-1.437-.591,2.34,2.34,0,0,0-1.463.99c-1.022,1.266-1.679,2.814-2.814,3.982a10.289,10.289,0,0,1-4.959,2.542c-1.823.464-3.705.708-5.492,1.3a2.5,2.5,0,0,0-1.454.94,2.1,2.1,0,0,0,.232,2.133,6.257,6.257,0,0,0,3.371,2.457,30.51,30.51,0,0,0,4.156.923c2.469.483,5,1.257,7.456.712.98-.218,1.9-.641,2.9-.824,2.251-.419,4.573.428,6.832.088a10.694,10.694,0,0,0,3.117-1.093,4.293,4.293,0,0,0,1.333-.906,1.632,1.632,0,0,0,.431-1.491,6.01,6.01,0,0,0-.41-.835,4.291,4.291,0,0,1-.294-1.406,38.532,38.532,0,0,0-.949-5.416,2.205,2.205,0,0,0-.964-1.586.52.52,0,0,0-.386-.043c-.206.078-.273.327-.336.537a3.3,3.3,0,0,1-5.745,1.139" transform="translate(-606.909 -562.759)" fill="tomato"/>
  <path id="Path_873" data-name="Path 873" d="M698.226,214.961a11,11,0,0,1-.069,1.226,3.506,3.506,0,0,1-3.013-1c-.365-.388-.639-.857-1-1.248a1.527,1.527,0,0,0-2.516-.036,3.682,3.682,0,0,0-.843,1.491,2.033,2.033,0,0,1-.5,1.1,1.577,1.577,0,0,1-1.112.23,3.315,3.315,0,0,1-1.461-.277c-.831-.448-1.112-1.475-1.42-2.369-.519-1.5-1.688-4.341-3.5-4.644a3.838,3.838,0,0,0-2.6.807,4.651,4.651,0,0,1-3.1,1.2h0a10.87,10.87,0,0,1,21.153,3.518Z" transform="translate(-566.21 -177.418)" opacity="0.06"/>
  <path id="Path_874" data-name="Path 874" d="M666.237,183.216a2.613,2.613,0,0,1-.918-.145,2.476,2.476,0,0,1-1.319-2.2,9.841,9.841,0,0,1,.805-4.01,1.328,1.328,0,0,1,.466-.743,1.617,1.617,0,0,1,.656-.164,6.209,6.209,0,0,0,3.24-1.785,26.479,26.479,0,0,1,2.77-2.528,7.409,7.409,0,0,1,9.1.788c.931.914,1.731,2.154,3.023,2.369a10.889,10.889,0,0,1,2.251.144,2.657,2.657,0,0,1,1.188,1.131,11.219,11.219,0,0,1,1.57,5.106,33.345,33.345,0,0,1-.128,5.387,1.406,1.406,0,0,1-.2.764,1.165,1.165,0,0,1-.407.312,3.5,3.5,0,0,1-4.033-.679c-.367-.386-.639-.855-1-1.248a1.528,1.528,0,0,0-2.516-.035,3.685,3.685,0,0,0-.843,1.491,2.008,2.008,0,0,1-.5,1.1,1.589,1.589,0,0,1-1.113.232,3.312,3.312,0,0,1-1.46-.279c-.833-.447-1.113-1.473-1.42-2.367-.519-1.5-1.686-4.342-3.5-4.644a3.829,3.829,0,0,0-2.6.807A4.717,4.717,0,0,1,666.237,183.216Z" transform="translate(-555.378 -152.086)" fill="#464353"/>
  <path id="Path_875" data-name="Path 875" d="M270.96,609.295c-.12.79-.843,1.406-1.354,2.019-1.389,1.676-2.8,3.357-4.349,4.891a68.065,68.065,0,0,1-5.31,4.562l-2.365,1.893a2.978,2.978,0,0,1-1.006.606,1.837,1.837,0,0,1-1.3-.154c.035-.069.071-.133.111-.2l2.836-4.753c.558-.932.923-1.78,1.558-2.654a26.458,26.458,0,0,1,3.1-3.735,26.869,26.869,0,0,1,5.175-3.439,1.486,1.486,0,0,1,2.055-.618,2.565,2.565,0,0,1,.715.549A2.046,2.046,0,0,1,270.96,609.295Z" transform="translate(-215.984 -503.535)" opacity="0.06"/>
  <path id="Path_876" data-name="Path 876" d="M258.955,549.942l-2.836,4.755a.672.672,0,0,0,.161,1.077c1.087.885,2.292,1.818,2.634,3.177.244.97,0,2.008.218,2.981.4,1.756,2.164,2.822,3.833,3.5a21.7,21.7,0,0,0,11.866,1.385,17.387,17.387,0,0,0,10.318-5.842c.79-.956,1.465-2,2.215-2.989a47.48,47.48,0,0,1,7.331-7.182c3.368-2.853,5.352-7.109,8.311-10.389a4.149,4.149,0,0,1,1.9-1.409c.433-.109,1.039.052,1.056.5a5.056,5.056,0,0,0,1.212,2.3c1.794,2.743,3.671,5.57,6.443,7.319a20.5,20.5,0,0,0,4.95,2.078c4.346,1.354,8.777,2.424,13.2,3.484a7.406,7.406,0,0,1,.8-1.262c.459-.563,1.063-.992,1.524-1.558a8.224,8.224,0,0,0,1.409-3.664c-2.644-1.619-5.357-3.29-7.965-4.973a18.8,18.8,0,0,1-3.7-2.852c-.693-.752-1.274-1.612-1.969-2.369a20.092,20.092,0,0,0-2.289-2.031l-6.233-4.992c-1.79-1.432-3.615-2.944-5.368-4.426a4.374,4.374,0,0,0-6.432-.628q-8.359,5.006-16.968,9.561c-1.162.613-2.329,1.222-3.437,1.927a23.166,23.166,0,0,0-5.665,5.087c-.293.365-.663.781-1.127.725a1.014,1.014,0,0,1-.362-.126,4.415,4.415,0,0,1-1.558-1.823,4.225,4.225,0,0,0-1.583-1.8,1.486,1.486,0,0,0-2.055.62,28.186,28.186,0,0,0-5.179,3.459,26.35,26.35,0,0,0-3.1,3.735C259.878,548.164,259.511,549.012,258.955,549.942Z" transform="translate(-216.923 -432.606)" fill="#464353"/>
  <path id="Path_877" data-name="Path 877" d="M246.61,502.52a34.894,34.894,0,0,1,4.9,2.694" transform="translate(-208.746 -419.43)" opacity="0.06"/>
  <path id="Path_878" data-name="Path 878" d="M966.071,459.224c.052,1.615.093,3.234.074,4.848a5.284,5.284,0,0,1-.457,2.5,5.433,5.433,0,0,1-1.212,1.371l-2.852,2.585a6.356,6.356,0,0,1-3.018,1.837c-1.349.229-2.666-.428-3.963-.866a13.008,13.008,0,0,0-4.052-.68,14.972,14.972,0,0,1-2.365-.062,9.689,9.689,0,0,1-1.652-.469L944,469.391c.073-.649.693-1.063,1.212-1.473,1.844-1.5,2.653-3.9,3.234-6.2a36.986,36.986,0,0,0,1.008-5.473,8.986,8.986,0,0,0-.064-2.743,10.92,10.92,0,0,0-.762-2.1l-.906-2.041c-.519-1.153-1.558-1.666-2.616-2.346,1.6.606,3.542.843,4.756,2.045a3.151,3.151,0,0,0,.821.665,3.887,3.887,0,0,0,1.068.232,11.839,11.839,0,0,1,4.824,2.45q2.734,1.925,5.62,3.617a13.214,13.214,0,0,1,2.488,1.7,4.013,4.013,0,0,1,1.347,2.625" transform="translate(-788.18 -373.121)" fill="#464353"/>
  <path id="Path_879" data-name="Path 879" d="M158.819,444.2c-2.27.448-3.451,3.117-3.317,5.425a8.83,8.83,0,0,0,2.393,5.515c.947,1,2.128,1.764,2.983,2.84,1.264,1.586,1.7,3.683,2.834,5.368a14.622,14.622,0,0,0,3.117,3.1q3.958,3.158,8.174,5.979a6.825,6.825,0,0,0,3.768,1.506,4.7,4.7,0,0,0,3.333-1.771,14.216,14.216,0,0,0,1.934-3.356c1.977-4.311,3.969-8.669,4.914-13.317a17.224,17.224,0,0,1,1.157-4.3,20.87,20.87,0,0,1,1.974-2.867,19.778,19.778,0,0,0,3.338-7.459,9.621,9.621,0,0,0-.116-5.316,4.834,4.834,0,0,0-3.917-3.267,4.76,4.76,0,0,0-3.762,1.681,9.306,9.306,0,0,0-1.9,3.78,18.105,18.105,0,0,0-.623,6.06,20.716,20.716,0,0,1,.163,4.936,13.222,13.222,0,0,1-1.2,3.276,34.959,34.959,0,0,1-4.514,7.792,2.86,2.86,0,0,1-2.462,1.335c-1.333-.242-1.686-1.931-2.344-3.117-.807-1.454-2.337-2.329-3.537-3.484-1.707-1.645-2.731-3.851-3.944-5.887s-2.784-4.046-5.021-4.827-5.219.222-5.793,2.521" transform="translate(-132.714 -359.927)" opacity="0.06"/>
  <path id="Path_880" data-name="Path 880" d="M160.6,442.013c-2.272.448-5.163.741-5.021,3.053a8.813,8.813,0,0,0,2.393,5.515c.947,1,2.128,1.766,2.983,2.841,1.264,1.586,1.7,3.681,2.834,5.367a14.543,14.543,0,0,0,3.117,3.1q3.958,3.16,8.174,5.979a6.815,6.815,0,0,0,3.768,1.508,4.7,4.7,0,0,0,3.333-1.771,14.158,14.158,0,0,0,1.934-3.357c1.977-4.311,3.969-8.669,4.914-13.317a17.212,17.212,0,0,1,1.157-4.3,20.994,20.994,0,0,1,1.974-2.869,19.759,19.759,0,0,0,3.338-7.457,9.628,9.628,0,0,0-.116-5.317,4.834,4.834,0,0,0-3.917-3.267A4.766,4.766,0,0,0,187.7,429.4a9.292,9.292,0,0,0-1.9,3.782,18.1,18.1,0,0,0-.623,6.06,20.721,20.721,0,0,1,.163,4.936,13.209,13.209,0,0,1-1.2,3.278,35,35,0,0,1-4.514,7.792,2.865,2.865,0,0,1-2.462,1.335c-1.333-.244-1.686-1.932-2.344-3.117-.807-1.454-2.337-2.329-3.537-3.484-1.707-1.643-2.731-3.851-3.944-5.887s-2.784-4.045-5.021-4.827.564,4.23-.012,6.529" transform="translate(-132.78 -356.264)" opacity="0.06"/>
  <path id="Path_881" data-name="Path 881" d="M158.819,441.927c-2.27.448-3.451,3.117-3.317,5.425a8.831,8.831,0,0,0,2.393,5.516c.947,1,2.128,1.764,2.983,2.84,1.264,1.586,1.7,3.683,2.834,5.368a14.591,14.591,0,0,0,3.117,3.1q3.958,3.158,8.174,5.977a6.815,6.815,0,0,0,3.768,1.508,4.7,4.7,0,0,0,3.333-1.771,14.216,14.216,0,0,0,1.934-3.356c1.977-4.311,3.969-8.669,4.914-13.318a17.212,17.212,0,0,1,1.157-4.3,21,21,0,0,1,1.974-2.869,19.759,19.759,0,0,0,3.338-7.457,9.627,9.627,0,0,0-.116-5.317,4.829,4.829,0,0,0-3.917-3.266,4.755,4.755,0,0,0-3.762,1.681,9.306,9.306,0,0,0-1.9,3.78,18.106,18.106,0,0,0-.623,6.06,20.7,20.7,0,0,1,.163,4.935,13.209,13.209,0,0,1-1.2,3.278,34.959,34.959,0,0,1-4.514,7.792,2.865,2.865,0,0,1-2.462,1.335c-1.333-.244-1.686-1.931-2.344-3.117-.807-1.456-2.337-2.331-3.537-3.484-1.707-1.645-2.731-3.851-3.944-5.887s-2.784-4.045-5.021-4.826-5.219.222-5.793,2.521" transform="translate(-132.714 -358.103)" fill="#fbbebe"/>
  <g id="Group_132" data-name="Group 132" transform="translate(11.119 48.062)" opacity="0.06">
    <path id="Path_882" data-name="Path 882" d="M94.469,381.138a21.874,21.874,0,0,1-1.806-3.745l-.059-.173a5.609,5.609,0,0,1-.912-1.314,6.625,6.625,0,0,1-.592-2.6v-.1a3.911,3.911,0,0,0-.272.866,5.676,5.676,0,0,0,.455,2.905,21.936,21.936,0,0,0,1.806,3.745c1.075,1.8,2.448,3.529,2.661,5.591.32,3.085-2.007,5.8-2.582,8.851-.44,2.329.118,4.931-1.127,6.947a5.832,5.832,0,0,1-1.951,1.849,5.519,5.519,0,0,1-1.6.693,3.722,3.722,0,0,1-.332.346,4.009,4.009,0,0,0,3.314-.639,5.856,5.856,0,0,0,1.951-1.851c1.245-2.015.693-4.618,1.125-6.947.577-3.047,2.9-5.766,2.583-8.851C96.919,384.641,95.548,382.911,94.469,381.138Z" transform="translate(-88.16 -361.975)"/>
    <path id="Path_883" data-name="Path 883" d="M163.557,312.247a5.42,5.42,0,0,0-2.351-2.334,13.611,13.611,0,0,0-3.949-1.593,14.116,14.116,0,0,1,2.566,1.2,5.446,5.446,0,0,1,2.353,2.336,2.425,2.425,0,0,1-.738,3,4.265,4.265,0,0,1-2.317.317,13.93,13.93,0,0,0-2.047.1,1.968,1.968,0,0,0-.706.187,1.757,1.757,0,0,0-.654.77,5.381,5.381,0,0,0-.554,1.7,3.9,3.9,0,0,1-.5,1.922c-.564.719-1.448.609-2.251.751a6.061,6.061,0,0,0-1.976.755,4.816,4.816,0,0,0-2.334,3.83,7.1,7.1,0,0,1-.1,1.664,2.746,2.746,0,0,1-.45.866,5.906,5.906,0,0,1,.8,1.079,4.1,4.1,0,0,0,1.039-1.55,7.117,7.117,0,0,0,.1-1.666,4.826,4.826,0,0,1,2.334-3.83A6,6,0,0,1,153.8,321c.8-.144,1.683-.035,2.251-.753a3.894,3.894,0,0,0,.5-1.922,5.378,5.378,0,0,1,.552-1.7,1.747,1.747,0,0,1,.655-.762,1.9,1.9,0,0,1,.706-.187,14.175,14.175,0,0,1,2.047-.106,4.249,4.249,0,0,0,2.317-.317A2.442,2.442,0,0,0,163.557,312.247Z" transform="translate(-137.267 -308.32)"/>
  </g>
  <path id="Path_884" data-name="Path 884" d="M174.52,426.55s2.045,1.759,5.929.693C180.449,427.239,178.044,428.186,174.52,426.55Z" transform="translate(-148.448 -357.944)" opacity="0.06"/>
  <path id="Path_885" data-name="Path 885" d="M688.766,229.2a1.411,1.411,0,0,1-.208.758,1.157,1.157,0,0,1-.407.31,3.492,3.492,0,0,1-4.031-.677c-.367-.388-.639-.866-1-1.248a1.841,1.841,0,0,0-1.385-.675,1.817,1.817,0,0,0-1.131.639,3.749,3.749,0,0,0-.843,1.491,2.014,2.014,0,0,1-.5,1.1,1.578,1.578,0,0,1-1.113.23,3.278,3.278,0,0,1-1.46-.277c-.833-.447-1.113-1.475-1.422-2.367-.519-1.5-1.686-4.343-3.5-4.646a3.844,3.844,0,0,0-2.6.807,4.7,4.7,0,0,1-3.1,1.212,2.646,2.646,0,0,1-.918-.145,2.372,2.372,0,0,1-1.292-1.948,5.769,5.769,0,0,0-.029,1.134,2.485,2.485,0,0,0,1.321,2.2,2.648,2.648,0,0,0,.918.145,4.655,4.655,0,0,0,3.1-1.2,3.84,3.84,0,0,1,2.6-.807c1.809.294,2.987,3.134,3.5,4.635.308.893.589,1.922,1.422,2.369a3.3,3.3,0,0,0,1.46.277,1.633,1.633,0,0,0,1.113-.23,2.148,2.148,0,0,0,.5-1.1,3.735,3.735,0,0,1,.843-1.491,1.826,1.826,0,0,1,1.131-.639,1.763,1.763,0,0,1,1.385.675c.346.393.634.866,1,1.248a3.492,3.492,0,0,0,4.031.677,1.179,1.179,0,0,0,.407-.31,1.414,1.414,0,0,0,.208-.76,41.321,41.321,0,0,0,.173-4.387C688.918,227.192,688.844,228.194,688.766,229.2Z" transform="translate(-555.235 -193.415)" opacity="0.06"/>
  <path id="Path_886" data-name="Path 886" d="M85.112,658.185s.275-.306-.242-.428v-.5h.312a2.658,2.658,0,0,0-2.107-2.6v-.611h.081v-.795h-2v.795h.057v.618a2.659,2.659,0,0,0-2.078,2.6h.275v.483s-.656.31,0,.866.554.957.554.957-.275,1.039-.828,1.174v9.632a2.14,2.14,0,0,0,2.14,2.142h1.692a2.142,2.142,0,0,0,2.142-2.142V660.74s-.968-.726-.795-1.174A10.832,10.832,0,0,1,85.112,658.185Z" transform="translate(-69.562 -538.814)" fill="#464353"/>
</svg>
