<svg xmlns="http://www.w3.org/2000/svg" xmlns:xlink="http://www.w3.org/1999/xlink" width="406.903" height="304.813" viewBox="0 0 406.903 304.813">
  <defs>
    <linearGradient id="linear-gradient" x1="0.5" y1="1" x2="0.5" gradientUnits="objectBoundingBox">
      <stop offset="0" stop-color="gray" stop-opacity="0.251"/>
      <stop offset="0.54" stop-color="gray" stop-opacity="0.122"/>
      <stop offset="1" stop-color="gray" stop-opacity="0.102"/>
    </linearGradient>
    <linearGradient id="linear-gradient-2" x1="0.454" y1="1" x2="0.454" y2="0" xlink:href="#linear-gradient"/>
    <linearGradient id="linear-gradient-3" x1="0.499" y1="1" x2="0.499" y2="0" xlink:href="#linear-gradient"/>
  </defs>
  <g id="undraw_drone_delivery_5vrm" transform="translate(0 -0.01)">
    <path id="Path_1831" data-name="Path 1831" d="M386.42,134.265V107.088H370.284v27.177H351.175V92.226H337.162V60.8H325.7V28.53h-23.78V60.8H290.452V92.226H276.864V54.433H269.22V35.324h-4.671V54.433H237.372v120.6H216.565V162.291H203.826V175.03H183.019V134.265H145.651V107.088H129.514v27.177h-.849V186.5H111.68V155.921H91.3V186.5H74.312V92.226H61.148V60.8H12.739V92.226H0V258.259H405.529V134.265Z" transform="translate(0 -16.409)" fill="tomato" opacity="0.25"/>
    <rect id="Rectangle_496" data-name="Rectangle 496" width="17.835" height="10.191" transform="translate(8.068 85.583)" fill="#fff" opacity="0.4"/>
    <rect id="Rectangle_497" data-name="Rectangle 497" width="17.835" height="10.191" transform="translate(65.819 95.774) rotate(180)" fill="#fff" opacity="0.4"/>
    <rect id="Rectangle_498" data-name="Rectangle 498" width="17.835" height="10.191" transform="translate(8.068 105.541)" fill="#fff" opacity="0.4"/>
    <rect id="Rectangle_499" data-name="Rectangle 499" width="17.835" height="10.191" transform="translate(65.819 115.732) rotate(180)" fill="#fff" opacity="0.4"/>
    <rect id="Rectangle_500" data-name="Rectangle 500" width="17.835" height="10.191" transform="translate(8.068 125.499)" fill="#fff" opacity="0.4"/>
    <rect id="Rectangle_501" data-name="Rectangle 501" width="17.835" height="10.191" transform="translate(65.819 135.69) rotate(180)" fill="#fff" opacity="0.4"/>
    <rect id="Rectangle_502" data-name="Rectangle 502" width="17.835" height="10.191" transform="translate(8.068 145.457)" fill="#fff" opacity="0.4"/>
    <rect id="Rectangle_503" data-name="Rectangle 503" width="17.835" height="10.191" transform="translate(65.819 155.648) rotate(180)" fill="#fff" opacity="0.4"/>
    <rect id="Rectangle_504" data-name="Rectangle 504" width="17.835" height="10.191" transform="translate(8.068 165.415)" fill="#fff" opacity="0.4"/>
    <rect id="Rectangle_505" data-name="Rectangle 505" width="17.835" height="10.191" transform="translate(65.819 175.606) rotate(180)" fill="#fff" opacity="0.4"/>
    <rect id="Rectangle_506" data-name="Rectangle 506" width="17.835" height="10.191" transform="translate(8.068 185.373)" fill="#fff" opacity="0.4"/>
    <rect id="Rectangle_507" data-name="Rectangle 507" width="17.835" height="10.191" transform="translate(65.819 195.564) rotate(180)" fill="#fff" opacity="0.4"/>
    <rect id="Rectangle_508" data-name="Rectangle 508" width="17.835" height="10.191" transform="translate(8.068 205.331)" fill="#fff" opacity="0.4"/>
    <rect id="Rectangle_509" data-name="Rectangle 509" width="17.835" height="10.191" transform="translate(65.819 215.522) rotate(180)" fill="#fff" opacity="0.4"/>
    <rect id="Rectangle_510" data-name="Rectangle 510" width="41.614" height="5.096" transform="translate(80.681 180.277)" fill="#fff" opacity="0.4"/>
    <rect id="Rectangle_511" data-name="Rectangle 511" width="41.614" height="5.096" transform="translate(80.681 187.921)" fill="#fff" opacity="0.4"/>
    <rect id="Rectangle_512" data-name="Rectangle 512" width="41.614" height="5.096" transform="translate(80.681 195.564)" fill="#fff" opacity="0.4"/>
    <rect id="Rectangle_513" data-name="Rectangle 513" width="41.614" height="5.096" transform="translate(189.388 182.825)" fill="#fff" opacity="0.4"/>
    <rect id="Rectangle_514" data-name="Rectangle 514" width="41.614" height="5.096" transform="translate(189.388 190.468)" fill="#fff" opacity="0.4"/>
    <rect id="Rectangle_515" data-name="Rectangle 515" width="41.614" height="5.096" transform="translate(189.388 198.112)" fill="#fff" opacity="0.4"/>
    <rect id="Rectangle_516" data-name="Rectangle 516" width="41.614" height="5.096" transform="translate(80.681 203.208)" fill="#fff" opacity="0.4"/>
    <rect id="Rectangle_517" data-name="Rectangle 517" width="41.614" height="5.096" transform="translate(80.681 210.851)" fill="#fff" opacity="0.4"/>
    <rect id="Rectangle_518" data-name="Rectangle 518" width="41.614" height="5.096" transform="translate(80.681 218.494)" fill="#fff" opacity="0.4"/>
    <rect id="Rectangle_519" data-name="Rectangle 519" width="11.465" height="14.862" transform="translate(137.583 127.622)" fill="#fff" opacity="0.4"/>
    <rect id="Rectangle_520" data-name="Rectangle 520" width="11.465" height="14.862" transform="translate(174.101 142.484) rotate(180)" fill="#fff" opacity="0.4"/>
    <rect id="Rectangle_521" data-name="Rectangle 521" width="11.465" height="14.862" transform="translate(137.583 151.402)" fill="#fff" opacity="0.4"/>
    <rect id="Rectangle_522" data-name="Rectangle 522" width="11.465" height="14.862" transform="translate(174.101 166.264) rotate(180)" fill="#fff" opacity="0.4"/>
    <rect id="Rectangle_523" data-name="Rectangle 523" width="11.465" height="14.862" transform="translate(137.583 175.181)" fill="#fff" opacity="0.4"/>
    <rect id="Rectangle_524" data-name="Rectangle 524" width="11.465" height="14.862" transform="translate(174.101 190.044) rotate(180)" fill="#fff" opacity="0.4"/>
    <rect id="Rectangle_525" data-name="Rectangle 525" width="11.465" height="14.862" transform="translate(137.583 198.961)" fill="#fff" opacity="0.4"/>
    <rect id="Rectangle_526" data-name="Rectangle 526" width="11.465" height="14.862" transform="translate(174.101 213.823) rotate(180)" fill="#fff" opacity="0.4"/>
    <rect id="Rectangle_527" data-name="Rectangle 527" width="15.287" height="19.533" transform="translate(237.372 47.79)" fill="#fff" opacity="0.4"/>
    <rect id="Rectangle_528" data-name="Rectangle 528" width="15.287" height="19.533" transform="translate(237.372 75.816)" fill="#fff" opacity="0.4"/>
    <rect id="Rectangle_529" data-name="Rectangle 529" width="15.287" height="19.533" transform="translate(237.372 103.842)" fill="#fff" opacity="0.4"/>
    <rect id="Rectangle_530" data-name="Rectangle 530" width="15.287" height="19.533" transform="translate(237.372 131.868)" fill="#fff" opacity="0.4"/>
    <rect id="Rectangle_531" data-name="Rectangle 531" width="15.287" height="19.533" transform="translate(237.372 159.894)" fill="#fff" opacity="0.4"/>
    <rect id="Rectangle_532" data-name="Rectangle 532" width="15.287" height="19.533" transform="translate(237.372 187.921)" fill="#fff" opacity="0.4"/>
    <rect id="Rectangle_533" data-name="Rectangle 533" width="56.901" height="16.561" transform="translate(285.569 87.706)" fill="#fff" opacity="0.4"/>
    <rect id="Rectangle_534" data-name="Rectangle 534" width="56.901" height="16.561" transform="translate(285.781 123.376)" fill="#fff" opacity="0.4"/>
    <rect id="Rectangle_535" data-name="Rectangle 535" width="56.901" height="16.561" transform="translate(285.993 159.045)" fill="#fff" opacity="0.4"/>
    <rect id="Rectangle_536" data-name="Rectangle 536" width="56.901" height="16.561" transform="translate(286.206 194.715)" fill="#fff" opacity="0.4"/>
    <rect id="Rectangle_537" data-name="Rectangle 537" width="7.643" height="16.136" transform="translate(12.739 53.31)" fill="#fff" opacity="0.4"/>
    <rect id="Rectangle_538" data-name="Rectangle 538" width="19.109" height="24.629" transform="translate(386.42 127.622)" fill="#fff" opacity="0.4"/>
    <rect id="Rectangle_539" data-name="Rectangle 539" width="19.109" height="24.629" transform="translate(386.42 163.292)" fill="#fff" opacity="0.4"/>
    <rect id="Rectangle_540" data-name="Rectangle 540" width="19.109" height="24.629" transform="translate(386.42 198.961)" fill="#fff" opacity="0.4"/>
    <path id="Path_1832" data-name="Path 1832" d="M344.937,161.776h-2.921a2.047,2.047,0,1,0,0-4.089H318.351a2.047,2.047,0,0,0,0,4.089h2.922a2.047,2.047,0,1,0,0,4.089h-4.089a2.047,2.047,0,0,0,0,4.089h23.665a2.047,2.047,0,0,0,0-4.089h4.089a2.047,2.047,0,1,0,0-4.089Z" transform="translate(-232.544 -129.409)" fill="#252223" opacity="0.1"/>
    <path id="Path_1833" data-name="Path 1833" d="M590.685,282.776h-2.921a2.047,2.047,0,1,0,0-4.089H564.1a2.047,2.047,0,0,0,0,4.089h2.922a2.047,2.047,0,1,0,0,4.089H562.93a2.047,2.047,0,1,0,0,4.089H586.6a2.047,2.047,0,1,0,0-4.089h4.089a2.047,2.047,0,1,0,0-4.089Z" transform="translate(-373.831 -199.028)" fill="#252223" opacity="0.1"/>
    <path id="Path_1834" data-name="Path 1834" d="M1009.685,124.776h-2.922a2.047,2.047,0,1,0,0-4.089H983.1a2.047,2.047,0,0,0,0,4.089h2.922a2.047,2.047,0,1,0,0,4.089h-4.089a2.047,2.047,0,1,0,0,4.089H1005.6a2.047,2.047,0,1,0,0-4.089h4.089a2.047,2.047,0,1,0,0-4.089Z" transform="translate(-614.908 -108.121)" fill="#252223" opacity="0.1"/>
    <path id="Path_1835" data-name="Path 1835" d="M726.308,93.044a76.913,76.913,0,0,0-10.705.645h0a2.569,2.569,0,0,0-5.138,0h0a76.913,76.913,0,0,0-10.705-.645c-7.919,0-14.344.849-14.344,1.928S691.836,96.9,699.76,96.9a76.912,76.912,0,0,0,10.705-.645h0a2.548,2.548,0,0,0,.166.9,1.7,1.7,0,0,0-.17,2.773,4.744,4.744,0,0,0-2.815,2.59,4.386,4.386,0,0,0-2.463-.9l-26.671-1.189a10.421,10.421,0,0,0-8.353-4.183h-16.79a10.421,10.421,0,0,0-8.4,4.246l-25.334,1.134a4.387,4.387,0,0,0-2.306.777,4.743,4.743,0,0,0-2.467-2.369,1.7,1.7,0,0,0-.4-3.053,2.55,2.55,0,0,0,.106-.735h0a76.907,76.907,0,0,0,10.705.645c7.919,0,14.344-.849,14.344-1.928s-6.421-1.928-14.344-1.928a76.91,76.91,0,0,0-10.705.645h0a2.548,2.548,0,0,0-2.548-2.548h0a2.548,2.548,0,0,0-2.548,2.548h0a76.908,76.908,0,0,0-10.705-.645c-7.919,0-14.344.849-14.344,1.928s6.42,1.928,14.344,1.928a76.908,76.908,0,0,0,10.705-.645h0a2.548,2.548,0,0,0,.166.9,1.7,1.7,0,0,0-.1,2.828,4.731,4.731,0,0,0-3.062,4.42v3.168a4.73,4.73,0,0,0,4.692,4.726h1.881a4.718,4.718,0,0,0,3.792-1.911,4.387,4.387,0,0,0,2.871,1.176l24.841.7a10.488,10.488,0,0,0,3.079,3.138c-2.378,2.416-11.652,13.13-10.157,32.009,0,0,1.5,2.781,5.35,0,0,0-2.463-21.037,11.325-29.7a3.423,3.423,0,0,0,3.231,2.3h1.762a9.206,9.206,0,1,0,6.756,0h1.762a3.422,3.422,0,0,0,3.231-2.3c13.788,8.662,11.325,29.7,11.325,29.7,3.852,2.781,5.35,0,5.35,0,1.7-21.623-10.705-32.536-10.705-32.536h-.225a10.49,10.49,0,0,0,2.327-2.573l26.149-.73A4.391,4.391,0,0,0,708.1,110.3a4.722,4.722,0,0,0,3.881,2.03h1.881a4.73,4.73,0,0,0,4.731-4.73v-3.168a4.73,4.73,0,0,0-2.8-4.319,1.7,1.7,0,0,0-.306-3.1,2.548,2.548,0,0,0,.106-.735h0a76.9,76.9,0,0,0,10.705.645c7.919,0,14.344-.849,14.344-1.928S734.232,93.044,726.308,93.044Z" transform="translate(-387.426 -91.11)" fill="url(#linear-gradient)"/>
    <circle id="Ellipse_391" data-name="Ellipse 391" cx="8.68" cy="8.68" r="8.68" transform="translate(266.413 28.295)" fill="tomato"/>
    <circle id="Ellipse_392" data-name="Ellipse 392" cx="5.856" cy="5.856" r="5.856" transform="translate(269.237 31.119)" fill="tomato"/>
    <circle id="Ellipse_393" data-name="Ellipse 393" cx="5.856" cy="5.856" r="5.856" transform="translate(269.237 31.119)" fill="#f5f5f5" opacity="0.2"/>
    <circle id="Ellipse_394" data-name="Ellipse 394" cx="3.834" cy="3.834" r="3.834" transform="translate(271.258 33.14)" fill="tomato"/>
    <circle id="Ellipse_395" data-name="Ellipse 395" cx="3.834" cy="3.834" r="3.834" transform="translate(271.258 33.14)" opacity="0.25"/>
    <path id="Path_1836" data-name="Path 1836" d="M722.6,147.734s-11.707,10.3-10.094,30.684c0,0,1.414,2.624,5.049,0,0,0-3.028-25.843,17.16-30.689Z" transform="translate(-461.033 -123.681)" fill="tomato"/>
    <path id="Path_1837" data-name="Path 1837" d="M783.8,147.734s11.712,10.3,10.111,30.684c0,0-1.414,2.624-5.049,0,0,0,3.028-25.843-17.16-30.689Z" transform="translate(-495.18 -123.681)" fill="tomato"/>
    <rect id="Rectangle_541" data-name="Rectangle 541" width="35.534" height="19.686" rx="9.843" transform="translate(256.617 6.486)" fill="tomato"/>
    <path id="Path_1838" data-name="Path 1838" d="M695.5,126.777,667.773,126a4.157,4.157,0,0,1-4.043-4.157v-1.062a4.157,4.157,0,0,1,3.97-4.153l27.725-1.244a4.157,4.157,0,0,1,4.344,4.153v3.087a4.157,4.157,0,0,1-4.272,4.153Z" transform="translate(-433.058 -105.068)" fill="tomato"/>
    <path id="Path_1839" data-name="Path 1839" d="M791.872,126.777,819.6,126a4.157,4.157,0,0,0,4.043-4.157v-1.062a4.157,4.157,0,0,0-3.97-4.153l-27.725-1.244a4.157,4.157,0,0,0-4.344,4.153v3.087a4.157,4.157,0,0,0,4.272,4.153Z" transform="translate(-504.329 -105.068)" fill="tomato"/>
    <path id="Path_1840" data-name="Path 1840" d="M695.5,126.777,667.773,126a4.157,4.157,0,0,1-4.043-4.157v-1.062a4.157,4.157,0,0,1,3.97-4.153l27.725-1.244a4.157,4.157,0,0,1,4.344,4.153v3.087a4.157,4.157,0,0,1-4.272,4.153Z" transform="translate(-433.058 -105.068)" fill="#f5f5f5" opacity="0.2"/>
    <path id="Path_1841" data-name="Path 1841" d="M791.872,126.777,819.6,126a4.157,4.157,0,0,0,4.043-4.157v-1.062a4.157,4.157,0,0,0-3.97-4.153l-27.725-1.244a4.157,4.157,0,0,0-4.344,4.153v3.087a4.157,4.157,0,0,0,4.272,4.153Z" transform="translate(-504.329 -105.068)" fill="#f5f5f5" opacity="0.2"/>
    <rect id="Rectangle_542" data-name="Rectangle 542" width="10.701" height="11.911" rx="5.35" transform="translate(222.196 9.717)" fill="tomato"/>
    <rect id="Rectangle_543" data-name="Rectangle 543" width="10.701" height="11.911" rx="5.35" transform="translate(317.289 9.717)" fill="tomato"/>
    <rect id="Rectangle_544" data-name="Rectangle 544" width="6.459" height="3.231" rx="1.616" transform="translate(224.417 7.093)" fill="tomato"/>
    <rect id="Rectangle_545" data-name="Rectangle 545" width="4.845" height="7.27" rx="2.423" transform="translate(225.024 1.641)" fill="tomato"/>
    <ellipse id="Ellipse_396" data-name="Ellipse 396" cx="13.529" cy="1.817" rx="13.529" ry="1.817" transform="translate(201.397 3.458)" fill="tomato"/>
    <ellipse id="Ellipse_397" data-name="Ellipse 397" cx="13.529" cy="1.817" rx="13.529" ry="1.817" transform="translate(226.434 3.458)" fill="tomato"/>
    <rect id="Rectangle_546" data-name="Rectangle 546" width="6.459" height="3.231" rx="1.616" transform="translate(319.71 7.093)" fill="tomato"/>
    <rect id="Rectangle_547" data-name="Rectangle 547" width="4.845" height="7.27" rx="2.423" transform="translate(320.317 1.641)" fill="tomato"/>
    <ellipse id="Ellipse_398" data-name="Ellipse 398" cx="13.529" cy="1.817" rx="13.529" ry="1.817" transform="translate(296.694 3.458)" fill="tomato"/>
    <ellipse id="Ellipse_399" data-name="Ellipse 399" cx="13.529" cy="1.817" rx="13.529" ry="1.817" transform="translate(321.727 3.458)" fill="tomato"/>
    <ellipse id="Ellipse_400" data-name="Ellipse 400" cx="13.529" cy="1.817" rx="13.529" ry="1.817" transform="translate(201.397 3.458)" fill="#f5f5f5" opacity="0.2"/>
    <ellipse id="Ellipse_401" data-name="Ellipse 401" cx="13.529" cy="1.817" rx="13.529" ry="1.817" transform="translate(226.434 3.458)" fill="#f5f5f5" opacity="0.2"/>
    <ellipse id="Ellipse_402" data-name="Ellipse 402" cx="13.529" cy="1.817" rx="13.529" ry="1.817" transform="translate(296.694 3.458)" fill="#f5f5f5" opacity="0.2"/>
    <ellipse id="Ellipse_403" data-name="Ellipse 403" cx="13.529" cy="1.817" rx="13.529" ry="1.817" transform="translate(321.727 3.458)" fill="#f5f5f5" opacity="0.2"/>
    <rect id="Rectangle_548" data-name="Rectangle 548" width="16.153" height="6.459" rx="3.229" transform="translate(267.016 22.435)" fill="tomato"/>
    <rect id="Rectangle_549" data-name="Rectangle 549" width="16.153" height="6.459" rx="3.229" transform="translate(267.016 22.435)" fill="#f5f5f5" opacity="0.2"/>
    <path id="Path_1842" data-name="Path 1842" d="M633.621,131.85H597.65v35.971h45.16V131.85Z" transform="translate(-343.866 -75.856)" fill="#67647e"/>
    <rect id="Rectangle_550" data-name="Rectangle 550" width="9.193" height="35.971" transform="translate(289.756 55.994)" opacity="0.25"/>
    <rect id="Rectangle_551" data-name="Rectangle 551" width="6.794" height="3.597" transform="translate(258.18 61.99)" opacity="0.25"/>
    <path id="Path_1843" data-name="Path 1843" d="M758.167,208.909a8.276,8.276,0,0,1,1.274,4.956,8.437,8.437,0,0,1-4.246-2.883c-1.537-2.166-2.123-4.382-1.274-4.956S756.639,206.739,758.167,208.909Z" transform="translate(-484.726 -157.144)" fill="#67647e"/>
    <path id="Path_1844" data-name="Path 1844" d="M768.792,208.909a8.276,8.276,0,0,0-1.274,4.956,8.436,8.436,0,0,0,4.246-2.883c1.537-2.166,2.123-4.382,1.274-4.956S770.321,206.739,768.792,208.909Z" transform="translate(-492.765 -157.144)" fill="#67647e"/>
    <path id="Path_1845" data-name="Path 1845" d="M324.417,444.59l-.047.144A.847.847,0,0,0,324.417,444.59Z" transform="translate(-237.803 -294.483)" fill="url(#linear-gradient-2)"/>
    <path id="Path_1846" data-name="Path 1846" d="M406.4,471.928a1.022,1.022,0,0,0,.081-.123l.047-.089c.021-.042.047-.081.064-.123l.034-.089c0-.042.034-.085.047-.127s0-.055.021-.085a.377.377,0,0,0,.03-.132.251.251,0,0,0,0-.081v-.611a.252.252,0,0,0-.034-.153v-.047a.592.592,0,0,0-.051-.161v-.034a1.708,1.708,0,0,0-.068-.166v-.025q-.038-.089-.085-.174h0l-.1-.183h0a6.285,6.285,0,0,0-1.457-1.58c-4.378,1.8-9.767-.259-9.767-.259s-7.219-3.605-6.7-2.578a3.167,3.167,0,0,1-.11,1.813,9.489,9.489,0,0,1-6.4-4.246l3.936-4.246s-15.971-9.015-17.771-13.652-10.561-17.771-10.561-17.771-2.832-10.3-7.983-12.62c0,0-10.272-12.272-16.272-22.795,2.123-5.3,5.1-13.588,4.425-17.126-.849-4.408.03-12.739.382-15.686,2.849,2.378,14.438,11.792,18.935,11.567a10.1,10.1,0,0,0,4.994-2.1,35.16,35.16,0,0,0,7.372-6.913c-.526.051-.955-.425-1.3-1.231,4.3-4.671,13.21-14.285,14.183-14.48,1.274-.259,8.242-12.361,4.378-14.939s-10.816,6.7-11.075,8.493c-.174,1.223-5.563,6.59-9.011,9.92v-.132l-.51.255v-.255l-8.9,4.446-7.588-10.37s-2.059-11.075-7.219-12.879S333.4,322.8,333.4,322.8a5.3,5.3,0,0,0-.115.548c-.259-.344-.4-.548-.4-.548a.339.339,0,0,1-.034.123,13.55,13.55,0,0,1-.293-4.849l.072-.042c.03-.2.064-.391.1-.573a12.888,12.888,0,0,0,5.219-15.962,28.693,28.693,0,0,1,4.832-2.183,14.174,14.174,0,0,0,5.813-4.395,5.125,5.125,0,0,0-2.692.055c-.11-1.193,1.274-2.548.2-3.457a3.284,3.284,0,0,0-2.841-.234,15.981,15.981,0,0,1-2.807.849,6.734,6.734,0,0,1-4.641-1.546,12.069,12.069,0,0,0-4.081-2.416c-3.308-.849-6.586,1.108-9.907,1.941-5.333,1.333-8.493,2.76-8.752,6.157a11.039,11.039,0,0,0-1.885,1.6,7.028,7.028,0,0,0-2.259,3.822c-.45,2.31.484,4.671,1.614,6.726.641,1.176,3.724,7.27,5.818,6.467a12.949,12.949,0,0,0,1.928,1.8c-.068.7-.166,1.41-.276,2.123a4.789,4.789,0,0,1-1.516.522,18.232,18.232,0,0,1-3.495.306,51.152,51.152,0,0,1-5.482-.336,46.284,46.284,0,0,0-5.329-.306,26,26,0,0,0-2.658.127h-.136l-.527.064h-.081l-.573.093h-.064l-.467.093-.106.021-.476.115h0l-.467.132-.076.021-.365.115-.081.025c-.276.093-.535.2-.781.3l-.076.034-.306.132-.055.025-.344.161h-.03l-.3.149-.072.038-.289.149h0l-.365.191-.221.115-.1.055-.3.153c-2.578,1.274-27.559,7.983-31.937,21.376l.089.081h0l.1.089c-.072.2-.144.391-.208.586,0,0,.425.382,1.087,1-1.176,5.121-4.327,18.208-5.983,18.828-2.06.773-4.378,16.484,1.032,15.971s5.41-13.134,5.41-13.134a153.355,153.355,0,0,1,6.2-14.416,6.768,6.768,0,0,1,1.032,2v0a1.448,1.448,0,0,1,.03.679c.255-.747,1.575-4.178,4.331-3.72,2.943.493,14.06-10.459,15.113-11.508-.025.285-.059.641-.093,1.053h0c0,.242-.042.5-.064.781V342.2l-.021.318v1.8l-.03.467v.064l-.025.425v1.193l-.021.425v.085q0,.276-.025.556v.034q0,.255-.021.51v1.312q0,.582-.038,1.176v4.518c0,5.618.344,11.338,1.605,14.6a16.044,16.044,0,0,1,1.053,5.486,22.391,22.391,0,0,1-2.6,9.711h0l.3-.093-.055.1.166-.051c-.255.531-.425.824-.425.824s.374-.119,1.04-.314a27.323,27.323,0,0,0,.246,15s1.032,5.665.259,7.728-1.546,18.544-1.546,18.544a3.507,3.507,0,0,1-4.378.773c-2.832-1.287-37.6-5.665-37.6-5.665s-.081.14-.217.391c-1.07-.335-2.612-.849-3.737-1.321.425-.586.8-.921,1.121-.875,0,0-1.856-.9-3.877-1.605h0l-.369-.127h0l-.361-.119h-.025l-.344-.106h-.038l-.314-.089h-.064l-.3-.076h-.076l-.285-.064h-.081l-.255-.051h-.1l-.229-.038h-.11l-.208-.025h-.964l-.14.03h-.093l-.119.042-.085.03a1,1,0,0,0-.11.064l-.064.038a.8.8,0,0,0-.14.132c-1.274,1.546-8.493,31.164-5.151,33.224l.289.174.119.068.153.085.149.076.106.055.161.076.081.038.166.072.059.025.17.064h.038l.174.055h.021c1.868.505,2.488-1.223,4.752-4.926,2.217-3.626,5.066-8.2,7.554-9.894.055.123.11.246.17.365,0,0,26.013,2.832,35.542,5.945s16.985,7.219,23.181,0c5.546-6.467,11.087-27.44,12.17-31.691h0l.161-.637h0v-.11l20.6,15.712,9.015,10.561s12.62,17.771,14.939,18.03,12.76,17.266,12.76,17.266l.391-.425c.093.471.166.9.221,1.274-.849,2.043-.064,4.505.709,6.128h0l.034.068.089.178.047.093.085.166.042.081.089.17.047.081.068.123.034.064.089.153.038.064.055.089.03.051.068.11.026.042.042.064v.03l.042.068h0l.025.034h0s27.045-6.438,30.391-8.493c.106-.064.2-.132.3-.2l.085-.068.17-.136.085-.081.132-.123.076-.089.1-.119Z" transform="translate(-183.092 -204.363)" fill="url(#linear-gradient-3)"/>
    <path id="Path_1847" data-name="Path 1847" d="M260.862,599.3s-6.021-1.758-6.272-2.51-5.27,13.8-5.27,13.8l5.019,3.512s5.27-3.011,8.03-2.51S260.862,599.3,260.862,599.3Z" transform="translate(-194.622 -382.038)" fill="#4c4c56"/>
    <path id="Path_1848" data-name="Path 1848" d="M569.44,687.22s.752,6.794,9.032,7.525-5.52,6.794-5.52,6.794l-10.535.752a21.021,21.021,0,0,0-2.009-7.525C558.65,691.488,569.44,687.22,569.44,687.22Z" transform="translate(-373.499 -434.084)" fill="#4c4c56"/>
    <path id="Path_1849" data-name="Path 1849" d="M313.209,499.973s-4.764,7.274-1.5,18.816c0,0,1,5.52.251,7.525s-1.5,18.064-1.5,18.064a3.392,3.392,0,0,1-4.246.752c-2.743-1.257-36.625-5.52-36.625-5.52s-5.52,9.533-2.51,15.287c0,0,25.338,2.76,34.621,5.771s16.561,7.024,22.578,0,12.043-31.61,12.043-31.61l20.068,15.287,8.781,10.285s12.293,17.308,14.552,17.559,12.794,16.807,12.794,16.807L405.3,575.2s-15.58-8.743-17.334-13.261-10.285-17.308-10.285-17.308-2.76-10.034-7.775-12.293c0,0-18.064-21.576-19.818-31.61s-30.111-5.261-30.111-5.261Z" transform="translate(-204.32 -323.101)" fill="#5f5d7e"/>
    <path id="Path_1850" data-name="Path 1850" d="M577.972,704.955s1.758-4.013,1.274-5.019,6.493,2.522,6.493,2.522,5.27,2.009,9.533.251c0,0,3.762,2.76.5,4.764s-29.6,8.281-29.6,8.281-4.013-5.771-.752-9.032Z" transform="translate(-375.759 -441.296)" fill="#986365"/>
    <path id="Path_1851" data-name="Path 1851" d="M482.738,564.52c-1.758-4.514-10.285-17.308-10.285-17.308s-2.76-10.034-7.775-12.293c0,0-18.064-21.576-19.818-31.61-.361-2.068-1.856-3.508-4-4.488l-3.5,10.51-4.777,14.353a26.013,26.013,0,0,0-1.7,8.718c.123-.476.187-.739.187-.739l20.068,15.287,8.781,10.285s12.293,17.308,14.552,17.559S487.273,591.6,487.273,591.6l12.794-13.8S484.492,569.038,482.738,564.52Z" transform="translate(-299.087 -325.685)" opacity="0.1"/>
    <path id="Path_1852" data-name="Path 1852" d="M451.007,350.031s-2.123,5.393.628,10.412-1.13,13.924-3.639,14.438-12.544-6.021-13.3-10.285,3.261-13.045,1.274-18.816Z" transform="translate(-301.229 -237.632)" fill="#fdc2cc"/>
    <path id="Path_1853" data-name="Path 1853" d="M407.343,377.65s7.775,15.8,16.306,4.514c0,0,8.531,17.308,5.771,20.068a57.843,57.843,0,0,1-6.272,5.291l-4.514,31.61s-25.589-8.781-36.374-7.274l16.561-39.636Z" transform="translate(-271.111 -255.969)" opacity="0.1"/>
    <path id="Path_1854" data-name="Path 1854" d="M407.343,375.88s7.775,15.805,16.306,4.514c0,0,8.531,17.308,5.771,20.068a57.837,57.837,0,0,1-6.272,5.27l-4.514,31.61s-25.589-8.781-36.374-7.274l16.561-39.636Z" transform="translate(-271.111 -254.95)" fill="#d39999"/>
    <path id="Path_1855" data-name="Path 1855" d="M299.23,419s-4.246,19.567-6.272,20.319-4.246,16.056,1,15.555,5.27-12.794,5.27-12.794,5.52-14.8,7.775-16.561S299.23,419,299.23,419Z" transform="translate(-218.438 -279.76)" fill="#fdc2cc"/>
    <path id="Path_1856" data-name="Path 1856" d="M542.95,411.8s11.291-10.535,11.542-12.293,7.023-10.786,10.786-8.28-3.011,14.3-4.246,14.552-16.055,16.561-16.055,16.561Z" transform="translate(-363.566 -263.53)" fill="#fdc2cc"/>
    <path id="Path_1857" data-name="Path 1857" d="M363.039,366.13s-1.38,1.631-10.663.628-11.542.752-14.047,2.009-26.841,7.775-31.109,20.807c0,0,9.533,8.531,8.531,10.786,0,0,1.274-4.246,4.246-3.762s14.8-11.291,14.8-11.291-2.259,22.081.752,29.852-1.5,15.554-1.5,15.554,21.325-6.794,30.858-3.512c0,0,5.52-24.837.752-34.871s2.008-19.567,2.008-19.567Z" transform="translate(-227.936 -249.34)" opacity="0.1"/>
    <path id="Path_1858" data-name="Path 1858" d="M363.629,364.36s-1.38,1.631-10.663.628-11.542.752-14.047,2.009-26.841,7.775-31.109,20.807c0,0,9.533,8.531,8.531,10.786,0,0,1.274-4.246,4.246-3.762s14.8-11.291,14.8-11.291-2.259,22.081.752,29.852-1.5,15.567-1.5,15.567,21.325-6.794,30.858-3.512c0,0,5.52-24.837.752-34.871S368.27,371,368.27,371Z" transform="translate(-228.275 -248.322)" opacity="0.1"/>
    <path id="Path_1859" data-name="Path 1859" d="M363.039,364.36s-1.38,1.631-10.663.628-11.542.752-14.047,2.009-26.841,7.775-31.109,20.807c0,0,9.533,8.531,8.531,10.786,0,0,1.274-4.246,4.246-3.762s14.8-11.291,14.8-11.291-2.259,22.081.752,29.852-1.5,15.554-1.5,15.554,21.325-6.794,30.858-3.512c0,0,5.52-24.837.752-34.871S367.68,371,367.68,371Z" transform="translate(-227.936 -248.322)" fill="#ec7580"/>
    <path id="Path_1860" data-name="Path 1860" d="M455.276,375s3.639,5.393,8.654,7.151,7.024,12.544,7.024,12.544l7.525,10.285,9.032-4.5s.251,12.293,2.76,12.043c0,0-6.272,8.03-11.291,8.28s-19.062-11.83-19.062-11.83-1.5,11.041-.5,16.306-6.272,21.325-6.272,21.325l-10.034-2.008s5.27-20.068,11.792-23.33c0,0,0-13.546-1-16.807s6.522-15.554,5.52-18.064c-.565-1.406-2.773-4.416-3.89-7.151A7.155,7.155,0,0,1,455.276,375Z" transform="translate(-306.122 -254.444)" opacity="0.1"/>
    <path id="Path_1861" data-name="Path 1861" d="M457.04,373.81s3.639,5.393,8.654,7.151,7.024,12.544,7.024,12.544l7.525,10.285,9.032-4.514s.251,12.293,2.76,12.043c0,0-6.272,8.03-11.291,8.28s-19.066-11.792-19.066-11.792-1.5,11.041-.5,16.306-6.272,21.325-6.272,21.325l-10.034-2.008s5.27-20.068,11.792-23.33c0,0,0-13.546-1-16.807s6.522-15.554,5.52-18.064c-.565-1.406-2.773-4.416-3.89-7.151A7.155,7.155,0,0,1,457.04,373.81Z" transform="translate(-307.135 -253.759)" opacity="0.1"/>
    <path id="Path_1862" data-name="Path 1862" d="M455.866,373.81s3.639,5.393,8.654,7.151,7.024,12.544,7.024,12.544l7.529,10.285,9.032-4.514s.251,12.293,2.76,12.043c0,0-6.272,8.03-11.291,8.28s-19.066-11.792-19.066-11.792-1.5,11.041-.5,16.306-6.272,21.325-6.272,21.325L443.7,443.429s5.27-20.068,11.792-23.33c0,0,0-13.546-1-16.807s6.522-15.554,5.52-18.064c-.565-1.406-2.773-4.416-3.89-7.151A7.155,7.155,0,0,1,455.866,373.81Z" transform="translate(-306.461 -253.759)" fill="#ec7580"/>
    <path id="Path_1863" data-name="Path 1863" d="M456.866,374.81s3.639,5.393,8.654,7.151,7.023,12.544,7.023,12.544l7.529,10.285,9.032-4.514s.251,12.293,2.76,12.043c0,0-6.272,8.03-11.291,8.28s-19.066-11.792-19.066-11.792-1.5,11.041-.5,16.306-6.272,21.325-6.272,21.325L444.7,444.429s5.27-20.068,11.792-23.33c0,0,0-13.546-1-16.807s6.522-15.554,5.52-18.064c-.565-1.406-2.773-4.416-3.89-7.151A7.155,7.155,0,0,1,456.866,374.81Z" transform="translate(-307.037 -254.335)" opacity="0.05"/>
    <path id="Path_1864" data-name="Path 1864" d="M248.121,593.6s-7.274-3.512-8.531-2.008-8.28,30.353-5.019,32.362,3.512.5,6.272-4.013,6.522-10.535,9.283-10.285c0,0-8.03-2.76-7.775-3.762S246.367,593.351,248.121,593.6Z" transform="translate(-185.644 -378.848)" fill="#986365"/>
    <path id="Path_1865" data-name="Path 1865" d="M438.244,352.916a12.54,12.54,0,0,0,13.979.786,12.706,12.706,0,0,1,.62-2.505L437.79,346.95A14.141,14.141,0,0,1,438.244,352.916Z" transform="translate(-303.061 -238.305)" opacity="0.1"/>
    <path id="Path_1866" data-name="Path 1866" d="M441.261,312.576c3.057.263,6.794-.31,7.919-2.391.327-.6.395-1.274.726-1.856.96-1.724,3.7-2.429,5.907-3.4a13.805,13.805,0,0,0,5.66-4.28,4.994,4.994,0,0,0-2.624.055c-.106-1.159,1.231-2.484.191-3.367a3.213,3.213,0,0,0-2.769-.225,18.073,18.073,0,0,1-2.735.849,6.554,6.554,0,0,1-4.522-1.507,11.707,11.707,0,0,0-3.975-2.353c-3.219-.849-6.416,1.083-9.648,1.89-6.629,1.66-9.843,3.461-8.043,9.223C428.683,309.484,435.7,312.1,441.261,312.576Z" transform="translate(-296.77 -207.778)" fill="#865a61"/>
    <circle id="Ellipse_404" data-name="Ellipse 404" cx="12.544" cy="12.544" r="12.544" transform="translate(130.211 91.575)" fill="#fdc2cc"/>
    <path id="Path_1867" data-name="Path 1867" d="M424.183,315.1a7.36,7.36,0,0,1,4.8-5.444c2.077-.582,4.285.051,6.314.786s4.1,1.592,6.251,1.465,4.412-1.614,4.573-3.762a1.8,1.8,0,0,0-.157-.972,2.391,2.391,0,0,0-.9-.849c-3.155-2.013-6.743-3.6-10.484-3.537-3.079.051-6.021,1.206-8.883,2.344-3.609,1.435-7.716,3.444-8.459,7.257-.425,2.251.471,4.539,1.571,6.552.637,1.164,3.72,7.27,5.758,6.263C425.4,324.814,423.792,316.682,424.183,315.1Z" transform="translate(-291.178 -212.895)" opacity="0.1"/>
    <path id="Path_1868" data-name="Path 1868" d="M425.363,313.922a7.359,7.359,0,0,1,4.8-5.444c2.076-.582,4.285.051,6.314.786s4.1,1.592,6.251,1.465,4.412-1.614,4.573-3.762a1.8,1.8,0,0,0-.157-.972,2.391,2.391,0,0,0-.9-.849c-3.155-2.013-6.743-3.6-10.484-3.537-3.079.051-6.021,1.206-8.883,2.344-3.609,1.435-7.716,3.444-8.459,7.257-.425,2.251.471,4.539,1.571,6.552.637,1.164,3.72,7.27,5.758,6.263C426.577,323.634,424.976,315.5,425.363,313.922Z" transform="translate(-291.857 -212.216)" fill="#865a61"/>
    <path id="Path_1869" data-name="Path 1869" d="M235.33,624.222c-3.261-2.008,3.762-30.858,5.019-32.362.548-.658,2.255-.357,4,.2-1.979-.692-4.123-1.2-4.752-.425-1.274,1.5-8.28,30.353-5.019,32.362a5.916,5.916,0,0,0,1.817.828A9.183,9.183,0,0,1,235.33,624.222Z" transform="translate(-185.648 -378.86)" fill="#fff" opacity="0.5"/>
    <path id="Path_1870" data-name="Path 1870" d="M598.147,710.34c.34.849.238,1.864-1.168,2.726-3.261,2.008-29.6,8.28-29.6,8.28a12.578,12.578,0,0,1-.718-1.219,13.416,13.416,0,0,0,.968,1.72s26.328-6.272,29.6-8.28C598.915,712.531,598.724,711.291,598.147,710.34Z" transform="translate(-377.208 -447.386)" fill="#fff" opacity="0.5"/>
    <g id="Group_356" data-name="Group 356" transform="translate(79.31 116.025)" opacity="0.05">
      <path id="Path_1871" data-name="Path 1871" d="M317.127,396.641c-2.085-3.355-7.843-8.527-7.843-8.527,4.246-13.045,28.6-19.567,31.109-20.807a16.462,16.462,0,0,1,5.147-1.987,15.525,15.525,0,0,0-7.151,2.238c-2.51,1.274-26.841,7.775-31.109,20.807,0,0,9.164,8.2,8.573,10.646A7.85,7.85,0,0,1,317.127,396.641Z" transform="translate(-307.28 -364.9)"/>
      <path id="Path_1872" data-name="Path 1872" d="M327.357,444.67l-.047.14a.814.814,0,0,0,.047-.14Z" transform="translate(-318.805 -410.555)"/>
      <path id="Path_1873" data-name="Path 1873" d="M436.7,364.755l-.289-.425a3.21,3.21,0,0,1-1.669.654A14.633,14.633,0,0,0,436.7,364.755Z" transform="translate(-380.616 -364.33)"/>
      <path id="Path_1874" data-name="Path 1874" d="M338,435.767a3.347,3.347,0,0,0,1.1-.3A2.725,2.725,0,0,0,338,435.767Z" transform="translate(-324.955 -405.261)"/>
      <path id="Path_1875" data-name="Path 1875" d="M414.86,506.1c4.488-.493,8.871-.5,11.992.565,0,0,.059-.263.157-.735A39.26,39.26,0,0,0,414.86,506.1Z" transform="translate(-369.177 -445.572)"/>
      <path id="Path_1876" data-name="Path 1876" d="M372.57,453.959c.849-1.7,3.894-8.416,1.274-15.147-3.011-7.775-.752-29.852-.752-29.852s-.849.849-2.174,2.123c-.463,5.474-1.558,21.589.921,28,3.011,7.775-1.5,15.554-1.5,15.554S371.173,454.354,372.57,453.959Z" transform="translate(-343.524 -390.008)"/>
    </g>
    <path id="Path_1877" data-name="Path 1877" d="M487.844,690.4c-3.023,1.558-6.191,2.9-9.317,4.246-11.546,4.875-23.266,9.792-35.67,11.465-23.279,3.138-47.322-5.359-70.205-.072-19.172,4.425-35.028,17.983-53.759,24.022a87.341,87.341,0,0,1-26.914,3.907h-1.2q-1.7-.021-3.372-.085a183.106,183.106,0,0,1-27.665-3.474c-28.693-5.52-57.9-15.639-79.832-34.268C243.788,684.446,375.362,666.535,487.844,690.4Z" transform="translate(-154.687 -429.14)" fill="#252223" opacity="0.1"/>
    <path id="Path_1878" data-name="Path 1878" d="M733.733,534.72a19.7,19.7,0,0,1,3.592,20.484c-4.654,12.238,7.983,32.591,7.983,32.591l-.386-.064a24.008,24.008,0,0,1-15.937-36.752C732.484,545.625,735.359,539.349,733.733,534.72Z" transform="translate(-468.347 -346.341)" fill="tomato"/>
    <path id="Path_1879" data-name="Path 1879" d="M742.884,534.72s4.671,10.111,0,18.357-.8,31.393,11.571,34.718" transform="translate(-477.498 -346.341)" fill="none" stroke="#535461" stroke-miterlimit="10" stroke-width="1"/>
    <path id="Path_1880" data-name="Path 1880" d="M710.89,613.13s9.41-1.5,10.268,6.934,18.1,9.6,18.1,9.6l-.323.217c-14.234,9.342-27.839,5.945-25.788-6.454C713.909,618.816,713.841,614.183,710.89,613.13Z" transform="translate(-460.193 -391.396)" fill="tomato"/>
    <path id="Path_1881" data-name="Path 1881" d="M710.89,613.13s9.41-1.5,10.268,6.934,18.1,9.6,18.1,9.6l-.323.217c-14.234,9.342-27.839,5.945-25.788-6.454C713.909,618.816,713.841,614.183,710.89,613.13Z" transform="translate(-460.193 -391.396)" fill="#f5f5f5" opacity="0.2"/>
    <path id="Path_1882" data-name="Path 1882" d="M710.89,613.27s7.3,1.605,6.705,8.247,10.849,14.6,21.656,8.293" transform="translate(-460.193 -391.536)" fill="none" stroke="#535461" stroke-miterlimit="10" stroke-width="1"/>
    <path id="Path_1883" data-name="Path 1883" d="M764.119,648.127s-5.919-1.185-7.495-2.76-8.68-4.34-9.469-2.365-10.654,8.68-3.945,9.864,15.784,1.58,17.754.79S764.119,648.127,764.119,648.127Z" transform="translate(-477.45 -408.248)" fill="#a8a8a8"/>
    <path id="Path_1884" data-name="Path 1884" d="M743.222,659.943c6.709,1.185,15.784,1.58,17.754.79,1.5-.6,2.548-3.486,2.973-4.832l.2.042s-1.185,4.735-3.155,5.52-11.041.395-17.754-.79c-1.936-.34-2.488-1.142-2.28-2.161C741.107,659.178,741.8,659.688,743.222,659.943Z" transform="translate(-477.467 -416.063)" opacity="0.2"/>
    <path id="Path_1885" data-name="Path 1885" d="M1042.774,597.6s5.609-19.053-1.053-33.075a30.1,30.1,0,0,1-2.433-18.879,50.634,50.634,0,0,1,2.671-8.862" transform="translate(-648.817 -347.526)" fill="none" stroke="#535461" stroke-miterlimit="10" stroke-width="2"/>
    <path id="Path_1886" data-name="Path 1886" d="M1036.58,510.671c0,2.336,4.246,9.1,4.246,9.1s4.246-6.773,4.246-9.1a4.246,4.246,0,0,0-8.455,0Z" transform="translate(-647.582 -330.292)" fill="tomato"/>
    <path id="Path_1887" data-name="Path 1887" d="M1019.451,537.917c1.274,1.962,8.493,5.346,8.493,5.346s-.132-7.983-1.4-9.941a4.246,4.246,0,0,0-7.1,4.595Z" transform="translate(-637.443 -344.603)" fill="tomato"/>
    <path id="Path_1888" data-name="Path 1888" d="M1017.218,587.3c2.085,1.053,10.034.327,10.034.327s-4.145-6.824-6.229-7.877a4.246,4.246,0,1,0-3.822,7.55Z" transform="translate(-634.904 -371.885)" fill="tomato"/>
    <path id="Path_1889" data-name="Path 1889" d="M1028.354,627.622c1.877,1.389,9.835,2.017,9.835,2.017s-2.93-7.427-4.807-8.816a4.246,4.246,0,0,0-5.028,6.794Z" transform="translate(-642.045 -395.534)" fill="tomato"/>
    <path id="Path_1890" data-name="Path 1890" d="M1048.158,550.509c-1.673,1.626-9.478,3.312-9.478,3.312s1.911-7.75,3.584-9.376a4.246,4.246,0,0,1,5.894,6.064Z" transform="translate(-648.791 -351.395)" fill="tomato"/>
    <path id="Path_1891" data-name="Path 1891" d="M1057.864,594.961c-2.085,1.053-10.034.327-10.034.327s4.144-6.824,6.229-7.877a4.246,4.246,0,1,1,3.822,7.55Z" transform="translate(-654.055 -376.293)" fill="tomato"/>
    <path id="Path_1892" data-name="Path 1892" d="M1062.125,642.172c-1.877,1.389-9.835,2.017-9.835,2.017s2.93-7.427,4.807-8.815a4.246,4.246,0,0,1,5.028,6.794Z" transform="translate(-656.621 -403.906)" fill="tomato"/>
    <path id="Path_1893" data-name="Path 1893" d="M1022.448,661.961s-10.255-2.051-12.99-4.786-15.041-7.52-16.408-4.1-18.459,15.041-6.837,17.092,27.347,2.735,30.761,1.367S1022.448,661.961,1022.448,661.961Z" transform="translate(-616.286 -413.754)" fill="#a8a8a8"/>
    <path id="Path_1894" data-name="Path 1894" d="M986.227,682.447c11.622,2.051,27.347,2.735,30.761,1.367,2.6-1.04,4.412-6.043,5.125-8.374l.344.072s-2.051,8.2-5.469,9.571-19.143.684-30.761-1.367c-3.355-.59-4.314-1.983-3.953-3.741C982.562,681.122,983.73,682,986.227,682.447Z" transform="translate(-616.295 -427.306)" opacity="0.2"/>
  </g>
</svg>
