<svg id="undraw_back_to_school_inwc" xmlns="http://www.w3.org/2000/svg" xmlns:xlink="http://www.w3.org/1999/xlink" width="196" height="146" viewBox="0 0 196 146">
  <defs>
    <linearGradient id="linear-gradient" x1="0.5" y1="1" x2="0.5" gradientUnits="objectBoundingBox">
      <stop offset="0" stop-color="gray" stop-opacity="0.251"/>
      <stop offset="0.54" stop-color="gray" stop-opacity="0.122"/>
      <stop offset="1" stop-color="gray" stop-opacity="0.102"/>
    </linearGradient>
  </defs>
  <ellipse id="Ellipse_176" data-name="Ellipse 176" cx="61.785" cy="3.344" rx="61.785" ry="3.344" transform="translate(40.235 139.312)" fill="tomato" opacity="0.1"/>
  <path id="Path_989" data-name="Path 989" d="M645.343,625.762l-.531.779-3.286,4.889-2.79.841-2.081-2.037.1-1.344.519-6.98s-12.877-7.575-14.028-8.992-5.579-2.7-5.579-2.7-6.775-3.144-9.3-8.635,4.206-6.332,4.206-6.332l25.284,24.18Z" transform="translate(-508.203 -496.217)" fill="#ffc1c7"/>
  <path id="Path_990" data-name="Path 990" d="M750.25,772.395l-8.015,7.483a30.033,30.033,0,0,1-8.723.266c-2.632-.4-2.125-1.84-1.433-2.834l.012-.018a2.912,2.912,0,0,1,1.707-1.123,6.9,6.9,0,0,0,4.584-3.289l2.48,2.125,4.3-5.005,3.176,1.491Z" transform="translate(-609.914 -640.015)" fill="#575988"/>
  <line id="Line_16" data-name="Line 16" y1="6.966" x2="8.002" transform="translate(130.43 131.566)" fill="#fff"/>
  <path id="Path_991" data-name="Path 991" d="M646.526,627.713l-1.886-.886.177-.269.531-.779-7.489-6.332L612.575,595.27s-6.73.838-4.206,6.328,9.3,8.635,9.3,8.635,4.428,1.284,5.579,2.7,14.037,8.989,14.037,8.989l-.519,6.98-.025.333-.165-.14a6.9,6.9,0,0,1-4.584,3.289,2.912,2.912,0,0,0-1.707,1.123l-.012.018c-.709.992-1.2,2.435,1.433,2.834a30.034,30.034,0,0,0,8.723-.266l8.015-7.483Z" transform="translate(-508.182 -496.233)" opacity="0.1"/>
  <path id="Path_992" data-name="Path 992" d="M63.3,469.55c3.1,13.142,9.677,24.5,20.063,30.013,21.589,11.445,70.273,5.542,106.606-1.24a83.385,83.385,0,0,0,47.312-26.786Z" transform="translate(-61.199 -392.965)" fill="tomato" opacity="0.1"/>
  <path id="Path_993" data-name="Path 993" d="M276.735,53.871H256.814a1.707,1.707,0,0,1,0-3.413h3.444a1.706,1.706,0,1,1,0-3.411H257.8a1.707,1.707,0,0,1,0-3.413h10.4a27.7,27.7,0,0,0-8.112-2.216c-28.351-3.608-38.473-1.222-42.043,1.24a39.883,39.883,0,0,1-14.572,6.33c-17.492,3.576-50.205,7.878-79.855-1.378C108.877,43,97.926,50.784,91.36,63.777H280.193a30.267,30.267,0,0,0-2.339-10.315,1.727,1.727,0,0,1-1.119.409Z" transform="translate(-84.289 -39.575)" fill="tomato" opacity="0.1"/>
  <path id="Path_994" data-name="Path 994" d="M51.869,314.67a86.228,86.228,0,0,0,.772,22.93l174.905,6.339A81.332,81.332,0,0,0,239.7,325.572Zm69.177,16.353H117.6a1.726,1.726,0,0,1,1.538.837,1.694,1.694,0,0,1,0,1.739,1.726,1.726,0,0,1-1.538.837H97.681a1.707,1.707,0,0,1,0-3.413h3.444a1.706,1.706,0,1,1,0-3.411H98.666a1.707,1.707,0,0,1,0-3.413h19.921a1.707,1.707,0,0,1,0,3.413h2.459a1.706,1.706,0,1,1,0,3.411Z" transform="translate(-51.44 -265.688)" fill="tomato" opacity="0.1"/>
  <path id="Path_995" data-name="Path 995" d="M249.458,176.86l-190.89,4.605A74.931,74.931,0,0,0,54,201.007H246.114a80.36,80.36,0,0,0,2.774-12.457A58.518,58.518,0,0,0,249.458,176.86Zm-156.7,15.08H89.311a1.726,1.726,0,0,1,1.538.837,1.7,1.7,0,0,1,0,1.739,1.726,1.726,0,0,1-1.538.837H69.4a1.707,1.707,0,0,1,0-3.413h3.443a1.706,1.706,0,1,1,0-3.411H70.381a1.707,1.707,0,0,1,0-3.413H90.3a1.707,1.707,0,0,1,0,3.413h2.458a1.706,1.706,0,1,1,0,3.411Z" transform="translate(-53.547 -152.421)" fill="tomato" opacity="0.1"/>
  <g id="Group_141" data-name="Group 141" transform="translate(141.708 48.574)" opacity="0.1">
    <path id="Path_996" data-name="Path 996" d="M848.76,386.857s4.995-12.31,14.322-16.876a20.119,20.119,0,0,0,9.134-8.87,33.856,33.856,0,0,0,2.29-5.751" transform="translate(-847.566 -347.724)" fill="none" stroke="#535461" stroke-miterlimit="10" stroke-width="2"/>
    <path id="Path_997" data-name="Path 997" d="M999.314,316.973c-.972,1.222-6,3.011-6,3.011s.606-5.3,1.578-6.527a2.834,2.834,0,1,1,4.428,3.521Z" transform="translate(-966.513 -312.249)" fill="tomato"/>
    <path id="Path_998" data-name="Path 998" d="M986.454,367.678c-1.481.5-6.674-.74-6.674-.74s3.392-4.123,4.873-4.621a2.834,2.834,0,1,1,1.8,5.361Z" transform="translate(-955.38 -353.274)" fill="tomato"/>
    <path id="Path_999" data-name="Path 999" d="M939.568,432.279c-1.529-.319-5.388-4.008-5.388-4.008s5.011-1.847,6.539-1.53a2.834,2.834,0,0,1-1.151,5.539Z" transform="translate(-917.856 -406.431)" fill="tomato"/>
    <path id="Path_1000" data-name="Path 1000" d="M885.778,471.785c-1.56-.053-5.989-3.039-5.989-3.039s4.626-2.667,6.187-2.612a2.834,2.834,0,1,1-.2,5.652Z" transform="translate(-873.1 -438.876)" fill="tomato"/>
    <path id="Path_1001" data-name="Path 1001" d="M952.454,355.879c.2,1.55,3.581,5.68,3.581,5.68s2.228-4.853,2.028-6.4a2.834,2.834,0,0,0-5.609.721Z" transform="translate(-932.889 -345.675)" fill="tomato"/>
    <path id="Path_1002" data-name="Path 1002" d="M892.549,399.378c.654,1.417,5.119,4.348,5.119,4.348s.672-5.3.018-6.715a2.834,2.834,0,0,0-5.136,2.366Z" transform="translate(-883.444 -380.781)" fill="tomato"/>
    <path id="Path_1003" data-name="Path 1003" d="M842.075,455.4c.406,1.509,4.309,5.151,4.309,5.151s1.559-5.106,1.155-6.615a2.834,2.834,0,0,0-5.464,1.465Z" transform="translate(-842.018 -427.25)" fill="tomato"/>
    <path id="Path_1004" data-name="Path 1004" d="M999.314,316.973c-.972,1.222-6,3.011-6,3.011s.606-5.3,1.578-6.527a2.834,2.834,0,1,1,4.428,3.521Z" transform="translate(-966.513 -312.249)" opacity="0.25"/>
    <path id="Path_1005" data-name="Path 1005" d="M986.454,367.678c-1.481.5-6.674-.74-6.674-.74s3.392-4.123,4.873-4.621a2.834,2.834,0,1,1,1.8,5.361Z" transform="translate(-955.38 -353.274)" opacity="0.25"/>
    <path id="Path_1006" data-name="Path 1006" d="M939.568,432.279c-1.529-.319-5.388-4.008-5.388-4.008s5.011-1.847,6.539-1.53a2.834,2.834,0,0,1-1.151,5.539Z" transform="translate(-917.856 -406.431)" opacity="0.25"/>
    <path id="Path_1007" data-name="Path 1007" d="M885.778,471.785c-1.56-.053-5.989-3.039-5.989-3.039s4.626-2.667,6.187-2.612a2.834,2.834,0,1,1-.2,5.652Z" transform="translate(-873.1 -438.876)" opacity="0.25"/>
    <path id="Path_1008" data-name="Path 1008" d="M952.454,355.879c.2,1.55,3.581,5.68,3.581,5.68s2.228-4.853,2.028-6.4a2.834,2.834,0,0,0-5.609.721Z" transform="translate(-932.889 -345.675)" opacity="0.25"/>
    <path id="Path_1009" data-name="Path 1009" d="M892.549,399.378c.654,1.417,5.119,4.348,5.119,4.348s.672-5.3.018-6.715a2.834,2.834,0,0,0-5.136,2.366Z" transform="translate(-883.444 -380.781)" opacity="0.25"/>
    <path id="Path_1010" data-name="Path 1010" d="M842.075,455.4c.406,1.509,4.309,5.151,4.309,5.151s1.559-5.106,1.155-6.615a2.834,2.834,0,0,0-5.464,1.465Z" transform="translate(-842.018 -427.25)" opacity="0.25"/>
  </g>
  <g id="Group_142" data-name="Group 142" transform="translate(129.449 21.197)" opacity="0.1">
    <path id="Path_1011" data-name="Path 1011" d="M803.86,244.258s.631-13.27,7.916-20.672a20.128,20.128,0,0,0,5.677-11.4A33.87,33.87,0,0,0,817.7,206" transform="translate(-798.76 -197.72)" fill="none" stroke="#535461" stroke-miterlimit="10" stroke-width="2"/>
    <path id="Path_1012" data-name="Path 1012" d="M882.372,162.839c-.512,1.477-4.667,4.828-4.667,4.828s-1.187-5.206-.677-6.681a2.834,2.834,0,0,1,5.344,1.853Z" transform="translate(-858.864 -159.253)" fill="tomato"/>
    <path id="Path_1013" data-name="Path 1013" d="M886.323,211.294c-1.24.96-6.543,1.516-6.543,1.516s1.833-5.016,3.064-5.976a2.834,2.834,0,0,1,3.479,4.46Z" transform="translate(-861.233 -198.002)" fill="tomato"/>
    <path id="Path_1014" data-name="Path 1014" d="M858.484,286.7c-1.548.207-6.414-1.994-6.414-1.994s4.115-3.4,5.668-3.611a2.834,2.834,0,0,1,.751,5.606Z" transform="translate(-838.431 -259.512)" fill="tomato"/>
    <path id="Path_1015" data-name="Path 1015" d="M822.456,341.318c-1.49.468-6.656-.886-6.656-.886s3.479-4.049,4.97-4.515a2.834,2.834,0,1,1,1.686,5.4Z" transform="translate(-808.586 -304.467)" fill="tomato"/>
    <path id="Path_1016" data-name="Path 1016" d="M846.507,215.183c.708,1.4,5.264,4.171,5.264,4.171s.491-5.314-.211-6.711a2.834,2.834,0,0,0-5.053,2.54Z" transform="translate(-833.669 -202.036)" fill="tomato"/>
    <path id="Path_1017" data-name="Path 1017" d="M804.394,276.062c1.088,1.121,6.27,2.405,6.27,2.405s-1.121-5.221-2.209-6.343a2.834,2.834,0,0,0-4.061,3.937Z" transform="translate(-798.641 -251.526)" fill="tomato"/>
    <path id="Path_1018" data-name="Path 1018" d="M775.455,345.774c.886,1.289,5.774,3.431,5.774,3.431s-.225-5.335-1.105-6.624a2.834,2.834,0,0,0-4.669,3.188Z" transform="translate(-775.068 -309.226)" fill="tomato"/>
  </g>
  <path id="Path_1019" data-name="Path 1019" d="M464.987,125.045s-4.221-.253-3.72,2.7a.721.721,0,0,0,.376.76s0-.22.432-.145a1.886,1.886,0,0,0,.459.023.958.958,0,0,0,.561-.232h0a3.348,3.348,0,0,0,1.647-2.43s.342-.423.328-.531l-.708.3a1.279,1.279,0,0,1,.051.941s-.023-.923-.159-.9c-.028,0-.37.177-.37.177a2.1,2.1,0,0,1,.1,1.546s.12-1.1-.234-1.481l-.5.292a2.217,2.217,0,0,1,.158,1.679,3.16,3.16,0,0,0-.262-1.608l-.455.354a2.155,2.155,0,0,1,.177,1.537s-.035-1.348-.278-1.449a2.773,2.773,0,0,0-.457.494s.313.662.119,1.011c0,0-.119-.9-.218-.9a2.974,2.974,0,0,0-.437,1,2.164,2.164,0,0,1,.342-1.063,1.2,1.2,0,0,0-.608.314s.062-.42.709-.457a2.756,2.756,0,0,1,.414-.478,2.565,2.565,0,0,0-1.026.119,1.152,1.152,0,0,1,1.142-.218l.45-.365a3.739,3.739,0,0,0-1.2.011,1.443,1.443,0,0,1,1.32-.094l.489-.292a4.383,4.383,0,0,0-1.146-.1,1.765,1.765,0,0,1,1.289.019l.354-.156s-.531-.1-.68-.12-.161-.058-.161-.058a1.821,1.821,0,0,1,.987.11A4.129,4.129,0,0,0,464.987,125.045Z" transform="translate(-388.005 -109.902)" fill="tomato" opacity="0.1"/>
  <path id="Path_1020" data-name="Path 1020" d="M418.259,206.184s-1.442,3.976,1.536,4.339a.723.723,0,0,0,.836-.145s-.209-.069-.016-.455a1.9,1.9,0,0,0,.145-.434.959.959,0,0,0-.062-.6h0a3.345,3.345,0,0,0-1.862-2.269s-.31-.448-.418-.466l.09.769a1.282,1.282,0,0,1,.917.218s-.886-.239-.91-.1c0,.028.066.406.066.406a2.112,2.112,0,0,1,1.513.34s-1.024-.427-1.486-.2l.138.565a2.21,2.21,0,0,1,1.654.326,3.153,3.153,0,0,0-1.617-.205l.211.531a2.2,2.2,0,0,1,1.525.264s-1.3-.354-1.468-.143a2.735,2.735,0,0,0,.345.579s.723-.113,1,.177c0,0-.894-.14-.926-.046a3.036,3.036,0,0,0,.836.708,2.155,2.155,0,0,1-.917-.627,1.193,1.193,0,0,0,.129.662s-.384-.177-.237-.8a2.851,2.851,0,0,1-.342-.531,2.611,2.611,0,0,0-.177,1.018,1.154,1.154,0,0,1,.117-1.158l-.223-.531a3.584,3.584,0,0,0-.329,1.151,1.456,1.456,0,0,1,.283-1.291l-.142-.551a4.462,4.462,0,0,0-.42,1.063,1.757,1.757,0,0,1,.386-1.229l-.051-.381s-.248.475-.308.618-.1.138-.1.138a1.834,1.834,0,0,1,.386-.916A4.286,4.286,0,0,0,418.259,206.184Z" transform="translate(-352.431 -176.518)" fill="tomato" opacity="0.1"/>
  <path id="Path_1021" data-name="Path 1021" d="M576.3,187.265s-1.444,3.975,1.536,4.338a.721.721,0,0,0,.834-.143s-.207-.069-.016-.457a1.9,1.9,0,0,0,.152-.434.94.94,0,0,0-.064-.6h0a3.35,3.35,0,0,0-1.862-2.271s-.308-.448-.416-.466l.089.77a1.275,1.275,0,0,1,.917.216s-.886-.239-.909-.1c0,.027.066.406.066.406a2.1,2.1,0,0,1,1.511.34s-1.022-.429-1.486-.2l.138.563a2.214,2.214,0,0,1,1.656.326,3.139,3.139,0,0,0-1.617-.2l.211.531a2.2,2.2,0,0,1,1.525.264s-1.3-.354-1.468-.145a2.785,2.785,0,0,0,.344.579s.724-.113,1,.177c0,0-.9-.14-.926-.048a3.035,3.035,0,0,0,.836.708,2.168,2.168,0,0,1-.919-.629,1.19,1.19,0,0,0,.129.671s-.386-.177-.239-.806a2.793,2.793,0,0,1-.34-.531,2.568,2.568,0,0,0-.177,1.018,1.153,1.153,0,0,1,.119-1.158l-.225-.531a3.55,3.55,0,0,0-.328,1.153,1.46,1.46,0,0,1,.283-1.293l-.142-.551a4.418,4.418,0,0,0-.42,1.063,1.75,1.75,0,0,1,.384-1.229l-.051-.379s-.248.475-.306.616-.1.14-.1.14a1.814,1.814,0,0,1,.386-.916A4.474,4.474,0,0,0,576.3,187.265Z" transform="translate(-482.23 -160.964)" fill="tomato" opacity="0.1"/>
  <path id="Path_1022" data-name="Path 1022" d="M318.066,159.154s-1.443,3.976,1.536,4.338a.717.717,0,0,0,.834-.143s-.207-.069-.016-.455a2,2,0,0,0,.152-.434.958.958,0,0,0-.064-.6h0a3.35,3.35,0,0,0-1.861-2.271s-.308-.446-.416-.464l.089.769a1.282,1.282,0,0,1,.917.218s-.886-.241-.909-.1c0,.028.066.406.066.406a2.107,2.107,0,0,1,1.511.34s-1.024-.429-1.486-.2l.138.565a2.21,2.21,0,0,1,1.654.326,3.145,3.145,0,0,0-1.615-.205l.211.531a2.2,2.2,0,0,1,1.525.264s-1.3-.354-1.468-.145a2.793,2.793,0,0,0,.344.581s.724-.115,1,.177c0,0-.894-.14-.926-.046a3.085,3.085,0,0,0,.838.708,2.15,2.15,0,0,1-.919-.629,1.19,1.19,0,0,0,.129.671s-.386-.177-.239-.8a2.765,2.765,0,0,1-.34-.531,2.578,2.578,0,0,0-.177,1.018,1.154,1.154,0,0,1,.117-1.158l-.223-.531a3.6,3.6,0,0,0-.329,1.153,1.456,1.456,0,0,1,.283-1.291l-.14-.553a4.415,4.415,0,0,0-.42,1.063,1.75,1.75,0,0,1,.384-1.229l-.051-.379s-.248.475-.306.618-.1.138-.1.138a1.82,1.82,0,0,1,.384-.916A3.962,3.962,0,0,0,318.066,159.154Z" transform="translate(-270.139 -137.946)" fill="tomato" opacity="0.1"/>
  <path id="Path_1023" data-name="Path 1023" d="M570.05,310.97s1.114,4.074,3.757,2.657a.721.721,0,0,0,.6-.6s-.209.062-.276-.365a1.9,1.9,0,0,0-.126-.441.962.962,0,0,0-.4-.457h0a3.359,3.359,0,0,0-2.834-.781s-.51-.188-.609-.14l.517.577a1.287,1.287,0,0,1,.873-.354s-.866.317-.8.439c.012.025.287.294.287.294a2.094,2.094,0,0,1,1.431-.593s-1.082.241-1.328.7l.439.383a2.212,2.212,0,0,1,1.539-.689s-1.123.29-1.438.765l.482.317a2.148,2.148,0,0,1,1.4-.664s-1.263.468-1.282.728a2.79,2.79,0,0,0,.616.276s.531-.51.917-.437c0,0-.811.4-.783.5a3.146,3.146,0,0,0,1.089.092,2.153,2.153,0,0,1-1.112.016,1.194,1.194,0,0,0,.491.475s-.418.076-.659-.521a2.76,2.76,0,0,1-.586-.239,2.583,2.583,0,0,0,.443.933,1.15,1.15,0,0,1-.572-1.013l-.487-.3a3.684,3.684,0,0,0,.395,1.132,1.457,1.457,0,0,1-.514-1.219l-.434-.368a4.473,4.473,0,0,0,.275,1.116,1.767,1.767,0,0,1-.393-1.227l-.262-.28s.071.531.106.682,0,.177,0,.177a1.822,1.822,0,0,1-.214-.971A4.377,4.377,0,0,0,570.05,310.97Z" transform="translate(-477.381 -262.584)" fill="tomato" opacity="0.1"/>
  <path id="Path_1024" data-name="Path 1024" d="M325.646,223.758a9.7,9.7,0,0,0,1.273,1.226l3.45,2.94a6.064,6.064,0,0,0,2.019,1.309,3.16,3.16,0,0,0,2.756-.423l-.058-.019.058-.039a5.2,5.2,0,0,1-1.66-.76,1.865,1.865,0,0,1-.73-1.24h0v-.073a1.3,1.3,0,0,1,.019-.2,4.391,4.391,0,0,0,2.078-.732l-.06-.021.06-.037a6.143,6.143,0,0,1-3.689-4.141,20.988,20.988,0,0,1-.641-5.682,13.955,13.955,0,0,0-1.029-5.6,9.2,9.2,0,0,1-.859-1.966,3.06,3.06,0,0,1-.058-.632,8.444,8.444,0,0,1,.393-2.033,42.363,42.363,0,0,0,.971-4.518,10.607,10.607,0,0,0,.158-1.638,4.209,4.209,0,0,0-.253-1.575c-.811-2.108-3.631-3.1-4.061-5.314a4.651,4.651,0,0,1-.064-.9v-.5c0-.165,0-.354-.014-.517a8.525,8.525,0,0,0-2.016-4.171,11.477,11.477,0,0,0-4.022-3.909,9.567,9.567,0,0,0-4.713-.7,12.261,12.261,0,0,0-2.334-1.585,10.528,10.528,0,0,0-3.828-1.491c-1.709-.188-3.4.468-5.113.577-2.331.151-4.619-.708-6.95-.886s-5.014.608-6.056,2.954a5.632,5.632,0,0,0-.439,1.794h0c-.011.119-.018.236-.023.354v.012a11.151,11.151,0,0,0,.041,1.436v.055a2.624,2.624,0,0,0,.028.287.266.266,0,0,0,.009.083,2.267,2.267,0,0,0,.03.266l.011.083c.014.112.03.223.044.335a3.564,3.564,0,0,0,.147.677,1.27,1.27,0,0,0,.188.354,1.5,1.5,0,0,0,1.027.478l.31.044c-.032.064-.066.128-.1.193a11.012,11.012,0,0,0-1.063,4.742,11.207,11.207,0,0,0,9.515,11.031l.324.4a54.986,54.986,0,0,1,5.668,8.208c-1.371,1.7-2.976,4.72-3.433,9.782l-.678,1.583a11.293,11.293,0,0,0-1.422,7.742c-.4,1.484-.857,3.349-1.174,4.892-2.357-.523-10.4-1.815-12.306-3.071L281.8,230.6s-7.262-5.073-11.169-3.379a31.346,31.346,0,0,0-4.717-4.483,65.752,65.752,0,0,1-5.806-6.127L253.62,208a4.565,4.565,0,0,0-.4-2.216c-.765-1.024-4.816-3.3-5.625-2.806s-1.486-1.063-1.486-1.063l-.062-.034c-.152-.089-.585-.333-1.185-.655a15.743,15.743,0,0,1,.053-2.156c.012-.12.028-.241.046-.354a9.874,9.874,0,0,0,9.239-7.535c.028-.112.048-.227.071-.34a1.741,1.741,0,0,0,1.635-.475,2.614,2.614,0,0,0,.411-2.354,22.012,22.012,0,0,1-.62-2.407c-.112-1.125.285-2.3-.08-3.365a3.741,3.741,0,0,0-1.975-2c-.861-.43-1.8-.682-2.683-1.073-.84-.372-1.621-.871-2.492-1.165a10.291,10.291,0,0,0-3.542-.367,8.948,8.948,0,0,0-2.32-.682,3.3,3.3,0,0,0-2.535.661c-.531.471-.964,1.227-1.684,1.252a2.176,2.176,0,0,1-.988-.314,2.882,2.882,0,0,0-2.834-.1,2.925,2.925,0,0,0-1,2.065,6.714,6.714,0,0,1-.507,2.29,9.94,9.94,0,0,1-.877,1.167,5.016,5.016,0,0,0-.979,3.447v.035c-.043-.177-.083-.342-.113-.515a2.9,2.9,0,0,0,.018.391,10.082,10.082,0,0,0,.395,1.791l.733,2.568a15.088,15.088,0,0,0,1.461,3.787,6.236,6.236,0,0,0,.994,1.249,4.589,4.589,0,0,0,2.226,1.291,2.852,2.852,0,0,0,.91.055.588.588,0,0,1-.016.11c-.066-.012-.133-.027-.195-.035a1.892,1.892,0,0,0-.87.023,3.4,3.4,0,0,0-1.948,2.607c-.028.152-.037.244-.037.244s.023.089.05.239l-.012.051c-.028.151-.037.244-.037.244s.023.089.05.243l-.365.009-6.1.8a13.965,13.965,0,0,0-3.431.051,1.417,1.417,0,0,0-.177.051c-.886.306-4.943,3.107-8.585,5.684a1.331,1.331,0,0,0-.011-.207l-1.036.737v.214c-.259.177-.515.365-.763.544-1.114.8-2.125,1.516-2.878,2.067-.918.659-1.486,1.075-1.486,1.075a1.075,1.075,0,0,0-.56.629c-.287.664-.386,2,.65,4.628a36.254,36.254,0,0,1,2.249,7.841,5.636,5.636,0,0,0-1.461.354,2.645,2.645,0,0,0-1.585,1.417,2.439,2.439,0,0,0-.012,1.576c.854,3.029,14.986,20.227,14.986,20.227l.177.016a12.416,12.416,0,0,0,2.179,0,2.48,2.48,0,0,0,1.562-.56,5.873,5.873,0,0,0,7.735,1.282c-.032,3.649-.124,6.325.455,7.673.9,2.094.9,6.86.9,6.86l.857.03c-.046.177-.1.354-.152.531-.395,1.305-.978,2.883-1.594,3.261-1.038.638-.546,11.6-.5,12.544h0v.057l-.06,4.428v.354a4.293,4.293,0,0,1-.345-.546,7.125,7.125,0,0,0-1.7,4.959,32.3,32.3,0,0,0,.03,3.479s6.731-.26,7.993.2,11.825-.4,11.825-.4a1.553,1.553,0,0,0-.735-1.8,10.254,10.254,0,0,0,4.9-1.305c2.524-1.823-5.092-3.243-5.624-3.532s-3.163-2.611-4.251-3.48a2.21,2.21,0,0,0-1.123-.418l.136-3.969c1.621-1.826,3.376-11.9,3.376-11.9a4.168,4.168,0,0,0,.926-2.352,1.079,1.079,0,0,0,.739-.99h0c1.854.062,4.187.048,4.635-.4.765-.758.675-3.342.675-3.342l-1.08-27.354-.071-.1a13.639,13.639,0,0,0,.011-3.776c2.427.693,4.315,1.164,4.315,1.164s3.652.673,6.215,1.24a4.189,4.189,0,0,0-.928,1.559c-2.3,6.553,10.756,6.282,10.756,6.282l6.166,2.852,14.513,4.743c-4.664-1.376-9.991-3-13.617-4.106a9.517,9.517,0,0,0-1.087-.264,9.247,9.247,0,0,0-8.9,3.282c-.025.034-.048.064-.074.1a3.9,3.9,0,0,0-.092,4.625c.554.785,1.3,1.828,2.166,3.041-1.84.556-4.885,2.106-3.034,6.091,2.565,5.524,9.449,8.679,9.449,8.679s4.5,1.293,5.668,2.719a20.933,20.933,0,0,0,3.25,2.358,8.418,8.418,0,0,0,2.389,2.023c1.973.65,5.815,3.769,8.518,6.109l-.406,5.59-.027.337-.166-.142a7.013,7.013,0,0,1-4.66,3.31,2.967,2.967,0,0,0-1.734,1.13l-.012.016-.1.149-.078-.058c-.708,1-1.038,2.45,1.637,2.85a30.754,30.754,0,0,0,8.856-.267l4.173-3.858a4.1,4.1,0,0,0,1.594.827c3.119.708,11.879,4.1,11.879,4.1,0-.951,7.742-13.187,7.742-13.187,10.45-19.781-.914-34.563-2.17-36.1l-.112-.135-.1-1.644-.021-.377s5.64-2.494,3.479-3.681-3.365-6.892-5.4-9.267c-1.594-1.853-1.5-6.153-1.67-9.818a5.9,5.9,0,0,0,1.146,2.48c.012.016.027.028.039.044l-.151-.131A1.833,1.833,0,0,0,325.646,223.758Zm-69.489-1.52a24.954,24.954,0,0,0,2.834,2.414c-1.006-.491-1.789-.905-2.393-1.24C256.456,223.019,256.307,222.626,256.156,222.238ZM234.674,203.7a2.928,2.928,0,0,1-.912,1.33l-.354-1.529C233.871,203.578,234.3,203.648,234.674,203.7Zm70.791,42c.14-.3.285-.6.432-.886a3.321,3.321,0,0,0,1.575-1.095,22.481,22.481,0,0,1,.684,3.27v.08a4.989,4.989,0,0,1-.2,1.316c-.163.517-.461,1-1,1.063a19.766,19.766,0,0,1-2.988-.7c-.48-.131-1.008-.278-1.571-.437C303.279,248.255,304.508,247.757,305.465,245.7Zm13.86-37.372a2.921,2.921,0,0,0-1.867-1.072c-.154-.1-.393-.266-.7-.487-1.488-1.089-4.458-3.542-5.82-6.676a7.5,7.5,0,0,0,1.109-.406,8.015,8.015,0,0,0,1.566-.948c.163-.128.322-.26.475-.4a8.267,8.267,0,0,0,1.063-1.16c.126-.177.248-.345.354-.531a8.157,8.157,0,0,0,.471-.847,10.555,10.555,0,0,0,.742-2.125c.069-.294.129-.593.177-.894s.094-.6.128-.909a25.656,25.656,0,0,0,.126-3.236v-.213h0a15.833,15.833,0,0,0-.354-3.257c.08.03.159.06.236.1a2.382,2.382,0,0,1,.365.221c-.028-.041-.06-.081-.09-.122a4.6,4.6,0,0,1,1.24,1.369,19.549,19.549,0,0,1,2.1,16.718,9.99,9.99,0,0,0-.638,2.315c-.25,2.853,2.48,5.03,3.495,7.712a13.978,13.978,0,0,1,.655,4.308c-.765-3.732-3.562-7.405-4.825-9.451Z" transform="translate(-181.205 -151.987)" fill="url(#linear-gradient)"/>
  <path id="Path_1025" data-name="Path 1025" d="M396.953,663.513s-.133,2.214-.974,2.923c0,0-1.727,10.007-3.321,11.823l-.266,1.018-6.642-.753,1.328-8.856,1.24-8.148Z" transform="translate(-325.994 -550.749)" fill="#ffc1c8"/>
  <path id="Path_1026" data-name="Path 1026" d="M396.953,663.513s-.133,2.214-.974,2.923c0,0-1.727,10.007-3.321,11.823l-.266,1.018-6.642-.753,1.328-8.856,1.24-8.148Z" transform="translate(-325.994 -550.749)" opacity="0.03"/>
  <path id="Path_1027" data-name="Path 1027" d="M341.217,712.328l2.862-.126-.152,4.506-2.191,1.468-3.946-.864,1.44-6.022Z" transform="translate(-277.424 -584.695)" fill="#ff748f"/>
  <path id="Path_1028" data-name="Path 1028" d="M341.217,712.328l2.862-.126-.152,4.506-2.191,1.468-3.946-.864,1.44-6.022Z" transform="translate(-277.424 -584.695)" opacity="0.03"/>
  <path id="Path_1029" data-name="Path 1029" d="M398.517,778.373s2.248-.662,3.314.2,3.659,3.169,4.178,3.457,8,1.7,5.531,3.514-8.815,1.3-8.815,1.3-4.15-1.212-4.265-1.268-2.657-1.3-2.736-1.383.719-5.845.719-5.845Z" transform="translate(-334.164 -646.705)" fill="#5d618c"/>
  <path id="Path_1030" data-name="Path 1030" d="M398.517,778.373s2.248-.662,3.314.2,3.659,3.169,4.178,3.457,8,1.7,5.531,3.514-8.815,1.3-8.815,1.3-4.15-1.212-4.265-1.268-2.657-1.3-2.736-1.383.719-5.845.719-5.845Z" transform="translate(-334.164 -646.705)" opacity="0.03"/>
  <path id="Path_1031" data-name="Path 1031" d="M243.139,346.465l-.133,8.233-.3,17.561-.177.154c-5.269,4.561-8.989-.266-8.989-.266A2.417,2.417,0,0,1,232,372.7a12.02,12.02,0,0,1-2.143,0l-.177-.016s-13.907-17.1-14.749-20.115a2.455,2.455,0,0,1,.012-1.566,2.622,2.622,0,0,1,1.56-1.4,5.5,5.5,0,0,1,1.438-.354,36.393,36.393,0,0,0-2.214-7.793c-1.02-2.613-.921-3.939-.639-4.605a1.066,1.066,0,0,1,.551-.625s.56-.413,1.461-1.063c.749-.547,1.736-1.263,2.834-2.055l1.018-.73c3.757-2.7,8.284-5.87,9.21-6.2a1.355,1.355,0,0,1,.177-.051c1.9-.459,8.279.494,8.279.494Z" transform="translate(-185.875 -274.953)" fill="tomato"/>
  <path id="Path_1032" data-name="Path 1032" d="M312.757,346.482l-.133,8.232c-6.3-1.858-12.158-14.17-12.93-15.14-.661-.843.018-10.232.268-13.424,1.9-.459,8.279.494,8.279.494Z" transform="translate(-255.084 -275.023)" fill="none"/>
  <path id="Path_1033" data-name="Path 1033" d="M312.757,346.482l-.133,8.232c-6.3-1.858-12.158-14.17-12.93-15.14-.661-.843.018-10.232.268-13.424,1.9-.459,8.279.494,8.279.494Z" transform="translate(-255.084 -275.023)" opacity="0.1"/>
  <path id="Path_1034" data-name="Path 1034" d="M586.122,349.133s-4.915,2.524-5.535,12.443a47.91,47.91,0,0,1-1.24,5.933c-.443.886-2.568,9.255-2.3,10.273,0,0-.443,1.018-2.081.576s-10.494-1.816-12.487-3.144l-5.491-2.613s-10.716-7.572-12.974-1.063,10.583,6.247,10.583,6.247l6.066,2.834,18.376,6.063s2.435,1.107,4.074-2.435a41.58,41.58,0,0,1,3.719-6.376s3.72-10.45,3.675-12.221,3.985-5.978,3.985-5.978.8-11.159-5.756-10.937Z" transform="translate(-455.528 -293.661)" fill="#ffc1c7"/>
  <path id="Path_1035" data-name="Path 1035" d="M586.122,349.133s-4.915,2.524-5.535,12.443a47.91,47.91,0,0,1-1.24,5.933c-.443.886-2.568,9.255-2.3,10.273,0,0-.443,1.018-2.081.576s-10.494-1.816-12.487-3.144l-5.491-2.613s-10.716-7.572-12.974-1.063,10.583,6.247,10.583,6.247l6.066,2.834,18.376,6.063s2.435,1.107,4.074-2.435a41.58,41.58,0,0,1,3.719-6.376s3.72-10.45,3.675-12.221,3.985-5.978,3.985-5.978.8-11.159-5.756-10.937Z" transform="translate(-455.528 -293.661)" opacity="0.03"/>
  <path id="Path_1036" data-name="Path 1036" d="M469.339,399.64a8.552,8.552,0,0,0,1.506.949,64.91,64.91,0,0,0,5.712,6.088c1.638,1.24,7,5.978,5.912,7.772s-2.3,1.394-2.3,1.394l-9.588-6.642s-3.365-2.412-4.051-3.564A26.626,26.626,0,0,1,465,402.075Z" transform="translate(-391.054 -335.563)" fill="#ffc1c8"/>
  <path id="Path_1037" data-name="Path 1037" d="M469.339,399.64a8.552,8.552,0,0,0,1.506.949,64.91,64.91,0,0,0,5.712,6.088c1.638,1.24,7,5.978,5.912,7.772s-2.3,1.394-2.3,1.394l-9.588-6.642s-3.365-2.412-4.051-3.564A26.626,26.626,0,0,1,465,402.075Z" transform="translate(-391.054 -335.563)" opacity="0.03"/>
  <path id="Path_1038" data-name="Path 1038" d="M398.933,313.32l6.885,9.232-6.2,2.414-2.568-7.728Z" transform="translate(-326.086 -257.572)" fill="#dce6f2"/>
  <path id="Path_1039" data-name="Path 1039" d="M398.933,313.32l6.885,9.232-6.2,2.414-2.568-7.728Z" transform="translate(-326.086 -257.572)" opacity="0.03"/>
  <path id="Path_1040" data-name="Path 1040" d="M444.769,485.77l1.24,1.815,1.063,27.188s.089,2.568-.664,3.321-6.908.266-6.908.266.221-27.719.31-28.251S444.769,485.77,444.769,485.77Z" transform="translate(-370.148 -406.311)" fill="#575988"/>
  <path id="Path_1041" data-name="Path 1041" d="M444.769,485.77l1.24,1.815,1.063,27.188s.089,2.568-.664,3.321-6.908.266-6.908.266.221-27.719.31-28.251S444.769,485.77,444.769,485.77Z" transform="translate(-370.148 -406.311)" opacity="0.1"/>
  <path id="Path_1042" data-name="Path 1042" d="M373.111,669.508a22.466,22.466,0,0,1-1.417,2.876s-1.151,6.569-1.642,7.175c-.354.443-.517,3.748-.576,5.471-.021.624-.03,1.04-.03,1.04l-6.77,3.227-.03-4.265v-.057h0c-.043-.941-.531-11.833.494-12.467.6-.374,1.176-1.948,1.564-3.24.3-1,.482-1.831.482-1.831s7.521-.489,8.148.317C373.565,668.041,373.405,668.739,373.111,669.508Z" transform="translate(-306.895 -555.498)" fill="#ffc1c8"/>
  <path id="Path_1043" data-name="Path 1043" d="M383.337,669.467c-3.05-.064-6.872-.193-8.417-.248.3-1,.482-1.831.482-1.831s7.521-.489,8.148.317C383.79,668,383.631,668.7,383.337,669.467Z" transform="translate(-317.106 -555.593)" opacity="0.1"/>
  <path id="Path_1044" data-name="Path 1044" d="M364.2,451.3s-2.081,11.07-1.683,18.2-.31,12.395.576,14.48.886,6.819.886,6.819,12.044.443,13.284.266,1.2-1.107,1.2-1.107-.841-7.354-.044-9.657.664-9.343.664-9.343l3.365-11.336s1.018-5.092-1.107-7.173S364.2,451.3,364.2,451.3Z" transform="translate(-306.843 -377.781)" fill="#575988"/>
  <path id="Path_1045" data-name="Path 1045" d="M601.343,640.763l-.531.779-3.286,4.888-2.79.841-2.081-2.037.1-1.344.519-6.98s-12.877-7.575-14.028-8.992-5.579-2.7-5.579-2.7-6.775-3.144-9.3-8.635,4.207-6.332,4.207-6.332l25.284,24.18Z" transform="translate(-472.08 -508.56)" fill="#ffc1c7"/>
  <path id="Path_1046" data-name="Path 1046" d="M683.456,744.131l-3.286,4.888-2.79.841-2.081-2.037.1-1.344,2.29,1.964,4.3-5Z" transform="translate(-554.609 -611.151)" opacity="0.1"/>
  <path id="Path_1047" data-name="Path 1047" d="M706.25,787.395l-8.015,7.483a30.031,30.031,0,0,1-8.723.266c-2.632-.4-2.125-1.84-1.433-2.834l.012-.018a2.912,2.912,0,0,1,1.707-1.123,6.9,6.9,0,0,0,4.584-3.289l2.48,2.125,4.3-5.005,3.176,1.491Z" transform="translate(-573.782 -652.358)" fill="#575988"/>
  <path id="Path_1048" data-name="Path 1048" d="M705.729,794.828l-8.015,7.487a30.031,30.031,0,0,1-8.723.266c-2.632-.4-2.3-1.84-1.61-2.834a5.49,5.49,0,0,0,2.761,1.149,44.09,44.09,0,0,0,5.668,0l8-6.966Z" transform="translate(-573.261 -659.707)" fill="#fff"/>
  <path id="Path_1049" data-name="Path 1049" d="M378.2,282.487c-.652.326-.951,1.332-1.072,2.48a21.187,21.187,0,0,0,.126,4.318s-8.856-2.421-7.91-2.894c.544-.271.832-2.244.979-3.868.11-1.2.142-2.212.142-2.212S379.969,281.6,378.2,282.487Z" transform="translate(-312.466 -237.48)" fill="#ffc1c8"/>
  <path id="Path_1050" data-name="Path 1050" d="M727.137,290.4s-10.746,10.154-10.392,7.2a3.589,3.589,0,0,0-.372-1.651c-.994-2.395-3.741-6.112-5.889-8.831-1.576-1.994-2.834-3.452-2.834-3.452s13.346-11.217,12.283-4.841a7.65,7.65,0,0,0,.583,4.283c1.33,3.132,4.278,5.6,5.749,6.683C726.8,290.188,727.137,290.4,727.137,290.4Z" transform="translate(-590.305 -234.633)" fill="#ffc1c7"/>
  <path id="Path_1051" data-name="Path 1051" d="M718.474,280.778c-.193.239-.909,1.079-1.121,1.3-2.019,2.1-2.288,5.136-5.432,5.136a11.037,11.037,0,0,1-1.417-.09c-1.576-1.994-2.834-3.452-2.834-3.452s13.342-11.217,12.28-4.841C719.7,280.344,717.913,279.453,718.474,280.778Z" transform="translate(-590.365 -234.65)" opacity="0.1"/>
  <path id="Path_1052" data-name="Path 1052" d="M691.19,219.038a11.056,11.056,0,1,1-3.238-7.86A11.1,11.1,0,0,1,691.19,219.038Z" transform="translate(-558.542 -177.971)" fill="#ffc1c7"/>
  <path id="Path_1053" data-name="Path 1053" d="M767.664,349.954s-10.746,10.154-10.392,7.2a3.59,3.59,0,0,0-.372-1.651l1.553-3.663a10.509,10.509,0,0,1,6.874-2.6,10,10,0,0,1,1.376.094l.089.014C767.324,349.739,767.664,349.954,767.664,349.954Z" transform="translate(-630.805 -294.147)" opacity="0.1"/>
  <path id="Path_1054" data-name="Path 1054" d="M624.725,425.99s-7.616,12.161-7.616,13.107c0,0-8.62-3.365-11.69-4.074s-5.964-7.143-5.964-7.143-8.148-7.676-11.336-8.739c-2.7-.9-15.7-19.235-19.574-24.767a3.9,3.9,0,0,1,.092-4.6l.073-.094a9.049,9.049,0,0,1,8.757-3.263,9.148,9.148,0,0,1,1.063.262c5.576,1.723,15.232,4.685,20.1,6.022a20.465,20.465,0,0,0,2.94.693c.531-.055.824-.531.985-1.054a5.014,5.014,0,0,0,.2-1.307v-.08a22.47,22.47,0,0,0-.7-3.33c-.568-1.948-1.553-4.235-3.188-5.328-1.357-.905-2.435-2.9-3-5.222-.76-3.133-.585-6.862,1.111-9.3l1.638-3.865,2.74-6.465,1.527-3.6a10.508,10.508,0,0,1,6.874-2.6,10.011,10.011,0,0,1,1.376.094,3.568,3.568,0,0,1,2.612,1.21c1.3,2.125,4.251,6.022,4.841,9.919s-.117,10.273,1.89,12.636,3.188,8.029,5.314,9.21-3.424,3.659-3.424,3.659l.021.374.1,1.635s.039.044.11.133C623.827,391.639,635,406.331,624.725,425.99Z" transform="translate(-475.221 -295.426)" fill="#ff6584"/>
  <path id="Path_1055" data-name="Path 1055" d="M783.965,562.5c-2.327.487-7.418,1.548-9.688,2.014l-.4.081c-.133.027-.282.051-.443.074a74.182,74.182,0,0,1-9.5.067,5.007,5.007,0,0,0,.2-1.307v-.08a74.824,74.824,0,0,0,9.308-1.157c.285-.058.567-.12.841-.177.4-.092.783-.19,1.151-.292a30.981,30.981,0,0,1,8.325-.985l.1,1.635S783.885,562.415,783.965,562.5Z" transform="translate(-636.525 -468.032)" fill="#575988"/>
  <path id="Path_1056" data-name="Path 1056" d="M818.341,567.92v2.5l-.4.082c-.133.027-.282.051-.443.074v-2.469C817.785,568.046,818.067,567.984,818.341,567.92Z" transform="translate(-680.637 -473.938)" fill="#ff6584"/>
  <path id="Path_1057" data-name="Path 1057" d="M752.418,595s-4.738,10.849-7.616,11.911-10.052,4.827-10.052,4.827a6.181,6.181,0,0,0,8.413-.354C747.458,607.4,753.658,596.771,752.418,595Z" transform="translate(-612.57 -496.15)" opacity="0.1"/>
  <path id="Path_1058" data-name="Path 1058" d="M861.83,586.77s.443,4.118-.177,4.871S861.83,586.77,861.83,586.77Z" transform="translate(-716.71 -489.429)" opacity="0.1"/>
  <path id="Path_1059" data-name="Path 1059" d="M834.226,602s2.391,25.062-9.476,25.2C824.75,627.2,835.864,616.17,834.226,602Z" transform="translate(-686.535 -501.771)" opacity="0.1"/>
  <path id="Path_1060" data-name="Path 1060" d="M890.313,636s3.41,13.151-1.063,14.657A33.359,33.359,0,0,0,890.313,636Z" transform="translate(-739.558 -529.867)" opacity="0.1"/>
  <path id="Path_1061" data-name="Path 1061" d="M740.479,617c-.221,0-9.21,1.55-7.262,2.79S740.479,617,740.479,617Z" transform="translate(-611.147 -514.287)" opacity="0.1"/>
  <path id="Path_1062" data-name="Path 1062" d="M810.5,516.77s7.35,6.509,5.934,7.218" transform="translate(-674.855 -431.875)" opacity="0.1"/>
  <path id="Path_1063" data-name="Path 1063" d="M807,528.52s4.251,5.225,3.764,5.535" transform="translate(-671.995 -441.539)" opacity="0.1"/>
  <path id="Path_1064" data-name="Path 1064" d="M858.25,524s1.948,2.435,1.638,2.967" transform="translate(-714.101 -437.83)" opacity="0.1"/>
  <path id="Path_1065" data-name="Path 1065" d="M869.25,516.77s2.79,2.166,2.17,3.011" transform="translate(-723.132 -431.886)" opacity="0.1"/>
  <path id="Path_1066" data-name="Path 1066" d="M747.806,367.77s9.077.709,8.679,8.015a10.206,10.206,0,0,1-7.173,9.166l-8.812-2.524S744.441,368.257,747.806,367.77Z" transform="translate(-617.304 -309.363)" fill="#ffc1c7"/>
  <path id="Path_1067" data-name="Path 1067" d="M623.26,550.132c5.576,1.723,15.232,4.685,20.1,6.022a2.575,2.575,0,0,1-2.078.115l-18.376-6.063-.719-.337A9.138,9.138,0,0,1,623.26,550.132Z" transform="translate(-520.118 -459.088)" opacity="0.1"/>
  <path id="Path_1068" data-name="Path 1068" d="M739.846,385.5c-.863,1.151-1.622,2.391-1.594,3.167a18.548,18.548,0,0,1-.847,3.665,61.262,61.262,0,0,1-5.137,12.172c-.569-1.948-1.553-4.235-3.188-5.328-1.357-.905-2.435-2.9-3-5.221a30.724,30.724,0,0,1,1.008-3.427,47.905,47.905,0,0,0,1.24-5.934,26.548,26.548,0,0,1,.5-3.806,16.04,16.04,0,0,1,2.74-6.465,7.651,7.651,0,0,1,2.3-2.171l2.613-.4c3.011-.1,4.463,2.189,5.163,4.7A10.5,10.5,0,0,1,739.846,385.5Z" transform="translate(-605.462 -312.597)" opacity="0.1"/>
  <path id="Path_1069" data-name="Path 1069" d="M570.123,368.182s-4.915,2.524-5.535,12.443a47.9,47.9,0,0,1-1.24,5.934c-.443.886-2.568,9.255-2.3,10.273,0,0-.443,1.018-2.081.576s-10.494-1.816-12.487-3.144l-5.491-2.613s-10.716-7.572-12.974-1.063,10.583,6.247,10.583,6.247l6.066,2.834,18.376,6.063s2.435,1.107,4.074-2.435c.409-.886.847-1.727,1.273-2.492a61.569,61.569,0,0,0,5.28-12.43,17.906,17.906,0,0,0,.847-3.665,6.823,6.823,0,0,1,1.594-3.167,10.439,10.439,0,0,0,1.789-9.051c-.7-2.51-2.159-4.8-5.163-4.7Z" transform="translate(-442.397 -309.326)" fill="#ffc1c7"/>
  <path id="Path_1070" data-name="Path 1070" d="M383.077,282.454c-.652.326-.951,1.332-1.072,2.48h-.345a9.689,9.689,0,0,1-6.46-2.451c.11-1.2.142-2.212.142-2.212S384.848,281.568,383.077,282.454Z" transform="translate(-317.338 -237.453)" opacity="0.1"/>
  <path id="Path_1071" data-name="Path 1071" d="M376.153,204.342a9.742,9.742,0,1,1-9.742-9.742,9.742,9.742,0,0,1,9.742,9.742Z" transform="translate(-302.088 -167.008)" fill="#ffc1c8"/>
  <path id="Path_1072" data-name="Path 1072" d="M366.54,332.652s-5.092,2.037-6.686,2.745-10.716-.93-10.716-.93-4.738-2.391-4.339-4.782-3.808-10.225-3.808-10.225-.133-6.952,1.727-8.28,1.151-4.118,1.151-4.118.009-.092.037-.243a3.345,3.345,0,0,1,1.911-2.591,1.831,1.831,0,0,1,.855-.023,22.208,22.208,0,0,1,5.294,2.094c1.488.753,2.719,1.452,3,1.615l.06.034s.664,1.55,1.461,1.063,4.782,1.771,5.535,2.79.221,5.8.089,7a18.718,18.718,0,0,0,1.727,6.771C364.813,327.6,366.54,332.652,366.54,332.652Z" transform="translate(-289.193 -257.049)" opacity="0.1"/>
  <path id="Path_1073" data-name="Path 1073" d="M366.54,329.652s-5.092,2.037-6.686,2.745-10.716-.93-10.716-.93-4.738-2.391-4.339-4.782-3.808-10.225-3.808-10.225-.133-6.952,1.727-8.28,1.151-4.118,1.151-4.118.009-.092.037-.243a3.345,3.345,0,0,1,1.911-2.591,1.831,1.831,0,0,1,.855-.023,22.209,22.209,0,0,1,5.294,2.094c1.488.753,2.719,1.452,3,1.615l.06.034s.664,1.55,1.461,1.063,4.782,1.771,5.535,2.79.221,5.8.089,7a18.718,18.718,0,0,0,1.727,6.771C364.813,324.6,366.54,329.652,366.54,329.652Z" transform="translate(-289.193 -254.584)" fill="#dce6f2"/>
  <path id="Path_1074" data-name="Path 1074" d="M368.578,423.189s-4.37,7.085-5.078,7.469l.266,2.48s6.229-1.3,6.614-3.041a46.372,46.372,0,0,0,.177-7Z" transform="translate(-307.732 -354.863)" fill="#575988"/>
  <path id="Path_1075" data-name="Path 1075" d="M368.578,423.189s-4.37,7.085-5.078,7.469l.266,2.48s6.229-1.3,6.614-3.041a46.372,46.372,0,0,0,.177-7Z" transform="translate(-307.732 -354.863)" opacity="0.2"/>
  <path id="Path_1076" data-name="Path 1076" d="M426.88,372.64s.774,2.99,1.993,4.008S426.88,372.64,426.88,372.64Z" transform="translate(-359.8 -313.392)" opacity="0.1"/>
  <path id="Path_1077" data-name="Path 1077" d="M384,408.292c.112.2,3.852,5.292,7.793,7.173s12.731,4.1,12.731,4.1,7.129,1.328,8.346,1.837,2.768-1.771-4.871-5.025-9.122-4.694-9.122-4.694-6.642-3.236-7.7-4.83S384,408.292,384,408.292Z" transform="translate(-324.495 -341.112)" fill="#ffc1c8"/>
  <path id="Path_1078" data-name="Path 1078" d="M399.75,545.848c.133-.089,3.321-3.5,3.72-2.037S399.75,545.848,399.75,545.848Z" transform="translate(-337.513 -453.82)" opacity="0.1"/>
  <path id="Path_1079" data-name="Path 1079" d="M402.021,519c-.044.133-.487,3.9-1.771,4.339" transform="translate(-337.93 -433.716)" opacity="0.1"/>
  <path id="Path_1080" data-name="Path 1080" d="M405.613,524.77s-1.151,4.029-2.613,4.292" transform="translate(-340.186 -438.46)" opacity="0.1"/>
  <path id="Path_1081" data-name="Path 1081" d="M384.75,587.446s1.948.044,2.214-1.2" transform="translate(-325.198 -489.012)" opacity="0.1"/>
  <path id="Path_1082" data-name="Path 1082" d="M399.75,638.52c.266.044,4.428,2.7,3.365,3.232S399.75,638.52,399.75,638.52Z" transform="translate(-337.514 -531.978)" opacity="0.1"/>
  <path id="Path_1083" data-name="Path 1083" d="M370.15,765.14v.409c-.021.623-.03,1.04-.03,1.04l-6.77,3.227-.03-4.265v-.057h0v-.289l2.71.087Z" transform="translate(-307.585 -636.016)" opacity="0.1"/>
  <path id="Path_1084" data-name="Path 1084" d="M319.571,733.409l-5.647,2.161-2.535-1.5.027-2.051.058-4.4,2.71.087,4.12-.143v3.084Z" transform="translate(-255.737 -598.084)" fill="#ff748f"/>
  <path id="Path_1085" data-name="Path 1085" d="M370.991,785.848l-5.647,2.161-2.535-1.5.027-2.051a4.1,4.1,0,0,0,3.114,1.612,18.7,18.7,0,0,1,3.2-3.2.738.738,0,0,1,.577-.078v.289Z" transform="translate(-307.162 -650.521)" opacity="0.1"/>
  <path id="Path_1086" data-name="Path 1086" d="M356.7,788.052a4.071,4.071,0,0,1-3.457-2.161,7.122,7.122,0,0,0-1.672,4.927,31.938,31.938,0,0,0,.03,3.457s6.626-.259,7.866.2,11.64-.4,11.64-.4.691-1.815-2.45-2.45-5.733-3.976-5.82-4.12-1.729-3.365-2.938-2.657A18.323,18.323,0,0,0,356.7,788.052Z" transform="translate(-297.893 -652.149)" fill="#5d618c"/>
  <path id="Path_1087" data-name="Path 1087" d="M411.981,188.371l-.661-.09.413-.011Z" transform="translate(-347.025 -161.933)" opacity="0.1"/>
  <path id="Path_1088" data-name="Path 1088" d="M376.131,204.388a9.763,9.763,0,0,1-.26,2.244,1.558,1.558,0,0,1-.42-.177c-.19-.122-.379-.29-.6-.271a.718.718,0,0,0-.354.163c-1.049.767-1.828,2.028-3.1,2.272a2.047,2.047,0,0,0,.05-1.158,2.4,2.4,0,0,1-2.1.673,1.011,1.011,0,0,0,.03-.7,20.322,20.322,0,0,1-2.8,1.3c-.034-.177-.066-.34-.1-.51-1.357.662-1.25,2.91-2.607,3.573-.808.395-1.948.112-2.506.824-.021.028-.041.057-.06.087a9.742,9.742,0,1,1,14.825-8.312Z" transform="translate(-302.066 -167.056)" opacity="0.1"/>
  <path id="Path_1089" data-name="Path 1089" d="M351.078,183.083a9.574,9.574,0,0,0-2.529-.779,3.216,3.216,0,0,0-2.494.657c-.531.468-.948,1.219-1.656,1.24a2.132,2.132,0,0,1-.974-.312,2.824,2.824,0,0,0-2.791-.1,2.9,2.9,0,0,0-.981,2.055,6.572,6.572,0,0,1-.5,2.276,10.088,10.088,0,0,1-.863,1.16,5.012,5.012,0,0,0-.964,3.426,9.943,9.943,0,0,0,.386,1.78l.723,2.552a15.075,15.075,0,0,0,1.438,3.764,5.1,5.1,0,0,0,3.082,2.442,2.061,2.061,0,0,0,2.189-.646c.113-.177.186-.367.31-.531.549-.708,1.7-.427,2.506-.822,1.357-.662,1.25-2.91,2.607-3.573l.1.508a20.61,20.61,0,0,0,2.795-1.3,1.022,1.022,0,0,1-.028.7,2.4,2.4,0,0,0,2.1-.673,2.048,2.048,0,0,1-.05,1.158c1.275-.246,2.055-1.507,3.1-2.274a.731.731,0,0,1,.354-.161c.225-.02.413.149.6.269a1.7,1.7,0,0,0,2.1-.267,2.618,2.618,0,0,0,.4-2.342,19.631,19.631,0,0,1-.608-2.391c-.112-1.118.278-2.285-.08-3.348a3.7,3.7,0,0,0-1.948-1.984c-.852-.429-1.771-.678-2.641-1.063-.825-.37-1.594-.866-2.451-1.158a11.106,11.106,0,0,0-3.9-.354" transform="translate(-286.174 -156.877)" fill="#794f6a"/>
  <path id="Path_1090" data-name="Path 1090" d="M337.826,330.915s1.417-9.534-10.716-9.063l-6.111.813s5.829,1.049,7.232,1.2l.149.021C329.679,324.126,334.167,323.83,337.826,330.915Z" transform="translate(-272.803 -271.616)" fill="tomato"/>
  <path id="Path_1091" data-name="Path 1091" d="M372.25,578.507v-.11C377.225,574.095,372.25,578.507,372.25,578.507Z" transform="translate(-314.931 -481.005)" opacity="0.1"/>
  <path id="Path_1092" data-name="Path 1092" d="M232.618,482.365a12.009,12.009,0,0,1-2.143,0l-14.9-21.694a2.622,2.622,0,0,1,1.56-1.4Z" transform="translate(-186.499 -384.561)" fill="#575988"/>
  <path id="Path_1093" data-name="Path 1093" d="M223.627,392.048l-.708.841s-5.374-8.927-6.529-13.461a1.066,1.066,0,0,1,.551-.625s.56-.413,1.461-1.063A46.3,46.3,0,0,0,223.627,392.048Z" transform="translate(-187.174 -317.563)" fill="#575988"/>
  <path id="Path_1094" data-name="Path 1094" d="M253.569,372.849l-1.417.8c-3.868-4.527-4.2-12.133-4.162-15.163l1.02-.733C249.148,361.73,253.569,372.849,253.569,372.849Z" transform="translate(-212.865 -301.129)" fill="#575988"/>
  <path id="Path_1095" data-name="Path 1095" d="M297.766,438.52c-.044.576-1.683,6.421.708,7.395S297.766,438.52,297.766,438.52Z" transform="translate(-253.271 -367.545)" opacity="0.1"/>
  <path id="Path_1096" data-name="Path 1096" d="M329.5,482.721c.089.31.886,10.406,2.613,9.609s.8-12.31.8-12.31Z" transform="translate(-279.816 -401.65)" opacity="0.1"/>
  <path id="Path_1097" data-name="Path 1097" d="M696.07,218.967a11.056,11.056,0,0,1-3.1,7.687,6.468,6.468,0,0,1-2.462.043,2.451,2.451,0,0,1-1.151-.462,3,3,0,0,1-.746-1.079c-.646-1.39-.978-3-1.885-4.187s-2.747-1.713-3.622-.492c-.476.662-.556,1.681-1.192,2.14-.763.553-1.771-.1-2.365-.886-1.753-2.3-1.153-6.83-4.5-7.466l-.135-.023a11.1,11.1,0,0,1,21.15,4.726Z" transform="translate(-563.418 -177.904)" opacity="0.1"/>
  <path id="Path_1098" data-name="Path 1098" d="M667.218,200.3c-.542-.1-1.171-.09-1.534-.558a2.146,2.146,0,0,1-.328-1.022,8.759,8.759,0,0,1,.289-4.676c1.025-2.333,3.664-3.112,5.958-2.938s4.545,1.029,6.839.886c1.686-.11,3.349-.762,5.03-.576a10.235,10.235,0,0,1,3.766,1.484,9.006,9.006,0,0,1,3.057,2.4c1.166,1.6,1.385,3.817,1.417,5.895a16.024,16.024,0,0,1-1.157,7.118,7.56,7.56,0,0,1-7.88,4.412,2.451,2.451,0,0,1-1.151-.462,3.01,3.01,0,0,1-.744-1.079c-.648-1.392-.979-3-1.886-4.189s-2.747-1.711-3.622-.491c-.477.661-.556,1.681-1.192,2.14-.763.551-1.771-.1-2.365-.886C669.962,205.454,670.562,200.93,667.218,200.3Z" transform="translate(-555.387 -164.111)" fill="#945b79"/>
  <path id="Path_1099" data-name="Path 1099" d="M801.425,210.606a11.381,11.381,0,0,1,3.959,3.886,8.506,8.506,0,0,1,1.984,4.146,16.591,16.591,0,0,0,.074,1.9c.423,2.2,3.188,3.188,4,5.285a6.147,6.147,0,0,1,.092,3.133,42.267,42.267,0,0,1-.955,4.486,5.974,5.974,0,0,0-.328,2.706,8.306,8.306,0,0,0,.843,1.948,14,14,0,0,1,1.015,5.57,21.084,21.084,0,0,0,.629,5.648,6.089,6.089,0,0,0,3.631,4.115,4.267,4.267,0,0,1-2.044.726,1.706,1.706,0,0,0,.708,1.573,5.164,5.164,0,0,0,1.633.756,3.082,3.082,0,0,1-2.714.418,6.082,6.082,0,0,1-1.985-1.3l-3.4-2.921a9.586,9.586,0,0,1-1.252-1.219c-2.2-2.729-.885-6.865-2.111-10.144-1-2.666-3.684-4.83-3.438-7.666a10,10,0,0,1,.627-2.3,19.6,19.6,0,0,0-2.063-16.617,3.932,3.932,0,0,0-1.484-1.518c-.983-.469-2.388-.267-2.946-1.2a4.675,4.675,0,0,1-.381-1.918A9.8,9.8,0,0,1,801.425,210.606Z" transform="translate(-662.45 -179.515)" fill="#945b79"/>
  <path id="Path_1100" data-name="Path 1100" d="M341.154,357.854a6.447,6.447,0,0,1,11.254-3.252,14.144,14.144,0,0,1,2.5,3.854c1.771,4.472,1.9,4.871,1.9,4.871s-10.937,2.125-10.849,3.72L341,359.12S341.037,358.624,341.154,357.854Z" transform="translate(-289.23 -296.703)" opacity="0.1"/>
  <path id="Path_1101" data-name="Path 1101" d="M341.154,354.854a6.447,6.447,0,0,1,11.254-3.252,14.143,14.143,0,0,1,2.5,3.854c1.771,4.472,1.9,4.871,1.9,4.871s-10.937,2.125-10.849,3.72L341,356.12S341.037,355.625,341.154,354.854Z" transform="translate(-289.23 -294.237)" fill="#dce6f2"/>
  <path id="Path_1102" data-name="Path 1102" d="M359.25,340.89c.133.221,5.358,6.6,8.1,7.506S359.25,340.89,359.25,340.89Z" transform="translate(-304.238 -287.284)" opacity="0.1"/>
  <path id="Path_1103" data-name="Path 1103" d="M232.5,457.27s13.815,16.3,15.587,22.893" transform="translate(-200.129 -382.918)" opacity="0.1"/>
  <path id="Path_1104" data-name="Path 1104" d="M235.5,372.27s3.011,15.587,8.856,22.14,11.867,17.712,11.867,17.712" transform="translate(-202.584 -313.001)" fill="none" stroke="#000" stroke-miterlimit="10" stroke-width="2" opacity="0.1"/>
  <g id="Group_143" data-name="Group 143" transform="translate(51.046 30.848)" opacity="0.1">
    <path id="Path_1105" data-name="Path 1105" d="M445.981,244.24a2.111,2.111,0,0,1-.5,1.417,1.7,1.7,0,0,1-2.1.267c-.19-.12-.377-.289-.6-.269a.731.731,0,0,0-.354.161c-1,.73-1.752,1.906-2.923,2.23a2.046,2.046,0,0,1-.092.93c1.275-.246,2.055-1.507,3.1-2.274a.731.731,0,0,1,.354-.161c.225-.019.413.149.6.269a1.7,1.7,0,0,0,2.1-.267A2.615,2.615,0,0,0,445.981,244.24Z" transform="translate(-421.238 -238.693)"/>
    <path id="Path_1106" data-name="Path 1106" d="M472.421,215.145c.014.145.039.289.067.432a11.2,11.2,0,0,0,0-2.657C472.492,213.643,472.347,214.408,472.421,215.145Z" transform="translate(-448.384 -212.92)"/>
    <path id="Path_1107" data-name="Path 1107" d="M354.947,242.185a2.4,2.4,0,0,1-2.1.673,1.022,1.022,0,0,0,.028-.7,20.606,20.606,0,0,1-2.795,1.3l-.1-.508c-1.357.662-1.25,2.91-2.607,3.572-.808.4-1.948.11-2.506.822-.124.161-.2.354-.31.531a2.058,2.058,0,0,1-2.189.646,5.086,5.086,0,0,1-3.082-2.443,15.143,15.143,0,0,1-1.438-3.764l-.723-2.552c-.119-.425-.239-.85-.317-1.284a2.6,2.6,0,0,0,.019.39,9.944,9.944,0,0,0,.386,1.78l.723,2.552a15.074,15.074,0,0,0,1.438,3.764,5.1,5.1,0,0,0,3.082,2.442,2.061,2.061,0,0,0,2.189-.646c.113-.177.186-.367.31-.531.549-.708,1.7-.427,2.506-.822,1.357-.662,1.25-2.91,2.607-3.572l.1.508a20.605,20.605,0,0,0,2.79-1.3,1.022,1.022,0,0,1-.028.7,2.4,2.4,0,0,0,2.016-.6A2.045,2.045,0,0,0,354.947,242.185Z" transform="translate(-336.81 -233.953)"/>
  </g>
  <path id="Path_1108" data-name="Path 1108" d="M368.554,307.914c-.953.549-3.167,1.771-3.615,1.562-.478-.221-5.7-2.048-7.439-2.657a3.345,3.345,0,0,1,1.911-2.591,1.831,1.831,0,0,1,.855-.023l5.292,2.094C367.041,307.051,368.272,307.751,368.554,307.914Z" transform="translate(-302.794 -257.096)" opacity="0.1"/>
  <path id="Path_1109" data-name="Path 1109" d="M368.554,304.914c-.953.549-3.167,1.771-3.615,1.562-.478-.221-5.7-2.048-7.439-2.657a3.345,3.345,0,0,1,1.911-2.591,1.83,1.83,0,0,1,.855-.023l5.292,2.094C367.041,304.051,368.272,304.751,368.554,304.914Z" transform="translate(-302.794 -254.63)" fill="#dce6f2"/>
  <path id="Path_1110" data-name="Path 1110" d="M691.792,223.013a14.18,14.18,0,0,1-1.153,5.737,7.56,7.56,0,0,1-7.88,4.412,2.451,2.451,0,0,1-1.151-.462,3.01,3.01,0,0,1-.744-1.079c-.648-1.392-.979-3-1.886-4.189s-2.747-1.711-3.622-.491c-.477.661-.556,1.681-1.192,2.14-.763.551-1.771-.1-2.365-.886-1.753-2.3-1.153-6.832-4.5-7.466-.542-.1-1.171-.09-1.534-.558a2.146,2.146,0,0,1-.328-1.022c-.06-.427-.112-.863-.142-1.3a12.906,12.906,0,0,0,.142,2.894,2.146,2.146,0,0,0,.328,1.022c.363.468.992.453,1.534.558,3.344.634,2.744,5.158,4.5,7.466.592.778,1.594,1.428,2.365.886.636-.459.708-1.479,1.192-2.14.875-1.22,2.715-.7,3.622.491s1.24,2.8,1.886,4.189a3.011,3.011,0,0,0,.744,1.079,2.452,2.452,0,0,0,1.151.462,7.56,7.56,0,0,0,7.88-4.412,16.022,16.022,0,0,0,1.157-7.118C691.792,223.148,691.792,223.077,691.792,223.013Z" transform="translate(-555.462 -186.123)" opacity="0.1"/>
  <g id="Group_144" data-name="Group 144" transform="translate(133.296 32.238)" opacity="0.1">
    <path id="Path_1111" data-name="Path 1111" d="M874.582,289.956a6.147,6.147,0,0,1,.092,3.133,42.266,42.266,0,0,1-.955,4.483,5.973,5.973,0,0,0-.328,2.706,8.308,8.308,0,0,0,.843,1.948,14,14,0,0,1,1.015,5.57,21.075,21.075,0,0,0,.629,5.648,6.975,6.975,0,0,0,2.033,3.206,7.474,7.474,0,0,1-1.148-2.253,21.008,21.008,0,0,1-.629-5.648,13.954,13.954,0,0,0-1.015-5.569,8.58,8.58,0,0,1-.843-1.948,6.055,6.055,0,0,1,.328-2.708,42.253,42.253,0,0,0,.955-4.5,6.156,6.156,0,0,0-.092-3.135,5.774,5.774,0,0,0-1.518-2.025A4.135,4.135,0,0,1,874.582,289.956Z" transform="translate(-859.775 -276.757)"/>
    <path id="Path_1112" data-name="Path 1112" d="M899.506,453.057a4.627,4.627,0,0,1-1.318-.687,4.283,4.283,0,0,1-1.612.468,1.706,1.706,0,0,0,.708,1.573,2.452,2.452,0,0,0,.3.207,1.418,1.418,0,0,1-.119-.834,4.3,4.3,0,0,0,2.039-.726Z" transform="translate(-878.885 -411.298)"/>
    <path id="Path_1113" data-name="Path 1113" d="M799,221.084c-.675-.322-1.548-.329-2.21-.6a1.812,1.812,0,0,0,.15.354c.558.935,1.962.733,2.946,1.2a2.412,2.412,0,0,1,.354.218,3.409,3.409,0,0,0-1.24-1.173Z" transform="translate(-796.79 -220.48)"/>
    <path id="Path_1114" data-name="Path 1114" d="M869.469,448.91a3.077,3.077,0,0,1-2.141.1,6.08,6.08,0,0,1-1.985-1.3l-3.4-2.921c-.161-.138-.321-.278-.477-.42.035.048.071.1.11.145a9.48,9.48,0,0,0,1.252,1.219l3.4,2.922a6.11,6.11,0,0,0,1.986,1.3,3.082,3.082,0,0,0,2.713-.42A5.742,5.742,0,0,1,869.469,448.91Z" transform="translate(-850.014 -404.715)"/>
    <path id="Path_1115" data-name="Path 1115" d="M840.211,223.191a8.506,8.506,0,0,1,1.984,4.146,16.564,16.564,0,0,0,.074,1.9,4.735,4.735,0,0,0,1.621,2.46,3.5,3.5,0,0,1-.735-1.514,16.583,16.583,0,0,1-.074-1.9,8.447,8.447,0,0,0-1.984-4.145,18.947,18.947,0,0,0-2.177-2.627C839.375,222.048,839.8,222.622,840.211,223.191Z" transform="translate(-831.458 -221.328)"/>
  </g>
  <path id="Path_1116" data-name="Path 1116" d="M801.495,210.27s-1.063,1.771,1.948,3.247l.177-.473Z" transform="translate(-667.333 -179.906)" opacity="0.1"/>
  <path id="Path_1117" data-name="Path 1117" d="M800.495,210.27s-1.063,1.771,1.948,3.247l.177-.473Z" transform="translate(-666.511 -179.906)" fill="#ff6584"/>
  <path id="Path_1118" data-name="Path 1118" d="M1025.605,776.26s.974,1.273-.448,3.188-2.595,3.542-2.126,4.742c0,0,2.147-3.569,3.9-3.619S1027.527,778.407,1025.605,776.26Z" transform="translate(-849.176 -645.166)" fill="tomato"/>
  <path id="Path_1119" data-name="Path 1119" d="M1025.871,776.26a1.6,1.6,0,0,1,.2.4c1.7,2,2.611,3.872.973,3.918-1.525.044-3.355,2.772-3.794,3.461.014.053.032.1.052.158,0,0,2.147-3.569,3.9-3.619S1027.793,778.407,1025.871,776.26Z" transform="translate(-849.442 -645.166)" opacity="0.1"/>
  <path id="Path_1120" data-name="Path 1120" d="M1047.225,784.072c0,.448-.051.811-.113.811s-.111-.354-.111-.811.062-.237.124-.237S1047.225,783.624,1047.225,784.072Z" transform="translate(-868.986 -651.356)" fill="#ffd037"/>
  <path id="Path_1121" data-name="Path 1121" d="M1048.206,787.009c-.393.214-.737.344-.765.289s.264-.273.657-.487.239-.058.269,0S1048.6,786.795,1048.206,787.009Z" transform="translate(-869.347 -653.758)" fill="#ffd037"/>
  <path id="Path_1122" data-name="Path 1122" d="M998.849,776.26s-.974,1.273.448,3.188,2.595,3.542,2.125,4.742c0,0-2.145-3.569-3.9-3.619S996.934,778.407,998.849,776.26Z" transform="translate(-827.565 -645.166)" fill="tomato"/>
  <path id="Path_1123" data-name="Path 1123" d="M998.831,776.26a1.606,1.606,0,0,0-.2.4c-1.7,2-2.611,3.872-.972,3.918,1.525.044,3.355,2.772,3.794,3.461a1.4,1.4,0,0,1-.053.158s-2.145-3.569-3.9-3.619S996.916,778.407,998.831,776.26Z" transform="translate(-827.547 -645.166)" opacity="0.1"/>
  <path id="Path_1124" data-name="Path 1124" d="M998.82,784.072c0,.448.051.811.113.811s.112-.354.112-.811-.062-.237-.124-.237S998.82,783.624,998.82,784.072Z" transform="translate(-829.34 -651.356)" fill="#ffd037"/>
  <path id="Path_1125" data-name="Path 1125" d="M994.206,787.009c.393.214.735.344.765.289s-.264-.273-.657-.487-.239-.058-.269,0S993.813,786.795,994.206,787.009Z" transform="translate(-825.346 -653.758)" fill="#ffd037"/>
  <path id="Path_1126" data-name="Path 1126" d="M1000.57,813.276s2.721-.085,3.542-.668,4.185-1.282,4.389-.354,4.088,4.657,1.017,4.681-7.136-.478-7.954-.976S1000.57,813.276,1000.57,813.276Z" transform="translate(-830.78 -674.414)" fill="#a8a8a8"/>
  <path id="Path_1127" data-name="Path 1127" d="M1009.571,823.456c-3.071.025-7.136-.478-7.954-.976-.623-.381-.871-1.743-.955-2.37h-.092s.177,2.195.992,2.694,4.883,1,7.954.976c.886,0,1.192-.322,1.176-.79C1010.565,823.279,1010.23,823.456,1009.571,823.456Z" transform="translate(-830.78 -681.25)" opacity="0.2"/>
  <path id="Path_1128" data-name="Path 1128" d="M283.492,787.242a2.069,2.069,0,0,0,.68-1.024.915.915,0,0,0-.475-1.045c-.436-.167-.9.136-1.254.441a1.674,1.674,0,0,1-1.22.588,1.854,1.854,0,0,0,.574-1.738.73.73,0,0,0-.159-.354c-.241-.259-.68-.147-.971.057a3.606,3.606,0,0,0-1.181,3.023,5.58,5.58,0,0,1-.018-1.24,1.275,1.275,0,0,0-.468-1.1,1.415,1.415,0,0,0-.709-.177,1.475,1.475,0,0,0-1.158.329,1.139,1.139,0,0,0,.046,1.417,4.593,4.593,0,0,0,1.2.96,2.658,2.658,0,0,1,.857.817.858.858,0,0,1,.064.147h2.584A7.22,7.22,0,0,0,283.492,787.242Z" transform="translate(-236.612 -651.503)" fill="tomato"/>
  <path id="Path_1129" data-name="Path 1129" d="M193.126,692.952s-2.48-8.449.466-14.669a13.357,13.357,0,0,0,1.08-8.372,22.544,22.544,0,0,0-1.187-3.93" transform="translate(-167.227 -554.419)" fill="none" stroke="#535461" stroke-miterlimit="10" stroke-width="2"/>
  <path id="Path_1130" data-name="Path 1130" d="M192.651,635.076c0,1.034-1.876,4.038-1.876,4.038s-1.876-3.011-1.876-4.038a1.876,1.876,0,0,1,3.751,0Z" transform="translate(-164.553 -527.596)" fill="tomato"/>
  <path id="Path_1131" data-name="Path 1131" d="M210.069,662.723c-.563.87-3.769,2.372-3.769,2.372s.057-3.542.62-4.408a1.875,1.875,0,1,1,3.15,2.037Z" transform="translate(-178.871 -549.49)" fill="tomato"/>
  <path id="Path_1132" data-name="Path 1132" d="M206.131,715.024c-.925.466-4.451.143-4.451.143s1.839-3.025,2.763-3.493a1.875,1.875,0,1,1,1.688,3.35Z" transform="translate(-175.07 -591.855)" fill="tomato"/>
  <path id="Path_1133" data-name="Path 1133" d="M196.532,757.238c-.832.616-4.362.886-4.362.886s1.3-3.293,2.125-3.909a1.876,1.876,0,1,1,2.23,3.011Z" transform="translate(-167.244 -626.676)" fill="tomato"/>
  <path id="Path_1134" data-name="Path 1134" d="M181.248,675.57c.742.723,4.2,1.47,4.2,1.47s-.848-3.438-1.594-4.161a1.876,1.876,0,1,0-2.613,2.69Z" transform="translate(-157.757 -559.757)" fill="tomato"/>
  <path id="Path_1135" data-name="Path 1135" d="M168.21,723.173c.925.466,4.451.145,4.451.145s-1.837-3.027-2.763-3.493a1.875,1.875,0,1,0-1.688,3.348Z" transform="translate(-146.68 -598.562)" fill="tomato"/>
  <path id="Path_1136" data-name="Path 1136" d="M165.583,773.22c.832.615,4.362.886,4.362.886s-1.3-3.294-2.125-3.911a1.876,1.876,0,0,0-2.23,3.011Z" transform="translate(-144.807 -639.916)" fill="tomato"/>
  <path id="Path_1137" data-name="Path 1137" d="M192.651,635.076c0,1.034-1.876,4.038-1.876,4.038s-1.876-3.011-1.876-4.038a1.876,1.876,0,0,1,3.751,0Z" transform="translate(-164.553 -527.596)" fill="tomato"/>
  <path id="Path_1138" data-name="Path 1138" d="M210.069,662.723c-.563.87-3.769,2.372-3.769,2.372s.057-3.542.62-4.408a1.875,1.875,0,1,1,3.15,2.037Z" transform="translate(-178.871 -549.49)" fill="tomato"/>
  <path id="Path_1139" data-name="Path 1139" d="M206.131,715.024c-.925.466-4.451.143-4.451.143s1.839-3.025,2.763-3.493a1.875,1.875,0,1,1,1.688,3.35Z" transform="translate(-175.07 -591.855)" fill="tomato"/>
  <path id="Path_1140" data-name="Path 1140" d="M196.532,757.238c-.832.616-4.362.886-4.362.886s1.3-3.293,2.125-3.909a1.876,1.876,0,1,1,2.23,3.011Z" transform="translate(-167.244 -626.676)" fill="tomato"/>
  <path id="Path_1141" data-name="Path 1141" d="M181.248,675.57c.742.723,4.2,1.47,4.2,1.47s-.848-3.438-1.594-4.161a1.876,1.876,0,1,0-2.613,2.69Z" transform="translate(-157.757 -559.757)" fill="tomato"/>
  <path id="Path_1142" data-name="Path 1142" d="M168.21,723.173c.925.466,4.451.145,4.451.145s-1.837-3.027-2.763-3.493a1.875,1.875,0,1,0-1.688,3.348Z" transform="translate(-146.68 -598.562)" fill="tomato"/>
  <path id="Path_1143" data-name="Path 1143" d="M165.583,773.22c.832.615,4.362.886,4.362.886s-1.3-3.294-2.125-3.911a1.876,1.876,0,0,0-2.23,3.011Z" transform="translate(-144.807 -639.916)" fill="tomato"/>
  <path id="Path_1144" data-name="Path 1144" d="M164.45,801.524s3.031-.6,3.838-1.4,4.446-2.207,4.85-1.2,5.455,4.414,2.021,5.016-8.082.8-9.093.4S164.45,801.524,164.45,801.524Z" transform="translate(-144.434 -663.523)" fill="#a8a8a8"/>
  <path id="Path_1145" data-name="Path 1145" d="M175.159,817.195c-3.436.6-8.082.8-9.093.4-.769-.306-1.3-1.771-1.514-2.457l-.1.021s.606,2.407,1.615,2.807,5.657.2,9.093-.4c.99-.177,1.273-.583,1.167-1.1C176.237,816.807,175.9,817.064,175.159,817.195Z" transform="translate(-144.434 -677.16)" opacity="0.2"/>
</svg>
