<svg xmlns="http://www.w3.org/2000/svg" width="322.518" height="227.117" viewBox="0 0 322.518 227.117">
  <g id="Group_629" data-name="Group 629" transform="translate(-999.322 -2460)">
    <rect id="Rectangle_720" data-name="Rectangle 720" width="322.518" height="227.117" rx="29.884" transform="translate(999.322 2460)" fill="#0066b2"/>
    <g id="Group_622" data-name="Group 622" transform="translate(351.707 1823.559)">
      <g id="Group_621" data-name="Group 621">
        <path id="Path_2150" data-name="Path 2150" d="M795.182,785.579h-16.8l10.5-64.523h16.8Z" fill="#fff"/>
        <path id="Path_2151" data-name="Path 2151" d="M764.252,721.057l-16.016,44.378-1.894-9.557v0l-5.653-29.014s-.682-5.811-7.969-5.811H706.248l-.31,1.092a62.728,62.728,0,0,1,17.571,7.377L738.1,785.579h17.5l26.727-64.522Z" fill="#fff"/>
        <path id="Path_2152" data-name="Path 2152" d="M896.38,785.579H911.8l-13.448-64.522H884.85c-6.236,0-7.755,4.808-7.755,4.808l-25.051,59.714h17.509l3.5-9.583H894.41ZM877.9,762.755l8.827-24.146,4.965,24.146Z" fill="#fff"/>
        <path id="Path_2153" data-name="Path 2153" d="M853.357,736.573l2.4-13.858a48.5,48.5,0,0,0-15.109-2.813c-8.336,0-28.132,3.646-28.132,21.36,0,16.671,23.234,16.878,23.234,25.631s-20.839,7.188-27.715,1.667l-2.5,14.485s7.5,3.645,18.963,3.645,28.758-5.938,28.758-22.09c0-16.775-23.444-18.337-23.444-25.63S846.169,732.612,853.357,736.573Z" fill="#fff"/>
      </g>
      <path id="Path_2154" data-name="Path 2154" d="M746.343,755.882l-5.653-29.014s-.682-5.811-7.969-5.811H706.248l-.31,1.092a65.1,65.1,0,0,1,24.933,12.518A50.31,50.31,0,0,1,746.343,755.882Z" fill="#f9a533"/>
    </g>
  </g>
</svg>
